<svg xmlns="http://www.w3.org/2000/svg" viewBox="0 0 513.64 430.05"><defs><style>.cls-1{fill:#15bff0;}</style></defs><title>Asset 2</title><g id="Layer_2" data-name="Layer 2"><g id="Layer_1-2" data-name="Layer 1"><rect class="cls-1" x="46.01" y="330.63" width="65.03" height="65.03" rx="11"/><rect class="cls-1" y="392.23" width="37.82" height="37.82" rx="6.4"/><rect class="cls-1" x="402.59" y="34.39" width="65.03" height="65.03" rx="11"/><rect class="cls-1" x="475.82" width="37.82" height="37.82" rx="6.4"/><path class="cls-1" d="M398.59,368.56c-14.06,12.76-42.2,31.07-93.86,33.67l-189.25,1.18v-.58A13.57,13.57,0,0,0,126,389.6V336.48a13.57,13.57,0,0,0-10.55-13.23v-.55H296.94a55.51,55.51,0,0,0,33.71-11.12c6.1-4.66,11.67-11,14.17-19.32,2.2-7.34,1.61-14.87,1.38-17.71-.92-11.63-5.14-19.82-9.48-28-6.5-12.26-13.71-20.19-20.94-28.13a139.18,139.18,0,0,0-16-15.28,128.11,128.11,0,0,0-13.92-9.63c-16.7-10-29.35-16.44-30.31-16.69-.42-.11.38-.7.65-.89,6.12-4.28,39.44-13.16,74.91-12.23,14.75.38,35.38,4.35,56.87,18.34,28.36,18.47,51.74,52.76,52.88,93.86C442.28,329,405.86,362,398.59,368.56Z"/><path class="cls-1" d="M388.64,40.05v53.2a13.57,13.57,0,0,0,10.88,13.32v.32l-200.8.31A55.4,55.4,0,0,0,165,118.32c-6.1,4.65-11.68,11-14.18,19.32-.12.37-.31,1-.51,1.84a46.29,46.29,0,0,0-.86,15.87c1.26,9.28,10.43,24.94,26.25,32.45,4.4,2.08,8.25,3.44,25.76,6.87,8,1.57,14.37,4,18.63,5.19,15.55,5.06,27.88,10.52,35.86,15.8,25.68,17,38.43,28.53,53.55,52.15.21.35-.28.51-.28.51-.18,0-.38-.36-.84-.31-10.37,1.1-123.07,1.3-131.16,1.09-14.73-.39-48-7.28-69.51-21.27C79.37,229.37,56,195.07,54.84,154,53.35,101,89.77,68,97,61.34c14.07-12.76,37.13-32.25,88.77-34.86H399.52v.28A13.57,13.57,0,0,0,388.64,40.05Z"/></g></g></svg>