<svg xmlns="http://www.w3.org/2000/svg" xmlns:xlink="http://www.w3.org/1999/xlink" viewBox="0 0 500 500"><defs><clipPath id="freepik--clip-path--inject-2"><path d="M156.25,170.76l15.41,23L202,190.91v6.16s-28.69,9.73-32.25,10.67-21.1-11.14-21.1-11.14S146.53,179.29,156.25,170.76Z" style="fill:#fff"></path></clipPath><clipPath id="freepik--clip-path-2--inject-2"><path d="M143,156.06l-6.64,3.31c-1.42.72-30.59,9-31.77,10.67s-11.38,38.18-11.38,38.18l6.64,1.9L114,183.8s35.57-7.59,37.7-8.3,4.74-3.8,5.22-6.64" style="fill:#fff"></path></clipPath><clipPath id="freepik--clip-path-3--inject-2"><path d="M113.44,224.37l.75,42.25L89.44,312.37l4.5,3s35.25-38.25,36.5-41.75,8.5-35,8.5-35,2.5-10.25-1.75-15.75S118.69,213.12,113.44,224.37Z" style="fill:#263238"></path></clipPath><clipPath id="freepik--clip-path-4--inject-2"><path d="M115.69,206.12s-.16.46-.4,1.25c-1.17,3.71-4.38,14.63-3.35,18.75,1.25,5,11.94,15.88,17.75,21.7,5.45,5.45,22.75,13.55,22.75,13.55s-7.5,20-9.25,24.75-8,21.5-8,21.5l5,3s20.75-28.75,25-34.5,9.27-14.15,7.75-16.75c-13.61-23.17-29.75-35.75-29.75-35.75l1.75-6.75Z" style="fill:#263238"></path></clipPath><clipPath id="freepik--clip-path-5--inject-2"><path d="M147.25,150.3a25.9,25.9,0,0,0-12.66,6.25c-5.3,5.13-8.82,12.35-9.14,15.72s-4.87,19.58-6.58,22.93-5.63,9.07-3.05,12.34c1.3,1.64,27.26,10.26,29.83,10.26s3.37-2.4,3.69-3.84,3.52-14.6,6.09-19.41,8.34-8,9-19.24a32.66,32.66,0,0,0-4.65-18.92S152.22,150.14,147.25,150.3Z" style="fill:#fff"></path></clipPath><clipPath id="freepik--clip-path-6--inject-2"><path d="M167.14,120.63s4,4.65,4,5.46.16,1.92.16,2.4,5.62,3,5.62,4-3.69,3.21-3.69,3.21v9c0,1.76-1,2.24-2.73,2.88s-5.93-.16-5.93-.16l-4.81,9-10.74-8,3-6.57-1-1.92s-5.29-3-4.17-8,5.29-5.61,6.58-7.54,3.36-6.25,5.29-6.89S167.14,120.63,167.14,120.63Z" style="fill:#fff"></path></clipPath><clipPath id="freepik--clip-path-7--inject-2"><path d="M169.35,208.29c-4.47,0-19.24-10.08-21-11.28a.51.51,0,0,1-.22-.35c-.08-.72-2-17.67,7.76-26.28a.49.49,0,0,1,.74.1l15.25,22.75L202,190.41a.52.52,0,0,1,.39.13.51.51,0,0,1,.16.37v6.16a.51.51,0,0,1-.34.48c-1.17.4-28.75,9.74-32.28,10.68A2.23,2.23,0,0,1,169.35,208.29Zm-20.22-12c7,4.8,18.08,11.58,20.5,10.94,3.29-.88,28.63-9.45,31.88-10.54v-5.26l-29.8,2.79a.49.49,0,0,1-.47-.22l-15.09-22.51C147.79,179.38,148.94,194.33,149.13,196.32Z" style="fill:#263238;clip-path:url(#freepik--clip-path--inject-2)"></path></clipPath><clipPath id="freepik--clip-path-8--inject-2"><path d="M93.94,315.87a.57.57,0,0,1-.28-.08l-4.5-3a.52.52,0,0,1-.16-.66l24.69-45.63-.75-42.12a.54.54,0,0,1,0-.22,12,12,0,0,1,9.93-7.27c5.93-.66,12.12,2.37,14.67,5.67,4.35,5.63,1.95,15.75,1.84,16.18-.29,1.28-7.27,31.56-8.51,35.05s-35.16,40.35-36.6,41.92A.5.5,0,0,1,93.94,315.87Zm-3.85-3.66,3.77,2.51c10-10.85,35.12-38.5,36.11-41.27,1.22-3.43,8.41-34.63,8.48-34.94,0-.11,2.39-10.09-1.66-15.33-2.33-3-8.26-5.91-13.77-5.3a11,11,0,0,0-9.08,6.6l.75,42.13a.54.54,0,0,1-.06.25Z" style="fill:#263238;clip-path:url(#freepik--clip-path-3--inject-2)"></path></clipPath><clipPath id="freepik--clip-path-9--inject-2"><path d="M140.19,311.12a.48.48,0,0,1-.26-.07l-5-3a.49.49,0,0,1-.21-.6s6.25-16.75,8-21.5c1.59-4.31,8-21.38,9.09-24.32-2.74-1.3-17.43-8.42-22.47-13.46-7.7-7.7-16.69-17.15-17.89-21.93-1-4.17,2-14.69,3.36-19l.4-1.26a.53.53,0,0,1,.26-.29.48.48,0,0,1,.39,0l29.25,10.75a.5.5,0,0,1,.31.6l-1.67,6.43a139.74,139.74,0,0,1,29.62,35.69c2.11,3.59-6.11,15-7.78,17.3-4.2,5.68-24.79,34.21-25,34.49A.48.48,0,0,1,140.19,311.12Zm-4.39-3.71,4.25,2.55c2.45-3.4,20.8-28.81,24.74-34.14,4.77-6.45,9-14.09,7.72-16.2C159.1,236.8,143,224.14,142.88,224a.49.49,0,0,1-.18-.52l1.64-6.31L116,206.77q-.09.3-.24.75c-1,3.32-4.35,14.44-3.34,18.48,1.28,5.12,13.16,17,17.62,21.46,5.33,5.33,22.44,13.38,22.61,13.46a.5.5,0,0,1,.26.63c-.08.2-7.52,20.05-9.25,24.74C142.06,290.61,136.75,304.86,135.8,307.41Z" style="fill:#263238;clip-path:url(#freepik--clip-path-4--inject-2)"></path></clipPath><clipPath id="freepik--clip-path-10--inject-2"><path d="M145.65,218.3c-2.52,0-28.73-8.56-30.22-10.45-2.41-3.06.23-7.83,2.15-11.32.32-.57.61-1.09.85-1.56,1.68-3.29,6.21-19.51,6.52-22.75.35-3.74,4.17-11.07,9.29-16a26.2,26.2,0,0,1,12.94-6.39h.06c5.11-.18,12.53,5.95,12.84,6.21a.43.43,0,0,1,.09.1,32.85,32.85,0,0,1,4.74,19.23c-.47,8.24-3.74,12.34-6.36,15.64a26.5,26.5,0,0,0-2.68,3.81c-2.46,4.62-5.57,17.16-6,19.27C149.2,216.88,147.79,218.3,145.65,218.3Zm1.65-67.5c-.5.08-7.42,1.31-12.37,6.11-5.4,5.24-8.69,12.32-9,15.4-.32,3.4-4.85,19.66-6.62,23.11-.25.48-.54,1-.86,1.59-1.79,3.24-4.24,7.69-2.24,10.22,1.11,1.32,26.69,10.07,29.43,10.07,1.64,0,2.68-1.13,3.2-3.45.47-2.14,3.62-14.82,6.14-19.53a26.59,26.59,0,0,1,2.78-4c2.67-3.35,5.69-7.16,6.14-15.08a32.56,32.56,0,0,0-4.52-18.55C158.7,156.17,151.81,150.63,147.3,150.8Z" style="fill:#263238;clip-path:url(#freepik--clip-path-5--inject-2)"></path></clipPath><clipPath id="freepik--clip-path-11--inject-2"><path d="M159.76,156.89a.47.47,0,0,1-.3-.1l-10.74-8a.5.5,0,0,1-.16-.61l2.95-6.35-.79-1.58c-.85-.54-5.36-3.68-4.28-8.48.8-3.5,3-5,4.75-6.13a6.7,6.7,0,0,0,1.9-1.58c.3-.44.64-1,1-1.65,1.29-2.18,2.89-4.89,4.54-5.44,2-.67,7.65,2.59,8.75,3.26a.29.29,0,0,1,.12.1c1.55,1.79,4.13,4.92,4.13,5.78,0,.42.05,1,.1,1.44,0,.31,0,.59.06.8a19.77,19.77,0,0,0,1.85,1.14c2.56,1.48,3.77,2.26,3.77,3,0,1-2.21,2.57-3.69,3.49v8.7c0,2.08-1.21,2.68-3.06,3.35-1.57.57-4.75.11-5.83-.07l-4.64,8.66a.49.49,0,0,1-.33.25Zm-10.12-8.67,10,7.42,4.54-8.46a.49.49,0,0,1,.53-.26c1.13.22,4.33.67,5.67.18,1.74-.63,2.4-1,2.4-2.41v-9a.5.5,0,0,1,.24-.43c1.76-1.07,3.38-2.38,3.45-2.79a18.4,18.4,0,0,0-3.27-2.16c-1.9-1.09-2.35-1.37-2.35-1.84,0-.2,0-.51-.06-.87s-.1-1.06-.1-1.53a32.07,32.07,0,0,0-3.83-5.07c-2.42-1.44-6.62-3.53-7.85-3.12s-2.86,3.07-4,5c-.38.65-.73,1.24-1,1.7a7.34,7.34,0,0,1-2.17,1.85c-1.7,1.13-3.63,2.41-4.33,5.52-1,4.56,3.88,7.44,3.93,7.47a.51.51,0,0,1,.2.21l1,1.93a.5.5,0,0,1,0,.43Zm22.16-19.73h0Zm-.06-.22Z" style="fill:#263238;clip-path:url(#freepik--clip-path-6--inject-2)"></path></clipPath><clipPath id="freepik--clip-path-12--inject-2"><path d="M99.82,210.62l-.14,0L93,208.7a.49.49,0,0,1-.34-.62c1-3.74,10.25-36.64,11.45-38.33.77-1.07,8.73-3.66,24.13-8.35,4-1.22,7.41-2.27,7.83-2.47l6.64-3.32a.49.49,0,0,1,.67.22.5.5,0,0,1-.23.67l-6.64,3.32c-.46.23-3.05,1-8,2.53-7.92,2.42-22.66,6.92-23.61,8s-7.08,22.9-11.17,37.53l5.78,1.65,14-26a.49.49,0,0,1,.34-.25c.35-.08,35.56-7.59,37.64-8.29,1.88-.62,4.43-3.49,4.89-6.24a.48.48,0,0,1,.57-.41.49.49,0,0,1,.41.57c-.48,2.87-3.12,6.22-5.55,7-2.07.69-34.22,7.56-37.53,8.27l-14.11,26.11A.5.5,0,0,1,99.82,210.62Z" style="fill:#263238;clip-path:url(#freepik--clip-path-2--inject-2)"></path></clipPath></defs><g id="freepik--background-simple--inject-2"><path d="M277.92,56.23S213,42.1,156.43,85.1,78,201.87,58.75,261.2s3.19,114.28,53.08,134.25,76.67-22.32,141.77-32.56,83.87-3.15,133.37-47,48.17-132.25-2.83-191.26S277.92,56.23,277.92,56.23Z" style="fill:#6B40FF"></path><path d="M277.92,56.23S213,42.1,156.43,85.1,78,201.87,58.75,261.2s3.19,114.28,53.08,134.25,76.67-22.32,141.77-32.56,83.87-3.15,133.37-47,48.17-132.25-2.83-191.26S277.92,56.23,277.92,56.23Z" style="fill:#fff;opacity:0.7000000000000001"></path></g><g id="freepik--Sunburst--inject-2"><path d="M399.63,145.84c-.33-.54-.67-1.09-1-1.62L196.45,63.42a149.16,149.16,0,0,0-20.61,9.18Z" style="fill:#fff"></path><path d="M402.43,150.58l-.56-1-277.37-33c-4.63,5.81-8.93,11.86-13,18.1Z" style="fill:#fff"></path><path d="M406.84,158.94,108.34,394c1.15.52,2.31,1,3.49,1.48a68.6,68.6,0,0,0,26.49,5.29L407.2,159.66Z" style="fill:#fff"></path><path d="M393.24,136.19c-1.21-1.69-2.47-3.36-3.75-5L296.67,61.78a114.28,114.28,0,0,0-18.75-5.55s-3.41-.74-9.33-1.36Z" style="fill:#fff"></path><path d="M404.27,153.92c-.13-.25-.27-.5-.41-.75L79.61,200c-3.06,8-5.93,16.07-8.64,24Z" style="fill:#fff"></path><path d="M411,168.08c-.21-.49-.41-1-.62-1.48l-72.6,181.68a113.65,113.65,0,0,0,16.92-8.16Z" style="fill:#fff"></path><path d="M415,178.65c-.42-1.25-.86-2.49-1.32-3.73L398.32,304A104.1,104.1,0,0,0,409,287.8Z" style="fill:#fff"></path><path d="M405.77,156.78l-.36-.68L52,307.7A109.52,109.52,0,0,0,56.2,334Z" style="fill:#fff"></path><path d="M408.82,163.09c-.14-.31-.29-.62-.43-.92L258.93,362.08c8-1.2,15.28-2.14,22-3Z" style="fill:#fff"></path></g><g id="freepik--Charts--inject-2"><rect x="70" y="334.24" width="36" height="107.76" style="fill:#263238"></rect><rect x="70" y="334.24" width="36" height="107.76" style="fill:#fff;opacity:0.17"></rect><path d="M106,410.49a168.56,168.56,0,0,0-36,14.26V442h36Z" style="opacity:0.2"></path><rect x="124" y="324.92" width="36" height="117.08" style="fill:#6B40FF"></rect><path d="M158.25,403.74A205.68,205.68,0,0,0,124,406.56V442h36V403.74Z" style="opacity:0.2"></path><rect x="178" y="297.67" width="36" height="144.33" style="fill:#263238"></rect><rect x="178" y="297.67" width="36" height="144.33" style="fill:#fff;opacity:0.17"></rect><path d="M214,407c-10.95-1.12-22.73-2.22-36-2.81V442h36Z" style="opacity:0.2"></path><rect x="232" y="312.01" width="36" height="129.99" style="fill:#6B40FF"></rect><path d="M268,410.35a266.26,266.26,0,0,1-36-1.52V442h36Z" style="opacity:0.2"></path><rect x="286" y="235.99" width="36" height="206.01" style="fill:#263238"></rect><rect x="286" y="235.99" width="36" height="206.01" style="fill:#fff;opacity:0.17"></rect><path d="M322,399.42a187.3,187.3,0,0,1-36,9.26V442h36Z" style="opacity:0.2"></path><rect x="398" y="197.99" width="36" height="244.01" style="fill:#263238"></rect><rect x="398" y="197.99" width="36" height="244.01" style="fill:#fff;opacity:0.17"></rect><path d="M434,360.79a188,188,0,0,1-36,9.26V442h36Z" style="opacity:0.2"></path><rect x="340" y="206.94" width="36" height="235.06" style="fill:#6B40FF"></rect><path d="M340,392.58V442h36V377.92C364.49,382.78,352.34,387.76,340,392.58Z" style="opacity:0.2"></path><path d="M458,442.5H47a.5.5,0,0,1,0-1H458a.5.5,0,0,1,0,1Z" style="fill:#263238"></path></g><g id="freepik--Character--inject-2"><path d="M156.25,170.76l15.41,23L202,190.91v6.16s-28.69,9.73-32.25,10.67-21.1-11.14-21.1-11.14S146.53,179.29,156.25,170.76Z" style="fill:#fff"></path><path d="M169.35,208.29c-4.47,0-19.24-10.08-21-11.28a.51.51,0,0,1-.22-.35c-.08-.72-2-17.67,7.76-26.28a.49.49,0,0,1,.74.1l15.25,22.75L202,190.41a.52.52,0,0,1,.39.13.51.51,0,0,1,.16.37v6.16a.51.51,0,0,1-.34.48c-1.17.4-28.75,9.74-32.28,10.68A2.23,2.23,0,0,1,169.35,208.29Zm-20.22-12c7,4.8,18.08,11.58,20.5,10.94,3.29-.88,28.63-9.45,31.88-10.54v-5.26l-29.8,2.79a.49.49,0,0,1-.47-.22l-15.09-22.51C147.79,179.38,148.94,194.33,149.13,196.32Z" style="fill:#263238"></path><g style="clip-path:url(#freepik--clip-path-7--inject-2)"><path d="M183.86,194.78c1.31-2.09-15.39,6-16.17,5.74s1.3-3.66,0-5.22-3.39,3.65-4.7,0a48.2,48.2,0,0,0-4.17-8.09l-6.85-11c-4.72,8.87-3.31,20.35-3.31,20.35s17.55,12.09,21.1,11.14c2.49-.66,17.29-5.62,26-8.54-6.51.68-17.44,1.76-18.89,1.58C174.73,200.52,182.56,196.86,183.86,194.78Z" style="fill:#6B40FF"></path><path d="M183.86,194.78c1.31-2.09-15.39,6-16.17,5.74s1.3-3.66,0-5.22-3.39,3.65-4.7,0a48.2,48.2,0,0,0-4.17-8.09l-6.85-11c-4.72,8.87-3.31,20.35-3.31,20.35s17.55,12.09,21.1,11.14c2.49-.66,17.29-5.62,26-8.54-6.51.68-17.44,1.76-18.89,1.58C174.73,200.52,182.56,196.86,183.86,194.78Z" style="fill:#fff;opacity:0.5"></path></g><line x1="197.74" y1="191.38" x2="198.45" y2="197.55" style="fill:#fff"></line><path d="M198.45,198.05a.49.49,0,0,1-.49-.44l-.72-6.17a.5.5,0,0,1,1-.11l.71,6.16a.51.51,0,0,1-.44.56Z" style="fill:#263238"></path><path d="M202,190.91l2.61-3.56,8.53-.47s.48,7.11-.71,8.3S202,197.07,202,197.07Z" style="fill:#fff"></path><path d="M202,197.57a.47.47,0,0,1-.34-.13.51.51,0,0,1-.16-.37v-6.16a.47.47,0,0,1,.1-.3l2.6-3.55a.52.52,0,0,1,.38-.21l8.54-.47a.49.49,0,0,1,.52.47c.08,1.22.43,7.4-.86,8.68s-9.17,1.92-10.74,2Zm.5-6.5v5.46c3.74-.31,8.88-1,9.58-1.71s.75-4.57.59-7.41l-7.8.43Z" style="fill:#263238"></path><path d="M209.36,186.17s-1.19,9.24,0,9.24,5.22.24,5.22-1.89.71-8.06-.72-8.3S209.36,186.17,209.36,186.17Z" style="fill:#fff"></path><path d="M210.28,195.92h-.92a.75.75,0,0,1-.56-.27c-.92-1-.26-7,.06-9.55a.52.52,0,0,1,.32-.4c.33-.13,3.25-1.23,4.77-1s1.4,3,1.2,7c0,.72-.07,1.36-.07,1.82a1.84,1.84,0,0,1-.57,1.36C213.56,195.82,211.62,195.92,210.28,195.92Zm-.73-.93h0Zm0-.07h.19c1,0,3.3,0,4.11-.75a.88.88,0,0,0,.27-.65c0-.47,0-1.13.07-1.87.2-3.86.08-5.86-.37-5.94a11.14,11.14,0,0,0-4,.82C209.38,190.09,209.15,194.12,209.51,194.92Zm-.15,0Z" style="fill:#263238"></path><path d="M203,189.25s1.89-3.79,3.32-4,3.08.24,3.08.95,1.42,5.45,0,5.93-2.13-1.19-2.13-1.19l-.48-.95a2.77,2.77,0,0,1-2.13,2.14" style="fill:#fff"></path><path d="M208.86,192.68a2.46,2.46,0,0,1-2.07-1.52,3.28,3.28,0,0,1-2,1.42.5.5,0,1,1-.24-1,2.28,2.28,0,0,0,1.76-1.72.5.5,0,0,1,.94-.15l.47.95c.07.15.58,1.24,1.53.93.31-.1.53-.93-.15-4.29a6.89,6.89,0,0,1-.19-1.16,3.15,3.15,0,0,0-2.5-.46c-.81.14-2.21,2.28-3,3.76a.5.5,0,0,1-.67.23.51.51,0,0,1-.22-.67c.34-.68,2.09-4,3.68-4.3a4.37,4.37,0,0,1,3.24.6,1.1,1.1,0,0,1,.43.84c0,.11.09.56.17,1,.52,2.6.88,5-.51,5.44A2.07,2.07,0,0,1,208.86,192.68Z" style="fill:#263238"></path><path d="M113.44,224.37l.75,42.25L89.44,312.37l4.5,3s35.25-38.25,36.5-41.75,8.5-35,8.5-35,2.5-10.25-1.75-15.75S118.69,213.12,113.44,224.37Z" style="fill:#263238"></path><path d="M93.94,315.87a.57.57,0,0,1-.28-.08l-4.5-3a.52.52,0,0,1-.16-.66l24.69-45.63-.75-42.12a.54.54,0,0,1,0-.22,12,12,0,0,1,9.93-7.27c5.93-.66,12.12,2.37,14.67,5.67,4.35,5.63,1.95,15.75,1.84,16.18-.29,1.28-7.27,31.56-8.51,35.05s-35.16,40.35-36.6,41.92A.5.5,0,0,1,93.94,315.87Zm-3.85-3.66,3.77,2.51c10-10.85,35.12-38.5,36.11-41.27,1.22-3.43,8.41-34.63,8.48-34.94,0-.11,2.39-10.09-1.66-15.33-2.33-3-8.26-5.91-13.77-5.3a11,11,0,0,0-9.08,6.6l.75,42.13a.54.54,0,0,1-.06.25Z" style="fill:#263238"></path><g style="clip-path:url(#freepik--clip-path-8--inject-2)"><path d="M129.13,269.34c-1.5,1.13-20.25,27.05-29.19,39.48,10.11-11.09,29.57-32.62,30.5-35.2,1.25-3.5,8.5-35,8.5-35s.14-.59.3-1.56c-1.8-7.39-10.36-15.2-12.09-12.74l-2.47,18.55s0,15.09.49,16.58,5.2-1.73,4,0-9.15,8.9-7.17,8.9S131.11,267.86,129.13,269.34Z" style="fill:#fff;opacity:0.2"></path></g><path d="M93.94,315.37s.25,7.5.75,8.75,2.5,7,3.25,8.25-.25,2-1.5,2-4.25,0-5.5-1.25-3.25-5.5-5-7.5-6.5-4.5-5-7,8.5-6.25,8.5-6.25Z" style="fill:#fff"></path><path d="M96.44,334.87c-1.34,0-4.46,0-5.86-1.4A21.14,21.14,0,0,1,88.26,330a30.88,30.88,0,0,0-2.7-4.07,16.77,16.77,0,0,0-1.89-1.71c-2-1.65-4.47-3.7-3.16-5.88,1.55-2.59,8.4-6.28,8.69-6.43a.49.49,0,0,1,.51,0l4.5,3a.51.51,0,0,1,.23.4c.1,3,.37,7.73.71,8.58.14.35.39,1,.7,1.87a67.56,67.56,0,0,0,2.52,6.31,1.72,1.72,0,0,1,.14,1.79A2.29,2.29,0,0,1,96.44,334.87Zm-7-21.92c-1.27.71-6.79,3.84-8,5.93-.81,1.33.71,2.74,2.94,4.59a17.62,17.62,0,0,1,2,1.82,30,30,0,0,1,2.81,4.22,22.29,22.29,0,0,0,2.17,3.26c1.1,1.1,4,1.1,5.15,1.1a1.43,1.43,0,0,0,1.2-.46.85.85,0,0,0-.13-.78,65,65,0,0,1-2.6-6.48c-.3-.83-.55-1.5-.69-1.84-.48-1.21-.72-7.19-.77-8.67Z" style="fill:#263238"></path><path d="M86.73,323.49a70.83,70.83,0,0,1-4.59-6.25,6.8,6.8,0,0,0-1.2,1.38c-1.5,2.5,3.25,5,5,7s3.75,6.25,5,7.5,4.25,1.25,5.5,1.25,2.25-.75,1.5-2C90.85,332.11,89.68,327,86.73,323.49Z" style="fill:#263238"></path><path d="M115.69,206.12s-.16.46-.4,1.25c-1.17,3.71-4.38,14.63-3.35,18.75,1.25,5,11.94,15.88,17.75,21.7,5.45,5.45,22.75,13.55,22.75,13.55s-7.5,20-9.25,24.75-8,21.5-8,21.5l5,3s20.75-28.75,25-34.5,9.27-14.15,7.75-16.75c-13.61-23.17-29.75-35.75-29.75-35.75l1.75-6.75Z" style="fill:#263238"></path><path d="M140.19,311.12a.48.48,0,0,1-.26-.07l-5-3a.49.49,0,0,1-.21-.6s6.25-16.75,8-21.5c1.59-4.31,8-21.38,9.09-24.32-2.74-1.3-17.43-8.42-22.47-13.46-7.7-7.7-16.69-17.15-17.89-21.93-1-4.17,2-14.69,3.36-19l.4-1.26a.53.53,0,0,1,.26-.29.48.48,0,0,1,.39,0l29.25,10.75a.5.5,0,0,1,.31.6l-1.67,6.43a139.74,139.74,0,0,1,29.62,35.69c2.11,3.59-6.11,15-7.78,17.3-4.2,5.68-24.79,34.21-25,34.49A.48.48,0,0,1,140.19,311.12Zm-4.39-3.71,4.25,2.55c2.45-3.4,20.8-28.81,24.74-34.14,4.77-6.45,9-14.09,7.72-16.2C159.1,236.8,143,224.14,142.88,224a.49.49,0,0,1-.18-.52l1.64-6.31L116,206.77q-.09.3-.24.75c-1,3.32-4.35,14.44-3.34,18.48,1.28,5.12,13.16,17,17.62,21.46,5.33,5.33,22.44,13.38,22.61,13.46a.5.5,0,0,1,.26.63c-.08.2-7.52,20.05-9.25,24.74C142.06,290.61,136.75,304.86,135.8,307.41Z" style="fill:#263238"></path><g style="clip-path:url(#freepik--clip-path-9--inject-2)"><path d="M143.19,223.62l.29-1.15-5.69-2.6s-4.95-1.73-6.93-1.49-3,5.94.25,9.16,27.21,14.1,25.73,14.34-17.81-1-15.09.5,21.77,3.21,20.78,4.7-3,2.23-.25,3.46,9.24,8,10.91,10.33a2.65,2.65,0,0,0-.25-1.5C159.33,236.2,143.19,223.62,143.19,223.62Z" style="fill:#fff;opacity:0.2"></path></g><path d="M140.06,221.54a.46.46,0,0,1-.23-.06c-3.37-1.8-8-4-8.9-4.45a40.53,40.53,0,0,0-4.55,1.2.51.51,0,0,1-.65-.28.51.51,0,0,1,.28-.65,45.65,45.65,0,0,1,4.87-1.29.5.5,0,0,1,.32,0c.06,0,5.35,2.55,9.1,4.55a.5.5,0,0,1-.24.94Z" style="fill:#fff"></path><path d="M122.16,216.75a.5.5,0,0,1-.15-1,28.63,28.63,0,0,1,9.5-1,.5.5,0,1,1,0,1,28,28,0,0,0-9.15,1A.41.41,0,0,1,122.16,216.75Z" style="fill:#fff"></path><path d="M140.19,310.62l3.5,7.75s7,3.5,7,4.5-1.5,1.25-1.5,1.25h-10c-1.25,0-4.5-3.25-7.5-5s-4.25-2.5-4-4.75,7.5-6.75,7.5-6.75Z" style="fill:#fff"></path><path d="M139.19,324.62c-.84,0-2-.86-3.95-2.37a36.46,36.46,0,0,0-3.8-2.7c-3-1.76-4.54-2.64-4.25-5.24.27-2.42,7-6.64,7.73-7.11a.49.49,0,0,1,.52,0l5,3a.47.47,0,0,1,.2.22l3.43,7.59c4.72,2.37,7.12,4,7.12,4.87,0,1.12-1.21,1.62-1.92,1.74Zm-4-16.41c-2.73,1.72-6.85,4.8-7,6.22-.2,1.86.68,2.46,3.76,4.26a39.59,39.59,0,0,1,3.92,2.77c1.31,1,2.79,2.16,3.33,2.16h10s1-.22,1-.75c-.25-.53-3.69-2.54-6.73-4.05a.53.53,0,0,1-.23-.24L139.8,311Z" style="fill:#263238"></path><path d="M134.82,316.7a17.61,17.61,0,0,0-6.45-3.66,2.9,2.9,0,0,0-.68,1.33c-.25,2.25,1,3,4,4.75s6.25,5,7.5,5h10s1.5-.25,1.5-1.25c0,0,0-.06,0-.09a66.54,66.54,0,0,1-8.74-1.06C136,320.53,138.07,319.65,134.82,316.7Z" style="fill:#263238"></path><path d="M147.25,150.3a25.9,25.9,0,0,0-12.66,6.25c-5.3,5.13-8.82,12.35-9.14,15.72s-4.87,19.58-6.58,22.93-5.63,9.07-3.05,12.34c1.3,1.64,27.26,10.26,29.83,10.26s3.37-2.4,3.69-3.84,3.52-14.6,6.09-19.41,8.34-8,9-19.24a32.66,32.66,0,0,0-4.65-18.92S152.22,150.14,147.25,150.3Z" style="fill:#fff"></path><path d="M145.65,218.3c-2.52,0-28.73-8.56-30.22-10.45-2.41-3.06.23-7.83,2.15-11.32.32-.57.61-1.09.85-1.56,1.68-3.29,6.21-19.51,6.52-22.75.35-3.74,4.17-11.07,9.29-16a26.2,26.2,0,0,1,12.94-6.39h.06c5.11-.18,12.53,5.95,12.84,6.21a.43.43,0,0,1,.09.1,32.85,32.85,0,0,1,4.74,19.23c-.47,8.24-3.74,12.34-6.36,15.64a26.5,26.5,0,0,0-2.68,3.81c-2.46,4.62-5.57,17.16-6,19.27C149.2,216.88,147.79,218.3,145.65,218.3Zm1.65-67.5c-.5.08-7.42,1.31-12.37,6.11-5.4,5.24-8.69,12.32-9,15.4-.32,3.4-4.85,19.66-6.62,23.11-.25.48-.54,1-.86,1.59-1.79,3.24-4.24,7.69-2.24,10.22,1.11,1.32,26.69,10.07,29.43,10.07,1.64,0,2.68-1.13,3.2-3.45.47-2.14,3.62-14.82,6.14-19.53a26.59,26.59,0,0,1,2.78-4c2.67-3.35,5.69-7.16,6.14-15.08a32.56,32.56,0,0,0-4.52-18.55C158.7,156.17,151.81,150.63,147.3,150.8Z" style="fill:#263238"></path><g style="clip-path:url(#freepik--clip-path-10--inject-2)"><path d="M139.26,185.39c7.3-3.13,11.74-3.13,16.43-4.18s-8.87-.78-11.74-2.08,8.61-2.87,11.48-3.66-6.52.53-12,.53-12-11.74-6.26-17,15.13-5.74,15.13-5.74l-.22-1.78a11.41,11.41,0,0,0-4.83-1.22,25.9,25.9,0,0,0-12.66,6.25c-5.3,5.13-8.82,12.35-9.14,15.72s-4.87,19.58-6.58,22.93-5.63,9.07-3.05,12.34c1.3,1.64,27.26,10.26,29.83,10.26a3.31,3.31,0,0,0,1.18-.22c-4.35-2-12.39-5.08-15.14-6.37-3.91-1.83,9.91-4.69,12.78-8.35s-10.17,1.83-13.82,2.09-5.22-1.56-1.31-2.61,14.35-8.61,19-11.48-18,5.74-21.65,5.22S132,188.52,139.26,185.39Z" style="fill:#6B40FF"></path><path d="M139.26,185.39c7.3-3.13,11.74-3.13,16.43-4.18s-8.87-.78-11.74-2.08,8.61-2.87,11.48-3.66-6.52.53-12,.53-12-11.74-6.26-17,15.13-5.74,15.13-5.74l-.22-1.78a11.41,11.41,0,0,0-4.83-1.22,25.9,25.9,0,0,0-12.66,6.25c-5.3,5.13-8.82,12.35-9.14,15.72s-4.87,19.58-6.58,22.93-5.63,9.07-3.05,12.34c1.3,1.64,27.26,10.26,29.83,10.26a3.31,3.31,0,0,0,1.18-.22c-4.35-2-12.39-5.08-15.14-6.37-3.91-1.83,9.91-4.69,12.78-8.35s-10.17,1.83-13.82,2.09-5.22-1.56-1.31-2.61,14.35-8.61,19-11.48-18,5.74-21.65,5.22S132,188.52,139.26,185.39Z" style="fill:#fff;opacity:0.5"></path></g><path d="M150.11,178.79a37,37,0,0,1-8.53-.95.5.5,0,0,1-.35-.61.49.49,0,0,1,.6-.36,37.25,37.25,0,0,0,15.19.21.5.5,0,0,1,.59.39.49.49,0,0,1-.38.59A33.89,33.89,0,0,1,150.11,178.79Z" style="fill:#263238"></path><path d="M152.41,183.21h0a40.5,40.5,0,0,1-14.76-4.78.5.5,0,1,1,.5-.86c.07,0,7.06,4,14.35,4.64a.5.5,0,0,1-.05,1Z" style="fill:#263238"></path><path d="M149.32,193.62a.52.52,0,0,1-.43-.24.5.5,0,0,1,.17-.69A42.48,42.48,0,0,0,153,190a.51.51,0,0,1,.71.09.51.51,0,0,1-.09.7,44,44,0,0,1-4,2.73A.5.5,0,0,1,149.32,193.62Z" style="fill:#263238"></path><path d="M123.9,204.5a.5.5,0,0,1-.15-1,141.43,141.43,0,0,0,21.62-8.74.5.5,0,0,1,.47.89,139.37,139.37,0,0,1-21.79,8.8A.4.4,0,0,1,123.9,204.5Z" style="fill:#263238"></path><path d="M119.23,205.9a.49.49,0,0,1-.48-.36.5.5,0,0,1,.35-.62s.56-.15,1.54-.44a.5.5,0,1,1,.29,1l-1.57.46Z" style="fill:#263238"></path><path d="M123.73,208.26a.5.5,0,0,1-.18-1,149.66,149.66,0,0,0,14.93-6.61.49.49,0,0,1,.67.21.49.49,0,0,1-.2.67,154.63,154.63,0,0,1-15,6.67A.51.51,0,0,1,123.73,208.26Z" style="fill:#263238"></path><path d="M158.32,159.83s2.86,7.89,5,8.6,11.83-2.51,12.9-7.16-14-12.19-17.91-14-16.48-2.51-23.65-3.58-13.62-5-17.91-6.09-16.13.72-16.13.72l8.24,5.37s13.26,3.22,18.28,3.22,9.31-2.15,16.12,0,15.41,4.3,20.78,6.81,9.67,3.94,9.67,7.17S168,167,166.92,167s-3.59-8.6-6.45-9.32C160.47,157.68,156.88,155.89,158.32,159.83Z" style="fill:#263238"></path><path d="M164.12,169a3.16,3.16,0,0,1-.94-.12c-2.32-.77-5-8.08-5.33-8.91-.52-1.42-.49-2.36.09-2.88.82-.73,2.31-.1,2.7.09,1.94.54,3.55,3.88,4.85,6.56a14.28,14.28,0,0,0,1.5,2.72c1-.12,6.23-2.81,6.23-5.58,0-2.46-3-3.84-7.25-5.74-.68-.31-1.4-.63-2.13-1a113.36,113.36,0,0,0-14.52-4.91c-2.13-.63-4.24-1.25-6.2-1.87-4.48-1.41-7.86-.92-11.12-.44a32.77,32.77,0,0,1-4.85.46c-5,0-17.85-3.1-18.4-3.23l-.15-.07-8.24-5.38a.5.5,0,0,1,.2-.91c.48-.07,12-1.79,16.32-.71a43.59,43.59,0,0,1,5.85,2.19,49.76,49.76,0,0,0,12,3.89c2.28.35,5.07.65,8,1,6.39.69,13,1.4,15.75,2.66,2,.9,19.47,9,18.2,14.54-.54,2.34-2.93,4.11-4.84,5.19A18.84,18.84,0,0,1,164.12,169Zm-5.33-9.37c1.07,3,3.3,7.83,4.7,8.3a8.2,8.2,0,0,0,3.65-.48l-.22,0c-.71,0-1.2-.95-2.33-3.29s-2.74-5.67-4.24-6l-.11,0c-.5-.25-1.38-.49-1.64-.26-.06,0-.32.38.19,1.79Zm-21.6-14.18a20.13,20.13,0,0,1,6.23,1c2,.61,4.05,1.23,6.18,1.86,5.31,1.55,10.8,3.16,14.66,5l2.12,1c4.38,2,7.84,3.54,7.84,6.65,0,2.67-3.36,5.06-5.61,6.07a20.24,20.24,0,0,0,2.78-1.29c2.45-1.37,4-3,4.35-4.54.82-3.55-10.38-10.11-17.63-13.4-2.61-1.19-9.43-1.93-15.45-2.58-3-.32-5.77-.62-8.06-1a50.81,50.81,0,0,1-12.26-4,42.55,42.55,0,0,0-5.71-2.14c-3.31-.83-11.42.12-14.61.55l7,4.59c1.13.28,13.38,3.19,18.08,3.19a32.77,32.77,0,0,0,4.71-.45A35.73,35.73,0,0,1,137.19,145.48Z" style="fill:#263238"></path><path d="M167.14,120.63s4,4.65,4,5.46.16,1.92.16,2.4,5.62,3,5.62,4-3.69,3.21-3.69,3.21v9c0,1.76-1,2.24-2.73,2.88s-5.93-.16-5.93-.16l-4.81,9-10.74-8,3-6.57-1-1.92s-5.29-3-4.17-8,5.29-5.61,6.58-7.54,3.36-6.25,5.29-6.89S167.14,120.63,167.14,120.63Z" style="fill:#fff"></path><path d="M159.76,156.89a.47.47,0,0,1-.3-.1l-10.74-8a.5.5,0,0,1-.16-.61l2.95-6.35-.79-1.58c-.85-.54-5.36-3.68-4.28-8.48.8-3.5,3-5,4.75-6.13a6.7,6.7,0,0,0,1.9-1.58c.3-.44.64-1,1-1.65,1.29-2.18,2.89-4.89,4.54-5.44,2-.67,7.65,2.59,8.75,3.26a.29.29,0,0,1,.12.1c1.55,1.79,4.13,4.92,4.13,5.78,0,.42.05,1,.1,1.44,0,.31,0,.59.06.8a19.77,19.77,0,0,0,1.85,1.14c2.56,1.48,3.77,2.26,3.77,3,0,1-2.21,2.57-3.69,3.49v8.7c0,2.08-1.21,2.68-3.06,3.35-1.57.57-4.75.11-5.83-.07l-4.64,8.66a.49.49,0,0,1-.33.25Zm-10.12-8.67,10,7.42,4.54-8.46a.49.49,0,0,1,.53-.26c1.13.22,4.33.67,5.67.18,1.74-.63,2.4-1,2.4-2.41v-9a.5.5,0,0,1,.24-.43c1.76-1.07,3.38-2.38,3.45-2.79a18.4,18.4,0,0,0-3.27-2.16c-1.9-1.09-2.35-1.37-2.35-1.84,0-.2,0-.51-.06-.87s-.1-1.06-.1-1.53a32.07,32.07,0,0,0-3.83-5.07c-2.42-1.44-6.62-3.53-7.85-3.12s-2.86,3.07-4,5c-.38.65-.73,1.24-1,1.7a7.34,7.34,0,0,1-2.17,1.85c-1.7,1.13-3.63,2.41-4.33,5.52-1,4.56,3.88,7.44,3.93,7.47a.51.51,0,0,1,.2.21l1,1.93a.5.5,0,0,1,0,.43Zm22.16-19.73h0Zm-.06-.22Z" style="fill:#263238"></path><g style="clip-path:url(#freepik--clip-path-11--inject-2)"><path d="M166.65,145.21c-5.48-1.82-5-5.21-5.22-10.17S157,122.52,157,122.52l-2.3-.16c-.44.75-.85,1.44-1.19,2-1.29,1.93-5.46,2.57-6.58,7.54s4.17,8,4.17,8l1,1.92-3,6.57,10.74,8,4.81-9s4.17.8,5.93.16a7.51,7.51,0,0,0,1.79-.84A42.88,42.88,0,0,1,166.65,145.21Z" style="fill:#6B40FF"></path><path d="M166.65,145.21c-5.48-1.82-5-5.21-5.22-10.17S157,122.52,157,122.52l-2.3-.16c-.44.75-.85,1.44-1.19,2-1.29,1.93-5.46,2.57-6.58,7.54s4.17,8,4.17,8l1,1.92-3,6.57,10.74,8,4.81-9s4.17.8,5.93.16a7.51,7.51,0,0,0,1.79-.84A42.88,42.88,0,0,1,166.65,145.21Z" style="fill:#fff;opacity:0.5"></path><path d="M165.21,128a.51.51,0,0,1-.45-.72,5,5,0,0,1,1.6-1.63c1.37-1,3.5.24,3.59.29a.51.51,0,0,1,.18.69.49.49,0,0,1-.68.18c-.46-.27-1.8-.85-2.5-.35a4.27,4.27,0,0,0-1.29,1.27A.51.51,0,0,1,165.21,128Z" style="fill:#263238"></path><path d="M169.7,130.59H167a.49.49,0,0,1-.49-.39.49.49,0,0,1,.29-.56l2.56-1.13a.5.5,0,1,1,.4.92l-.37.16h.33a.5.5,0,0,1,.5.5A.5.5,0,0,1,169.7,130.59Z" style="fill:#263238"></path></g><path d="M155.59,132.5a1.45,1.45,0,0,0,1.28,1.12,2,2,0,0,0,2.25-1.76c0-1-1.28-3.05-.32-3.69s2.72-.8,2.4-2.57-2.08-1.28-1.76-3.2,6.25-1.93,7.7-1.77,1.44-2.88-.16-6.41-7.86-4.81-9.14-3.37a2,2,0,0,0-.16,2.73s-7.06-1.28-7.86,0,0,1.92,0,1.92-5.61-1.12-9.46,5.94S141.48,136,144.21,138s6.89,3.85,10.1,2.73-1.61-5-1.93-6.9S155.59,132.5,155.59,132.5Z" style="fill:#263238"></path><path d="M152.23,141.51c-3.52,0-7.13-2.31-8.31-3.15-2.84-2-8-9.79-4-17.16,3-5.57,7.23-6.25,9.07-6.25a2.37,2.37,0,0,1,.4-1.64c.78-1.23,4.9-.79,7.41-.39a2.56,2.56,0,0,1,.66-2.4c.59-.66,1.88-.9,3.53-.65,2.43.36,5.37,1.79,6.44,4.14,1.3,2.86,1.64,5.5.85,6.59a1.27,1.27,0,0,1-1.2.53c-2-.22-6.93.06-7.15,1.35-.12.75.11.92.57,1.27a2.67,2.67,0,0,1,1.19,1.77c.32,1.71-1,2.29-1.86,2.68a4.72,4.72,0,0,0-.75.39c-.32.21,0,1.19.21,1.84a5.17,5.17,0,0,1,.33,1.43,2.2,2.2,0,0,1-.82,1.63,2.51,2.51,0,0,1-2,.63,2,2,0,0,1-1.59-1.17,3.36,3.36,0,0,0-2.23.28.47.47,0,0,0-.1.47,7.43,7.43,0,0,0,1.3,2.23c1,1.39,2,2.83,1.65,4a2,2,0,0,1-1.36,1.22A6.82,6.82,0,0,1,152.23,141.51Zm-3.33-25.58c-1.63,0-5.31.62-8.1,5.75-3.72,6.81,1.07,14,3.69,15.86s6.76,3.68,9.65,2.67c.62-.22.71-.49.73-.58.23-.7-.73-2-1.51-3.12a7.69,7.69,0,0,1-1.47-2.65,1.48,1.48,0,0,1,.39-1.35c.94-.92,3.15-.55,3.4-.5a.49.49,0,0,1,.4.4,1,1,0,0,0,.86.72,1.61,1.61,0,0,0,1.21-.39,1.27,1.27,0,0,0,.47-.88,5.31,5.31,0,0,0-.28-1.12c-.34-1.05-.77-2.35.18-3a6.34,6.34,0,0,1,.9-.46c1-.43,1.45-.7,1.29-1.6a1.67,1.67,0,0,0-.81-1.14,2,2,0,0,1-1-2.23c.46-2.77,8.16-2.19,8.24-2.18a.28.28,0,0,0,.28-.12c.41-.57.38-2.67-.95-5.59-.91-2-3.58-3.26-5.68-3.58-1.42-.21-2.35,0-2.63.34a1.51,1.51,0,0,0-.16,2.06.51.51,0,0,1,.06.58.5.5,0,0,1-.52.24c-3.59-.65-7-.76-7.35-.23-.56.9-.11,1.27-.11,1.27a.5.5,0,0,1,.14.6.5.5,0,0,1-.55.28A4.75,4.75,0,0,0,148.9,115.93Z" style="fill:#263238"></path><path d="M157.19,134.42s-1-3.52-3.52-3.84-4,2.56-2.57,5.29,4.49,4.65,5.45,4.33,1.45-2.09,1.45-2.09" style="fill:#fff"></path><path d="M156.33,140.73c-1.49,0-4.3-2-5.67-4.63a4.52,4.52,0,0,1,0-4.69,3.1,3.1,0,0,1,3-1.33c2.86.36,3.9,4.06,4,4.21a.5.5,0,1,1-1,.27s-.91-3.21-3.11-3.49a2.08,2.08,0,0,0-2.08.91,3.58,3.58,0,0,0,0,3.65c1.41,2.65,4.23,4.29,4.85,4.09s1-1.25,1.12-1.74a.5.5,0,0,1,1,.26c-.06.21-.59,2-1.77,2.43A1.12,1.12,0,0,1,156.33,140.73Z" style="fill:#263238"></path><polygon points="148.22 145.81 162.81 155.43 162 162.48 146.13 149.66 148.22 145.81" style="fill:#fff"></polygon><path d="M162,163a.45.45,0,0,1-.31-.11l-15.87-12.82a.51.51,0,0,1-.13-.63l2.09-3.85a.49.49,0,0,1,.71-.18L163.08,155a.51.51,0,0,1,.22.48l-.8,7a.51.51,0,0,1-.31.41A.58.58,0,0,1,162,163Zm-15.23-13.45,14.84,12,.66-5.84-13.87-9.15Z" style="fill:#263238"></path><path d="M143,156.06l-6.64,3.31c-1.42.72-30.59,9-31.77,10.67s-11.38,38.18-11.38,38.18l6.64,1.9L114,183.8s35.57-7.59,37.7-8.3,4.74-3.8,5.22-6.64" style="fill:#fff"></path><path d="M99.82,210.62l-.14,0L93,208.7a.49.49,0,0,1-.34-.62c1-3.74,10.25-36.64,11.45-38.33.77-1.07,8.73-3.66,24.13-8.35,4-1.22,7.41-2.27,7.83-2.47l6.64-3.32a.49.49,0,0,1,.67.22.5.5,0,0,1-.23.67l-6.64,3.32c-.46.23-3.05,1-8,2.53-7.92,2.42-22.66,6.92-23.61,8s-7.08,22.9-11.17,37.53l5.78,1.65,14-26a.49.49,0,0,1,.34-.25c.35-.08,35.56-7.59,37.64-8.29,1.88-.62,4.43-3.49,4.89-6.24a.48.48,0,0,1,.57-.41.49.49,0,0,1,.41.57c-.48,2.87-3.12,6.22-5.55,7-2.07.69-34.22,7.56-37.53,8.27l-14.11,26.11A.5.5,0,0,1,99.82,210.62Z" style="fill:#263238"></path><g style="clip-path:url(#freepik--clip-path-12--inject-2)"><path d="M122.08,163.82c-8.16,2.52-16.88,5.33-17.52,6.22-.84,1.18-6.21,19.88-9.27,30.66,4.51-2.32,11.75-6.25,9.27-6.44-3.39-.27-3.91-2.09.52-5.22s13-9.39,10.7-9.91-10.43-1.57-5.48-4.18,32.35,0,37.3-2.35-6.26-3.39-12.78-4.17,6-.78,6-.78,4.44-.26,3.39-5-5.59-3-7.88-3.32c-.61.31-6.38,2-12.83,4Z" style="fill:#6B40FF"></path><path d="M122.08,163.82c-8.16,2.52-16.88,5.33-17.52,6.22-.84,1.18-6.21,19.88-9.27,30.66,4.51-2.32,11.75-6.25,9.27-6.44-3.39-.27-3.91-2.09.52-5.22s13-9.39,10.7-9.91-10.43-1.57-5.48-4.18,32.35,0,37.3-2.35-6.26-3.39-12.78-4.17,6-.78,6-.78,4.44-.26,3.39-5-5.59-3-7.88-3.32c-.61.31-6.38,2-12.83,4Z" style="fill:#fff;opacity:0.5"></path></g><path d="M99.82,210.12s1.66,8.06,1.66,8.77-2.38,2.61-2.38,2.61l-1.42,2.13s-2.61,1-3.32,0A9.77,9.77,0,0,1,93.18,221s-3.09.24-3.56-1.89,3.56-10.91,3.56-10.91Z" style="fill:#fff"></path><path d="M95.56,224.55a1.93,1.93,0,0,1-1.6-.62,9.38,9.38,0,0,1-1.15-2.4c-.94,0-3.23-.26-3.68-2.3C88.64,217,92.3,208.92,92.72,208a.51.51,0,0,1,.59-.27l6.64,1.89a.53.53,0,0,1,.36.39c.27,1.35,1.67,8.14,1.67,8.87s-1.54,2.17-2.5,3l-1.38,2.07a.53.53,0,0,1-.25.19A7.32,7.32,0,0,1,95.56,224.55Zm-2.38-4a.5.5,0,0,1,.48.36,9.25,9.25,0,0,0,1.1,2.45c.3.4,1.65.2,2.6-.12l1.33-2a.52.52,0,0,1,.1-.11,9.22,9.22,0,0,0,2.19-2.24c0-.46-1-5.25-1.59-8.36l-5.94-1.69c-1.52,3.38-3.65,8.82-3.34,10.2.37,1.69,3,1.51,3,1.5Z" style="fill:#263238"></path><line x1="94.36" y1="203.48" x2="101.71" y2="205.61" style="fill:#fff"></line><path d="M101.71,206.11l-.14,0L94.22,204a.51.51,0,0,1-.34-.62.49.49,0,0,1,.62-.34l7.35,2.13a.5.5,0,0,1-.14,1Z" style="fill:#263238"></path></g><g id="freepik--Clouds--inject-2"><path d="M285.47,223.91c-5.66-3.09-8.24-.52-10.3-3.09s5.66-9.27-9.79-16c0,0-1-14.42-22.14-14.94s-15.45,14.43-21.12,18-7.21-2.06-12.87,1.55-3.09,10.81-7.73,11.84-10.81-4.63-16.48-1-5.66,6.7-8.24,6.7-7.72-2.06-10.81,0-6.7,4.63-6.7,4.63h130.3S291.14,227,285.47,223.91Z" style="fill:#fff"></path><path d="M352.09,125.39c-3.38-1.85-4.92-.31-6.15-1.85s3.39-5.53-5.84-9.52c0,0-.61-8.61-13.21-8.92s-9.23,8.61-12.61,10.76-4.3-1.23-7.68.92-1.85,6.46-4.61,7.07-6.46-2.76-9.84-.61-3.38,4-4.92,4-4.61-1.23-6.45,0-4,2.77-4,2.77h77.77S355.47,127.23,352.09,125.39Z" style="fill:#fff"></path><path d="M419.06,249.12c-4-2.17-5.79-.36-7.24-2.17s4-6.51-6.87-11.22c0,0-.73-10.13-15.56-10.49s-10.85,10.13-14.83,12.67-5.07-1.45-9.05,1.08-2.17,7.6-5.42,8.32-7.6-3.25-11.58-.72-4,4.7-5.79,4.7-5.43-1.45-7.6,0-5.37,8.23-5.37,8.23h91.53S423,251.29,419.06,249.12Z" style="fill:#fff"></path><g style="opacity:0.11"><path d="M418.43,254.13c-4-2.17-5.79-.36-7.23-2.17s4-6.51-6.88-11.21c0,0-.72-10.13-15.56-10.5s-10.85,10.13-14.83,12.67-5.06-1.45-9,1.08-2.17,7.6-5.43,8.32-7.6-3.25-11.58-.72-4,4.7-5.79,4.7-5.42-1.44-7.59,0-4.71,3.26-4.71,3.26h91.54S422.41,256.3,418.43,254.13Z"></path></g><path d="M450.67,204.79c-6.09-3.32-8.85-.55-11.07-3.32s6.09-10-10.52-17.17c0,0-1.1-15.5-23.81-16.05s-16.6,15.5-22.69,19.38-7.76-2.22-13.85,1.66-3.32,11.62-8.3,12.73-11.63-5-17.72-1.11-6.09,7.2-8.86,7.2-8.3-2.21-11.62,0-8.23,12.6-8.23,12.6H454.08S456.76,208.11,450.67,204.79Z" style="fill:#fff"></path><g style="opacity:0.11"><path d="M449.72,212.46c-6.09-3.32-8.86-.56-11.08-3.32s6.09-10-10.52-17.17c0,0-1.1-15.5-23.8-16.05s-16.61,15.5-22.7,19.37-7.75-2.21-13.85,1.67-3.32,11.62-8.3,12.73-11.63-5-17.72-1.11-6.09,7.2-8.86,7.2-8.3-2.21-11.62,0-7.2,5-7.2,5H454.15S455.81,215.78,449.72,212.46Z"></path></g><path d="M345.69,292.14c-5.08-2.77-7.39-.46-9.23-2.77s5.07-8.31-8.77-14.31c0,0-.93-12.92-19.85-13.38S294,274.6,288.92,277.83s-6.47-1.84-11.54,1.39-2.77,9.69-6.93,10.61-9.69-4.15-14.77-.92-5.07,6-7.38,6-6.93-1.84-9.7,0-6.85,10.5-6.85,10.5H348.52S350.77,294.91,345.69,292.14Z" style="fill:#fff"></path><g style="opacity:0.11"><path d="M344.89,298.54c-5.08-2.77-7.39-.47-9.23-2.77s5.08-8.31-8.77-14.31c0,0-.92-12.93-19.85-13.39S293.19,281,288.12,284.23s-6.47-1.85-11.54,1.38-2.77,9.69-6.93,10.62-9.69-4.16-14.77-.93-5.07,6-7.38,6-6.93-1.85-9.69,0-6,4.15-6,4.15H348.58S350,301.31,344.89,298.54Z"></path></g></g></svg>