<?xml version="1.0" encoding="utf-8"?>
<!-- Generator: Adobe Illustrator 24.0.1, SVG Export Plug-In . SVG Version: 6.00 Build 0)  -->
<svg version="1.1" id="Layer_1" xmlns="http://www.w3.org/2000/svg" xmlns:xlink="http://www.w3.org/1999/xlink" x="0px" y="0px"
	 viewBox="0 0 440 980" style="enable-background:new 0 0 440 980;" xml:space="preserve">
<style type="text/css">
	.st0{fill:#FFFFFF;stroke:#000000;stroke-miterlimit:10;}
	.st1{fill:none;stroke:#000000;stroke-miterlimit:10;}
</style>
<path class="st0" d="M439.5,189.3v41.3c-23.5-5-60.4-14.2-103.3-31.7C264,169.6,225.4,137.7,139,82.7C107.6,62.7,60.4,33.6,0.5,0.5
	h43.4L439.5,189.3z"/>
<rect x="0.5" y="230.6" class="st0" width="439.1" height="749"/>
<path class="st0" d="M439.5,230.6c-23.5-5-60.4-14.2-103.3-31.7C264,169.6,225.4,137.7,139,82.7C107.6,62.7,60.4,33.6,0.5,0.5
	L439.5,230.6z"/>
<path class="st0" d="M43.9,0.5c48.8,29.1,90.1,52.9,120.9,70.4c106.5,60.6,138.7,75.2,169,86.9c43.9,16.8,81.4,26.3,106.2,31.7"/>
<polygon class="st1" points="439.5,0.5 439.5,189.3 43.9,0.5 "/>
<path class="st1" d="M439.5,230.6H0.5V0.5C60.4,33.6,107.6,62.7,139,82.7c86.4,55,125,86.9,197.2,116.2
	C379.2,216.3,416.1,225.6,439.5,230.6z"/>
<path class="st1" d="M439.5,0.5H43.9l395.6,188.8v41.3c-23.5-5-60.4-14.2-103.3-31.7C264,169.6,225.4,137.7,139,82.7
	C107.6,62.7,60.4,33.6,0.5,0.5v230.1H-3V0h442.6V0.5z"/>
<rect x="0.5" y="230.6" class="st0" width="433.2" height="259.4"/>
<path class="st0" d="M0.5,490c5.6,14.8,76.2,192.1,253.2,228.9c87.5,18.2,160.5-6.4,194.1-20.3"/>
</svg>
