<svg xmlns="http://www.w3.org/2000/svg" viewBox="0 0 665.41 286.69"><defs><style>.cls-1{fill:#f5f5f5;}.cls-2{fill:#e0e0e0;}.cls-3{fill:#fafafa;}.cls-4{fill:#ebebeb;}</style></defs><title>Asset 2</title><g id="Layer_2" data-name="Layer 2"><g id="Layer_1-2" data-name="Layer 1"><path class="cls-1" d="M563.82,254.22a15.63,15.63,0,0,1,3.82-1.66l.78-3.77,6.39-.12.91,3.75a16.55,16.55,0,0,1,3.88,1.52l3.22-2.11,4.59,4.43-2,3.3a15.63,15.63,0,0,1,1.66,3.82l3.78.78.11,6.39-3.75.91a15.43,15.43,0,0,1-1.52,3.88l2.12,3.22-4.44,4.59-3.3-2a15.7,15.7,0,0,1-3.81,1.65l-.79,3.78-6.38.11-.92-3.74a15.24,15.24,0,0,1-3.87-1.53l-3.23,2.12-4.59-4.44,2-3.29a15.8,15.8,0,0,1-1.66-3.82l-3.77-.79-.12-6.38,3.75-.92A15.51,15.51,0,0,1,558.2,260l-2.11-3.23,4.43-4.59,3.3,2Zm3.4,8.5a6.85,6.85,0,1,0,9.69-.17,6.85,6.85,0,0,0-9.69.17Z"/><path class="cls-2" d="M645.69,257.12l-12.29.5-1.32,3.44a7.27,7.27,0,0,0-.61,2.83,2.31,2.31,0,0,0,1.27,2.11,10.17,10.17,0,0,0,3.43.47v.95l-11.57.47v-.95a5.21,5.21,0,0,0,3-1.68,20.48,20.48,0,0,0,2.76-5.36l11.33-28.27h.49l13.69,28c1.33,2.67,2.38,4.33,3.16,5a4,4,0,0,0,2.5.83v.94l-16.83.68v-.95h.69a5.3,5.3,0,0,0,2.83-.68,1.39,1.39,0,0,0,.51-1.2,3,3,0,0,0-.19-.94,13,13,0,0,0-.85-1.89Zm-1-1.86-5.61-11.79-4.86,12.2Z"/><path class="cls-2" d="M566.82,36.3c-.08.07-1.28-1.12-3.61-3.11-1.16-1-2.6-2.18-4.35-3.46a49.11,49.11,0,0,0-6.2-3.88,27.6,27.6,0,0,0-3.87-1.68,12.55,12.55,0,0,0-4.37-.78,5,5,0,0,0-2.13.5,3.27,3.27,0,0,0-1.47,1.58,5.28,5.28,0,0,0-.43,2.29,10.59,10.59,0,0,0,.32,2.51,24.93,24.93,0,0,0,1.88,5.07,41.91,41.91,0,0,0,2.86,5,65.12,65.12,0,0,0,7.61,9.36,65.69,65.69,0,0,0,9.12,7.77,41.75,41.75,0,0,0,4.86,3,24.06,24.06,0,0,0,5,2,10.67,10.67,0,0,0,2.51.39,5.32,5.32,0,0,0,2.3-.36,3.28,3.28,0,0,0,1.58-1.41A5.14,5.14,0,0,0,579,59a13.15,13.15,0,0,0-.64-4.4,30.93,30.93,0,0,0-1.54-3.83,51.17,51.17,0,0,0-3.7-6.32c-1.23-1.78-2.37-3.26-3.33-4.45-1.91-2.38-3.07-3.62-3-3.69s.36.24,1,.79,1.42,1.41,2.44,2.56,2.24,2.59,3.54,4.36a46.45,46.45,0,0,1,3.94,6.33,30.58,30.58,0,0,1,1.7,4,14.07,14.07,0,0,1,.77,4.77,6.4,6.4,0,0,1-.68,2.61,4.44,4.44,0,0,1-2.12,1.92,6.56,6.56,0,0,1-2.8.5,12.45,12.45,0,0,1-2.79-.41,25.23,25.23,0,0,1-5.3-2.1,43.19,43.19,0,0,1-5-3.07A68.22,68.22,0,0,1,544.36,41a43.88,43.88,0,0,1-2.92-5.12,26.13,26.13,0,0,1-1.94-5.35,12.59,12.59,0,0,1-.32-2.8,6.41,6.41,0,0,1,.58-2.79,4.39,4.39,0,0,1,2-2.06,6.06,6.06,0,0,1,2.62-.6,13.59,13.59,0,0,1,4.75.92,28.69,28.69,0,0,1,4,1.81,47.48,47.48,0,0,1,6.21,4.13c1.72,1.35,3.13,2.61,4.25,3.67s1.93,1.93,2.48,2.53A4,4,0,0,1,566.82,36.3Z"/><path class="cls-2" d="M551.28,40.17c.11,0-.36,1.61-1,4.5-.31,1.44-.65,3.22-.92,5.29A44,44,0,0,0,549,57a25.18,25.18,0,0,0,.42,4.06,11.73,11.73,0,0,0,1.45,4,4.78,4.78,0,0,0,1.44,1.53,3.43,3.43,0,0,0,2,.54,5.16,5.16,0,0,0,2.17-.61,11.25,11.25,0,0,0,2-1.37A23,23,0,0,0,562,61.33a42,42,0,0,0,3-4.66,61.54,61.54,0,0,0,4.54-10.75A61.67,61.67,0,0,0,572,34.52a42.43,42.43,0,0,0,.27-5.52,22.62,22.62,0,0,0-.66-5.18,11.13,11.13,0,0,0-.87-2.29,5.48,5.48,0,0,0-1.42-1.75,3.44,3.44,0,0,0-1.94-.71,5.21,5.21,0,0,0-2.07.42,11.94,11.94,0,0,0-3.5,2.51,25.19,25.19,0,0,0-2.68,3.07,43.39,43.39,0,0,0-3.76,6c-1,1.85-1.72,3.5-2.3,4.86-1.17,2.71-1.69,4.27-1.8,4.24a4.36,4.36,0,0,1,.25-1.18c.21-.75.54-1.86,1.06-3.26a51,51,0,0,1,2.12-5,42.13,42.13,0,0,1,3.66-6.26,26.31,26.31,0,0,1,2.72-3.25,12.6,12.6,0,0,1,3.8-2.74,5.91,5.91,0,0,1,2.55-.55,4.5,4.5,0,0,1,2.61.92A6.66,6.66,0,0,1,571.82,21a12.17,12.17,0,0,1,1,2.55,24,24,0,0,1,.75,5.47,43.42,43.42,0,0,1-.25,5.7,63.43,63.43,0,0,1-7.19,22.64,42,42,0,0,1-3.08,4.79,23.43,23.43,0,0,1-3.77,4,11.89,11.89,0,0,1-2.29,1.5,6.24,6.24,0,0,1-2.67.7,4.53,4.53,0,0,1-2.66-.75,5.77,5.77,0,0,1-1.76-1.92,12.48,12.48,0,0,1-1.52-4.43A24,24,0,0,1,548,57a42.39,42.39,0,0,1,.59-7.2c.35-2.09.77-3.87,1.16-5.31s.75-2.53,1-3.27A3.81,3.81,0,0,1,551.28,40.17Z"/><path class="cls-2" d="M556.59,32.69c0,.11-1.56.54-4.35,1.53-1.39.5-3.07,1.15-5,2A44.51,44.51,0,0,0,541,39.6a24.62,24.62,0,0,0-3.23,2.5,11.57,11.57,0,0,0-2.65,3.37,5,5,0,0,0-.55,2,3.34,3.34,0,0,0,.6,2A5.07,5.07,0,0,0,536.82,51a9.94,9.94,0,0,0,2.23,1,22.84,22.84,0,0,0,5.13,1,42.35,42.35,0,0,0,5.52.06,63.57,63.57,0,0,0,22.53-5.68,40.69,40.69,0,0,0,4.84-2.67,22.5,22.5,0,0,0,4.06-3.29,10.64,10.64,0,0,0,1.52-2,5.58,5.58,0,0,0,.74-2.13,3.49,3.49,0,0,0-.42-2,5,5,0,0,0-1.45-1.54,12.18,12.18,0,0,0-3.94-1.69,27.38,27.38,0,0,0-4-.67,44,44,0,0,0-7.08,0c-2.09.14-3.88.37-5.34.59-2.93.45-4.53.82-4.55.71a4.07,4.07,0,0,1,1.12-.41c.76-.22,1.88-.51,3.34-.81s3.25-.61,5.37-.84a44.61,44.61,0,0,1,7.22-.16,25.81,25.81,0,0,1,4.19.61,13,13,0,0,1,4.34,1.79A6,6,0,0,1,584,34.8a4.47,4.47,0,0,1,.6,2.7,6.55,6.55,0,0,1-.87,2.62,12.1,12.1,0,0,1-1.63,2.19,24.1,24.1,0,0,1-4.27,3.47,41.41,41.41,0,0,1-5,2.79,60.9,60.9,0,0,1-11.24,4,61.58,61.58,0,0,1-11.76,1.8,43.36,43.36,0,0,1-5.7-.1,24.34,24.34,0,0,1-5.42-1.08A11.92,11.92,0,0,1,536.22,52a6.37,6.37,0,0,1-2-1.9,4.51,4.51,0,0,1-.76-2.66,5.8,5.8,0,0,1,.7-2.51,12.76,12.76,0,0,1,3-3.62,25.73,25.73,0,0,1,3.41-2.53A42.85,42.85,0,0,1,547,35.53c2-.8,3.69-1.38,5.12-1.81s2.55-.69,3.32-.86A4.83,4.83,0,0,1,556.59,32.69Z"/><path class="cls-2" d="M564.74,42.05a4.34,4.34,0,1,1-5.27-3.15,4.35,4.35,0,0,1,5.27,3.15Z"/><polygon class="cls-2" points="589.29 99.59 663.34 126.83 665.41 127.9 647.11 175.96 607.74 161.66 569.6 147.11 589.29 99.59"/><path class="cls-3" d="M663.82,127s-6.86-13.1-36.75-14.58c0,0-14.77-15.73-36.21-12.93L572.32,145s25.4,5.38,32,13.45L614,162s24.41.36,32.52,11.23Z"/><path class="cls-2" d="M663.82,127l-.32.83-.92,2.42-3.46,9.23c-3,8-7.35,19.56-12.66,33.67h.1a18.1,18.1,0,0,0-2.79-2.88,25,25,0,0,0-3.44-2.32,39.41,39.41,0,0,0-8-3.26,69.22,69.22,0,0,0-8.88-1.93,81.3,81.3,0,0,0-9.47-.88h0l-9.65-3.49h0a15.69,15.69,0,0,0-3.1-2.77,32.55,32.55,0,0,0-3.62-2.19,66.36,66.36,0,0,0-7.93-3.47c-2.75-1-5.58-1.92-8.46-2.76s-5.81-1.59-8.79-2.25h-.16l.05.1c6.57-16.14,12.84-31.53,18.56-45.55h-.06a42.08,42.08,0,0,1,5.5-.33h1.35a7.48,7.48,0,0,1,1.34.08l1.34.12,1.31.18a42.54,42.54,0,0,1,9.89,2.71,49,49,0,0,1,8.5,4.5,44.43,44.43,0,0,1,6.94,5.6h0a82.38,82.38,0,0,1,16.81,2.46,46.81,46.81,0,0,1,12,4.92,28,28,0,0,1,6.36,5,15.11,15.11,0,0,1,1.33,1.64c.27.39.39.6.39.6-.12-.21-.24-.41-.38-.61a14.91,14.91,0,0,0-1.32-1.65,27.43,27.43,0,0,0-6.35-5A46.89,46.89,0,0,0,644,114.87a81.82,81.82,0,0,0-16.82-2.48h0a43.61,43.61,0,0,0-6.95-5.62,49.57,49.57,0,0,0-8.51-4.52,43.32,43.32,0,0,0-9.92-2.73l-1.32-.18-1.34-.12c-.44,0-.89-.06-1.34-.08s-.91,0-1.36,0a42.12,42.12,0,0,0-5.51.33h0c-5.72,14-12,29.41-18.57,45.54v.08h.25c3,.66,5.91,1.42,8.79,2.25s5.69,1.74,8.44,2.75a67.66,67.66,0,0,1,7.91,3.46,33.92,33.92,0,0,1,3.61,2.18,15.43,15.43,0,0,1,3.08,2.74h0l9.64,3.48h0a81,81,0,0,1,9.45.88,67.24,67.24,0,0,1,8.86,1.92,40,40,0,0,1,8,3.25,24.54,24.54,0,0,1,3.41,2.3,18.34,18.34,0,0,1,2.78,2.86l.06.08v-.1l12.57-33.67c1.5-4,2.67-7.14,3.46-9.27.4-1.06.7-1.87.9-2.42S663.82,127,663.82,127Z"/><path class="cls-2" d="M657.35,131.7l-.06-.06-.17-.16-.67-.63-.48-.45-.61-.51c-.43-.36-.91-.79-1.49-1.21L653,128c-.31-.23-.65-.45-1-.69-.69-.48-1.46-.94-2.26-1.43a45.24,45.24,0,0,0-5.5-2.71,46.7,46.7,0,0,0-5.84-1.88c-.93-.2-1.8-.41-2.63-.53-.41-.07-.81-.15-1.19-.2l-1.12-.14c-.7-.1-1.35-.12-1.91-.17l-.79,0h0l.78.06a14.15,14.15,0,0,1,1.91.19l1.11.15c.38.05.78.13,1.19.2.83.13,1.7.34,2.61.55a44.34,44.34,0,0,1,5.82,1.88,47.26,47.26,0,0,1,5.49,2.69c.8.49,1.58.94,2.26,1.42.35.24.69.45,1,.68l.9.67c.58.41,1.06.83,1.5,1.19.22.18.43.34.61.5l.5.44.68.61.18.15Z"/><path class="cls-2" d="M655,137.09,655,137l-.18-.17-.68-.64-.5-.46-.61-.51c-.45-.37-.94-.81-1.53-1.23l-.91-.69c-.32-.23-.67-.45-1-.7-.7-.49-1.48-1-2.3-1.46a47.74,47.74,0,0,0-5.6-2.77,47.14,47.14,0,0,0-6-1.94c-.93-.21-1.82-.43-2.67-.57l-1.21-.21-1.13-.14c-.72-.11-1.38-.14-2-.19l-.8-.06h0l.8.08a12.15,12.15,0,0,1,1.94.21l1.13.15c.39.06.79.15,1.21.22.85.14,1.73.36,2.66.58a44.52,44.52,0,0,1,11.51,4.69c.82.5,1.6,1,2.3,1.45.35.24.7.46,1,.69l.92.68c.59.42,1.09.85,1.54,1.21l.62.5.5.45.71.62.18.16Z"/><path class="cls-2" d="M653.58,142.94l-.06-.06-.17-.17-.69-.63-.49-.46c-.19-.17-.4-.33-.62-.52-.45-.37-.94-.8-1.53-1.23l-.91-.68c-.32-.24-.67-.46-1-.7-.7-.5-1.48-1-2.3-1.47a47.74,47.74,0,0,0-5.6-2.77,49.64,49.64,0,0,0-5.94-1.94c-.94-.21-1.83-.43-2.67-.56-.42-.07-.83-.16-1.22-.21l-1.13-.15c-.72-.11-1.38-.14-2-.19l-.81-.06h-1.61l.94.05h.67a3.25,3.25,0,0,1,.8.07c.57.06,1.23.1,2,.21l1.12.16a8,8,0,0,1,1.22.21c.84.14,1.72.36,2.66.58a49.34,49.34,0,0,1,5.92,1.94,48.19,48.19,0,0,1,5.58,2.76c.82.49,1.61,1,2.31,1.44.35.24.7.46,1,.7l.91.67c.59.42,1.09.85,1.54,1.21l.62.51.51.45.7.61.18.16A.16.16,0,0,0,653.58,142.94Z"/><path class="cls-2" d="M651.13,148.24v-.06L651,148l-.68-.64-.5-.46-.62-.51c-.44-.37-.94-.81-1.53-1.23l-.91-.69c-.32-.23-.66-.45-1-.7a26,26,0,0,0-2.3-1.46,47.74,47.74,0,0,0-5.6-2.77,49.64,49.64,0,0,0-5.94-1.94c-.94-.21-1.83-.43-2.67-.56-.42-.08-.83-.16-1.22-.21l-1.13-.15c-.72-.11-1.38-.14-2-.19l-.8-.06h0a3.21,3.21,0,0,1,.8.07,13.49,13.49,0,0,1,2,.21l1.12.15c.4.06.8.15,1.22.22.84.14,1.72.36,2.66.58a44.12,44.12,0,0,1,11.5,4.69c.82.5,1.61,1,2.31,1.45.35.24.7.46,1,.69l.91.68c.6.42,1.09.85,1.54,1.21.22.18.44.35.62.51l.51.44.7.62.18.16Z"/><path class="cls-1" d="M235.82,10a15.56,15.56,0,0,1,3.81-1.66l.79-3.78,6.4-.12.92,3.75a15.9,15.9,0,0,1,3.87,1.52l3.21-2.1,4.59,4.43-2,3.3a16,16,0,0,1,1.66,3.82l3.78.78.11,6.38-3.75.92a16.39,16.39,0,0,1-1.52,3.88l2.13,3.22L255.39,39l-3.3-2a15.8,15.8,0,0,1-3.82,1.66l-.78,3.78-6.38.11-.92-3.75a15.43,15.43,0,0,1-3.88-1.52l-3.22,2.11-4.59-4.43,2-3.3a15.25,15.25,0,0,1-1.68-3.81L225,27l-.11-6.38,3.75-.92a15.51,15.51,0,0,1,1.52-3.87l-2.11-3.23L232.52,8Zm3.4,8.5a6.85,6.85,0,1,0,9.68-.16h0a6.85,6.85,0,0,0-9.68.15v0Z"/><path class="cls-4" d="M479.54,102a25.35,25.35,0,0,1,6.2-2.7L487,93.18,497.41,93l1.49,6.1a25.12,25.12,0,0,1,6.3,2.48l5.25-3.44,7.47,7.21-3.25,5.36a26.38,26.38,0,0,1,2.7,6.21l6.14,1.28.18,10.39-6.09,1.49a25.91,25.91,0,0,1-2.48,6.3l3.44,5.25-7.22,7.47L506,145.85a25.75,25.75,0,0,1-6.21,2.7l-1.28,6.14-10.38.18-1.5-6.09a25.91,25.91,0,0,1-6.3-2.48l-5.24,3.44-7.48-7.22,3.26-5.36a24.83,24.83,0,0,1-2.7-6.21L462,129.67l-.18-10.38,6.1-1.5a25.12,25.12,0,0,1,2.48-6.3L467,106.25l7.21-7.48Zm5.53,13.83a11.14,11.14,0,1,0,15.75-.28h0A11.14,11.14,0,0,0,485.07,115.86Z"/><path class="cls-4" d="M386.29,9a25.58,25.58,0,0,1,6.21-2.7L393.82.18,404.2,0l1.5,6.1A25.12,25.12,0,0,1,412,8.58l5.25-3.44,7.47,7.21-3.26,5.36a25.58,25.58,0,0,1,2.7,6.21l6.15,1.28.18,10.39-6.1,1.49a25.51,25.51,0,0,1-2.48,6.3l3.44,5.25-7.21,7.47-5.36-3.25a25.72,25.72,0,0,1-6.21,2.69l-1.28,6.15-10.47.18-1.49-6.09A25.91,25.91,0,0,1,387,53.3l-5.21,3.44-7.47-7.22,3.25-5.36A25.17,25.17,0,0,1,374.91,38l-6.15-1.28-.18-10.38,6.09-1.5a25.91,25.91,0,0,1,2.48-6.3l-3.44-5.25,7.22-7.47Zm5.53,13.83a11.14,11.14,0,1,0,15.75-.28h0A11.14,11.14,0,0,0,391.82,22.86Z"/><path class="cls-4" d="M103.48,195.64a25.58,25.58,0,0,1,6.21-2.7L111,186.8l10.39-.18,1.49,6.09a25.51,25.51,0,0,1,6.3,2.48l5.25-3.44,7.43,7.22-3.25,5.36a25.58,25.58,0,0,1,2.7,6.21l6.14,1.28.18,10.38-6.09,1.5A25.91,25.91,0,0,1,139,230l3.44,5.24-7.21,7.48-5.33-3.25a25.2,25.2,0,0,1-6.21,2.7l-1.28,6.15-10.38.18-1.5-6.1a25,25,0,0,1-6.3-2.48L99,243.36l-7.47-7.21,3.25-5.36a25.2,25.2,0,0,1-2.7-6.21l-6.15-1.28-.18-10.39,6.1-1.49a24.75,24.75,0,0,1,2.48-6.3l-3.44-5.25,7.21-7.47,5.37,3.25ZM109,209.47a11.14,11.14,0,1,0,15.75-.28h0A11.14,11.14,0,0,0,109,209.47Z"/><path class="cls-1" d="M46.27,186.78a17,17,0,0,1,4.26-1.85l.87-4.22,7.12-.12,1,4.18a17.13,17.13,0,0,1,4.3,1.7l3.6-2.36,5.12,4.94-2.23,3.68A17.74,17.74,0,0,1,72.16,197l4.22.88L76.5,205l-4.18,1a18.07,18.07,0,0,1-1.7,4.32L73,213.9,68,219l-3.68-2.23a18.09,18.09,0,0,1-4.26,1.85l-.88,4.21-7.11.13-1-4.18a18.07,18.07,0,0,1-4.32-1.7l-3.58,2.37-5.13-4.94,2.23-3.68a17,17,0,0,1-1.85-4.26l-4.21-.87-.12-7.12,4.18-1A16.87,16.87,0,0,1,40,193.28l-2.35-3.6,4.94-5.12,3.68,2.23Zm3.79,9.48a7.64,7.64,0,1,0,10.8-.19h0A7.64,7.64,0,0,0,50.06,196.26Z"/><rect class="cls-1" x="4.25" y="81.34" width="41.87" height="33.48" transform="translate(-29.99 13.17) rotate(-18.62)"/><rect class="cls-4" x="5.2" y="83.51" width="38.84" height="29.19" transform="translate(-29.81 12.85) rotate(-18.47)"/><polygon class="cls-2" points="10.82 118.11 17.94 96.6 29.51 104.71 32.99 97.15 47.66 105.81 10.82 118.11"/><path class="cls-2" d="M28.59,90.7a3.06,3.06,0,1,1-3.88-1.93h0a3,3,0,0,1,3.86,1.91Z"/><rect class="cls-1" x="56.37" y="17.18" width="42.52" height="53.19" transform="translate(19.75 111.54) rotate(-78.92)"/><path class="cls-2" d="M107.82,28h-.25l-.74-.14L104,27.35,93.3,25.29,55.6,18l.16-.11c-2.42,12.38-5.21,26.6-8.15,41.69h0l-.13-.19,52.2,10.25-.16.11c2.49-12.56,4.55-23,6-30.26.73-3.64,1.3-6.49,1.69-8.45.2-1,.35-1.71.46-2.23l.16-.77a3.37,3.37,0,0,1-.13.75c-.13.5-.23,1.25-.42,2.21-.37,1.95-.92,4.8-1.61,8.44-1.42,7.31-3.44,17.75-5.88,30.36v.13h-.13L47.42,59.69h-.15v-.15h0c3-15.06,5.75-29.3,8.19-41.72v-.14h.14l37.77,7.47L104,27.27l2.8.57.72.15Z"/><rect class="cls-4" x="59.01" y="19.04" width="37.17" height="49.45" transform="translate(19.73 111.5) rotate(-78.92)"/><polygon class="cls-2" points="49.77 57.25 71.16 37.9 78.88 54.14 87.49 47.95 98.3 66.76 49.77 57.25"/><path class="cls-2" d="M86.66,38.05a3.89,3.89,0,1,1-3.07-4.58A3.89,3.89,0,0,1,86.66,38.05Z"/></g></g></svg>