<svg xmlns="http://www.w3.org/2000/svg" viewBox="0 0 500 500"><g id="freepik--background-simple--inject-20"><path d="M465.8,122.05q-2.39-4-5-7.9C437.63,79.8,397.74,56.31,358.5,45.69A231.87,231.87,0,0,0,305.79,38c-116.62-4-163.07,88-201.61,111.67S6.34,213.91,10.3,298.9s65.22,165,183.81,170,126.5-48.43,192.71-68.19c43.82-13.08,75-57.26,90.2-98.09C497.8,247,496.82,174.69,465.8,122.05Z" style="fill:#92E3A9"></path><path d="M465.8,122.05q-2.39-4-5-7.9C437.63,79.8,397.74,56.31,358.5,45.69A231.87,231.87,0,0,0,305.79,38c-116.62-4-163.07,88-201.61,111.67S6.34,213.91,10.3,298.9s65.22,165,183.81,170,126.5-48.43,192.71-68.19c43.82-13.08,75-57.26,90.2-98.09C497.8,247,496.82,174.69,465.8,122.05Z" style="fill:#fff;opacity:0.7000000000000001"></path></g><g id="freepik--Floor--inject-20"><line x1="9.81" y1="447.26" x2="483.73" y2="447.26" style="fill:none;stroke:#263238;stroke-miterlimit:10"></line></g><g id="freepik--Plant--inject-20"><path d="M451,311.92h0a.09.09,0,0,0-.05-.12.1.1,0,0,0-.13,0A128.21,128.21,0,0,0,444,333a195.88,195.88,0,0,0-3.72,21.94l-.53,5.54c-.08.93-.18,1.85-.25,2.77l-.15,2.79c-.08,1.85-.19,3.71-.25,5.56l.05,5.57.07,2.79c0,.93.1,1.85.17,2.78.14,1.85.25,3.7.42,5.55.36,3.69.91,7.37,1.48,11a.11.11,0,0,0,.1.09.11.11,0,0,0,.1-.1h0c0-1.85-.09-3.7-.13-5.55s-.22-3.68-.19-5.53,0-3.69-.06-5.53l0-2.76,0-2.76,0-5.52.15-5.52.06-2.76c0-.92.1-1.84.15-2.76l.34-5.51A197,197,0,0,1,445,333.2,127.6,127.6,0,0,1,451,311.92Z" style="fill:#263238"></path><path d="M451.76,340.78a.11.11,0,0,0-.06-.12.1.1,0,0,0-.13.06,135.5,135.5,0,0,0-3.93,14,131.81,131.81,0,0,0-2.32,14.41c-.49,4.83-1,9.67-1.09,14.53a120.1,120.1,0,0,0,.51,14.56c0,.05,0,.09.09.09a.1.1,0,0,0,.11-.09c.56-4.83.9-9.66,1.24-14.48s.38-9.65.7-14.48a144.2,144.2,0,0,1,4.88-28.5Z" style="fill:#263238"></path><path d="M467.76,350.94a.09.09,0,0,0-.13,0,48.8,48.8,0,0,0-10.7,9.33,42.56,42.56,0,0,0-4.19,5.82l-.86,1.62-.67,1.68c-.24.56-.41,1.14-.59,1.71s-.36,1.15-.52,1.73a68.61,68.61,0,0,0-2.21,14.12,80.35,80.35,0,0,0,.53,14.21c0,.05,0,.09.09.09a.1.1,0,0,0,.1-.09l1.22-14.08a125.5,125.5,0,0,1,1.79-13.87c.12-.57.29-1.12.43-1.68a13.22,13.22,0,0,1,.49-1.66l.57-1.63.74-1.53a41.82,41.82,0,0,1,3.83-5.83,48.55,48.55,0,0,1,10.05-9.78h0A.09.09,0,0,0,467.76,350.94Z" style="fill:#263238"></path><path d="M460,369a15.63,15.63,0,0,0-4.87,5.85,34.74,34.74,0,0,0-2.73,7.17c-.19.61-.34,1.23-.47,1.86l-.44,1.87a32.08,32.08,0,0,0-.48,3.8c0,1.27,0,2.55,0,3.82a32.39,32.39,0,0,0,.5,3.8.11.11,0,0,0,.08.08.09.09,0,0,0,.11-.08,35.45,35.45,0,0,0,.68-3.74c.2-1.24.39-2.47.54-3.7s.34-2.45.44-3.69.26-2.46.52-3.67a33.67,33.67,0,0,1,2.09-7.1,15.69,15.69,0,0,1,4.09-6.1h0a.09.09,0,0,0,0-.13A.09.09,0,0,0,460,369Z" style="fill:#263238"></path><path d="M437.57,383.12c-.52-6.25-1.55-12.43-2.53-18.62S433,352.16,431.86,346s-2.4-12.28-3.72-18.39a.12.12,0,0,0-.12-.08.11.11,0,0,0-.08.12c1.07,6.16,2,12.33,3,18.51s1.82,12.37,2.6,18.56,1.36,12.42,2.13,18.6l2.29,18.6a.09.09,0,0,0,.09.09.09.09,0,0,0,.1-.09c.07-1.57.08-3.14.12-4.71s-.07-3.13-.1-4.7C438.08,389.37,437.81,386.24,437.57,383.12Z" style="fill:#263238"></path><path d="M433.83,383c-.34-2.48-.79-4.94-1.26-7.39l-.88-3.65c-.29-1.21-.56-2.43-.92-3.63A103.11,103.11,0,0,0,426,354.15l-.75-1.72-.83-1.68c-.53-1.13-1.17-2.21-1.78-3.3a27.71,27.71,0,0,0-4.51-6,.1.1,0,0,0-.14,0,.12.12,0,0,0,0,.14h0a27.7,27.7,0,0,1,4.13,6.11c.54,1.11,1.11,2.2,1.58,3.35l.73,1.7.65,1.74a102.86,102.86,0,0,1,4.17,14.21c.57,2.4.94,4.85,1.41,7.28l.58,3.66c.22,1.22.48,2.42.65,3.65.39,2.44.84,4.88,1.26,7.32s.83,4.9,1.35,7.35a.11.11,0,0,0,.09.08.09.09,0,0,0,.1-.1c0-2.49-.05-5-.17-7.48S434.09,385.51,433.83,383Z" style="fill:#263238"></path><path d="M428.66,383.35c-1.16-3.28-2.5-6.49-4-9.64a87.47,87.47,0,0,0-5-9.12.1.1,0,0,0-.13,0,.09.09,0,0,0,0,.13,86.22,86.22,0,0,1,4.24,9.41c1.27,3.2,2.42,6.44,3.37,9.73s1.68,6.65,2.56,9.95,1.66,6.64,2.68,10a.1.1,0,0,0,.09.07.1.1,0,0,0,.1-.1,49.63,49.63,0,0,0-1-10.39A64.19,64.19,0,0,0,428.66,383.35Z" style="fill:#263238"></path><path d="M428.44,394.27a22.17,22.17,0,0,0-2.75-5.77,24,24,0,0,0-4-5,19,19,0,0,0-2.55-1.93,10.46,10.46,0,0,0-2.89-1.3.1.1,0,0,0-.11.05.1.1,0,0,0,.05.13h0a14.28,14.28,0,0,1,4.79,3.72,22.58,22.58,0,0,1,3.34,5.05c.95,1.8,1.44,3.78,2.26,5.63.37.95.73,1.9,1.15,2.85a24.84,24.84,0,0,0,1.25,2.88h0a.09.09,0,0,0,.08.05.1.1,0,0,0,.11-.09,24.39,24.39,0,0,0-.12-3.2C428.91,396.34,428.69,395.3,428.44,394.27Z" style="fill:#263238"></path><path d="M428.83,336.55a17.77,17.77,0,0,1-12.6-13.38c-2.37-11,5.25-6.3-1.58-23.63s-5.25-21.26-2.89-26.25,3.68-3.41,5.78,3.15,9.71,16.8,12.6,36S428.83,336.55,428.83,336.55Z" style="fill:#92E3A9"></path><path d="M449,317.92s-6.82-2.37-7.09-15.23,5-10.24,5.78-26.25,1.84-27.3,4.72-27.56,10.5,7.87,13.13,25.72-3.41,29.66-8.66,34.92S449,317.92,449,317.92Z" style="fill:#92E3A9"></path><path d="M425.15,352s-1.57-9.45-4.72-13.91-10-8.4-14.44-17.06-9.45-12.87-9.19-.53,5.78,18.64,12.6,22.84S425.15,352,425.15,352Z" style="fill:#92E3A9"></path><path d="M422.27,368.32s-6.3-12.08-15.49-21-16.54-13.39-13.92-8.93,5.78,4.2,10.24,12.08,3.15,13.65,9.45,18.11S422.27,368.32,422.27,368.32Z" style="fill:#92E3A9"></path><path d="M421.48,383.81c-.26-.79-.53-6.57-9.45-11.29s-17.33-2.89-16.28-.53,6.56,6.3,12.08,8.67S421.48,383.81,421.48,383.81Z" style="fill:#92E3A9"></path><path d="M448.52,352.57s-3.94-5-1.84-15.49,6.82-7.88,12.07-13.39,4.2-6.3,9.45-12.08,10-8.92,12.08-6.56-1,9.72-4.2,13.92-8.14,6.3-10.5,11.55-1.31,13.65-7.35,17.58S448.52,352.57,448.52,352.57Z" style="fill:#92E3A9"></path><path d="M461.64,355.45s9.45-10.76,16.28-18.63,9.45-13.92,9.71-8.67,2.36,9.45-3.15,16.28S461.64,355.45,461.64,355.45Z" style="fill:#92E3A9"></path><path d="M456.65,372.78s-.26-4.2,14.7-13.91,21.27-11.55,19.69-7.62-8.13,7.88-15.22,15S456.65,372.78,456.65,372.78Z" style="fill:#92E3A9"></path><path d="M429.45,335.43s-3.51-18.83-7.18-32.22-6-21.52-6-21.52" style="fill:none;stroke:#263238;stroke-linecap:round;stroke-linejoin:round;stroke-width:0.5px"></path><path d="M448.44,318.11s6.38-20.41,8.48-32.75-.27-21.52-1.32-27" style="fill:none;stroke:#263238;stroke-linecap:round;stroke-linejoin:round;stroke-width:0.5px"></path><path d="M424.33,351.65a98.63,98.63,0,0,0-9.68-13.78c-5.77-6.83-10.24-10.5-12.86-17.07" style="fill:none;stroke:#263238;stroke-linecap:round;stroke-linejoin:round;stroke-width:0.5px"></path><path d="M448.52,352.57s2.1-12.6,7.08-19.17,15-16.8,18.9-23.36" style="fill:none;stroke:#263238;stroke-linecap:round;stroke-linejoin:round;stroke-width:0.5px"></path><path d="M420.86,383.52s-8.83-5.75-15.13-8.9" style="fill:none;stroke:#263238;stroke-linecap:round;stroke-linejoin:round;stroke-width:0.5px"></path><polygon points="452.44 452.77 427.72 452.77 422.42 394.08 457.74 394.08 452.44 452.77" style="fill:#263238;stroke:#263238;stroke-linecap:round;stroke-linejoin:round"></polygon></g><g id="freepik--Picture--inject-20"><rect x="63.39" y="92.94" width="76.81" height="95.69" style="fill:none;stroke:#263238;stroke-linecap:round;stroke-linejoin:round"></rect><rect x="65.9" y="96.06" width="71.79" height="89.43" style="fill:none;stroke:#263238;stroke-linecap:round;stroke-linejoin:round"></rect><rect x="87.04" y="122.4" width="29.52" height="36.77" style="fill:none;stroke:#263238;stroke-linecap:round;stroke-linejoin:round"></rect></g><g id="freepik--Checklist--inject-20"><path d="M198.56,36.51l1.4,19a2.84,2.84,0,1,1,.34,4.59l.29,3.9a2.76,2.76,0,0,1,1.6-.65,2.83,2.83,0,1,1,.42,5.65,2.79,2.79,0,0,1-1.69-.41l.29,3.9a2.83,2.83,0,1,1,2,5,2.77,2.77,0,0,1-1.68-.41l.28,3.9a2.84,2.84,0,1,1,2,5,2.79,2.79,0,0,1-1.69-.41l.29,3.9a2.84,2.84,0,1,1,.34,4.58l.28,3.91a2.77,2.77,0,0,1,1.61-.66,2.84,2.84,0,1,1-1.27,5.24l.29,3.9a2.84,2.84,0,1,1,.34,4.59l.28,3.9a2.76,2.76,0,0,1,1.61-.65,2.83,2.83,0,1,1,.41,5.65,2.77,2.77,0,0,1-1.68-.41l.29,3.9a2.83,2.83,0,1,1,2,5,2.79,2.79,0,0,1-1.69-.41l.29,3.9a2.83,2.83,0,1,1,2,5,2.77,2.77,0,0,1-1.68-.41l.28,3.9a2.84,2.84,0,1,1,.34,4.58l.29,3.91a2.77,2.77,0,0,1,1.61-.66,2.84,2.84,0,1,1-1.27,5.24l.28,3.9a2.84,2.84,0,1,1,2,5,2.86,2.86,0,0,1-1.69-.42l.29,3.9a2.76,2.76,0,0,1,1.6-.65,2.83,2.83,0,1,1,.42,5.65,2.74,2.74,0,0,1-1.68-.41l.28,3.9a2.84,2.84,0,1,1,2,5,2.77,2.77,0,0,1-1.68-.41l.29,3.9a2.83,2.83,0,1,1,2,5,2.79,2.79,0,0,1-1.69-.41l.29,3.9a2.84,2.84,0,1,1,.34,4.58l.29,3.91a2.77,2.77,0,0,1,1.6-.66,2.84,2.84,0,1,1-1.27,5.24l.29,3.9a2.84,2.84,0,1,1,.34,4.59l.28,3.9a2.76,2.76,0,0,1,1.61-.65,2.83,2.83,0,1,1,.42,5.65,2.79,2.79,0,0,1-1.69-.41l.29,3.9a2.83,2.83,0,1,1,2,5,2.77,2.77,0,0,1-1.68-.41l.28,3.9a2.84,2.84,0,1,1,2,5,2.79,2.79,0,0,1-1.69-.41l.29,3.9a2.84,2.84,0,1,1,.34,4.58l.28,3.91a2.77,2.77,0,0,1,1.61-.66,2.84,2.84,0,1,1-1.27,5.24l.29,3.9a2.84,2.84,0,1,1,2,5,2.86,2.86,0,0,1-1.69-.42l.62,8.42,170.8-12.56L369.36,24Z" style="fill:#263238;stroke:#263238;stroke-linecap:round;stroke-linejoin:round"></path><path d="M194.67,31.05l1.39,19a2.84,2.84,0,1,1,.34,4.59l.29,3.9a2.77,2.77,0,0,1,1.6-.66A2.84,2.84,0,1,1,197,63.13l.28,3.9a2.84,2.84,0,1,1,.34,4.59l.29,3.9a2.76,2.76,0,0,1,1.6-.65,2.83,2.83,0,1,1,.42,5.65,2.79,2.79,0,0,1-1.69-.41l.29,3.9a2.83,2.83,0,1,1,2,5,2.77,2.77,0,0,1-1.68-.41l.29,3.9a2.83,2.83,0,1,1,2,5,2.79,2.79,0,0,1-1.69-.41l.29,3.9a2.83,2.83,0,1,1,.34,4.59l.28,3.9a2.77,2.77,0,0,1,1.61-.66,2.84,2.84,0,1,1-1.27,5.24l.29,3.9a2.84,2.84,0,1,1,.34,4.59l.28,3.9a2.76,2.76,0,0,1,1.61-.65,2.83,2.83,0,1,1,.42,5.65A2.79,2.79,0,0,1,202,131l.29,3.9a2.83,2.83,0,1,1,2,5,2.74,2.74,0,0,1-1.68-.41l.28,3.9a2.84,2.84,0,1,1,2,5,2.77,2.77,0,0,1-1.68-.41l.29,3.9a2.83,2.83,0,1,1,.33,4.59l.29,3.9a2.77,2.77,0,0,1,1.61-.66,2.84,2.84,0,1,1-1.27,5.24l.29,3.9a2.8,2.8,0,0,1,1.6-.65,2.84,2.84,0,1,1-1.27,5.24l.29,3.9a2.76,2.76,0,0,1,1.61-.65,2.83,2.83,0,1,1,.41,5.65,2.77,2.77,0,0,1-1.68-.41l.28,3.9a2.84,2.84,0,1,1,2,5,2.79,2.79,0,0,1-1.69-.41l.29,3.9a2.83,2.83,0,1,1,2,5A2.74,2.74,0,0,1,207,199l.28,3.9a2.84,2.84,0,1,1,2,5,2.92,2.92,0,0,1-1.68-.41l.29,3.9a2.77,2.77,0,0,1,1.6-.66,2.84,2.84,0,1,1,.42,5.66,2.86,2.86,0,0,1-1.69-.42l.29,3.9a2.84,2.84,0,1,1,.34,4.59l.29,3.9a2.76,2.76,0,0,1,1.6-.65,2.83,2.83,0,1,1,.42,5.65,2.79,2.79,0,0,1-1.69-.41l.29,3.9a2.83,2.83,0,1,1,2,5,2.77,2.77,0,0,1-1.68-.41l.28,3.9a2.84,2.84,0,1,1,2,5,2.79,2.79,0,0,1-1.69-.41l.29,3.9a2.83,2.83,0,1,1,2,5,2.92,2.92,0,0,1-1.68-.41l.62,8.41,170.8-12.56L365.47,18.49Z" style="fill:#fff;stroke:#263238;stroke-miterlimit:10"></path><line x1="259.81" y1="94.56" x2="346.94" y2="88.15" style="fill:none;stroke:#263238;stroke-miterlimit:10"></line><rect x="229.19" y="84.69" width="20.73" height="20.73" transform="translate(-6.33 17.83) rotate(-4.21)" style="fill:none;stroke:#263238;stroke-miterlimit:10"></rect><line x1="262.35" y1="129.02" x2="349.48" y2="122.61" style="fill:none;stroke:#263238;stroke-miterlimit:10"></line><rect x="231.73" y="119.15" width="20.73" height="20.73" transform="translate(-8.85 18.11) rotate(-4.21)" style="fill:none;stroke:#263238;stroke-miterlimit:10"></rect><line x1="264.88" y1="163.47" x2="352.01" y2="157.07" style="fill:none;stroke:#263238;stroke-miterlimit:10"></line><rect x="234.26" y="153.61" width="20.73" height="20.73" transform="translate(-11.37 18.39) rotate(-4.21)" style="fill:none;stroke:#263238;stroke-miterlimit:10"></rect><line x1="267.42" y1="197.93" x2="354.55" y2="191.52" style="fill:none;stroke:#263238;stroke-miterlimit:10"></line><rect x="236.8" y="188.07" width="20.73" height="20.73" transform="translate(-13.89 18.67) rotate(-4.21)" style="fill:none;stroke:#263238;stroke-miterlimit:10"></rect><line x1="269.95" y1="232.39" x2="357.08" y2="225.98" style="fill:none;stroke:#263238;stroke-miterlimit:10"></line><rect x="239.33" y="222.53" width="20.73" height="20.73" transform="translate(-16.41 18.95) rotate(-4.21)" style="fill:none;stroke:#263238;stroke-miterlimit:10"></rect><polyline points="231.69 82.28 237.99 100.62 259.24 73.32" style="fill:none;stroke:#92E3A9;stroke-linecap:round;stroke-linejoin:round;stroke-width:4px"></polyline><polyline points="233.66 115.78 242.09 129.52 260.37 108.87" style="fill:none;stroke:#92E3A9;stroke-linecap:round;stroke-linejoin:round;stroke-width:4px"></polyline><polyline points="236.34 152.21 244.77 165.94 263.05 145.3" style="fill:none;stroke:#92E3A9;stroke-linecap:round;stroke-linejoin:round;stroke-width:4px"></polyline><path d="M259.55,65.77a2,2,0,0,1-.26-.93L258.9,60c0-.42-.12-1.1-.19-2.06-.19-2-.38-4.33-.57-6.88L258,49.37q-.18,1.6-.69,4.5c-.34,2-.56,3.65-.66,4.93V59l-.05.63a6.26,6.26,0,0,1-.22,1.5,1.09,1.09,0,0,1-1,.86c-.78.06-1.25-.94-1.4-3a21.57,21.57,0,0,0-.62-3.63c-.32-1.28-.81-2.85-1.45-4.72L250.73,47,251,51q.13,1.77.66,6.74l.23,2.23.4,4.48a1.85,1.85,0,0,1-.4,1.28,1.2,1.2,0,0,1-1.17-.42,2.92,2.92,0,0,1-.42-1.47l-.13-2.69c0-1.19-.06-2.07-.1-2.66l-.53-6.33L249,45.79q-.1-1.41-.24-4.23l.84-.59a.86.86,0,0,1,.56.33,6,6,0,0,1,.67,1.06,61.8,61.8,0,0,1,2.73,8,13.82,13.82,0,0,1,.36,1.39c.36,1.25.62,2.2.77,2.85l.68,2.48.15-1.09.42-2.74c.24-1.6.43-3,.57-4.19s.27-2.5.39-3.89c.12-1.65.17-3,.16-4.13l0-.2a1,1,0,0,1,.35-.7,1.24,1.24,0,0,1,.77-.3.68.68,0,0,1,.54.22.93.93,0,0,1,.27.54q.29,3.95,1.16,11.75.45,3.82.78,7.49c.13,1.11.25,2.52.38,4.22a2.33,2.33,0,0,1-.3,1.38,1.08,1.08,0,0,1-.84.65A.59.59,0,0,1,259.55,65.77Z" style="fill:#263238"></path><path d="M267.23,64.42q.31-.72-.05-5.6a20.35,20.35,0,0,0-.34-2.48l-.17-.94a12.89,12.89,0,0,1-.2-1.34l-.06-.85c-.26-.53-.74-1.52-1.42-3s-1.25-2.66-1.67-3.64a9,9,0,0,1-.8-2.31v-.17l.71-.61c.38,0,.81.47,1.29,1.36a29.34,29.34,0,0,1,1.42,3.39q.81,2.2.81,2.34c.07-.25.19-1.08.35-2.5a35,35,0,0,1,.61-3.77c.29-1.09.64-1.66,1-1.69a.94.94,0,0,1,.59.16.62.62,0,0,1,.28.47,18,18,0,0,1-.57,4.79,19.17,19.17,0,0,0-.63,4.86l.72,9.87c.11,1.46-.2,2.22-.92,2.27C267.83,65.1,267.51,64.88,267.23,64.42Z" style="fill:#263238"></path><path d="M283.34,63.41a4,4,0,0,1-1.34-.8,4.45,4.45,0,0,1-.89-1.29,9.72,9.72,0,0,1-.65-1.67,10.74,10.74,0,0,1-.39-1.78c-.13-.78-.22-1.46-.29-2l-.14-1.9-.09-1.31c-.09-1.27-.15-2.31-.16-3.12a18.21,18.21,0,0,1,.19-3.15,7.35,7.35,0,0,1,.83-2.66A3.57,3.57,0,0,1,282.23,42a3.83,3.83,0,0,1,1.36-.33q1.41-.11,1.47.72a.77.77,0,0,1-.27.66,1.12,1.12,0,0,1-.72.3,1.42,1.42,0,0,1-.36,0h-.33a1.19,1.19,0,0,0-.94.66,5.49,5.49,0,0,0-.6,1.69,26,26,0,0,0-.39,4.48c0,1.49.05,2.6.11,3.32s.16,1.76.32,3a14.08,14.08,0,0,0,.79,3.11,4.75,4.75,0,0,0,.63,1.22,2.79,2.79,0,0,0,.86.74,2.06,2.06,0,0,0,1.18.28c1.05-.08,1.44-1.86,1.19-5.36L286.42,55a2.15,2.15,0,0,0-.77,0l-.29,0L285,55c-.77.05-1.17-.17-1.2-.67a.82.82,0,0,1,.26-.73,1.26,1.26,0,0,1,.78-.31v0l.46,0c2-.14,3,.12,3,.8a8.3,8.3,0,0,1-.08,1.19,5.59,5.59,0,0,0-.11,1.2c0,.37.1.95.23,1.73l.19,1.73a3,3,0,0,1-.92,2.56,4.12,4.12,0,0,1-2.6,1.1A4,4,0,0,1,283.34,63.41Z" style="fill:#263238"></path><path d="M294.37,62.77a4.06,4.06,0,0,1-1.29-1.37,13.11,13.11,0,0,1-1.5-4.28,31.8,31.8,0,0,1-.61-4.27,5.23,5.23,0,0,1,0-.66l0-.59c0-.11,0-.16-.05-.16l0-.59-.13-2.3c0-.7,0-1.82,0-3.36a11.26,11.26,0,0,1,.53-3.1,2.46,2.46,0,0,1,.52-1.05,1.17,1.17,0,0,1,.79-.4,5.54,5.54,0,0,1,2.4.3,5.05,5.05,0,0,1,1.87,1.2,7.86,7.86,0,0,1,1.26,1.93,12.57,12.57,0,0,1,.84,2.49,19.8,19.8,0,0,1,.41,2.91l0,.26c.05.68.11,1.29.17,1.83l.17,1.87q.69,9.43-3.7,9.76A2.59,2.59,0,0,1,294.37,62.77Zm2.42-1.5a3,3,0,0,0,.66-1.35,12.41,12.41,0,0,0,.49-3.66c0-1.12,0-2.09-.05-2.9-.07-1-.24-2.27-.51-3.85s-.41-2.92-.47-3.75l-.05-.59a3.56,3.56,0,0,0-1-2.11,2.41,2.41,0,0,0-1.95-.78,1.5,1.5,0,0,0-1.39,1.39,9,9,0,0,0-.13,2.65c0,.41.07.76.11,1l.06.89.05,1.51c0,.46,0,1,.05,1.51.08,1.18.2,2.35.35,3.51a29.2,29.2,0,0,0,1,4.73c.47,1.6,1,2.37,1.72,2.32A1.53,1.53,0,0,0,296.79,61.27Z" style="fill:#263238"></path><path d="M309.25,61.66a1,1,0,0,1-.43-.83,27.44,27.44,0,0,0-.57-3.32l-.18-.68-3.28-.25c-.1.51-.21,1.54-.34,3.09a4.55,4.55,0,0,1-.46,2.18.8.8,0,0,1-.64.34,1.2,1.2,0,0,1-.73-.19.74.74,0,0,1-.38-.59l.06-.16,0-.14a147.88,147.88,0,0,0,2.06-16.86c0-.09,0-.24,0-.44s0-.52,0-.91c0-.81,0-1.46.08-1.95a2.61,2.61,0,0,1,.29-1.11l1.12-.08a1.49,1.49,0,0,1,.8.15.69.69,0,0,1,.37.59,58.32,58.32,0,0,0,1.24,7.35,65.45,65.45,0,0,1,1.17,7,7.86,7.86,0,0,0,.24,1,5.69,5.69,0,0,1,.24,1c0,.15.17.8.47,1.94a15.12,15.12,0,0,1,.44,2v0a.86.86,0,0,1-.46.95A2.16,2.16,0,0,1,309.25,61.66Zm-1.68-7.2a72.25,72.25,0,0,0-1.08-7.5l-.58-3.38c-.57,5.2-.92,9.13-1.08,11.78a8.37,8.37,0,0,0,2.92.31A6,6,0,0,1,307.57,54.46Z" style="fill:#263238"></path><path d="M315.84,61.24a2.09,2.09,0,0,1-1.09.41.85.85,0,0,1-.7-.3,1.14,1.14,0,0,1-.33-.71c-.13-1.84-.24-4.29-.31-7.36q-.17-4.91-.34-7.33l0-.23c-.23-1.37-.37-2.39-.42-3.07-.15-2.07.15-3.14.92-3.19a.78.78,0,0,1,.59.2.79.79,0,0,1,.29.55c0,.27,0,.69,0,1.26a10.61,10.61,0,0,0,0,1.25q.16,2.2.33,4c.1,1.16.21,2.47.32,3.94A4.51,4.51,0,0,0,315,52l0,.39.12,2.59c0,.77.06,1.65.13,2.63.11,1.51.53,2.24,1.25,2.18l.21,0,.41-.05c.19,0,.44-.06.75-.08,1.18-.09,1.79.19,1.84.85a.69.69,0,0,1-.25.58,1.6,1.6,0,0,1-.7.35A9.07,9.07,0,0,0,315.84,61.24Z" style="fill:#263238"></path><path d="M322.08,60.68a1.26,1.26,0,0,1-.54-.82l.32-.58a2.63,2.63,0,0,1,.63.08,3.86,3.86,0,0,0,.76,0,1.4,1.4,0,0,0,1-.61,3.36,3.36,0,0,0,.61-1.42,10.86,10.86,0,0,0,.21-2.86,9.08,9.08,0,0,0-1.71-4.45l-.4-.6c-.47-.69-.87-1.31-1.2-1.85a11.82,11.82,0,0,1-.85-1.79,8.38,8.38,0,0,1-.58-2.52,7.87,7.87,0,0,1,.43-3.07,3.12,3.12,0,0,1,.84-1.3,2.16,2.16,0,0,1,1.33-.57,1.86,1.86,0,0,1,1.13.29,1.14,1.14,0,0,1,.57.87.53.53,0,0,1-.2.47.94.94,0,0,1-.54.21,1.24,1.24,0,0,1-.7-.15c-.48.06-.83.51-1.06,1.37a7,7,0,0,0-.22,1.92,6.47,6.47,0,0,0,.44,1.9,8.24,8.24,0,0,0,.88,1.7l.82,1.26,1.31,2.08a9.69,9.69,0,0,1,.89,2.07,11.3,11.3,0,0,1,.46,2.44,8.33,8.33,0,0,1-.64,3.87,3.84,3.84,0,0,1-1.18,1.57,3.31,3.31,0,0,1-1.82.69V61A2,2,0,0,1,322.08,60.68Z" style="fill:#263238"></path></g><g id="freepik--Character--inject-20"><path d="M56.3,344.48s2-56.44,8.49-57.94,23.48,4,77.93,2,83.43-.49,85.43,1,9,85.93,6,86.93-65.45-5.5-91.43-5-78.43,28.83-82.93,27.83S56.3,344.48,56.3,344.48Z" style="fill:#ccc;stroke:#263238;stroke-linecap:round;stroke-linejoin:round"></path><path d="M404.14,344.48s-2-56.44-8.49-57.94-23.48,4-77.93,2-83.43-.49-85.43,1-1.14,85.93,1.86,86.93,57.59-5.5,83.57-5,83.21,23.35,87.71,22.35S404.14,344.48,404.14,344.48Z" style="fill:#ccc;stroke:#263238;stroke-linecap:round;stroke-linejoin:round"></path><rect x="49.56" y="453.5" width="364.79" height="15.59" style="fill:#263238;stroke:#263238;stroke-linecap:round;stroke-linejoin:round"></rect><rect x="56.8" y="431.91" width="356.7" height="22.98" style="fill:#ccc;stroke:#263238;stroke-linecap:round;stroke-linejoin:round"></rect><polygon points="236.81 410.63 50.27 410.63 74.56 370.96 236.81 370.96 236.81 410.63" style="fill:#e0e0e0;stroke:#263238;stroke-linecap:round;stroke-linejoin:round"></polygon><polygon points="412.16 410.63 236.16 410.63 236.16 370.96 394.39 370.96 412.16 410.63" style="fill:#e0e0e0;stroke:#263238;stroke-linecap:round;stroke-linejoin:round"></polygon><rect x="56.8" y="393.45" width="180.01" height="39.66" style="fill:#ccc;stroke:#263238;stroke-linecap:round;stroke-linejoin:round"></rect><rect x="236.16" y="393.45" width="176" height="39.66" style="fill:#ccc;stroke:#263238;stroke-linecap:round;stroke-linejoin:round"></rect><path d="M140.23,315.51s-17.49-5.49-20-4,3.5,31,5,39-1.5,19.49,1.5,21,61.94,3.5,69.94,2.5-8.5-44.46-10-56.95-.5-11-6.5-9S153.71,315.51,140.23,315.51Z" style="fill:#fff;stroke:#263238;stroke-linecap:round;stroke-linejoin:round"></path><path d="M41,337.49l18.52-10.84h11.6a4,4,0,0,1,4,4v39.45L61.72,393.78Z" style="fill:#ccc;stroke:#263238;stroke-linecap:round;stroke-linejoin:round"></path><path d="M123.87,294.85s-17,14-33,14.48-23-3.49-32.47,1.5,17,61.45,26,64.45,57-8,62.44-10-12.48-51.46-15-59.45S129.37,292.35,123.87,294.85Z" style="fill:#92E3A9;stroke:#263238;stroke-miterlimit:10"></path><path d="M42.46,337.49h14.3a5.09,5.09,0,0,1,5.09,5.09V466.06a4.32,4.32,0,0,1-4.32,4.32H41.69a4.32,4.32,0,0,1-4.32-4.32V342.58A5.09,5.09,0,0,1,42.46,337.49Z" style="fill:#ccc;stroke:#263238;stroke-linecap:round;stroke-linejoin:round"></path><path d="M421.23,337.49l-18.52-10.84h-11.6a4,4,0,0,0-4,4v39.45l18.36,23.68Z" style="fill:#ccc;stroke:#263238;stroke-linecap:round;stroke-linejoin:round"></path><path d="M406.93,337.49h14.3a5.09,5.09,0,0,1,5.09,5.09V466.06a4.32,4.32,0,0,1-4.32,4.32H406.16a4.32,4.32,0,0,1-4.32-4.32V342.58A5.09,5.09,0,0,1,406.93,337.49Z" style="fill:#ccc;stroke:#263238;stroke-linecap:round;stroke-linejoin:round"></path><path d="M333.28,297.52s17,14,33,14.48,23-3.49,32.47,1.5-17,61.45-26,64.45-56.95-8-62.44-10,12.49-51.46,15-59.45S327.78,295,333.28,297.52Z" style="fill:#92E3A9;stroke:#263238;stroke-miterlimit:10"></path><path d="M337.9,315.51s17.49-5.49,20-4-3.5,31-5,39,1.5,19.49-1.5,21-61.94,3.5-69.94,2.5,8.49-44.46,10-56.95.5-11,6.5-9S324.42,315.51,337.9,315.51Z" style="fill:#fff;stroke:#263238;stroke-linecap:round;stroke-linejoin:round"></path><path d="M189.23,378.8s4.89.68,6,2.86-1.22,6.25-6.25,7.61a29.93,29.93,0,0,1-19.3-2c-6.8-3.13-7.48-4.22-6.12-5.17S189.23,378.8,189.23,378.8Z" style="fill:#fff;stroke:#263238;stroke-miterlimit:10"></path><path d="M134.53,269.36s-5.23,2.32-10.27,4.46a23.21,23.21,0,0,0-9.11,6.59l-1.75,1.93,5.23,48.85s-5.81,15.51-4.07,27.33,12,19,22.1,21.71,25.59,4.66,36.06,3.3,19.77-5.23,22.87-6.4,5.43-6.59,5.43-6.59,19.19-15.31,24.42-20.74,5.81-19,1.36-22.68-10.66-1.36-12.8-.19-8.91,1.74-20.16,5.23-16.28,4.46-16.28,4.46l-12.79,1s-.58-8.92.39-11.83,6.2-15.7,6.2-15.7,2.52-4.07,2.71-11.24-7.75-19-10.27-22.1-11.83-11.82-14-12.21S134.53,269.36,134.53,269.36Z" style="fill:#7d7d7d;stroke:#263238;stroke-linecap:round;stroke-linejoin:round"></path><path d="M165.83,321.06s7.91,13.85,11,17.94a49,49,0,0,0,6.93,7.66,23.88,23.88,0,0,1,2.72,3.22H176.09l-11.5-8.9s-2.47-8.54-2.23-12.87A10.84,10.84,0,0,1,165.83,321.06Z" style="fill:#fff;stroke:#263238;stroke-miterlimit:10"></path><path d="M182.15,348.23a62.62,62.62,0,0,1,6.06-3.17,4.86,4.86,0,0,1,3.59,1.11,9.3,9.3,0,0,0,4,1.36c.62,0,1.85-.25,1.73.87s-1.48,1.48-1.48,1.48l-12.62-.49Z" style="fill:#fff;stroke:#263238;stroke-miterlimit:10"></path><path d="M165.16,325.76c1-2.9,6.2-15.7,6.2-15.7s2.52-4.07,2.71-11.24-7.75-19-10.27-22.1-11.83-11.82-14-12.21-15.31,4.85-15.31,4.85-5.23,2.32-10.27,4.46a23.21,23.21,0,0,0-9.11,6.59l-1.75,1.93,5.23,48.85a79.1,79.1,0,0,0-4.3,19.77c2.88,1.55,8.65,3.11,20.2,3.11,23.07,0,30.24-7.18,30.63-10.86a13,13,0,0,0-.39-5.62S164.19,328.67,165.16,325.76Z" style="fill:#92E3A9;stroke:#263238;stroke-miterlimit:10"></path><line x1="144.75" y1="321.79" x2="155.84" y2="315.9" style="fill:none;stroke:#263238;stroke-miterlimit:10"></line><line x1="159.49" y1="315.33" x2="153.59" y2="319.55" style="fill:none;stroke:#263238;stroke-miterlimit:10"></line><path d="M182.15,348.23s-29.08,1.83-30.09,2a28.71,28.71,0,0,0-4.07,1.45l33.81-.14S179.54,349.82,182.15,348.23Z" style="fill:#fff;stroke:#263238;stroke-miterlimit:10"></path><path d="M181.8,351.52l21.76-.15.29-1.45s-10.3-.15-15.38-1-6.38-1-7.84.73Z" style="fill:#e0e0e0;stroke:#263238;stroke-linecap:round;stroke-linejoin:round"></path><path d="M143.35,357,132.91,369.5l34.38,1.31,14.51-19.29a2.33,2.33,0,0,0-2.18-1.75c-1.74,0-31.63,1.89-31.63,1.89Z" style="fill:#fff;stroke:#263238;stroke-miterlimit:10"></path><path d="M175.7,354c-1,2.51-8.13,14.65-9.38,16.79l1,0,14.51-19.29a2.33,2.33,0,0,0-2.18-1.75A9.57,9.57,0,0,0,175.7,354Z" style="fill:#e0e0e0;stroke:#263238;stroke-linecap:round;stroke-linejoin:round"></path><path d="M214.31,331a25.92,25.92,0,0,0-7.3,4.45c-2.84,2.72-12.49,11.63-12.49,11.63" style="fill:none;stroke:#263238;stroke-miterlimit:10"></path><path d="M180.42,353.71s10.14,1.12,15.46,4.58,5.94,9.78,5.14,12.25" style="fill:#7d7d7d;stroke:#263238;stroke-linecap:round;stroke-linejoin:round"></path><path d="M191.06,375.11s-9,5.94-16.7,8.17" style="fill:none;stroke:#263238;stroke-miterlimit:10"></path><path d="M119.91,360.56s3.66-3.51,11.05-5.62" style="fill:none;stroke:#263238;stroke-miterlimit:10"></path><path d="M116.78,357.38a78.65,78.65,0,0,1,12.67-1.88" style="fill:none;stroke:#263238;stroke-miterlimit:10"></path><path d="M160.22,351.3l-1.15,1-12.61-14.82a.75.75,0,0,1,.09-1.06h0a.76.76,0,0,1,1.06.08Z" style="fill:#fff;stroke:#263238;stroke-miterlimit:10"></path><path d="M113.3,287.11s-8,42.4-8.57,45.21a5,5,0,0,0,2.67,5.34c1.12.42,17.13,12.35,22.89,15.44s11.93,6.32,11.93,6.32,3.37,2.39,6.18,2.81a38.52,38.52,0,0,0,8-.28s6-.28,7-1,2.67-5.34,2.25-6.18-4.21-6-5.76-7.16-10.53,2.24-12.21,2.95a16.32,16.32,0,0,1-4.36.84l-24-22.05,10-28Z" style="fill:#fff;stroke:#263238;stroke-miterlimit:10"></path><line x1="151.91" y1="357.88" x2="164.4" y2="359.7" style="fill:none;stroke:#263238;stroke-miterlimit:10"></line><line x1="154.01" y1="353.8" x2="164.97" y2="357.6" style="fill:none;stroke:#263238;stroke-miterlimit:10"></line><line x1="155.84" y1="349.87" x2="165.67" y2="354.79" style="fill:none;stroke:#263238;stroke-miterlimit:10"></line><path d="M131.62,291.07l-2.32,10.27-19-12.79a55.29,55.29,0,0,1,3.1-6.21,47.39,47.39,0,0,1,3.3-4.65,31.83,31.83,0,0,1,7.56-3.87,14.63,14.63,0,0,1,6.39-1" style="fill:#92E3A9;stroke:#263238;stroke-miterlimit:10"></path><path d="M157.6,212.18s-21.52.19-30.63,7-1.94,35.67-1.75,43a15.75,15.75,0,0,1-5.42,12.59c-1.36,1.17-3.1,2.91-3.1,2.91s13.76-2.91,18.6-5,11.83-8.72,12.6-9.69,8.15,13.76,11.63,16.48,11.83,18.61,13,23.06a9.33,9.33,0,0,1-1.16,7.56s9.5-7.17,11.43-13.56-3.87-18.23-8.14-23.07S164.57,257.15,164,252.69s5.82-26.56,4.85-33.54S160.7,210.62,157.6,212.18Z" style="fill:#263238;stroke:#263238;stroke-miterlimit:10"></path><path d="M158.93,219.13s4.49,5.31,5.72,10.22,2.59,9.12,3.68,10.62,3.67,2.18,3.81,3.4-3.27,3.68-3.27,3.68a89.06,89.06,0,0,1-1.36,9.94c-.82,3.41-1.77,3.54-3.95,3s-6.67-1.36-6.67-1.36-2.18,9.94-1.23,13.34,5,8.72,5.59,11.85.95,6.94-8.86,7.9-15.11-12-17.29-15.39l-2.18-3.41s9.13-5,11.3-11a20.44,20.44,0,0,0,.82-11.16,8.32,8.32,0,0,1-4.63-3.41,5.8,5.8,0,0,1,0-5.31,24.2,24.2,0,0,0,6-.95c2.18-.82,6.13-7.9,9-12.53A27.34,27.34,0,0,0,158.93,219.13Z" style="fill:#fff;stroke:#263238;stroke-miterlimit:10"></path><path d="M162.06,247.73s1.09,1.36,4.5,1.09" style="fill:none;stroke:#263238;stroke-miterlimit:10"></path><path d="M160.57,234a4.42,4.42,0,0,1,3.94-2" style="fill:none;stroke:#263238;stroke-miterlimit:10"></path><path d="M164.49,237c.26,1,.12,1.87-.32,2s-1-.58-1.26-1.56-.12-1.87.31-2S164.22,236,164.49,237Z" style="fill:#263238"></path><polygon points="156.89 258.63 152.8 257.4 155.94 263.8 156.89 258.63" style="fill:#263238;stroke:#263238;stroke-miterlimit:10"></polygon></g></svg>
