<svg xmlns="http://www.w3.org/2000/svg" viewBox="0 0 500 500"><g id="freepik--background-complete--inject-288"><rect x="62.77" y="59.04" width="35.16" height="11.19" style="fill:#ebebeb"></rect><path d="M437.73,159.25H401.57V147.06h36.16Zm-35.16-1h34.16V148.06H402.57Z" style="fill:#ebebeb"></path><path d="M78.32,44.93c-5.84.1-20.81.35-26.45.42l-8.71,0,.46-.46,0,11.19-.5-.5c5.84,0,20.73.08,26.37.16l8.79.11-.24.23.24-11.19Zm0,0,.23,11.19v.24h-.24c-4.39.06-13.2.16-17.58.19l-17.58.07h-.5v-.5l0-11.19v-.45h.45l8.87,0c5.6.06,20.5.31,26.29.41Z" style="fill:#ebebeb"></path><path d="M137.08,311.75c-5.84.1-20.82.35-26.45.42l-8.71,0,.45-.46,0,11.19-.5-.5c5.84,0,20.73.08,26.37.16l8.79.11-.24.23.24-11.19Zm0,0,.23,11.19v.24h-.24c-4.39.06-13.2.16-17.58.2l-17.58.06h-.5v-.51l0-11.19v-.45h.46l8.87,0c5.6.06,20.5.32,26.29.41Z" style="fill:#ebebeb"></path><path d="M117.46,297.64c-5.84.1-20.81.35-26.44.42l-8.71,0,.45-.46,0,11.19-.5-.5c5.83,0,20.72.08,26.36.16l8.79.11-.23.23.23-11.19Zm0,0,.24,11.19v.24h-.25c-4.38.06-13.19.16-17.58.2l-17.57.06H81.8v-.51l0-11.19v-.45h.46l8.86,0c5.61.06,20.51.32,26.29.41Z" style="fill:#ebebeb"></path><rect x="62.77" y="311.75" width="35.16" height="11.19" style="fill:#ebebeb"></rect><rect x="421.68" y="44.93" width="35.16" height="11.19" style="fill:#ebebeb"></rect><rect x="402.07" y="436.89" width="35.16" height="11.19" style="fill:#ebebeb"></rect><path d="M456.84,422.78c-5.84.1-20.81.35-26.45.42l-8.71,0,.46-.46,0,11.19-.5-.5c5.84,0,20.73.07,26.37.16l8.79.1-.24.24.24-11.19Zm0,0,.24,11.19v.24h-.24c-4.39.06-13.19.16-17.58.19l-17.58.07h-.5V434l.05-11.19v-.46h.45l8.87,0c5.6.06,20.51.31,26.29.41Z" style="fill:#ebebeb"></path><path d="M78.32,436.89c-5.84.1-20.81.35-26.45.41l-8.71.05.46-.46,0,11.19-.5-.5c5.84,0,20.73.07,26.37.15l8.79.11-.24.24.24-11.19Zm0,0,.23,11.19v.24h-.24c-4.39.06-13.2.16-17.58.19l-17.58.07h-.5v-.5l0-11.19v-.46h.45l8.87,0c5.6.06,20.5.31,26.29.41Z" style="fill:#ebebeb"></path><rect x="215.46" y="41.64" width="236.76" height="171.04" style="fill:#fff"></rect><path d="M455.12,215.58H212.56V38.73H455.12Zm-236.76-5.81h231V44.54h-231Z" style="fill:#ebebeb"></path><path d="M389.58,168.88a.52.52,0,0,1-.27-.07l-12.55-7.24a.57.57,0,0,1-.28-.48V146.6a.56.56,0,0,1,.28-.48l12.55-7.25a.54.54,0,0,1,.55,0l12.55,7.25a.56.56,0,0,1,.28.48v14.49a.57.57,0,0,1-.28.48l-12.55,7.24A.53.53,0,0,1,389.58,168.88Zm-12-8.11,12,6.92,12-6.92V146.92l-12-6.93-12,6.93Z" style="fill:#ebebeb"></path><path d="M414.68,168.88a.55.55,0,0,1-.28-.07l-12.54-7.24a.55.55,0,0,1-.28-.48V146.6a.54.54,0,0,1,.28-.48l12.54-7.25a.56.56,0,0,1,.56,0l12.54,7.25a.54.54,0,0,1,.28.48v14.49a.55.55,0,0,1-.28.48L415,168.81A.55.55,0,0,1,414.68,168.88Zm-12-8.11,12,6.92,12-6.92V146.92l-12-6.93-12,6.93Z" style="fill:#ebebeb"></path><path d="M414.68,139.91a.55.55,0,0,1-.55-.56v-8.6a.55.55,0,0,1,1.1,0v8.6A.55.55,0,0,1,414.68,139.91Z" style="fill:#ebebeb"></path><path d="M427.23,147.15a.54.54,0,0,1-.49-.29.56.56,0,0,1,.22-.75l7.3-4a.55.55,0,0,1,.75.22.55.55,0,0,1-.22.75l-7.3,4A.48.48,0,0,1,427.23,147.15Z" style="fill:#ebebeb"></path><path d="M379.32,160a.56.56,0,0,1-.55-.56V148.4a.55.55,0,0,1,.55-.55.55.55,0,0,1,.55.55v11.06A.55.55,0,0,1,379.32,160Z" style="fill:#ebebeb"></path><path d="M405.22,160a.55.55,0,0,1-.55-.56V148.4a.55.55,0,0,1,1.1,0v11.06A.55.55,0,0,1,405.22,160Z" style="fill:#ebebeb"></path><path d="M399.58,148.36a.48.48,0,0,1-.28-.08l-9.56-5.56a.55.55,0,0,1-.2-.75.54.54,0,0,1,.76-.2l9.56,5.56a.55.55,0,0,1,.2.75A.56.56,0,0,1,399.58,148.36Z" style="fill:#ebebeb"></path><path d="M424.51,148.36a.48.48,0,0,1-.28-.08l-9.56-5.56a.54.54,0,0,1-.2-.75.54.54,0,0,1,.75-.2l9.56,5.56a.55.55,0,0,1-.27,1Z" style="fill:#ebebeb"></path><path d="M350.47,137.11a.58.58,0,0,1-.28-.07l-12.54-7.24a.57.57,0,0,1-.28-.48V114.83a.56.56,0,0,1,.28-.48l12.54-7.25a.61.61,0,0,1,.56,0l12.55,7.25a.55.55,0,0,1,.27.48v14.49a.56.56,0,0,1-.27.48L350.75,137A.55.55,0,0,1,350.47,137.11Zm-12-8.11,12,6.92,12-6.92V115.15l-12-6.93-12,6.93Z" style="fill:#ebebeb"></path><path d="M350.47,108.14a.56.56,0,0,1-.55-.56V99a.55.55,0,0,1,.55-.55A.55.55,0,0,1,351,99v8.6A.55.55,0,0,1,350.47,108.14Z" style="fill:#ebebeb"></path><path d="M374.31,106.2a.55.55,0,0,1-.55-.55v-8.6a.54.54,0,0,1,.55-.55.55.55,0,0,1,.55.55v8.6A.55.55,0,0,1,374.31,106.2Z" style="fill:#ebebeb"></path><path d="M363,115.38a.54.54,0,0,1-.49-.29.57.57,0,0,1,.22-.75l7.3-4a.55.55,0,0,1,.75.22.55.55,0,0,1-.22.75l-7.3,4A.48.48,0,0,1,363,115.38Z" style="fill:#ebebeb"></path><path d="M385.44,115.38a.48.48,0,0,1-.26-.07l-7.3-4a.55.55,0,0,1-.22-.75.55.55,0,0,1,.75-.22l7.3,4a.56.56,0,0,1,.22.75A.54.54,0,0,1,385.44,115.38Z" style="fill:#ebebeb"></path><path d="M360.62,128.25a.56.56,0,0,1-.55-.56V116.63a.55.55,0,0,1,.55-.55.55.55,0,0,1,.55.55v11.06A.55.55,0,0,1,360.62,128.25Z" style="fill:#ebebeb"></path><path d="M340.72,116.59a.56.56,0,0,1-.48-.27.55.55,0,0,1,.2-.76L350,110a.55.55,0,0,1,.55,1L341,116.52A.58.58,0,0,1,340.72,116.59Z" style="fill:#ebebeb"></path><path d="M278.9,83.38a.64.64,0,0,1-.27-.07l-12.55-7.25a.56.56,0,0,1-.28-.48V61.09a.57.57,0,0,1,.28-.48l12.55-7.24a.54.54,0,0,1,.55,0l12.55,7.24a.56.56,0,0,1,.27.48V75.58a.55.55,0,0,1-.27.48l-12.55,7.25A.68.68,0,0,1,278.9,83.38Zm-12-8.12,12,6.93,12-6.93V61.41l-12-6.92-12,6.92Z" style="fill:#ebebeb"></path><path d="M291.45,61.65a.58.58,0,0,1-.49-.29.57.57,0,0,1,.22-.75l7.3-4a.56.56,0,0,1,.76.22.57.57,0,0,1-.22.75l-7.3,4A.68.68,0,0,1,291.45,61.65Z" style="fill:#ebebeb"></path><path d="M269.15,74.51a.54.54,0,0,1-.55-.55V62.9a.54.54,0,0,1,.55-.55.55.55,0,0,1,.55.55V74A.55.55,0,0,1,269.15,74.51Z" style="fill:#ebebeb"></path><path d="M289,62.86a.53.53,0,0,1-.27-.08l-9.56-5.56a.54.54,0,0,1-.2-.76.55.55,0,0,1,.75-.2l9.56,5.56a.56.56,0,0,1,.2.76A.55.55,0,0,1,289,62.86Z" style="fill:#ebebeb"></path><path d="M279.44,80.64a.55.55,0,0,1-.27-1l9.56-5.56a.54.54,0,0,1,.75.2.56.56,0,0,1-.2.76l-9.56,5.56A.55.55,0,0,1,279.44,80.64Z" style="fill:#ebebeb"></path><path d="M416.74,95.84a.57.57,0,0,1-.28-.08l-12.55-7.24a.55.55,0,0,1-.27-.48V73.55a.55.55,0,0,1,.27-.48l12.55-7.24a.54.54,0,0,1,.55,0l12.55,7.24a.56.56,0,0,1,.28.48V88a.56.56,0,0,1-.28.48L417,95.76A.53.53,0,0,1,416.74,95.84Zm-12-8.12,12,6.93,12-6.93V73.87l-12-6.92-12,6.92Z" style="fill:#ebebeb"></path><path d="M429.28,74.1a.55.55,0,0,1-.26-1l7.3-4a.55.55,0,0,1,.53,1l-7.3,4A.63.63,0,0,1,429.28,74.1Z" style="fill:#ebebeb"></path><path d="M407,87a.55.55,0,0,1-.55-.55V75.36a.56.56,0,0,1,1.11,0V86.42A.56.56,0,0,1,407,87Z" style="fill:#ebebeb"></path><path d="M426.84,75.31a.55.55,0,0,1-.28-.07L417,69.68a.56.56,0,1,1,.56-1l9.56,5.56a.57.57,0,0,1,.2.76A.55.55,0,0,1,426.84,75.31Z" style="fill:#ebebeb"></path><path d="M417.28,93.1a.55.55,0,0,1-.28-1l9.56-5.56a.55.55,0,1,1,.56.95L417.56,93A.58.58,0,0,1,417.28,93.1Z" style="fill:#ebebeb"></path><rect x="81.26" y="120.11" width="214.71" height="292.85" transform="translate(-32.38 26.17) rotate(-7.31)" style="fill:#ebebeb"></rect><rect x="72.68" y="134.37" width="9.49" height="292.85" transform="translate(189.95 549.46) rotate(172.69)" style="fill:#dbdbdb"></rect><rect x="64.49" y="121.18" width="214.71" height="29.23" transform="translate(-15.88 22.97) rotate(-7.31)" style="fill:#dbdbdb"></rect><rect x="55.9" y="135.44" width="9.49" height="29.23" transform="translate(-18.6 8.94) rotate(-7.31)" style="fill:#a6a6a6"></rect><rect x="75.04" y="163.99" width="0.5" height="263.62" transform="translate(-37.03 11.99) rotate(-7.31)" style="fill:#c7c7c7"></rect><rect x="76.18" y="163.85" width="0.5" height="263.63" transform="translate(-37 12.13) rotate(-7.31)" style="fill:#c7c7c7"></rect><rect x="77.32" y="163.7" width="0.5" height="263.62" transform="translate(-36.97 12.27) rotate(-7.31)" style="fill:#c7c7c7"></rect><rect x="78.46" y="163.55" width="0.5" height="263.62" transform="matrix(0.99, -0.13, 0.13, 0.99, -36.94, 12.42)" style="fill:#c7c7c7"></rect><rect x="79.6" y="163.41" width="0.5" height="263.63" transform="matrix(0.99, -0.13, 0.13, 0.99, -36.92, 12.56)" style="fill:#c7c7c7"></rect><rect x="80.74" y="163.26" width="0.5" height="263.63" transform="translate(-36.89 12.7) rotate(-7.31)" style="fill:#c7c7c7"></rect><rect x="81.88" y="163.11" width="0.5" height="263.62" transform="translate(-36.86 12.85) rotate(-7.31)" style="fill:#c7c7c7"></rect><rect x="83.02" y="162.97" width="0.5" height="263.63" transform="translate(-36.83 12.99) rotate(-7.31)" style="fill:#c7c7c7"></rect><rect x="104.79" y="245.25" width="77.73" height="1.62" transform="matrix(-0.99, 0.13, -0.13, -0.99, 317.46, 471.84)" style="fill:#c7c7c7"></rect><rect x="105.88" y="253.75" width="77.73" height="1.62" transform="translate(320.72 488.64) rotate(172.69)" style="fill:#c7c7c7"></rect><rect x="103.34" y="231.01" width="167.99" height="1.62" transform="translate(402.64 437.91) rotate(172.69)" style="fill:#c7c7c7"></rect><rect x="101.15" y="214" width="167.99" height="1.62" transform="translate(396.13 404.32) rotate(172.69)" style="fill:#c7c7c7"></rect><rect x="100.06" y="205.5" width="167.99" height="1.62" transform="translate(392.88 387.52) rotate(172.69)" style="fill:#c7c7c7"></rect><rect x="97.88" y="188.49" width="167.99" height="1.62" transform="translate(386.37 353.93) rotate(172.69)" style="fill:#c7c7c7"></rect><rect x="96.79" y="179.99" width="167.99" height="1.62" transform="translate(383.11 337.13) rotate(172.69)" style="fill:#c7c7c7"></rect><rect x="106.98" y="262.26" width="77.73" height="1.62" transform="translate(323.97 505.44) rotate(172.69)" style="fill:#c7c7c7"></rect><rect x="108.07" y="270.76" width="77.73" height="1.62" transform="translate(327.22 522.23) rotate(172.69)" style="fill:#c7c7c7"></rect><rect x="109.16" y="279.26" width="77.73" height="1.62" transform="translate(330.48 539.03) rotate(172.69)" style="fill:#c7c7c7"></rect><rect x="110.25" y="287.76" width="77.73" height="1.62" transform="translate(333.73 555.83) rotate(172.69)" style="fill:#c7c7c7"></rect><rect x="111.34" y="296.26" width="77.73" height="1.62" transform="translate(336.99 572.63) rotate(172.69)" style="fill:#c7c7c7"></rect><rect x="112.43" y="304.77" width="77.73" height="1.62" transform="translate(340.24 589.42) rotate(172.69)" style="fill:#c7c7c7"></rect><rect x="113.52" y="313.27" width="77.73" height="1.62" transform="translate(343.5 606.22) rotate(172.69)" style="fill:#c7c7c7"></rect><rect x="114.61" y="321.77" width="77.73" height="1.62" transform="translate(346.75 623.02) rotate(172.69)" style="fill:#c7c7c7"></rect><rect x="116.79" y="338.78" width="77.73" height="1.62" transform="translate(353.26 656.61) rotate(172.69)" style="fill:#c7c7c7"></rect><rect x="117.88" y="347.28" width="77.73" height="1.62" transform="translate(356.51 673.41) rotate(172.69)" style="fill:#c7c7c7"></rect><rect x="194.32" y="233.77" width="77.73" height="1.62" transform="translate(494.33 437.57) rotate(172.69)" style="fill:#c7c7c7"></rect><rect x="195.41" y="242.27" width="77.73" height="1.62" transform="translate(497.58 454.37) rotate(172.69)" style="fill:#c7c7c7"></rect><rect x="196.5" y="250.77" width="77.73" height="1.62" transform="translate(500.84 471.17) rotate(172.69)" style="fill:#c7c7c7"></rect><rect x="197.59" y="259.27" width="77.73" height="1.62" transform="translate(504.09 487.97) rotate(172.69)" style="fill:#c7c7c7"></rect><rect x="198.68" y="267.77" width="77.73" height="1.62" transform="translate(507.35 504.76) rotate(172.69)" style="fill:#c7c7c7"></rect><rect x="200.87" y="284.78" width="77.73" height="1.62" transform="translate(513.85 538.36) rotate(172.69)" style="fill:#c7c7c7"></rect><rect x="201.96" y="293.28" width="77.73" height="1.62" transform="translate(517.11 555.15) rotate(172.69)" style="fill:#c7c7c7"></rect><rect x="203.05" y="301.78" width="77.73" height="1.62" transform="translate(520.36 571.95) rotate(172.69)" style="fill:#c7c7c7"></rect><rect x="204.14" y="310.29" width="77.73" height="1.62" transform="translate(523.62 588.75) rotate(172.69)" style="fill:#c7c7c7"></rect><rect x="205.23" y="318.79" width="77.73" height="1.62" transform="translate(526.87 605.54) rotate(172.69)" style="fill:#c7c7c7"></rect><rect x="206.32" y="327.29" width="77.73" height="1.62" transform="translate(530.13 622.34) rotate(172.69)" style="fill:#c7c7c7"></rect><rect x="207.41" y="335.79" width="77.73" height="1.62" transform="translate(533.38 639.14) rotate(172.69)" style="fill:#c7c7c7"></rect><path d="M91.38,144a5,5,0,1,1-5.59-4.32A5,5,0,0,1,91.38,144Z" style="opacity:0.1"></path><path d="M89.42,144.21A3,3,0,1,1,86,141.6,3,3,0,0,1,89.42,144.21Z" style="fill:#263238"></path><path d="M117.24,140.64a5,5,0,1,1-5.59-4.32A5,5,0,0,1,117.24,140.64Z" style="opacity:0.1"></path><path d="M115.28,140.89a3,3,0,1,1-3.38-2.61A3,3,0,0,1,115.28,140.89Z" style="fill:#263238"></path><path d="M143.1,137.33a5,5,0,1,1-5.59-4.32A5,5,0,0,1,143.1,137.33Z" style="opacity:0.1"></path><path d="M141.15,137.58a3,3,0,1,1-3.39-2.62A3,3,0,0,1,141.15,137.58Z" style="fill:#263238"></path><path d="M169,134a5,5,0,1,1-5.59-4.32A5,5,0,0,1,169,134Z" style="opacity:0.1"></path><path d="M167.09,134.25a3,3,0,1,1-3.39-2.62A3,3,0,0,1,167.09,134.25Z" style="fill:#263238"></path><path d="M195,130.67a5,5,0,1,1-5.59-4.32A5,5,0,0,1,195,130.67Z" style="opacity:0.1"></path><path d="M193,130.92a3,3,0,1,1-3.39-2.61A3,3,0,0,1,193,130.92Z" style="fill:#263238"></path><path d="M220.8,127.36a5,5,0,1,1-5.59-4.32A5,5,0,0,1,220.8,127.36Z" style="opacity:0.1"></path><path d="M218.85,127.61a3,3,0,1,1-3.39-2.62A3,3,0,0,1,218.85,127.61Z" style="fill:#263238"></path><path d="M246.69,124a5,5,0,1,1-5.59-4.32A5,5,0,0,1,246.69,124Z" style="opacity:0.1"></path><path d="M244.73,124.29a3,3,0,1,1-3.38-2.62A3,3,0,0,1,244.73,124.29Z" style="fill:#263238"></path><path d="M272.66,120.71a5,5,0,1,1-5.59-4.32A5,5,0,0,1,272.66,120.71Z" style="opacity:0.1"></path><path d="M270.7,121a3,3,0,1,1-3.38-2.62A3,3,0,0,1,270.7,121Z" style="fill:#263238"></path><path d="M87.51,133.81c.32,2.47,1.08,10.56,1.08,10.56.36,2.8-4,3.35-4.33.56s-1-7.75-1.58-12.29c-.8-6.2-3.78-8.09-6.47-7.74-3.35.43-4.82,4.72-4.28,9l-4.35.56c-1.24-9.65,2.89-14,7.64-14.57C82.44,118.93,86.17,123.35,87.51,133.81Z" style="fill:#a6a6a6"></path><path d="M113.4,130.49c.32,2.47,1.08,10.56,1.08,10.56.36,2.8-4,3.35-4.33.56s-1-7.75-1.58-12.3c-.8-6.19-3.78-8.08-6.47-7.73-3.35.43-4.82,4.72-4.28,9l-4.35.56c-1.24-9.65,2.9-14,7.64-14.58C108.33,115.61,112.06,120,113.4,130.49Z" style="fill:#a6a6a6"></path><path d="M139.29,127.16c.32,2.48,1.08,10.57,1.08,10.57.36,2.8-4,3.34-4.33.56s-1-7.75-1.58-12.3c-.79-6.19-3.78-8.08-6.47-7.73-3.35.43-4.82,4.72-4.28,9l-4.35.56c-1.24-9.65,2.9-14,7.64-14.58C134.23,112.29,138,116.7,139.29,127.16Z" style="fill:#a6a6a6"></path><path d="M165.18,123.84c.32,2.48,1.08,10.57,1.08,10.57.36,2.8-4,3.34-4.33.55s-1-7.74-1.58-12.29c-.79-6.19-3.78-8.08-6.47-7.74-3.35.43-4.82,4.72-4.27,9l-4.36.56c-1.24-9.66,2.9-14,7.64-14.58C160.12,109,163.84,113.38,165.18,123.84Z" style="fill:#a6a6a6"></path><path d="M191.08,120.52c.31,2.48,1.07,10.57,1.07,10.57.36,2.8-4,3.34-4.33.55s-1-7.74-1.58-12.29c-.79-6.19-3.78-8.08-6.47-7.74-3.35.43-4.82,4.72-4.27,9l-4.36.55c-1.24-9.65,2.9-14,7.64-14.57C186,105.64,189.73,110.06,191.08,120.52Z" style="fill:#a6a6a6"></path><path d="M217,117.2c.31,2.48,1.07,10.57,1.07,10.57.36,2.79-4,3.34-4.33.55s-1-7.75-1.58-12.29c-.79-6.19-3.78-8.08-6.46-7.74-3.36.43-4.83,4.72-4.28,9l-4.36.56c-1.24-9.65,2.9-14,7.64-14.57C211.9,102.32,215.62,106.74,217,117.2Z" style="fill:#a6a6a6"></path><path d="M242.86,113.88c.31,2.47,1.07,10.56,1.07,10.56.36,2.8-4,3.35-4.33.56s-1-7.75-1.58-12.29c-.79-6.2-3.78-8.08-6.46-7.74-3.35.43-4.83,4.72-4.28,9l-4.36.56c-1.24-9.65,2.9-14,7.64-14.57C237.79,99,241.52,103.42,242.86,113.88Z" style="fill:#a6a6a6"></path><path d="M268.75,110.56c.32,2.47,1.07,10.56,1.07,10.56.36,2.8-4,3.35-4.33.56s-1-7.75-1.58-12.29c-.79-6.2-3.78-8.09-6.46-7.74-3.35.43-4.83,4.72-4.28,9l-4.36.56c-1.24-9.65,2.9-14,7.64-14.57C263.68,95.68,267.41,100.1,268.75,110.56Z" style="fill:#a6a6a6"></path></g><g id="freepik--Books--inject-288"><rect x="73.96" y="412.63" width="177.79" height="18.82" style="fill:#6600FF"></rect><rect x="73.96" y="412.63" width="177.79" height="18.82" style="fill:#fff;opacity:0.6000000000000001"></rect><rect x="218.22" y="412.63" width="17.37" height="18.82" transform="translate(453.81 844.08) rotate(180)" style="fill:#6600FF"></rect><rect x="204.53" y="412.63" width="7.25" height="18.82" transform="translate(416.3 844.08) rotate(180)" style="fill:#6600FF"></rect><rect x="89.78" y="412.63" width="17.37" height="18.82" transform="translate(196.94 844.08) rotate(180)" style="fill:#6600FF"></rect><rect x="77.07" y="458.84" width="182.86" height="13.35" style="fill:#455a64"></rect><rect x="117.84" y="458.84" width="7.46" height="13.35" style="fill:#6600FF"></rect><rect x="105.46" y="458.84" width="7.46" height="13.35" style="fill:#6600FF"></rect><rect x="234.24" y="458.84" width="7.46" height="13.35" style="fill:#6600FF"></rect><rect x="221.86" y="458.84" width="7.46" height="13.35" style="fill:#6600FF"></rect><rect x="81.75" y="392.71" width="110.68" height="19.93" style="fill:#455a64"></rect><rect x="192.3" y="392.71" width="65.87" height="19.93" style="fill:#37474f"></rect><rect x="81.75" y="394.78" width="108.23" height="15.79" style="fill:#fff"></rect><path d="M88.75,407.32q12.66.17,25.31.24l25.31.07,25.3-.07q12.66-.06,25.31-.24-12.66-.17-25.31-.23l-25.3-.07-25.31.07Q101.4,407.15,88.75,407.32Z" style="fill:#dbdbdb"></path><path d="M88.75,404.23q12.66.16,25.31.23l25.31.07,25.3-.07q12.66-.06,25.31-.23-12.66-.18-25.31-.24l-25.3-.07-25.31.07Q101.4,404,88.75,404.23Z" style="fill:#dbdbdb"></path><path d="M88.75,401.13q12.66.17,25.31.23l25.31.07,25.3-.07q12.66-.06,25.31-.23-12.66-.18-25.31-.24l-25.3-.07-25.31.07Q101.4,401,88.75,401.13Z" style="fill:#dbdbdb"></path><path d="M88.75,398q12.66.17,25.31.23l25.31.07,25.3-.07q12.66-.06,25.31-.23-12.66-.16-25.31-.24l-25.3-.07-25.31.08Q101.4,397.86,88.75,398Z" style="fill:#dbdbdb"></path><polygon points="181.24 428.02 173.7 420.06 166.16 428.02 166.16 407.39 167.77 404.23 182.85 404.23 181.24 407.39 181.24 428.02" style="fill:#6600FF"></polygon><rect x="178.37" y="431.45" width="106.56" height="27.39" transform="translate(463.3 890.29) rotate(180)" style="fill:#37474f"></rect><rect x="60.35" y="431.45" width="118.02" height="27.39" transform="translate(238.71 890.29) rotate(180)" style="fill:#263238"></rect><rect x="181.61" y="434.29" width="103.32" height="21.7" transform="translate(466.54 890.29) rotate(180)" style="fill:#fff"></rect><path d="M278.24,438.76q-12.08-.17-24.16-.23l-24.15-.07-24.16.07q-12.08.06-24.16.23,12.07.17,24.16.23l24.16.07,24.15-.07Q266.17,438.93,278.24,438.76Z" style="fill:#dbdbdb"></path><path d="M278.24,443q-12.08-.16-24.16-.24l-24.15-.07-24.16.07q-12.08.06-24.16.24,12.07.17,24.16.23l24.16.07,24.15-.07Q266.17,443.19,278.24,443Z" style="fill:#dbdbdb"></path><path d="M278.24,447.28q-12.08-.18-24.16-.24L229.93,447l-24.16.07q-12.08.06-24.16.24,12.07.17,24.16.23l24.16.07,24.15-.07Q266.17,447.45,278.24,447.28Z" style="fill:#dbdbdb"></path><path d="M278.24,451.53q-12.08-.16-24.16-.23l-24.15-.07-24.16.07q-12.08.06-24.16.23,12.07.18,24.16.24l24.16.07,24.15-.07Q266.17,451.71,278.24,451.53Z" style="fill:#dbdbdb"></path><rect x="124.08" y="371.91" width="100.94" height="20.8" transform="translate(349.1 764.62) rotate(180)" style="fill:#6600FF"></rect><rect x="66.54" y="371.91" width="57.54" height="20.8" transform="translate(190.62 764.62) rotate(180)" style="fill:#6600FF"></rect><rect x="66.54" y="371.91" width="54.97" height="20.8" transform="translate(188.05 764.62) rotate(180)" style="opacity:0.2"></rect><rect x="124.08" y="374.07" width="100.94" height="16.49" transform="translate(349.1 764.62) rotate(180)" style="fill:#fff"></rect><path d="M218.48,377.46q-11.79-.18-23.6-.24l-23.6-.08-23.6.08q-11.79.06-23.6.24,11.8.18,23.6.24l23.6.08,23.6-.08Q206.69,377.64,218.48,377.46Z" style="fill:#dbdbdb"></path><path d="M218.48,380.69q-11.79-.17-23.6-.24l-23.6-.07-23.6.07q-11.79.06-23.6.24,11.8.18,23.6.25l23.6.07,23.6-.07Q206.69,380.87,218.48,380.69Z" style="fill:#dbdbdb"></path><path d="M218.48,383.93q-11.79-.18-23.6-.25l-23.6-.07-23.6.07q-11.79.07-23.6.25,11.8.18,23.6.24l23.6.08,23.6-.08Q206.69,384.11,218.48,383.93Z" style="fill:#dbdbdb"></path><path d="M218.48,387.16q-11.79-.17-23.6-.24l-23.6-.07-23.6.07q-11.79.06-23.6.24,11.8.18,23.6.25l23.6.07,23.6-.07Q206.69,387.34,218.48,387.16Z" style="fill:#dbdbdb"></path><polygon points="141.97 399.58 146.85 394.43 151.73 399.58 151.73 386.24 150.69 384.19 140.93 384.19 141.97 386.24 141.97 399.58" style="fill:#455a64"></polygon></g><g id="freepik--Document--inject-288"><path d="M362,97.64v248H226.72v.46a35,35,0,0,1-34.18,35h-1.21a29.87,29.87,0,0,1-3.56-.19l-6.52-1.34a35,35,0,0,1-4.72-1.9,21.21,21.21,0,0,1-2.22-1.15,7.55,7.55,0,0,1-1.11-.7,24,24,0,0,1-2.91-2,3.92,3.92,0,0,1-.46-.37,16.49,16.49,0,0,1-2-1.67c-.32-.28-.64-.6-1-.92a33.9,33.9,0,0,1-8.65-14.3,1.39,1.39,0,0,0-.14-.32c-.23-.83-.46-1.71-.64-2.59a20,20,0,0,1-.56-3.38c-.09-.51-.09-1-.14-1.52a2.24,2.24,0,0,1,0-.51c0-.65-.14-1.25-.14-1.9V98c0-9.81-6.85-35.07-37.15-35.07H327.26A34.71,34.71,0,0,1,362,97.64Z" style="fill:#fff"></path><path d="M362,97.64c.07.15.18,248.07.23,248.23s-135.41.06-135.46.13l.36-.36a38.56,38.56,0,0,1-1.62,11.09,35.67,35.67,0,0,1-22.89,23.1,37.26,37.26,0,0,1-14.88,1.51L181.17,380a32.11,32.11,0,0,1-5.36-2.2,35,35,0,0,1-19.54-29.6c-.23-2.36-.12-6.59-.14-9,0-6,0-22.62,0-28.86.05-63.21.14-148.35.19-211.63,0-12.65-6.92-25.54-18.35-31.39a40.64,40.64,0,0,0-18.49-4.1V62.7c50.43.12,159.75,0,209,.25,18.43.45,33.61,16.25,33.49,34.69Zm0,0c.08-18.37-15.06-34.2-33.5-34.59-48.76-.13-159,.16-209,.14V62.7a41.06,41.06,0,0,1,18.74,4.12c11.62,5.92,18.63,19,18.71,31.86.07,63.31.14,148.39.19,211.63,0,6.25,0,22.8,0,28.86.06,2.36-.14,6.65.13,9a35.6,35.6,0,0,0,.63,5A34.49,34.49,0,0,0,176.19,377a32,32,0,0,0,5.15,2.15l6.52,1.35a34.7,34.7,0,0,0,38.5-34.89v-.36h.36l135.23.13c-.34,1.5,0-248.12,0-247.77Z" style="fill:#263238"></path><rect x="266.5" y="81.91" width="72.59" height="1.99" transform="translate(605.6 165.81) rotate(180)" style="fill:#dbdbdb"></rect><rect x="182.21" y="134.51" width="72.59" height="1.99" transform="translate(437.01 271.01) rotate(180)" style="fill:#dbdbdb"></rect><rect x="182.21" y="145.03" width="72.59" height="1.99" transform="translate(437.01 292.06) rotate(180)" style="fill:#dbdbdb"></rect><rect x="182.21" y="155.55" width="72.59" height="1.99" transform="translate(437.01 313.1) rotate(180)" style="fill:#dbdbdb"></rect><rect x="182.21" y="166.07" width="72.59" height="1.99" transform="translate(437.01 334.14) rotate(180)" style="fill:#dbdbdb"></rect><rect x="182.21" y="176.59" width="72.59" height="1.99" transform="translate(437.01 355.18) rotate(180)" style="fill:#dbdbdb"></rect><rect x="182.21" y="187.11" width="72.59" height="1.99" transform="translate(437.01 376.22) rotate(180)" style="fill:#dbdbdb"></rect><rect x="182.21" y="197.64" width="72.59" height="1.99" transform="translate(437.01 397.26) rotate(180)" style="fill:#dbdbdb"></rect><rect x="182.21" y="208.16" width="72.59" height="1.99" transform="translate(437.01 418.3) rotate(180)" style="fill:#dbdbdb"></rect><rect x="182.21" y="218.68" width="72.59" height="1.99" transform="translate(437.01 439.34) rotate(180)" style="fill:#dbdbdb"></rect><rect x="182.21" y="229.2" width="72.59" height="1.99" transform="translate(437.01 460.39) rotate(180)" style="fill:#dbdbdb"></rect><rect x="182.21" y="250.24" width="72.59" height="1.99" transform="translate(437.01 502.47) rotate(180)" style="fill:#dbdbdb"></rect><rect x="182.21" y="260.76" width="72.59" height="1.99" transform="translate(437.01 523.51) rotate(180)" style="fill:#dbdbdb"></rect><rect x="182.21" y="271.28" width="72.59" height="1.99" transform="translate(437.01 544.55) rotate(180)" style="fill:#dbdbdb"></rect><rect x="182.21" y="281.8" width="72.59" height="1.99" transform="translate(437.01 565.59) rotate(180)" style="fill:#dbdbdb"></rect><rect x="182.21" y="302.84" width="72.59" height="1.99" transform="translate(437.01 607.67) rotate(180)" style="fill:#dbdbdb"></rect><rect x="182.21" y="313.36" width="72.59" height="1.99" transform="translate(437.01 628.71) rotate(180)" style="fill:#dbdbdb"></rect><rect x="182.21" y="323.88" width="72.59" height="1.99" transform="translate(437.01 649.76) rotate(180)" style="fill:#dbdbdb"></rect><rect x="266.5" y="92.43" width="72.59" height="1.99" transform="translate(605.6 186.85) rotate(180)" style="fill:#dbdbdb"></rect><rect x="266.5" y="102.95" width="72.59" height="1.99" transform="translate(605.6 207.89) rotate(180)" style="fill:#dbdbdb"></rect><rect x="266.5" y="113.47" width="72.59" height="1.99" transform="translate(605.6 228.93) rotate(180)" style="fill:#dbdbdb"></rect><rect x="266.5" y="123.99" width="72.59" height="1.99" transform="translate(605.6 249.97) rotate(180)" style="fill:#dbdbdb"></rect><rect x="266.5" y="134.51" width="72.59" height="1.99" transform="translate(605.6 271.01) rotate(180)" style="fill:#dbdbdb"></rect><rect x="266.5" y="145.03" width="72.59" height="1.99" transform="translate(605.6 292.06) rotate(180)" style="fill:#dbdbdb"></rect><rect x="266.5" y="155.55" width="72.59" height="1.99" transform="translate(605.6 313.1) rotate(180)" style="fill:#dbdbdb"></rect><rect x="266.5" y="166.07" width="72.59" height="1.99" transform="translate(605.6 334.14) rotate(180)" style="fill:#dbdbdb"></rect><rect x="266.5" y="176.59" width="72.59" height="1.99" transform="translate(605.6 355.18) rotate(180)" style="fill:#dbdbdb"></rect><rect x="266.5" y="197.64" width="72.59" height="1.99" transform="translate(605.6 397.26) rotate(180)" style="fill:#dbdbdb"></rect><rect x="266.5" y="208.16" width="72.59" height="1.99" transform="translate(605.6 418.3) rotate(180)" style="fill:#dbdbdb"></rect><rect x="266.5" y="218.68" width="72.59" height="1.99" transform="translate(605.6 439.34) rotate(180)" style="fill:#dbdbdb"></rect><rect x="266.5" y="229.2" width="72.59" height="1.99" transform="translate(605.6 460.39) rotate(180)" style="fill:#dbdbdb"></rect><rect x="266.5" y="239.72" width="72.59" height="1.99" transform="translate(605.6 481.43) rotate(180)" style="fill:#dbdbdb"></rect><rect x="266.5" y="250.24" width="72.59" height="1.99" transform="translate(605.6 502.47) rotate(180)" style="fill:#dbdbdb"></rect><rect x="266.5" y="260.76" width="72.59" height="1.99" transform="translate(605.6 523.51) rotate(180)" style="fill:#dbdbdb"></rect><rect x="266.5" y="271.28" width="72.59" height="1.99" transform="translate(605.6 544.55) rotate(180)" style="fill:#dbdbdb"></rect><path d="M182.21,83.81l36.3-.09c12.1,0,24.19,0,36.29.09-12.1.08-24.19.06-36.29.09Z" style="fill:#dbdbdb"></path><path d="M182.21,86.52l36.3-.09c12.1,0,24.19,0,36.29.09-12.1.08-24.19.06-36.29.09Z" style="fill:#dbdbdb"></path><path d="M182.21,89.23l36.3-.08c12.1,0,24.19,0,36.29.08-12.1.08-24.19.06-36.29.09Z" style="fill:#dbdbdb"></path><path d="M182.21,91.94l36.3-.08c12.1,0,24.19,0,36.29.08-12.1.08-24.19.06-36.29.09Z" style="fill:#dbdbdb"></path><path d="M182.21,94.66l36.3-.09c12.1,0,24.19,0,36.29.09-12.1.07-24.19,0-36.29.08Z" style="fill:#dbdbdb"></path><path d="M182.21,97.37l36.3-.09c12.1,0,24.19,0,36.29.09-12.1.07-24.19,0-36.29.09Z" style="fill:#dbdbdb"></path><path d="M182.21,100.08l36.3-.09c12.1,0,24.19,0,36.29.09-12.1.07-24.19.06-36.29.09Z" style="fill:#dbdbdb"></path><path d="M182.21,102.79l36.3-.09c12.1,0,24.19,0,36.29.09-12.1.08-24.19.06-36.29.09Z" style="fill:#dbdbdb"></path><path d="M182.21,105.5l36.3-.09c12.1,0,24.19,0,36.29.09-12.1.08-24.19.06-36.29.09Z" style="fill:#dbdbdb"></path><path d="M182.21,108.21l36.3-.09c12.1,0,24.19,0,36.29.09-12.1.08-24.19.06-36.29.09Z" style="fill:#dbdbdb"></path><path d="M182.21,110.92l36.3-.09c12.1,0,24.19,0,36.29.09-12.1.08-24.19.06-36.29.09Z" style="fill:#dbdbdb"></path><path d="M182.21,113.63l36.3-.08c12.1,0,24.19,0,36.29.08-12.1.08-24.19.06-36.29.09Z" style="fill:#dbdbdb"></path><path d="M182.21,116.35l36.3-.09c12.1,0,24.19,0,36.29.09-12.1.07-24.19.05-36.29.08Z" style="fill:#dbdbdb"></path><path d="M182.21,119.06l36.3-.09c12.1,0,24.19,0,36.29.09-12.1.07-24.19,0-36.29.08Z" style="fill:#dbdbdb"></path><path d="M182.21,121.77l36.3-.09c12.1,0,24.19,0,36.29.09-12.1.07-24.19,0-36.29.09Z" style="fill:#dbdbdb"></path><rect x="189.89" y="102.79" width="5.5" height="22.14" style="fill:#6600FF"></rect><rect x="200.1" y="93.42" width="5.5" height="31.5" style="fill:#263238"></rect><rect x="210.31" y="100.17" width="5.5" height="24.76" style="fill:#dbdbdb"></rect><rect x="220.52" y="91.94" width="5.5" height="32.98" style="fill:#6600FF"></rect><rect x="230.74" y="96.37" width="5.5" height="28.56" style="fill:#263238"></rect><rect x="240.95" y="112.55" width="5.5" height="12.38" style="fill:#dbdbdb"></rect><path d="M184.18,81.91l.15,10.75.11,10.76c.07,7.17.09,14.34.1,21.51l-.36-.33h17.66l17.65,0,17.66.1,17.65.2-17.65.19-17.66.11-17.65,0h-18v-.33c0-7.17,0-14.34.11-21.51l.1-10.76Z" style="fill:#dbdbdb"></path><rect x="189.89" y="127.2" width="5.5" height="0.46" style="fill:#dbdbdb"></rect><rect x="200.1" y="127.2" width="5.5" height="0.46" style="fill:#dbdbdb"></rect><rect x="210.31" y="127.2" width="5.5" height="0.46" style="fill:#dbdbdb"></rect><rect x="220.52" y="127.2" width="5.5" height="0.46" style="fill:#dbdbdb"></rect><rect x="230.74" y="127.2" width="5.5" height="0.46" style="fill:#dbdbdb"></rect><rect x="240.95" y="127.2" width="5.5" height="0.46" style="fill:#dbdbdb"></rect><path d="M303.78,298.25a17.54,17.54,0,0,1-10.68,16.14l-6.85-16.14Z" style="fill:#6600FF"></path><path d="M284,297.05l6.85,16.13s0,0,0,0c-.54.22-1.08.42-1.61.59a17.76,17.76,0,0,1-10.41,0,17.58,17.58,0,0,1-11.52-11.54,17.51,17.51,0,0,1,0-10.4,17.51,17.51,0,0,1,11.52-11.52,17.54,17.54,0,0,1,10.41,0,17.53,17.53,0,0,1,11.53,11.52,17.83,17.83,0,0,1,.79,5.2Z" style="fill:#6600FF"></path><path d="M284,297.05l6.85,16.13s0,0,0,0c-.54.22-1.08.42-1.61.59a17.53,17.53,0,1,1,12.32-16.74Z" style="fill:#dbdbdb"></path><path d="M284,297.05,272.6,310.33a17.51,17.51,0,1,1,28.93-13.28Z" style="fill:#455a64"></path><polygon points="312.84 320.26 299.61 320.26 283.22 303.88 283.46 303.64 299.75 319.93 312.84 319.93 312.84 320.26" style="fill:#263238"></polygon><rect x="282.42" y="302.83" width="1.84" height="1.84" style="fill:#263238"></rect><polygon points="312.84 307.58 297.93 307.58 290.85 300.51 291.09 300.27 298.07 307.25 312.84 307.25 312.84 307.58" style="fill:#263238"></polygon><rect x="290.05" y="299.47" width="1.84" height="1.84" style="fill:#263238"></rect><rect x="290.29" y="295.04" width="22.55" height="0.34" style="fill:#263238"></rect><rect x="289.12" y="294.29" width="1.84" height="1.84" style="fill:#263238"></rect><rect x="317.97" y="293.36" width="16.38" height="1.52" style="fill:#ebebeb"></rect><rect x="317.97" y="296.54" width="21.26" height="1.52" style="fill:#ebebeb"></rect><rect x="317.97" y="299.72" width="11.36" height="1.52" style="fill:#ebebeb"></rect><rect x="310.99" y="293.36" width="3.7" height="3.7" style="fill:#455a64"></rect><rect x="317.97" y="305.67" width="18.37" height="1.52" style="fill:#ebebeb"></rect><rect x="317.97" y="308.85" width="15.32" height="1.52" style="fill:#ebebeb"></rect><rect x="317.97" y="312.04" width="21.26" height="1.52" style="fill:#ebebeb"></rect><rect x="310.99" y="305.67" width="3.7" height="3.7" style="fill:#6600FF"></rect><rect x="317.97" y="317.98" width="18.37" height="1.52" style="fill:#ebebeb"></rect><rect x="317.97" y="321.17" width="15.32" height="1.52" style="fill:#ebebeb"></rect><rect x="317.97" y="324.35" width="21.26" height="1.52" style="fill:#ebebeb"></rect><rect x="310.99" y="317.98" width="3.7" height="3.7" style="fill:#dbdbdb"></rect><path d="M122,62.94A35.05,35.05,0,0,1,157,98v15.1H86.94V98A35.05,35.05,0,0,1,122,62.94Z" style="fill:#dbdbdb"></path><path d="M413.06,345.64v.46a35,35,0,0,1-34.18,35H192.54a35,35,0,0,0,34.18-35v-.46Z" style="fill:#dbdbdb"></path></g><g id="freepik--Floor--inject-288"><path d="M54.55,472.2c125.22-.62,265.68-.62,390.9,0-125.22.61-265.68.61-390.9,0Z" style="fill:#263238"></path></g><g id="freepik--Character--inject-288"><path d="M300.31,472.1c2.45.79,72.17-.12,74.8-1.84,1-.63,1.47-10.8,1.67-23.1v-.39c.05-2.53.09-5.14.09-7.79,0-.36,0-.73,0-1.09l-3.38-36.17-46.64.47,4.6,35.83.06,1.42.28,7.41,0,.77S305.29,459.9,302.6,462.1,297.86,471.32,300.31,472.1Z" style="fill:#eb9481"></path><path d="M300.31,472.1c2.45.79,72.17-.12,74.8-1.84,1-.63,1.47-10.8,1.67-23.1v-.39c.05-2.53.09-5.14.09-7.79,0-.36,0-.73,0-1.09l-45.42.13.06,1.42.28,7.41,0,.77S305.29,459.9,302.6,462.1,297.86,471.32,300.31,472.1Z" style="fill:#ebebeb"></path><path d="M300.3,472.09c1.26.41,20.2.37,38.72,0,3.72-.07,7.42-.16,11-.25,13.21-.36,24.12-.91,25.13-1.57s1.46-10.52,1.66-22.59c0-.17,0-.34,0-.51s0-.27,0-.4h-.06l-44.93.09,0,.77s-26.53,12.27-29.22,14.47S297.86,471.32,300.3,472.09Z" style="fill:#a6a6a6"></path><path d="M301.06,469.39c11.75-.45,59.18-1.12,70.83-.66.09,0,.1.07,0,.08-11.64.69-59.07,1-70.82.77C300.82,469.57,300.82,469.39,301.06,469.39Z" style="fill:#263238"></path><path d="M326.79,447.05c4.62-.93,10.28-.29,13.86,3,.14.13,0,.32-.19.28a65.31,65.31,0,0,0-13.64-2.66A.29.29,0,0,1,326.79,447.05Z" style="fill:#263238"></path><path d="M323.48,449.1c4.61-.92,10.28-.28,13.86,3,.14.12,0,.32-.2.27a64.44,64.44,0,0,0-13.63-2.65A.3.3,0,0,1,323.48,449.1Z" style="fill:#263238"></path><path d="M320.17,451.16c4.61-.93,10.28-.29,13.85,3,.14.13,0,.32-.19.28a65.06,65.06,0,0,0-13.64-2.66A.29.29,0,0,1,320.17,451.16Z" style="fill:#263238"></path><path d="M339,472.08c3.72-.07,7.42-.16,11-.25,13.21-.36,24.12-.91,25.13-1.57s1.46-10.52,1.66-22.59c0-.17,0-.34,0-.51s0-.27,0-.4h-.06C370.58,451.08,348.89,465.52,339,472.08Z" style="opacity:0.2"></path><path d="M328.74,447H379s-10.11-117.28-9.72-119.32c.51-2.63,3.47-14.5,7.42-30,1.23-4.85,2.57-10.05,4-15.45,3.75-14.59,7.88-30.54,11.47-44.41,5.4-20.79,9.61-36.94,9.61-36.94H359.12s-5,15.73-11.21,36.18c-10.18,33.25-23.79,79-25.13,90.12C320.6,345.14,328.74,447,328.74,447Z" style="fill:#263238"></path><path d="M331,438.44c7.67-.16,5.47-.22,13.14-.29,3.75,0,28.42-.25,31.92.33a.08.08,0,0,1,0,.15c-3.51.58-28.17.37-31.92.33-7.67-.07-5.47-.13-13.14-.29A.12.12,0,0,1,331,438.44Z" style="fill:#37474f"></path><path d="M359.79,320.52c1.64-7.26,4.1-14.37,6.24-21.5q6.54-21.72,13.14-43.41,3.3-10.85,6.62-21.68c1.13-3.65,2.25-7.3,3.39-10.94s2.39-7.1,3.4-10.69c.41-1.46.63-.66.11,1.2-1.06,3.74-2.11,7.49-3.2,11.23q-3.24,11.09-6.53,22.18Q376.44,269,369.79,291q-3.32,11.06-6.65,22.1a89.8,89.8,0,0,0-2.71,10.68,49.23,49.23,0,0,0-.45,11.44c.48,7.68,1.37,15.35,2.08,23s1.43,15.36,2.14,23q2.12,22.92,4.2,45.86.27,2.89.5,5.81c.05.65-.41.73-.48.11-1.65-15.12-3.45-30.41-4.86-45.55s-2.83-30.12-4.24-45.19c-.35-3.78-.75-7.57-.76-11.37A47,47,0,0,1,359.79,320.52Z" style="fill:#37474f"></path><path d="M364,200.88c3,22.86,8.58,65.71,12.69,96.8,9.6-37.67,25-96.8,25-96.8Z" style="fill:#37474f"></path><path d="M353.5,472.77c2.45.8,72.17.15,74.81-1.56,1-.64,1.51-10.8,1.75-23.1,0-.13,0-.26,0-.39.06-2.53.1-5.14.11-7.79,0-.36,0-.72,0-1.09.16-17.75-1.12-36.17-1.12-36.17l-45.57.3,1.27,35.83.05,1.42.25,7.42,0,.76s-26.58,12.19-29.28,14.38S351.06,472,353.5,472.77Z" style="fill:#eb9481"></path><path d="M353.5,472.77c2.45.8,72.17.15,74.81-1.56,1-.64,1.51-10.8,1.75-23.1,0-.13,0-.26,0-.39.06-2.53.1-5.14.11-7.79,0-.36,0-.72,0-1.09l-45.42,0,.05,1.42.25,7.42,0,.76s-26.58,12.19-29.28,14.38S351.06,472,353.5,472.77Z" style="fill:#ebebeb"></path><path d="M353.5,472.77c2.45.8,72.17.15,74.81-1.56,1-.64,1.51-10.8,1.75-23.1,0-.13,0-.26,0-.39l-45-.08,0,.76s-26.58,12.19-29.28,14.38S351.06,472,353.5,472.77Z" style="fill:#a6a6a6"></path><path d="M354.27,470.06c11.75-.4,59.18-.89,70.82-.4.1,0,.1.07,0,.08-11.63.65-59.07.76-70.82.51C354,470.25,354,470.07,354.27,470.06Z" style="fill:#263238"></path><path d="M380.08,447.82c4.61-.91,10.28-.25,13.84,3,.14.13,0,.32-.19.27a65.17,65.17,0,0,0-13.63-2.7A.29.29,0,0,1,380.08,447.82Z" style="fill:#263238"></path><path d="M376.76,449.86c4.61-.91,10.28-.25,13.84,3,.14.13,0,.32-.19.28a65.18,65.18,0,0,0-13.63-2.71A.29.29,0,0,1,376.76,449.86Z" style="fill:#263238"></path><path d="M373.44,451.9c4.61-.9,10.28-.25,13.84,3,.14.12,0,.32-.19.27a64.53,64.53,0,0,0-13.63-2.7A.3.3,0,0,1,373.44,451.9Z" style="fill:#263238"></path><path d="M360.5,200.88s1,20.36,5.64,36.49c.37,1.33.78,2.65,1.22,3.9a75.47,75.47,0,0,1,12.26,6.31s.49,16.38,1,34.65c.55,20.42,1.11,43.2,1,48-.43,18.07,2.26,117.48,2.26,117.48l50.2.2s-9.08-111-9-117.63c.09-10.64-2.44-57.69-4.39-92A270.57,270.57,0,0,0,416,200.88Z" style="fill:#263238"></path><path d="M385.58,438.82c7.67-.13,5.46-.2,13.13-.24,3.76,0,28.42-.13,31.93.46.07,0,.07.14,0,.16-3.51.56-28.18.24-31.93.19-7.67-.11-5.47-.16-13.13-.35A.11.11,0,1,1,385.58,438.82Z" style="fill:#37474f"></path><path d="M414.27,208.16c.92,28,1.9,56,3.15,84s7.86,128.65,9.55,144.27c0,.1-.15.14-.17,0-3.65-27.79-5.69-68.91-7.49-96.87s-3-56-4-84c-.53-15.84-.95-31.68-1.42-47.52C413.91,207.92,414.26,207.94,414.27,208.16Z" style="fill:#37474f"></path><path d="M365.27,240.06a93.31,93.31,0,0,1,14.35,7.52.16.16,0,0,1-.15.29c-4.84-2.35-9.79-4.61-14.49-7.23A.32.32,0,0,1,365.27,240.06Z" style="fill:#37474f"></path><path d="M365,222.79c.33,1.78.76,3.55,1.15,5.32s.63,3.36,1.07,5a8.4,8.4,0,0,0,2.33,4.19c.65.61,1.37,1.15,2.07,1.7.37.3.78.59,1.17.9,0-.24-.09-.48-.14-.72-.12-.68-.23-1.36-.34-2-.26-1.51-.5-3-.73-4.52-.45-3-.87-5.95-1.48-8.88a.09.09,0,0,1,.18,0c.74,2.91,1.55,5.78,2.19,8.71.32,1.44,1.44,8.53,1.49,9s.1,1,.12,1.56a6.51,6.51,0,0,1,0,1.59.13.13,0,0,1-.24,0h0a6.21,6.21,0,0,1-.45-1.54c-.13-.51-.25-1-.34-1.54,0-.18-.06-.37-.08-.56-.7-.43-1.35-1-2-1.46s-1.43-1-2.09-1.57a8,8,0,0,1-2.55-4,29.17,29.17,0,0,1-.83-5.1c-.23-2-.39-4-.68-6C364.79,222.71,365,222.67,365,222.79Z" style="fill:#37474f"></path><path d="M381.45,146.73c-3.64,11.92-13.5,36.61-23,40-11.27,4.07-43.11-15.62-53.82-26.61-3.89-4,13-21.3,17.53-19.09s30.34,21.27,31.83,20.4c2.52-1.47,7.84-7.42,17.28-17.14S383.2,141,381.45,146.73Z" style="fill:#eb9481"></path><path d="M314.4,165.85c3.25.44,14.64-17.22,13-20.16a44.06,44.06,0,0,1-4.2-17.56c.07-5.56.81-13.81-2.18-14-4.36-.23-6.55,10.09-7.44,16.09-2.6-2-5-3.53-6.77-3.88-5.76-1.18-14.28,23.89-10.45,28.49C300.06,159.3,311.16,165.4,314.4,165.85Z" style="fill:#eb9481"></path><rect x="309.67" y="124.93" width="5.54" height="24.34" transform="translate(564.02 367.59) rotate(-161.2)" style="fill:#c7c7c7"></rect><polygon points="299.13 163.2 307.06 165.9 307.06 165.9 314.01 145.47 306.09 142.77 306.09 142.77 299.13 163.2" style="fill:#263238"></polygon><path d="M315.34,130c.46,3-3.37,1.84-3.37,1.84s5.1,3,4.37,6.34-5.29,1.58-5.62,1.47c.27.16,4.88,3.07,3.81,6.31s-5.44,1-5.72.82c.21.23,2.87,3.36,1.49,5.64-2.37,3.91-9.38-3.91-13.08-3.95,0,0-.79,6.26-.86,6.43,0,0-6.82-7.3-6.48-12.29a3.21,3.21,0,0,1,2.67-3s-2.46-2.11-1.7-4.69c.4-1.32,2.87-1.86,2.87-1.86a4,4,0,0,1-1.08-4c.65-1.8,3-2.06,3-2.06s-1-2.55.23-4.17C298.44,119.51,314.34,123.49,315.34,130Z" style="fill:#eb9481"></path><path d="M296,126.86c-.06,0-.06-.09,0-.09a28.48,28.48,0,0,1,16.15,5.07c.14.11,0,.4-.15.31A58,58,0,0,0,296,126.86Z" style="fill:#263238"></path><path d="M293.65,133c-.07,0,0-.12,0-.11a26.57,26.57,0,0,1,17.26,6.62c.17.15.16.45,0,.29C307.51,137.09,298.88,133.83,293.65,133Z" style="fill:#263238"></path><path d="M309,147.16c-4.71-4.06-10.25-6.2-16.26-7.58-.08,0,0-.13,0-.13,3.12-.12,6.86,1.16,9.68,2.4a16.39,16.39,0,0,1,6.69,5.15C309.25,147.09,309.14,147.25,309,147.16Z" style="fill:#263238"></path><path d="M312.07,131.77c.18.13-.21.24,0,.38.72.57,4.81,4.38,3.94,6.18-.7,1.43-3.11,1.49-4.05,1.15l-2.35-.86,1.91,1.63a10,10,0,0,1,2.17,2.51,3.67,3.67,0,0,1,.56,3,2.11,2.11,0,0,1-2.11,1.58,6.33,6.33,0,0,1-3-1l-2.56-1.5,1.92,2.25a9.7,9.7,0,0,1,1.35,2.05,3.92,3.92,0,0,1,.46,2.25A1.89,1.89,0,0,1,309,152.9a4.13,4.13,0,0,1-2.32-.25A32.35,32.35,0,0,1,302,150.4c-.76-.42-1.53-.84-2.32-1.22a6.1,6.1,0,0,0-2.49-.75,6.51,6.51,0,0,1,2.38,1c.75.43,1.48.9,2.21,1.37a27.79,27.79,0,0,0,4.6,2.56,5,5,0,0,0,2.78.38,2.68,2.68,0,0,0,2-2.19,4.9,4.9,0,0,0-.49-2.8,10.76,10.76,0,0,0-1.47-2.31l-.64.75a7.29,7.29,0,0,0,3.56,1.18,3,3,0,0,0,1.95-.64,3.39,3.39,0,0,0,1.12-1.69,4.64,4.64,0,0,0-.7-3.74,11.08,11.08,0,0,0-2.43-2.72l-.44.76c1.2.4,3.91.63,5.27-1.47C318.25,135.85,313.06,132.34,312.07,131.77Z" style="fill:#263238"></path><path d="M312,131.8a6.08,6.08,0,0,0,1.88-.09,1.42,1.42,0,0,0,1.09-.93,2.87,2.87,0,0,0-.15-1.63,18.75,18.75,0,0,0-.72-1.8,4.91,4.91,0,0,1,1.33,1.53,2.91,2.91,0,0,1,.36,2.16,2.08,2.08,0,0,1-.72,1,2.16,2.16,0,0,1-1.1.35A3.31,3.31,0,0,1,312,131.8Z" style="fill:#263238"></path><path d="M330.18,144.27l-20.47,25.52s33.46,24.48,49.56,18.33c3.71-1.42,16.31-17.05,22.69-39.71,1.83-6.49-.37-18.16-12.75-4.21s-15.06,16.23-15.62,16.26S330.18,144.27,330.18,144.27Z" style="fill:#ebebeb"></path><path d="M317.32,172.63c1.32-2.09,2.95-4,4.47-6s3-3.83,4.53-5.73c3.07-3.83,6.07-7.77,9.39-11.4a.09.09,0,0,1,.15.11c-2.71,4.15-5.86,8-8.93,11.93q-2.31,2.91-4.7,5.78a64.36,64.36,0,0,1-4.77,5.4C317.38,172.84,317.27,172.72,317.32,172.63Z" style="fill:#263238"></path><path d="M382,148.41c-6.38,22.66-19,38.29-22.69,39.71s-9,1.24-14.71-.32c10-15.15,26-39.36,33.47-50.11C382.57,137,383.22,144,382,148.41Z" style="opacity:0.1"></path><path d="M353.07,218.23l67.37,3.91s-8-59.31-29.41-82.18c-2.65-2.82-9.21-2.85-13.66-1.14-1.59.61-7.31,8.17-9.55,15.23S352.92,218,353.07,218.23Z" style="fill:#6600FF"></path><polygon points="379.71 154.51 378.08 149.6 373.62 153.02 374.08 156.59 377.6 157.5 379.71 154.51" style="fill:#263238"></polygon><polygon points="377.6 157.5 374.19 197.87 367.8 209.92 364.33 195.9 374.08 156.59 377.6 157.5" style="fill:#263238"></polygon><path d="M388.46,138.51A308.65,308.65,0,0,0,384,176.2c-2,48.19,1.69,133.7,3,139.93.77,3.57,42.24-2.85,42.24-2.85s-3.78-98.73-17.58-137.47C398.9,139.89,388.46,138.51,388.46,138.51Z" style="fill:#ebebeb"></path><path d="M419.66,246.31a120.36,120.36,0,0,1-14.19,1.11c-6.64,0-13.23-.65-15.13-.67-.17,0-.26.55-.14.57a150.65,150.65,0,0,0,15.15,1.08,79.79,79.79,0,0,0,13.82-1.31c0,1.4,0,2.5,0,3.91-4.68.9-13.71,2.47-28.3.59,0-.59,0-3.72-.09-4.58,0-.13-.56-.15-.58.05-.12.84-.46,8.37-.47,9.9,0,3.76.22,14.41,1.16,16.47,2.13,4.67,11.21,4.68,13.73,4.7s10.63.27,13.67-2.7c1.62-1.59,2-10.21,1.73-17.84C419.88,253.94,419.87,246.38,419.66,246.31Zm-14.34,30.86c-8,0-11.54-1.67-12.78-3.35-1.44-2-1.56-5.36-1.67-9.12-.09-2.95,0-12.21,0-12.39,4.68.95,17.05,2.23,28.28-.38,0,4.38,0,7.89,0,12.28,0,3.17-.2,8.5-1.81,10.35C416,276.11,411.13,277.16,405.32,277.17Z" style="fill:#dbdbdb"></path><path d="M376.19,138.88s-10.51,37.24-11.66,43-10,125.06-12.11,129.33c-.7,1.44-25.57-7.36-25.57-7.36S364.35,160,367.28,153.12C371.75,142.64,376.19,138.88,376.19,138.88Z" style="fill:#ebebeb"></path><path d="M395.4,144.39c17.05,17.69,31.46,44.31,29.59,58.85-1.86,14.37-6.66,12.28-8.06,12-8.59-1.77-22.61-42.56-26.62-59.68C386.64,139.93,391.18,140,395.4,144.39Z" style="fill:#ebebeb"></path><path d="M407,202.43c-.75-1.94-1.53-3.87-2.26-5.83l-2.23-5.84c-1.47-3.9-3-7.79-4.37-11.71s-2.87-7.82-4.25-11.75q-1.05-2.94-2-5.91c-.68-2-1.27-4-1.88-6a112.55,112.55,0,0,0,3.16,12.13c1.23,4,2.63,7.92,4,11.85s3,7.8,4.6,11.65S405.06,198.72,407,202.43Z" style="fill:#263238"></path><path d="M391.31,160.51a17.89,17.89,0,0,0-.92-2c-.17-.33-.34-.66-.53-1a8.87,8.87,0,0,0-.58-1,5.65,5.65,0,0,0,.66,2.17A6.32,6.32,0,0,0,391.31,160.51Z" style="fill:#263238"></path><rect x="342.09" y="159.32" width="42.28" height="55.04" transform="translate(-33.82 90.96) rotate(-13.64)" style="fill:#6600FF"></rect><rect x="342.09" y="159.32" width="42.28" height="55.04" transform="translate(-33.82 90.96) rotate(-13.64)" style="opacity:0.4"></rect><rect x="346.94" y="157.22" width="20.04" height="6.07" transform="translate(-27.65 88.29) rotate(-13.58)" style="fill:#c7c7c7"></rect><polygon points="361.57 156.03 359.17 156.6 358.51 153.88 352.68 155.29 353.34 158.01 350.94 158.59 349.74 153.63 360.4 151.06 361.57 156.03" style="fill:#c7c7c7"></polygon><path d="M419.6,215.11c-6.38,1.39-14.81-3-36.86-16.6-3.05-1.89,4.45-27,7.81-25.14,4.23,2.32,20.16,12.24,21.23,13.12C420.83,193.85,423.93,214.17,419.6,215.11Z" style="fill:#eb9481"></path><path d="M398.57,180.16s-6.58-7.88-11.33-10.94A36.27,36.27,0,0,0,370.69,164c-6.32-.43-21.91,2.89-21.74,7.55.16,4.21,15.92,0,15.92,0s-16.77,1.63-15.65,6.67,19.14-.87,19.14-.87-17.2,2.06-15.22,7.07c1.49,3.79,18.12-.64,18.12-.64s-14.78,1.87-13.41,5.83c1.52,4.38,17.12,1.25,17.12,1.25,5.18,9.49,11.73,11.77,16.44,12.94C392.56,204.06,398.57,180.16,398.57,180.16Z" style="fill:#eb9481"></path><path d="M370.64,170.6c-2,.12-4,.23-5.94.52s-3.91.66-5.84,1.14a34.78,34.78,0,0,0-7.31,2.56c4.29-1.7,11.29-2.87,13.25-3.16s3.9-.69,5.85-1A0,0,0,1,0,370.64,170.6Z" style="fill:#263238"></path><path d="M371.84,177.66c-2.52.26-5,.43-7.54.8s-4.83.95-7.3,1.49c-.19,0-.1.13.09.09,2.49-.44,4.82-.66,7.3-1.07s5-.93,7.46-1.25C371.89,177.71,371.87,177.65,371.84,177.66Z" style="fill:#263238"></path><path d="M374,183.53a57,57,0,0,0-11.43,2.11c-.19.05-.06.15.13.12,3.79-.78,6.75-1.41,11.31-2.09C374,183.66,374,183.53,374,183.53Z" style="fill:#263238"></path><path d="M398.32,176.84l-5.9,30.6s23.66,12.9,28.32,7.33c3.83-4.59-.57-20.74-6.6-26.9C411.63,185.3,398.32,176.84,398.32,176.84Z" style="fill:#ebebeb"></path><path d="M398.12,177.86l.25-1-.08,0c2.21,1.54,4.44,3.06,6.63,4.62s4.39,3.11,6.5,4.77a31.51,31.51,0,0,1,3,2.6,23.1,23.1,0,0,1,2.47,3.11,25.29,25.29,0,0,1,3.25,7.31,21.2,21.2,0,0,0-2.76-7.61,19.17,19.17,0,0,0-2.47-3.28,30.1,30.1,0,0,0-3.05-2.72c-2.14-1.66-4.36-3.2-6.61-4.69s-4.57-2.88-6.93-4.2l-.06,0v.07Z" style="fill:#263238"></path><path d="M403.73,183.9c-.39,1.51-.66,3.06-1,4.59s-.58,3.07-.84,4.61c-.53,3.07-1.05,6.15-1.52,9.24-.13.84-.26,1.69-.37,2.53s-.13,1.83-.26,2.73a.06.06,0,0,0,.11,0c.14-.75.39-1.49.55-2.24s.31-1.56.46-2.34c.28-1.54.55-3.07.82-4.61.53-3.07,1-6.15,1.48-9.25.25-1.74.54-3.5.69-5.25C403.89,183.82,403.75,183.8,403.73,183.9Z" style="fill:#263238"></path><path d="M393,204.71c-.1.93-.23,1.84-.35,2.76l-.09-.19c7.45,3.54,15,7.7,23.24,8.8a9.08,9.08,0,0,0,3.51-.31,8.18,8.18,0,0,1-3.53.76c-8.48-.35-16.29-4.62-23.4-8.94l-.11-.08c.24-.93.47-1.87.73-2.8Z" style="fill:#263238"></path><path d="M378.79,150.05c3.69.79,9.86-5,12.25-9.56.16-.31-.39-3.59-.87-7.6-.28-2.43-.54-5.15-.59-7.64,0-.51-15.57,4.15-15.57,4.15a39.94,39.94,0,0,1,1.72,9.55,6.59,6.59,0,0,1-.08,1,.88.88,0,0,0,0,.17C375.35,142.1,375.23,149.29,378.79,150.05Z" style="fill:#eb9481"></path><path d="M389.78,129.05c-5.44,8.53-12.54,8-14.18,7.81A44.67,44.67,0,0,0,374,129.4s15.56-4.66,15.57-4.15C389.61,126.48,389.68,127.77,389.78,129.05Z" style="fill:#263238"></path><path d="M393.31,106c1.28,5.66-2.83,21.44-7,24.71-6.09,4.75-15.47,4.55-19.35-2.64-3.77-7,1.95-27.44,6.59-30.35C380.34,93.4,391.42,97.6,393.31,106Z" style="fill:#eb9481"></path><path d="M376.93,115.43s.07.08.06.12c-.31,1-.48,2.31.39,2.91,0,0,0,.07,0,.06C376.23,118.05,376.47,116.38,376.93,115.43Z" style="fill:#263238"></path><path d="M378.16,114.56c1.75.31,1,3.78-.61,3.49S376.7,114.31,378.16,114.56Z" style="fill:#263238"></path><path d="M370.68,113.86s-.09,0-.1.08c-.2,1.08-.6,2.29-1.65,2.43,0,0,0,.06,0,.07C370.15,116.52,370.67,114.92,370.68,113.86Z" style="fill:#263238"></path><path d="M370,112.54c-1.7-.5-2.57,2.93-1,3.39S371.39,113,370,112.54Z" style="fill:#263238"></path><path d="M379.75,113.44a13.12,13.12,0,0,1-1.37-.49,2.4,2.4,0,0,1-1.31-.76.76.76,0,0,1,.13-.91,1.86,1.86,0,0,1,1.87-.19,2.8,2.8,0,0,1,1.57,1.19A.8.8,0,0,1,379.75,113.44Z" style="fill:#a6a6a6"></path><path d="M368.82,110.62a13.92,13.92,0,0,0,1.44.23,2.36,2.36,0,0,0,1.51,0,.74.74,0,0,0,.32-.85,1.83,1.83,0,0,0-1.55-1.06,2.7,2.7,0,0,0-2,.29A.8.8,0,0,0,368.82,110.62Z" style="fill:#a6a6a6"></path><path d="M376.09,125.23c-.31.19-.64.49-1,.43a2.8,2.8,0,0,1-1.09-.51s-.08,0-.06,0a1.49,1.49,0,0,0,1.24.88,1.16,1.16,0,0,0,1-.77C376.21,125.24,376.14,125.2,376.09,125.23Z" style="fill:#263238"></path><path d="M375.65,121.77a3.79,3.79,0,0,1-2.79,1.11,4.7,4.7,0,0,1-1.33-.23,1,1,0,0,1-.24-.08,1.09,1.09,0,0,1-.23-.09.26.26,0,0,1-.16-.28h0a.45.45,0,0,1,0-.11h0l0-.09c.15-.83.5-2.07.5-2.07-.33.09-2,.45-1.91,0a56.41,56.41,0,0,1,3.79-10.76.1.1,0,0,1,.19.07c-.8,3.43-2.21,6.69-3.07,10.13a6.61,6.61,0,0,1,1.83-.16c.11.06-.71,2.39-.75,2.77a.06.06,0,0,0,0,0,5.19,5.19,0,0,0,4-.37C375.66,121.61,375.73,121.7,375.65,121.77Z" style="fill:#263238"></path><path d="M372.11,122.34a4.41,4.41,0,0,0,1.45,1.72,2,2,0,0,0,1.17.33c.9,0,1.09-.83,1.08-1.54a4.92,4.92,0,0,0-.16-1.11A5.73,5.73,0,0,1,372.11,122.34Z" style="fill:#263238"></path><path d="M373.56,124.06a2,2,0,0,0,1.17.33c.9,0,1.09-.83,1.08-1.54A2.06,2.06,0,0,0,373.56,124.06Z" style="fill:#ff9abb"></path><path d="M390.12,121.51c-2.8-.91-1.54-8.2-1.54-8.2s-3.33-2-3.27-8.81c0,0-3.63,6.07-15.29,2.46a10.44,10.44,0,0,1,2-6.06,44.27,44.27,0,0,0-4.18,5.88s-1-10.43,8.05-12.39c3.62-.78,8.69.44,15.77,5.7,0,0,2.34-4.39,3.13-3.62s-1.74,4.82-1.74,4.82,3.61-.44,4.06.38-3.07,1-3.07,1a6.88,6.88,0,0,1,3,8.49C395.2,116.52,391.51,122,390.12,121.51Z" style="fill:#a6a6a6"></path><path d="M393.11,102.39a6.28,6.28,0,0,1,5.37,6.36,11.79,11.79,0,0,1-1.66,5,22.35,22.35,0,0,1-3.41,4.4c-.07.08-.18-.05-.11-.12a16.66,16.66,0,0,0,2.87-4.22,15.48,15.48,0,0,0,1.62-4.6,6,6,0,0,0-4.71-6.68C393,102.54,393,102.37,393.11,102.39Z" style="fill:#a6a6a6"></path><path d="M383,94a24.32,24.32,0,0,1,5.45,3.21,17.74,17.74,0,0,1,4.22,4.25c.06.09-.05.19-.12.11a31.85,31.85,0,0,0-9.38-6.6c-3.19-1.57-7.17-2.29-10.22,0,0,0-.11,0-.07-.08C375.7,92.4,379.75,92.65,383,94Z" style="fill:#a6a6a6"></path><path d="M367,119c-1.75-.49-2.58-3-1.85-5.68s2.75-4.4,4.5-3.92,2.58,3,1.85,5.68S368.79,119.46,367,119Zm2.48-9c-1.4-.38-3,1.17-3.68,3.46s0,4.47,1.38,4.85,3-1.16,3.68-3.45S370.91,110.41,369.52,110Z" style="fill:#37474f"></path><path d="M377.8,122a5,5,0,1,1,5.8-3.56A4.83,4.83,0,0,1,377.8,122Zm2.47-9a4.32,4.32,0,1,0,2.69,5.21A4.15,4.15,0,0,0,380.27,113Z" style="fill:#37474f"></path><path d="M375,115.54c-2.17-1.5-3.48-1-3.49-1l-.25-.62c.06,0,1.62-.65,4.12,1.08Z" style="fill:#37474f"></path><path d="M383.4,117.88l.05-.66c.44,0,7.29.35,8.37.59s3.35,2.43,3.6,2.68L395,121a12.94,12.94,0,0,0-3.23-2.49h0C390.84,118.28,387.09,118.21,383.4,117.88Z" style="fill:#37474f"></path><path d="M387.63,120.38s4.09-4.82,6.32-3.31-1.2,8.73-4.05,9.5a2.82,2.82,0,0,1-3.61-1.86Z" style="fill:#eb9481"></path><path d="M392.91,119.11a0,0,0,0,1,0,.08c-2,.6-3.19,2.29-4.07,4.08a1.55,1.55,0,0,1,2.35-.21c.05,0,0,.12-.06.1a1.73,1.73,0,0,0-1.95.42,8.23,8.23,0,0,0-1.05,1.45c-.11.16-.41,0-.33-.15l0,0C388,122.37,390.25,119.11,392.91,119.11Z" style="fill:#263238"></path><path d="M375.73,139.23l2.58,8.92L391,138.88l1.9,4.35s-12.76,14.74-12.71,14l-2.42-7.52L372,153.8l2.26-12.14Z" style="fill:#6600FF"></path><path d="M372.71,147.73c.45-2,.84-4,1.38-6,0-.07.14-.08.14,0,.13,2-1.61,9.62-1.89,11.47l0,0c.24-.18,5.31-3.57,5.35-3.5.58,1.23,2.37,6.7,2.47,7.19,2-2.34,10.47-11.5,12.77-13.66.06-.06.17,0,.11.09-1.85,2.52-12.81,14.64-12.93,14.58a77.48,77.48,0,0,1-2.52-7.94c-.89.77-6.08,4.68-6.05,4.38A61.68,61.68,0,0,1,372.71,147.73Z" style="fill:#263238"></path><path d="M321.82,123.5a11.64,11.64,0,0,1-2.23-.33l-.52-.14-.46-.14-.32-.1-4.67-1.71a10.9,10.9,0,0,0,1.3.4,10.71,10.71,0,0,0,1.13.21c.35,0,.72.09,1.1.11,9.24.53,18.41-8.9,20.47-21,1.59-9.37-1.49-17.61-7.22-21.15a12.08,12.08,0,0,0-2.26-1.09l4.68,1.69,0,0c.2.07.39.15.59.24l.5.22.23.12.37.19.21.12c3.59,2.07,6.19,5.95,7.32,10.8.06.25.11.5.16.75a26.7,26.7,0,0,1,.05,9.78C340.23,114.6,331.06,124,321.82,123.5Z" style="fill:#37474f"></path><path d="M301.25,98.69c-2.1,12.35,2.74,23,11.12,26.08l4.67,1.7c-8.38-3-13.21-13.73-11.12-26.08,2.43-14.25,13.19-25.31,24-24.7a14.79,14.79,0,0,1,2.61.39,12.54,12.54,0,0,1,1.51.45l-4.67-1.69a14.19,14.19,0,0,0-4.12-.84C314.43,73.38,303.67,84.45,301.25,98.69Z" style="fill:#37474f"></path><path d="M345.19,102.61C347.3,90.22,342.42,79.49,334,76.5l-.57-.19-.16,0c-.23-.07-.46-.13-.7-.18-.42-.1-.84-.19-1.27-.25s-.88-.11-1.33-.14c-10.84-.61-21.6,10.46-24,24.7a31.33,31.33,0,0,0,.26,12.34q.19.85.45,1.68c.17.55.35,1.08.56,1.61a15.78,15.78,0,0,0,.65,1.52c.11.25.23.49.36.74a19.63,19.63,0,0,0,1.22,2s0,0,0,0c.29.43.6.84.92,1.24a15.57,15.57,0,0,0,5.16,4.23,4.39,4.39,0,0,0,.44.21l.73.32.06,0a12.57,12.57,0,0,0,1.83.58,14.93,14.93,0,0,0,2.61.38C332,127.93,342.78,116.87,345.19,102.61ZM321.82,123.5a11.64,11.64,0,0,1-2.23-.33l-.52-.14-.46-.14a12,12,0,0,1-2.56-1.2c-5.74-3.53-8.82-11.77-7.23-21.14,2.06-12.14,11.24-21.57,20.48-21,.37,0,.74.06,1.1.11a10.52,10.52,0,0,1,1.12.21,13.09,13.09,0,0,1,1.3.39l0,0c.2.07.39.15.59.24l.5.22.23.12.37.19.21.12c3.59,2.07,6.19,5.95,7.32,10.8.06.25.11.5.16.75a26.7,26.7,0,0,1,.05,9.78C340.23,114.6,331.06,124,321.82,123.5Z" style="fill:#455a64"></path><path d="M317.15,121.8c-.38,0-.75-.06-1.1-.11-5.74-3.53-8.82-11.77-7.23-21.14,2.06-12.14,11.24-21.57,20.48-21,.37,0,.74.06,1.1.11,5.73,3.54,8.81,11.78,7.22,21.15C335.56,112.9,326.39,122.33,317.15,121.8Z" style="fill:#fff;opacity:0.4"></path><g style="opacity:0.30000000000000004"><path d="M336.73,88l-25.88,5.71A29.38,29.38,0,0,1,313,89.57l22.22-4.91A18.67,18.67,0,0,1,336.73,88Z" style="fill:#ebebeb"></path><path d="M332.22,81l-14.77,3.26c3.5-3.17,7.67-5,11.85-4.74.37,0,.74.06,1.1.11A12.56,12.56,0,0,1,332.22,81Z" style="fill:#ebebeb"></path><path d="M337.49,90.62l-27.77,6.13c.2-.66.43-1.32.67-2l26.66-5.88C337.22,89.46,337.37,90,337.49,90.62Z" style="fill:#ebebeb"></path><path d="M331.51,114.41a24.14,24.14,0,0,1-2.1,2.28L314,120.09a12.49,12.49,0,0,1-1.4-1.5Z" style="fill:#ebebeb"></path><path d="M335.61,107.59l-25.92,5.72a23.7,23.7,0,0,1-1.28-7.24l29.38-6.49c-.05.39-.11.78-.17,1.18A30.49,30.49,0,0,1,335.61,107.59Z" style="fill:#ebebeb"></path></g></g><g id="freepik--speech-bubble--inject-288"><path d="M445.45,85.27a20.63,20.63,0,0,1-32.92,16.57l-10.11,2.58L406.63,95a20.63,20.63,0,1,1,38.82-9.73Z" style="fill:#fff"></path><path d="M445.45,85.27c.19,11.89-10.6,21.83-22.43,20.79a20.82,20.82,0,0,1-10.7-3.94l.3.06-10.09,2.66-.88.23.37-.83,4.17-9.43,0,.42a21,21,0,0,1,5.09-26c13.55-11.18,34.15-1.5,34.15,16.06Zm0,0c.06-13.18-12.84-23.23-25.58-19.73-12.52,3.1-19,17.93-12.82,29.24l.12.21-.1.21-4.25,9.39-.51-.6,10.13-2.5.17,0,.13.1c13.4,10.15,32.63.49,32.71-16.28Z" style="fill:#263238"></path><polygon points="421.48 97.55 412.23 88.19 415.34 85.12 420.74 90.59 431.96 72.99 435.64 75.34 421.48 97.55" style="fill:#6600FF"></polygon></g></svg>