<svg xmlns="http://www.w3.org/2000/svg" viewBox="0 0 750 500"><g id="freepik--background-complete--inject-195"><polygon points="267.56 57.56 267.56 215.9 63.05 215.9 55.69 58.67 267.56 57.56" style="fill:#e0e0e0"></polygon><rect x="79.23" y="34.93" width="157.42" height="204.51" transform="translate(20.75 295.13) rotate(-90)" style="fill:#fafafa"></rect><path d="M261,216.68H54.9V57.7H261Zm-204.5-1.56H259.41V59.26H56.47Z" style="fill:#e0e0e0"></path><rect x="77.83" y="74.66" width="160.21" height="120.52" style="fill:#fff"></rect><path d="M238,74.66l-.77,0-2.26,0-8.72,0-32.86.1L77.83,75l.37-.36c0,36.15,0,77.18,0,120.5v0l-.41-.41,160.21.07-.33.34c.07-36.42.13-66.51.17-87.52,0-10.5.07-18.73.09-24.36,0-2.8,0-5,0-6.42s0-2.22,0-2.22,0,.72,0,2.15,0,3.58,0,6.35c0,5.61,0,13.82.08,24.3.05,21,.11,51.21.18,87.72v.33H238l-160.21.07h-.4v-.42c0-43.32,0-84.35,0-120.5v-.37h.36l115.84.18,32.77.1,8.66.05,2.21,0C237.8,74.64,238,74.66,238,74.66Z" style="fill:#e0e0e0"></path><path d="M55.69,58.11a20.42,20.42,0,0,1,3.45,2.13c2.08,1.4,4.92,3.38,8,5.65s5.79,4.41,7.71,6a18.47,18.47,0,0,1,3,2.75,21.53,21.53,0,0,1-3.34-2.3l-7.84-5.82-7.84-5.83A19.08,19.08,0,0,1,55.69,58.11Z" style="fill:#e0e0e0"></path><path d="M260.19,58.48c.14.18-4.72,4-10.83,8.42S238.18,74.84,238,74.66s4.72-4,10.84-8.42S260.06,58.3,260.19,58.48Z" style="fill:#e0e0e0"></path><line x1="260.19" y1="215.9" x2="237.23" y2="195.18" style="fill:#fff"></line><path d="M237.23,195.18c.15-.17,5.41,4.33,11.75,10.06s11.36,10.49,11.21,10.66-5.41-4.34-11.75-10.06S237.08,195.34,237.23,195.18Z" style="fill:#e0e0e0"></path><path d="M55.69,215.9c-.16-.17,4.63-4.73,10.68-10.2s11.09-9.76,11.24-9.59-4.64,4.73-10.69,10.2S55.84,216.06,55.69,215.9Z" style="fill:#e0e0e0"></path><path d="M222.28,174.58a2.28,2.28,0,0,1-.74,1.24c-.27.23-1.11.68-1.21,0a4.76,4.76,0,0,1,.23-1.17c.21-.5.44-.17.77-.11S222,174.33,222.28,174.58Z" style="fill:#e0e0e0"></path><path d="M220,123c.12.42.21.84.3,1.24-.33.49-1,.31-1.45.57-.22.12-.28.57-.5.64s-.31-.18-.47-.18c-.43,0-.64.85-1.16.64-.29.21,0,1-.35,1.1s-.4-.36-.56-.6-.47-.47-.47-.71.42-.68.56-.86.49-.61.7-.67c.4-.11.8,0,1.1-.11s.27-.62.41-.74.26-.08.36-.14a1.43,1.43,0,0,0,.41-1.42c-.1-.4-.64-.83-.29-1.32a1.77,1.77,0,0,1,1.3,1.32c0,.24-.08.48-.06.74A3.7,3.7,0,0,0,220,123Z" style="fill:#e0e0e0"></path><path d="M220.09,119.09c-.06.18-.2.14-.32.25s-.27.42-.42.46-.5-.28-.74-.21-.11.33-.2.63a.94.94,0,0,1-.65-.71c0-.2.21-.33.26-.56.09-.41-.14-.61-.26-1,0-.06,0-.06,0-.11.29-.07.85.59,1.5.71C219.71,118.64,220.07,118.59,220.09,119.09Z" style="fill:#e0e0e0"></path><path d="M219,155.13c0,.29-.4.26-.44.07S219,154.9,219,155.13Z" style="fill:#e0e0e0"></path><path d="M216.93,116.11c.29.18,1,.6.5,1A.93.93,0,0,1,216.93,116.11Z" style="fill:#e0e0e0"></path><path d="M215.57,153.56c.34-.22.71-.7,1.3-.46-.13.44-.57.43-.86.64s-.52.56-.88.6a.33.33,0,0,0-.12-.14C215,153.8,215.34,153.71,215.57,153.56Z" style="fill:#e0e0e0"></path><path d="M214.77,146.89c.35,0,.68-.13.92,0-.05.89-1.19.22-1.95.36-.16,0-.21.18-.39.1a.69.69,0,0,1,.57-.63C214.13,146.72,214.46,146.89,214.77,146.89Z" style="fill:#e0e0e0"></path><path d="M215.07,148c0,.49-.53.54-.68.92.24.45.34,1.08.62,1.49,0,.27,0,.63-.09.75-.59.14-.91-1.15-1.15-1.6-.46.1,0,1.85-.65,1.63-.3-.1,0-.6-.06-1s-.33-.41-.36-.68.21-.45.27-.67,0-.94.35-1c.16,0,.37.4.48.43C214.15,148.4,214.57,147.88,215.07,148Z" style="fill:#e0e0e0"></path><path d="M214,153.28c-.1.27-.71.14-.76-.11S213.92,153,214,153.28Z" style="fill:#e0e0e0"></path><path d="M213.41,154.13a.76.76,0,0,1-.11.14c-.23-.08-.47-.15-.54-.42C212.93,153.55,213.41,153.8,213.41,154.13Z" style="fill:#e0e0e0"></path><path d="M212.62,153.24c-.15.26-.67,0-.86.25-.31,0-.62,0-.68-.32s.37-.08.59-.1S212.52,152.73,212.62,153.24Z" style="fill:#e0e0e0"></path><path d="M208.45,166.84a8.59,8.59,0,0,0-.21-.92c0-.12,0-.28,0-.43a3.89,3.89,0,0,1-.09-.53c0-.24.27-.26.33-.46s-.11-.39-.12-.78.18-.42.3-.78c.05-.17.05-.49.11-.61s.41-.28.54-.35c.45-.27.81-.77,1.27-.85a2,2,0,0,1,.35,0c.27-.06.61-.33,1-.43s.67-.06.94-.25a2.82,2.82,0,0,0,.83-1.06c.13-.39.1-.72.35-.86s.26,0,.39,0a1.6,1.6,0,0,0,.53-.32c.21-.22.24-.59.47-.82a4.56,4.56,0,0,1,.68-.53.9.9,0,0,1,.47-.14c.42,0,.62.74,1.07.6.16,0,.33-.46.47-.71s.37-.85.74-1,.63.14.8-.18-.14-.35,0-.49c.34,0,.93.58,1.45.6.28,0,.8-.37.85.14,0,.23-.21.41-.26.64s.06.25,0,.43c-.24.11-.5.17-.5.49s.47.6.76.82.37.39.48.46a2.45,2.45,0,0,0,.29.14c.19.15.33.49.59.5s.6-.45.77-.89a8.5,8.5,0,0,0,.3-1.66c0-.18.13-.36.17-.54.12-.48.27-1.14.62-1.31a3.21,3.21,0,0,1,.42,2.06c.23.22.65.14.71.64,0,.17-.07.39-.06.57a7.12,7.12,0,0,0,.24.81c.05.48-.07.87.11,1.21s.69.42,1,.89a1.77,1.77,0,0,0,.15.64,3.27,3.27,0,0,0,0,.35c.09.24.35.26.44.46s0,.29.09.46a3.63,3.63,0,0,0,.41.71,4,4,0,0,1,.39.72c0,.35-.16.59-.21.88a9.28,9.28,0,0,1-.12,1.17,13,13,0,0,1-.74,1.39,4.64,4.64,0,0,1-.83,1.24c-.18.18-.4.28-.59.46s-.51.64-.77,1-.58.6-.79.89-.46,1.1-1,1.17a2.77,2.77,0,0,0-.86.14c-.43.21-.72.6-.94.61s-.44-.33-.65-.36-.42.22-.77.21c-.14,0-.21-.1-.41-.17-.42-.16-.89-.16-.95-.71,0-.31.16-.44.15-.71s-.23-.34-.33-.57a.67.67,0,0,0-.14-.71.81.81,0,0,1,.12-.5,3.27,3.27,0,0,0-.6.29c-.21.15-.37.51-.62.46s-.05-.38-.08-.61a3.54,3.54,0,0,0-.51-1,3.77,3.77,0,0,0-1-.46c-.92-.17-1.5.42-2.22.5a5.23,5.23,0,0,0-.56,0,4,4,0,0,0-1.63,1.06,7.78,7.78,0,0,0-1.86.08c-.62.22-1,.84-1.95.67-.19-.2-.53-.3-.53-.64s.34-.44.45-.64a2.88,2.88,0,0,0,.32-1c0-.24-.13-.52-.12-.82S208.45,167.07,208.45,166.84Z" style="fill:#e0e0e0"></path><path d="M208,152c.16,0,.28-.17.44-.18.34,0,.69.3,1.09.25.09.11,0,.21,0,.39.35.22.92.18,1.1.6-.26.33-.65.09-1,0s-.62,0-.94-.07-.79-.34-1.19-.39c-.24,0-.48,0-.71,0s-1.25-.5-1.27-.82.45-.42.86-.36S207.27,152.15,208,152Z" style="fill:#e0e0e0"></path><path d="M208.74,149.59c-.22-.08-.43,0-.53-.11s-.17-.57-.23-.82-.31-.37-.45-.71-.27-1.57.24-1.67c.21,0,.42.15.56.11s.24-.53.47-.71.38-.06.57-.14a1.51,1.51,0,0,0,.47-.5,2.79,2.79,0,0,1,.38-.6c.19-.15.36-.15.5-.29.39-.35.4-.85.71-1.27s.68.34.71.63.44.29.56.54c-.17.62-.66.68-.56,1.56a3,3,0,0,0,.18.6c.09.21.34.44.33.57s-.47.25-.57.53,0,.28,0,.68-.45.36-.56.71,0,1-.26,1.28c-.2,0-.41.2-.65.17s-.51-.45-.92-.46c-.16,0-.34.12-.5.11S208.93,149.65,208.74,149.59Z" style="fill:#e0e0e0"></path><path d="M206.83,148.8c.75,0,.75,1.4,0,1.4S206.08,148.8,206.83,148.8Z" style="fill:#e0e0e0"></path><path d="M205.73,148.63a1.45,1.45,0,0,1,.41.71c0,.25-.32.23-.41.57-.14.51.06,1.08-.18,1.35a1.31,1.31,0,0,1-.59.07,10.52,10.52,0,0,1-1.42-1.6,3.88,3.88,0,0,1-.47-.64c-.15-.34-.21-.71-.38-1s-.44-.48-.59-.78-.14-.58-.27-.82-.33-.32-.47-.5a4.19,4.19,0,0,1-.24-.42c-.37-.54-1.08-.81-1.12-1.6.15-.21.31.08.59.14s.4,0,.53,0,.45.61.74.89.37.26.53.42.3.43.44.53.46.24.71.43,1,.53,1,1.07c0,.13-.05.35,0,.46s.24.26.35.42.18.5.39.54S205.51,148.59,205.73,148.63Z" style="fill:#e0e0e0"></path><path d="M191.78,141.17c.26.1,1.11,1.34.86,2a.66.66,0,0,1-.65.39c-.59-.12-.47-1.68-.3-2.31A.2.2,0,0,1,191.78,141.17Z" style="fill:#e0e0e0"></path><path d="M172.13,159.14a1.78,1.78,0,0,1,.39-.93c.27-.24.64-.21.91-.39a2.25,2.25,0,0,0,.71-.64c.15-.22.15-.47.27-.64s.26-.14.35-.28.07-.36.21-.5c.41-.21.53.7.59,1.32,0,.19.1.4.09.49,0,.29-.3.35-.38.54a6.54,6.54,0,0,1-.51,2.09c-.19.55-.31,1.16-.47,1.64-.06.17-.18.3-.24.46-.21.6-.29,1.55-.68,1.81a2.86,2.86,0,0,1-.82.25.89.89,0,0,1-.77-.71c-.05-.21,0-.42,0-.64a3.36,3.36,0,0,1-.15-.86c.07-.72.65-1.07.68-1.66S172.09,159.59,172.13,159.14Z" style="fill:#e0e0e0"></path><path d="M157.89,108.61c0,.6-.76.52-.86,1,0,.23.1.54.06.75-.06.37-.36.26-.74.46-.19.1-.38.47-.59.5s-.31-.14-.44-.11-.13.33-.41.39-.63-.24-.65.11.35.35.59.32.32-.18.5-.18c.35,0,.58.31.8.32.5,0,1-.56,1.53-.5.24,0,.39.24.57.22s.52-.43.73-.57c-.09-.6,0-1.39.48-1.42.32,0,.8.65.85,0a.52.52,0,0,0-.44-.54c-.17,0-.39.41-.53.08s.3-.24.47-.32.22-.23.36-.29c.7-.29,1.67.29,2-.42-.63-.64-1.69.23-2.4.17a1,1,0,0,1-.8-.64c0-.1,0-.25,0-.46s-.12-.46-.11-.6c0-.64,1.36-.76,1.36-1.56a1,1,0,0,0-1.25.07c-.08.11-.08.34-.2.57-.27.48-1.12.54-1.39,1.13a1.56,1.56,0,0,0-.12.71C157.25,108.17,157.87,108.26,157.89,108.61Zm-7,34.73a3.86,3.86,0,0,0-2.31.56,3.07,3.07,0,0,1-1,.47,4.84,4.84,0,0,1-.83-.22,4.05,4.05,0,0,0-1.15.07c-.34.08-.65.37-.95.39-.57.06-1.12-.62-1.48-1s-.44-.38-.65-.57-.5-.33-.67-.53-.24-.75-.36-1.1-.58-.74-.92-1.14-.82-.75-.88-1.14c0-.19.07-.42.06-.64s-.21-.48-.21-.71.31-.55.38-.81,0-.33.06-.5a2.6,2.6,0,0,0,.24-1.1,6.34,6.34,0,0,1-.18-.67c0-.19.1-.3.09-.47s-.35-.36-.38-.71.28-.65.47-1.06c.08-.18.13-.47.21-.61.16-.3.43-.44.56-.74s.12-.55.21-.71.32-.33.53-.6.23-.51.35-.61a2.84,2.84,0,0,1,.53-.25,2.51,2.51,0,0,0,1.21-1.31,1.75,1.75,0,0,1,.24-1.21,2.17,2.17,0,0,1,.62-.92c.37-.25.72-.28,1-.75a2.35,2.35,0,0,0,.32-.88,1,1,0,0,0-.56-.86c-.27,0-.68.25-.83-.1a4.17,4.17,0,0,1,0-.5c0-.23-.2-.4-.2-.57,0-.33.27-.68.35-1.06a5.65,5.65,0,0,0,0-1.53c.41-.78,1.33-.39,2.25-.32.13,0,.29,0,.44,0,.54,0,1,.21,1.15-.36a4.52,4.52,0,0,0,.09-1.21,2.91,2.91,0,0,0-.62-1c-.29-.22-.72-.13-.89-.53.14-.7.79-.12,1.19-.29.2-.08.17-.5.35-.57s.28.15.44.15a2.84,2.84,0,0,0,.8-.43c.19-.15.25-.47.42-.6s.26-.08.38-.14a2.38,2.38,0,0,0,.74-.64c.24-.36.35-.79.65-.86s1.29.1,1.36-.42-.37-.89-.21-1.42.44-.35.89-.61c.21.19.15.71.17,1,.28,0,.84-.09.89-.39s-.4-.73-.5-1-.14-.66-.36-.71c-.45-.1-.88.75-1.44.75a1,1,0,0,1-.86-.67,2.69,2.69,0,0,1,0-.57,3,3,0,0,1-.12-1c.23-.46.75-.54,1.12-.78.15-.09.26-.28.42-.35s.65,0,.91-.18.12-.31.24-.53.26-.23.36-.39.07-.29.14-.39c.26-.39.73-.53.92-.93.08-.17-.15-.24-.09-.49s.46-.07.68-.11.57-.49.89-.57a5.51,5.51,0,0,0,1-.18c.19-.08.36-.28.53-.32s.24,0,.33,0,.23-.09.38-.11.49.07.77.07c.47,0,.91-.16,1.3,0,.2.11.18.38.44.5s.31,0,.51,0,.59.27,1,.32c.14,0,.28,0,.41,0a6.73,6.73,0,0,1,1.31.49c.34.14,1.08.32,1.09.71s-.64.61-.92.61c-.46,0-1.08-.33-1.56-.15a1.31,1.31,0,0,0,1.39,1.32c0-.38-.38-.17-.33-.53.29-.27.65.18,1.06.1.17,0,.14-.33.18-.53.35-.26.79-.63,1.33-.36a.33.33,0,0,1,.12-.14c0-.39-.35-.59-.15-1s.66-.16.74,0-.14.21-.12.43a.48.48,0,0,0,.47.32c.29,0,.35-.34.63-.5a3.26,3.26,0,0,1,.41-.14c.17-.08.31-.24.44-.29s.25,0,.39,0,.36-.22.5-.22.3.25.53.29.26-.09.44-.11.3,0,.42,0c.28,0,.47-.23.71-.21s.44.28.56.14-.26-.4-.12-.6c.45,0,.94,0,1.39.1a17.14,17.14,0,0,0,1.92.54c-.06-.5-.53-.36-.74-.57a2.24,2.24,0,0,1-.32-.75,4.39,4.39,0,0,1,.41-.85,1,1,0,0,1,1.36.11c.17.27.11.68.35.67s.32-.62.56-.64.31.4.51.39.41-.55.74-.57c.17,0,.23.11.5.15.18-.15-.06-.33,0-.54.33-.28,1.08-.07,1.5-.24.12-.17-.15-.29,0-.47a3.89,3.89,0,0,1,1.59-.46c.38-.08.74-.39,1-.42s.61.21.89.21a1.44,1.44,0,0,0,.53-.14c.17-.08.28-.27.45-.32a5.17,5.17,0,0,1,.88,0c.32,0,.6-.19.83-.14s.39.31.59.35c.62.12,1.27-.11,1.83.07.1,0,.21.16.33.22.38.16.64.11.71.67.3.13.47.46.83.57a2.62,2.62,0,0,0,.73,0,7.63,7.63,0,0,1,1.1.07c.17,0,.31.18.47.22s.28,0,.41,0a3.8,3.8,0,0,0,.51.1c.31,0,.54-.34.79-.39a2.22,2.22,0,0,1,.45.07,10,10,0,0,1,1.47,0,2.81,2.81,0,0,1,.83.57c.18.16.28.41.45.53a1.44,1.44,0,0,0,.7.28c.19,0,.2-.29.39-.39.58-.15,1.62.23,2.1,0,.18-.1.14-.34.29-.46a24.63,24.63,0,0,1,2.6.07,6.41,6.41,0,0,1,.86,0c.29.06.51.41.8.53s.53,0,.82.11.36.19.51.21a3.09,3.09,0,0,0,.91-.07,4.34,4.34,0,0,1,2.22.22c.36.17.5.51.89.56s1.39-.05,1.95,0a1.8,1.8,0,0,0,.35.07c.19,0,.3-.2.53-.21s.76.55,1.19.46c.18-.15-.15-.35,0-.49s.4,0,.65,0,.32-.09.45-.08c.32,0,.63.39,1,.5a3.09,3.09,0,0,0,1.15.07,2.83,2.83,0,0,1,.8-.1,4.21,4.21,0,0,1,.39.17c.12,0,.25,0,.35,0s.2.14.3.18c.55.19,1.28.28,1.86.49a4.09,4.09,0,0,0,1,.39c.14,0,.27-.07.45-.07.89,0,1.94.46,1.86,1.46-1,.27-1.92-.87-3-.53a.53.53,0,0,0-.35.49c0,.62,1.34.57,1.45,1.18-.22.19-.45,0-.62,0a2.1,2.1,0,0,0-.89.57c-.2.22-.38.8-.59.85s-.67-.31-1.06-.21c-.15,0-.29.25-.42.28-.32.08-.74-.21-.94.25.1.32,0,.78.26,1s.33,0,.5.11.33.39.51.56.3.15.38.32-.09.29-.06.46.44.37.44.57-.24.2-.29.46.16.21.18.43-.1.3-.09.46.17.4.15.61a.59.59,0,0,1-.27.39c-.57-.44-1.08-1-1.68-1.6a4,4,0,0,1-1.72-2.49c0-.18.33-.33.39-.6,0-.11,0-.27,0-.43,0-.41.3-.81.29-1.06a1.38,1.38,0,0,0-.65-.85c-.17.1,0,.32,0,.49a.63.63,0,0,1-.44.5c-.56.06-.62-.86-1.51-.6a.92.92,0,0,0-.47,1c0,.16.38.32.35.53s-.8.27-1,.25c-.48,0-.72-.47-1.15-.46-.21,0-.4.21-.57.25-.93.2-2.31-.55-2.62.42,0,.14,0,.32-.06.47s-.2.36-.24.49,0,.33-.09.5-.61.76-.12.92c.12,0,.18-.06.33,0s.67.53,1,.53.43-.24.56-.25c.28,0,.48.2.68.32s.51.37.65.36.15-.25.42-.36c.51.18.75.83,1.24,1.35.18.19.44.35.68.6s.54.53.56.71-.12.25-.15.4.07.37-.06.53c-.47-.21-.57-.77-.91-1.24-.13-.18-.26-.39-.45-.64s-.4-.52-.59-.43c-.37.17.21.85.3,1a2.88,2.88,0,0,1,.47,1.07c0,.21-.11.6-.12,1s.05.47,0,.67a5.12,5.12,0,0,1-.2.68c-.07.26-.09.57-.15.74s-.5.7-.77.71-.35-.22-.59-.21-.43.42-.65.75c0,.34.11.46.06.71s-.52.44-.5.81.39.42.59.57a5.42,5.42,0,0,1,1,1.07,2.19,2.19,0,0,1,.39,1c0,.35-.87.84-1.22.71s-.21-.5-.29-.85-.24-.39-.33-.61a2.45,2.45,0,0,0-.09-.42c-.17-.36-.49-.17-.85-.39s-.17-.46-.27-.75a.94.94,0,0,0-1.09-.46c-.32.07-.42.39-.71.46-.43-.31.09-1.07-.44-1.13s-.68.7-.92.92-.45.18-.47.39c0,.39.34.31.65.46s.31.51.56.53.35-.26.56-.28a1.33,1.33,0,0,1,.89.32c-.15.43-1,.74-1,1.31,0,.33.32.39.56.61s.48.7.77,1.06c.13.16.33.26.39.36s.11.52.26.67-.07.24-.06.43.4.2.47.46c-.06.61.16,1.19-.26,1.42a4.3,4.3,0,0,1-1,2.55,5.36,5.36,0,0,1-2,1c-.17.07-.31.29-.47.36-.39.16-1.09.06-1.12.64,0,.28.3.45.32.74a.92.92,0,0,1-.53.93.54.54,0,0,1-.56-.5c0-.42.44-.6.47-.85a.74.74,0,0,0-.76-.85,2.28,2.28,0,0,0-1.3,1.49c0,.38.63,1.18.85,1.42.83.88,1.71,1.4,1.57,3.55-.21.54-.74.66-1.15,1s-.48.93-1,1c-.21-.09-.09-.49-.15-.67s-.5-.38-.77-.64-.3-.55-.47-.75-.51-.3-.77-.46-.28-.47-.44-.46-.17.31-.24.81-.36.88-.26,1.46c0,.24.29.43.41.67.21.41.23.88.44,1.1s.38.19.54.32a4.2,4.2,0,0,1,1,1.18,9.41,9.41,0,0,1,.09,1.2c.1.46.59.78.3,1.25a2.28,2.28,0,0,1-.77-.47,2.6,2.6,0,0,1-.86-1.06,3.79,3.79,0,0,1-.24-.43c-.1-.32-.08-.68-.17-1.06a3.73,3.73,0,0,0-.65-1.14c-.21-.23-.58-.37-.59-.71s.13-1,.11-1.6c0-.12-.07-.24-.08-.39s0-.6,0-.85a4.55,4.55,0,0,0-.27-.64c-.08-.2-.16-.41-.24-.67s-.25-1.2-.53-1.25-.59.67-1,.68a.57.57,0,0,1-.51-.43c0-.21.1-.43.09-.67,0-.48-.29-.66-.5-1-.08-.13-.11-.32-.18-.42s-.39-.3-.56-.5a2.74,2.74,0,0,1-.41-.64c-.12-.28-.15-.64-.33-.67s-.36.25-.53.32a4.6,4.6,0,0,1-.8.18c-.59,0-1.07-.15-1,.71-.09.38-.43.38-.65.56a9.91,9.91,0,0,0-.8,1.07c-.15.18-.37.29-.5.46s-.15.36-.27.5c-.31.36-.79.39-1,.88,0,.59.23,1,.18,1.6,0,.26-.19.48-.21.75a5.47,5.47,0,0,1,0,.71c0,.13-.15.19-.24.35s-.11.33-.17.43-.27.26-.36.39-.18.37-.33.39c-.64.11-.8-1.37-1.09-2a10,10,0,0,1-.53-.89c-.15-.39-.2-.89-.41-1.35a9,9,0,0,1-.57-1.17c-.1-.33-.19-.76-.29-1.13a7.15,7.15,0,0,1-.24-1.21c0-.46.08-.74-.23-.92-.29.08-.42.42-.74.42s-1.17-.65-.92-1.24c-.2-.35-.72-.54-1.12-1-.23-.24-.43-.8-.83-.85a2,2,0,0,0-.35.07c-.25,0-.7,0-1,0a5.38,5.38,0,0,1-1.24.07l-.95-.14a2,2,0,0,1-1.09-.39c-.13-.15-.18-.61-.41-.68s-.43.18-.68.25a1.51,1.51,0,0,1-1.36-.42c-.26-.21-.5-.32-.68-.46-.45-.37-.53-1.45-1.21-1.46-.24,0-.62.18-.65.5a1.84,1.84,0,0,0,.32.81c.33.57.94.78,1.13,1.53.12.06.37-.13.5,0s0,.92.26,1.06c1.23.24,1.58-.56,2.13-1.14.32.25.21.47.33.75a1.06,1.06,0,0,0,.5.6c.15.07.34,0,.56.11a2.5,2.5,0,0,1,.74,1,3.75,3.75,0,0,1-.5,1.1c-.12.18-.3.27-.36.43s0,.38-.06.46-.32.32-.47.49-.35.33-.5.47-.3.4-.5.49c-.4.18-.77.1-1.1.36s-.21.54-.47.74-.73.22-1.12.43-.41.4-.62.5-.2,0-.3,0-.38.23-.56.29-.3,0-.44.07c-.46.16-.88.71-1.33.39-.22-.6-.26-1.35-.51-1.88-.13-.28-.38-.36-.47-.64s.22-.17.24-.36c-.08-.38-.38-.56-.56-.89-.09-.15-.14-.38-.24-.56-.35-.62-1-.94-1.18-1.71,0-.21,0-.37,0-.53a2.26,2.26,0,0,0-.36-.75c-.11-.15-.34-.26-.47-.49s-.1-.37-.18-.54a5.67,5.67,0,0,0-1.18-1.7c-.24,0-.5.06-.62.25a6.55,6.55,0,0,0,.5,1.24,7.54,7.54,0,0,1,.56,1.14c0,.15,0,.34.09.49.19.57.77.74.89,1.39.08.43,0,.74.09,1.17s.61.66.83,1.07a9.43,9.43,0,0,1,.29,1.1c.18.45.67.65,1,1a10.87,10.87,0,0,1,.82,1c.16.17.38.2.42.39s-.09.32-.12.53c.22.29.45.81.83.85.15,0,.35-.17.59-.21s.25,0,.35,0,.3-.2.47-.25.66,0,1-.1.61-.43.88-.32c.31.4.09.85,0,1.24,0,.14,0,.28-.05.39-.16.63-.58,1.1-.77,1.67-.06.17-.05.39-.12.57a6.82,6.82,0,0,1-1,1.59,5.29,5.29,0,0,1-.59.71c-.21.21-.47.33-.71.54a7.29,7.29,0,0,0-1.3,1.56c-.12.21-.19.46-.32.64s-.49.38-.65.64a8.09,8.09,0,0,0-.36.92c-.16.41-.5.68-.44,1.24,0,.22.18.35.24.57a2.92,2.92,0,0,1,0,1.1,3.89,3.89,0,0,0,.59,1.35c0,.72,0,1.42,0,2a2.26,2.26,0,0,1,0,1,3.13,3.13,0,0,1-.8,1.07c-.28.22-.7.27-1,.53s-.38.5-.6.71-.82.68-.85,1a2.56,2.56,0,0,0,.18.71,3.85,3.85,0,0,1,0,1.85c-.22.61-1.3.48-1.42,1.13,0,.2.07.36.06.57a5.19,5.19,0,0,1-.3,1c-.13.3-.43.43-.62.68s-.36.77-.62,1.1a9.79,9.79,0,0,1-1.27,1.31,3.43,3.43,0,0,1-1.71.75,10.48,10.48,0,0,0-1.13,0c-.14,0-.29.18-.47.21s-.22,0-.33,0-.36.22-.53.22a1.18,1.18,0,0,1-.88-1.1c0-.21.15-.41.14-.61a3.77,3.77,0,0,0-.41-.92c-.17-.4-.24-.85-.41-1.17s-.43-.51-.57-.78a6,6,0,0,1-.38-1.85c0-.21-.15-.44-.18-.71a7.34,7.34,0,0,0,0-1,4.36,4.36,0,0,0-.35-.67c-.21-.46-.36-1.06-.53-1.42s-.5-.69-.53-1.07a6.5,6.5,0,0,1,.05-1c0-.25.19-.45.24-.71s0-.38,0-.57c.15-.81.9-1.11.8-2.09,0-.42-.29-.63-.33-1.11,0-.22.1-.41.09-.63a3.51,3.51,0,0,0-.32-1,9,9,0,0,0-.92-2.1c-.23-.32-.54-.55-.74-.85a2.34,2.34,0,0,1-.35-.89c0-.2.13-.33.17-.53s.07-.76.15-1.17a3.49,3.49,0,0,0,.18-1,1.42,1.42,0,0,0-.71-1c-.41-.12-.84.16-1.36.11C151.47,144.35,151.51,143.45,150.86,143.34Zm16.34,12.71c.14-.26.31-1,0-1.17h-.06C167,155.17,166.87,155.88,167.2,156.05Zm-.42-7.42c.1-.25.34-.51.3-.82-.09-.68-1.15-.35-1.27.14-.08.33.05.59-.06.93.12.26.41.31.77.28C166.72,149.05,166.69,148.85,166.78,148.63Zm-1.8,3.66c.12-.27-.18-.44-.23-.72s.06-.71-.18-.88h-.09C164.27,151.27,164.57,152.23,165,152.29ZM185.13,117c-.11-.27-.43.08-.29.32C185,117.36,185.11,117.22,185.13,117Zm-6.88,1.45c.48-.11,0-1-.35-.92S177.92,118.56,178.25,118.48Zm-2.19,4.58c.15-1.23-.65-1.32-.79-2.2.06,0,0-.1.08-.1.2-.12.49.18.59-.11a.6.6,0,0,0-.88-.53c-.13-.11-.15-.35-.18-.57-.33-.24-1.16-.76-1.15-1.24s.43-.62.91-.61c.21-.18.08-.75-.11-.88a1.54,1.54,0,0,0-1.66.35c-.23.2-.49.34-.62.46a.94.94,0,0,0-.26.57c0,.22.28.35.38.64s0,.34.09.46c.13.34.46.56.71.85s.67.65.68.89-.15.25-.21.46a3.49,3.49,0,0,0-.09.89c.07.39.4.4.71.57s.6.45.92.46A1.11,1.11,0,0,0,176.06,123.06Zm-6.94-2.55c.8-.18.43-1,0-1.28s-.68-.41-1-.68c-.2-.15-1-.44-1-.74s.59-.44.35-1c-.4-.12-1.36.07-1.3.6,0,.31.35.14.42.46-.29.13-.64.45-1,.4s-.45-.61-.65-.93c-.28,0-.46-.32-.8-.28s-.53.65-.7,1-.25.24-.3.39,0,.23,0,.35c-.1.4-.39.54-.36.89s.31.45.33.71-.38.13-.35.46c.53.53.55-.25.82-.35s.64.07.92,0,.4-.32.65-.43a1.54,1.54,0,0,1,.56-.14c.94-.05,1.55.69,2.36.71A5.25,5.25,0,0,0,169.12,120.51Zm-1.89,4.19c0-.38-.12-.67-.15-1.21-.55-.39-1,.37-1.51.28-.34,0-.58-.52-.94-.46-.2,0-.3.35-.51.39-.42.1-.61-.4-1.06-.21A4.24,4.24,0,0,1,162,120.9c-.35-.54-.87-.1-1.13.25-.15,0-.34-.11-.38.1-.12.66.77.73.77,1.18,0,.29-.35.26-.5.46s-.06.39-.27.53c-.58.08-.77-.3-.77-.92-.25-.46-.57-.8-.8-1.18a1.5,1.5,0,0,1-.23-.56c0-.17.06-.38,0-.57-.07-.34-.59-.6-.92-.78a5.16,5.16,0,0,1-1-.64c-.18-.18-.26-.49-.42-.61s-.29-.07-.41-.17-.13-.37-.35-.43-.29.13-.36.25c-.14.77.38.83.62,1.17s.25.59.42.75.42.13.65.25.26.31.41.42.73.24.77.64c-.18.14-.58-.21-.71.14s.15.35.15.57-.33.73-.62.68c0-.21.15-.38.14-.61,0-.45-.77-1.14-1.15-1.35a4.63,4.63,0,0,1-.56-.21,4.7,4.7,0,0,1-1-1c-.21-.34-.39-1-.85-.92-.19,0-.35.22-.51.32a4.54,4.54,0,0,0-.44.28c-.17.14-.31.28-.47.28-.37,0-.69-.33-1-.24-.1,0-.19.14-.32.28s0,.34,0,.57-.38.19-.59.32a4.17,4.17,0,0,0-.83.89,1.23,1.23,0,0,0-.33.49c0,.12.09.34.06.5a1.53,1.53,0,0,1-.47.67c-.1.09-.24.1-.35.18s-.34.38-.53.43c-.52.11-1.46-.13-1.45.53,0,.44.5.44.8.43a7.35,7.35,0,0,0,1,0c.16,0,.33-.26.5-.35s.22-.06.3-.11.27-.28.41-.35a3.1,3.1,0,0,1,1.06-.29c.4,0,.82.05,1.33,0,.19,0,.37-.16.57-.18s.74.16,1,.15.38-.22.59-.22a.61.61,0,0,1,.53.39c0,.11-.05.27,0,.43s.22.36.21.53-.48.52-.41.78.37.35.53.46a1.58,1.58,0,0,0,.65.32c.17,0,.31-.05.47,0a2.09,2.09,0,0,1,.83.35c.28.24.24.62.56.75.14.06.39,0,.56.07.43.11.75.54,1.07.5.49-.07.27-.63.32-1,.13-.91,1.6-.87,1.89-.25.22.07.41,0,.65.11s.25.24.39.28.25,0,.38,0c.57.08,1.08.58,1.57.5.31-.06.53-.41.82-.43.57,0,.93.51,1.54.25.45-.19.35-.75.5-1.31A5.79,5.79,0,0,0,167.23,124.7Zm31.85-12.11a1.44,1.44,0,0,0-.29-1.21c-.34.07-.1.5-.12.75s-.35.6-.33,1c-.11.16-.3.22-.32.49.19.16.27-.12.41-.28S199,112.89,199.08,112.59Zm-7.74-12.32a1,1,0,0,0-.65.28c-.11.08-.34.11-.27.32C190.71,100.83,191.27,100.68,191.34,100.27Zm-12.47,4.37c.7.19,1-.75.56-1.28-.11-.12-.47-.17-.62-.46s-.15-.81-.59-.71c0,0,0,.1,0,.1,0,.78.9,1,.89,1.6C179.07,104.22,178.78,104.25,178.87,104.64Z" style="fill:#e0e0e0"></path><path d="M169.15,103.29c-.09-.39.52-.32.41,0A.28.28,0,0,1,169.15,103.29Z" style="fill:#e0e0e0"></path><path d="M165.51,124.52c0-.29.57-.4.68-.14S165.63,124.86,165.51,124.52Z" style="fill:#e0e0e0"></path><path d="M155.38,122.6c.31-.3,1-.09,1.42-.1-.08.27-.09.62-.27.78A1.53,1.53,0,0,1,155.38,122.6Z" style="fill:#e0e0e0"></path><path d="M153.22,120.72c.41-.51.83-.24.68.75-.1.29-.52.68-.71.25A4.11,4.11,0,0,0,153.22,120.72Z" style="fill:#e0e0e0"></path><path d="M153.81,119.59a.5.5,0,0,1-.2.53C153.22,120,153.51,119.2,153.81,119.59Z" style="fill:#e0e0e0"></path><path d="M148.08,112.38a.64.64,0,0,0-.27-.57c-.09-.07-.24,0-.35-.11-.29-.19-.39-.58-.56-.67a4.09,4.09,0,0,1,0-.93,1.88,1.88,0,0,1,.65-.67c.26-.11.53,0,.68-.25a.18.18,0,0,1,.15,0c0,.22-.16.26-.18.46s.51.12.56.42-.29.4-.3.64.36.61.54.89.35.36.47.57.12.4.21.5.5.2.53.46-.35.47-.3.85c-.4.38-1.08.18-1.74.28-.3,0-.63.41-.95.11-.07-.24.27-.27.3-.5s-.25-.18-.3-.35.36-.33.33-.75C147.71,112.59,148,112.67,148.08,112.38Z" style="fill:#e0e0e0"></path><path d="M145.86,111.52c.4-.28,1.09-.06,1.13.29s-.21.3-.3.6,0,.6-.09.78-.33.16-.5.22c-.37.13-1.09.66-1.39.07,0-.32.3-.38.39-.64s-.18-.31-.15-.53.2-.18.44-.29S145.64,111.69,145.86,111.52Z" style="fill:#e0e0e0"></path><path d="M125.68,103.82c.06.32-.78.73-.86.32S125.47,103.41,125.68,103.82Z" style="fill:#e0e0e0"></path><path d="M124.71,183.85h-.45A.59.59,0,0,1,124.71,183.85Z" style="fill:#e0e0e0"></path><path d="M123.38,101.3a.12.12,0,0,1,.17,0c0,.08,0,.17-.17.14Z" style="fill:#e0e0e0"></path><path d="M120.75,107c0,.19-.59.51-.65.14a.31.31,0,0,1,.12-.29C120.37,106.69,120.74,106.75,120.75,107Z" style="fill:#e0e0e0"></path><path d="M108.45,139.93s0,.09,0,.14C108.08,140.06,108.36,139.58,108.45,139.93Z" style="fill:#e0e0e0"></path><path d="M96.46,115.11c.2-.14.4.22.26.39S96.44,115.24,96.46,115.11Z" style="fill:#e0e0e0"></path><path d="M128.67,116.42c-.14,0-.33,0-.51-.07l-.47-.1c-.36,0-.76.07-1-.18a10.75,10.75,0,0,1,1.27-1.6c.13-.14.42-.24.35-.53-.25-.27-.56,0-.8.18a2.49,2.49,0,0,1-.82.46c-.49.09-1.14-.17-1.54.14-.06.27.45.16.38.57a.5.5,0,0,1-.53-.11c-.14-.15-.06-.37-.15-.46a1.54,1.54,0,0,0-1-.14.72.72,0,0,0-.62.6c.37.21,1-.21,1.12.32-.2.44-.68.69-.62,1.28a.79.79,0,0,0,.41.57c.17,0,.26-.16.42-.14s.13.24.32.21.44-.63.77-.6c.39.57-.35.84-.77,1s-1.09.32-1.45.5c-.18.1-.9.93-1,.29-.07-.47.35-.33.44-.71-.45-.11-.88.23-1.3.42-.59.27-1.6.44-1.74,1.25,0,.16.06.46,0,.56s-.49.1-.68.18-.53.37-.71.43-.33,0-.41.07c-.24.11-.32.49-.59.74-.11.11-.36.18-.45.29s-.17.64-.44.71-.31-.16-.47,0a5.61,5.61,0,0,1,0,1.53,9.33,9.33,0,0,1-1.18.89c-.25.16-.47.21-.77.39s-.41.43-.65.6a2.21,2.21,0,0,0-1.24,1.88c0,.22.09.46.11.71s0,.3,0,.46c0,.38.26.85,0,1.1-.39-.19-.9-.26-1.18-.6-.07-.35.16-.64.12-1s-.33-.71-.5-.74-.35.19-.53.17-.43-.38-.71-.42-.72.11-1.18,0c-.45.29-.58.8-1.13.75-.19,0-.37-.19-.59-.25a3.09,3.09,0,0,0-.85-.14c-.51,0-.87.47-1.3.74s-.93.54-1,1c-.06.27,0,.65-.09.89a4,4,0,0,1-.23.46,4.16,4.16,0,0,0-.36,2.74,7.48,7.48,0,0,0,.5,1.2,1.52,1.52,0,0,0,.86.5,2.73,2.73,0,0,0,.68-.18,4.76,4.76,0,0,0,.77-.14c.64-.24.51-1.28,1.15-1.63a2.6,2.6,0,0,1,1.09-.21.86.86,0,0,1,.21.67,5.29,5.29,0,0,1-.24.6c-.06.23-.08.5-.14.68s-.29.41-.36.64,0,.33-.06.46-.33.4-.2.64c.63.3,1.39-.09,1.95,0a1,1,0,0,1,.71.82c0,.32-.21.53-.24.89s-.19,1-.21,1.35c0,.59.72,1.6,1.24,1.59s.89-.67,1.57-.32c.22.12.46.56.71.54s.51-.45.65-.75.18-.67.47-.85.57-.1,1-.29a2.06,2.06,0,0,0,.5-.35c.14-.12.29-.43.47-.21s-.29.44-.09.74c.41.26.62-.48.92-.49a1.94,1.94,0,0,1,.59.35c.23.18.31.44.56.5s.42-.08.65,0,.48.36.71.36.41-.38.65-.43a.75.75,0,0,1,1,.46c.25.06.26-.35.5-.21-.13.31,0,.45.15.71s0,.28.11.36.42.16.62.31a4.47,4.47,0,0,1,.6.82,1.79,1.79,0,0,0,1,.75c.32,0,.59-.11.86-.07a2.61,2.61,0,0,1,1.42.85c.23.22.45.37.53.64s0,.43.09.64c.13.44.66.65.47,1.42.09.22.29.3.5.46s.32.39.5.42.25,0,.36,0a2.49,2.49,0,0,1,.86.32,2.66,2.66,0,0,1,.53.21c.15.12.17.53.35.64s.39,0,.59,0,.75.28,1,.28.32-.08.47-.07c.72.07,1.13,1.11,1.83,1.42.22.1.56,0,.71.11s.48,1.1.5,1.53c.06,1.29-.76,1.7-1.24,2.55-.1.18-.15.46-.29.71-.29.5-.6.61-.56,1.53,0,.25.11.5.11.78a5.63,5.63,0,0,1-.09,1.1c0,.24-.21.43-.23.64s.05.38,0,.57a4.15,4.15,0,0,1-.33.78c-.27.61-.33,1.32-.88,1.56-.33.14-.77.06-1.13.21-.14.07-.32.23-.5.32-.51.29-1.25.68-1.39,1.32s.18,1,.09,1.67a5.72,5.72,0,0,1-.35.6c-.13.2-.19.44-.33.64s-.45.39-.56.75c0,.12,0,.26-.06.46s-.12.18-.18.32,0,.28-.09.39c-.13.32-.53,1.07-.82,1.17-.62.21-1.26-.31-1.69-.22.06.36.28.32.42.57a4.38,4.38,0,0,0,.23.5c.14.18.25.25.27.46a1.36,1.36,0,0,1-.44,1,2.55,2.55,0,0,1-.86.29c-.22,0-.78,0-.89.21s.08.85,0,1.1c-.22.52-.81,0-1.12.14a.75.75,0,0,0,.24.68c.18.13.46,0,.59.21-.06.35-.38.4-.45.74s.1.43.06.64c-.07.46-.66.44-.65.93,0,.72,1.16.43,1.19,1.13,0,.43-.33.44-.45.85-.06.23,0,.28,0,.47s-.29.32-.29.6.41.71.62,1a3.62,3.62,0,0,0,.74.86c.41.27,1,.21,1.21.71-.06.3-.3.38-.53.46h-.06a.59.59,0,0,0-.45,0h-.41c-.4-.22-.88-.36-1.36-.57-.17-.07-.37-.25-.56-.35s-.3-.11-.41-.18-.55-.68-.8-.89-.4-.19-.5-.32A5.25,5.25,0,0,1,120,181c-.1-.17-.27-.28-.39-.46a3.63,3.63,0,0,1-.56-1.21c0-.29.23-.48.15-.75s-.53-.19-.59-.49.13-.49.12-.75-.24-.35-.15-.57.31,0,.47-.1c-.12-.52,0-1.34-.41-1.5-.22.22.22.72-.15.86-.36-.19-.27-.76-.35-1.17a4.62,4.62,0,0,1-.18-.82c0-.16,0-.34,0-.5-.06-.48-.51-.87-.53-1.35a4.46,4.46,0,0,1,.14-.67,4.69,4.69,0,0,0,0-.53c0-.23.13-.44.15-.64a6.31,6.31,0,0,0-.06-1.39c-.07-.41-.34-.76-.38-1.2,0-.17,0-.44,0-.64s-.1-.39-.12-.61a5.45,5.45,0,0,1,.06-.64c0-.44-.07-.94-.06-1.38,0-.13.06-.23.06-.36,0-.36-.11-.73-.12-1.1a14.75,14.75,0,0,0,0-1.77,7.42,7.42,0,0,0-.29-1.49,4.15,4.15,0,0,0-1.1-1.11c-.2-.13-.45-.18-.68-.31-.48-.29-1.41-.89-1.62-1.46-.06-.17,0-.38-.12-.57a8.24,8.24,0,0,0-.59-1c-.37-.67-.66-1.51-1-2.2a7.67,7.67,0,0,0-.56-1c-.12-.16-.51-.32-.56-.57a4.51,4.51,0,0,1-.23-1c0-.34.59-.61.59-.92s-.3-.42-.36-.64c-.15-.54.09-.86.27-1.31a4.1,4.1,0,0,1,.18-.5c.1-.19.32-.25.47-.46s.13-.37.23-.53c.23-.36.59-.5.68-.82a7.88,7.88,0,0,0,0-2,7.65,7.65,0,0,0-.32-.71c-.13-.43-.17-.9-.53-.89s-.39.31-.54.5,0,.52-.23.6-.47-.43-.86-.57c-.15-.06-.4,0-.5-.11-.29-.15-.38-.65-.68-.85s-.47-.1-.62-.35a4,4,0,0,1,0-.71c-.32-.23-.6-1.08-1-1.28s-.63-.12-.94-.25a3.12,3.12,0,0,0-.42-.18,2.17,2.17,0,0,1-.53-.14c-.58-.35-.9-1.48-1.62-1.45-.31,0-.61.35-.89.35a3.16,3.16,0,0,1-1.09-.46c-.36-.2-.77-.31-1.07-.5s-.4-.42-.62-.53-.39-.1-.53-.18a6.13,6.13,0,0,1-.62-.53,1.23,1.23,0,0,1-.47-.71c0-.28.21-.52.24-.78a3,3,0,0,0-.77-1.95c-.24-.38-.53-.69-.77-1a4.17,4.17,0,0,0,0-.5,7.5,7.5,0,0,1-.53-.85c-.18-.29-.52-.6-.56-.93s.12-.75,0-1.13c-.21-.65-1-.36-.86.49,0,.24.3.55.38.79s.07.53.15.81.31.51.38.82c.13.48.13,1,.24,1.31s.48.53.27.85c-.28.07-.39-.26-.56-.46s-.45-.31-.51-.56.11-.5.06-.75c-.1-.5-.94-.51-.94-1,0-.32.35-.36.35-.68s-.39-.63-.47-.92a6.09,6.09,0,0,1-.12-1.06,7.94,7.94,0,0,0-.06-1,1.51,1.51,0,0,0-.56-.71c-.26-.18-.46-.1-.59-.36a3.62,3.62,0,0,1-.21-.92c0-.43,0-.89,0-1.35a8,8,0,0,1,0-1.38c.15-.35.41-.52.56-.86s.12-.53.24-.78a13,13,0,0,1,1-1.35,6.19,6.19,0,0,0,.86-1.52,2.67,2.67,0,0,0,.24-.89c0-.34-.58-.63-.53-1,0-.25.32-.25.41-.5a2.6,2.6,0,0,0,.09-.64,6.15,6.15,0,0,1-.09-1.06c.05-.31.44-.44.24-.78s-.55.18-.77,0,0-.44.06-.82c0-.14-.07-.31-.06-.42s.27-.43.2-.53c-.15-.25-.33-.86-.68-1.07s-.9-.08-1.5-.21c-.37-.08-.55-.5-.89-.46s-.33.31-.62.46a4,4,0,0,1-.94.17c-.29.08-.42.32-.71.29s-.25-.29-.54-.32a3.59,3.59,0,0,0-.5.11,6,6,0,0,1-1.74,0,4.48,4.48,0,0,1-1.15-.53c-.35-.2-1-.44-1-.75s.62-.41.86-.49a4.44,4.44,0,0,1,.91-.4c.12,0,.27.09.42.08s.34-.19.53-.22c.41-.07,1,0,1-.46-.32-.3-1.6.22-1.63-.43,0-.39.49-.5.86-.6a5,5,0,0,1,1.15-.21c.34,0,.78.47,1,0,.1-.36-.11-.66-.17-1,.25-.41.71-.36,1.06-.42a3.66,3.66,0,0,0,1.12-.36,3.82,3.82,0,0,1,1.13-.35c.4-.06.79-.25,1.15-.29a6.11,6.11,0,0,0,.86-.07A3.07,3.07,0,0,1,96,102c.19,0,.35.17.54.21s.37,0,.56,0,.27.15.41.18.47,0,.68,0,.37.18.56.21c.46.07,1,0,1.42.07.17,0,.32.14.5.18s.37,0,.53,0,.44.33.68.36a6.9,6.9,0,0,0,1.45-.29,6.55,6.55,0,0,0,1.07-.07,6.61,6.61,0,0,1,.94-.25,3.58,3.58,0,0,0,.45,0c.15,0,.33-.25.5-.21s.18.37.41.46c.26-.16.52,0,.8,0s.52-.17.83-.11c.53.1,1.29.74,1.71.39.11-.08.08-.23.18-.46a1.93,1.93,0,0,0,.32-1.1c-.59,0-1.16.36-1.83.39-.68-.51.18-.83.68-1.06s.73-.63,1.24-.71a4.86,4.86,0,0,1,1.36.17,6.83,6.83,0,0,1,.74,0c.29.1.44.45.68.53s.27,0,.41.07.51.24.77,0c.21,0,.23.31.44.36.2-.13.35-.45.65-.53.14,0,.27,0,.42,0s.56-.44.71-.08c-.06.26-.39.3-.56.5a1.56,1.56,0,0,0-.39.78c0,.34.46.21.47.64-.06.25-.3.14-.5.25s-.25.31-.44.35c-.54.13-1-.16-1.45-.14,0,.25.23.39.36.46a2.1,2.1,0,0,0,1.35.22c.31,0,.66.11.92-.11s.16-.44.3-.6a1,1,0,0,1,.79-.36.48.48,0,0,1,.33.36c0,.32-.38.22-.39.57.25.18.92-.2,1-.5s-.21-.35-.21-.57c0-.37.44-.37.39-.75-.21-.19-.42,0-.62,0s-.55-.47-.68-.74c.13-.19.39-.07.59,0a1.43,1.43,0,0,1,1.18-.56c.2,0,.46-.12.56.1s-.41.54-.32.93c.39.11.52-.53.85-.79a4.17,4.17,0,0,1,.56-.28c.19-.08.39-.29.54-.28s.19.16.35.24.34,0,.39.18c-.35.71-1.62.3-2,1,.07.49-.2.95,0,1.28s.53.07.62.32-.36.33-.24.71c.31.22.68-.22,1-.39s.71-.41.74-.85c-.15-.36-.74-.09-.82-.46a1.45,1.45,0,0,1,.23-.75,2.94,2.94,0,0,1,2.16-.92c.15,0,.29.12.44.14.51.06,1.11-.26,1.51,0,.32-.23.71,0,1.15,0,.35.25.25.77.77,1,.14.06.32,0,.5.07s.29.23.45.32.39.09.44.28-.16.31-.15.5,0,.32.09.5.45.3.77.46.7.45.68.71-.45.48-.59.57-.6.34-.77.31-.39-.72-.77-.71c-.17,0-.32.13-.33.4,0,.46.44.48.45.88s-.22.52-.56.82a2.13,2.13,0,0,0-.77-.32c-.19.27.31.37.15.71-.48.12-.84-.16-1.27-.32-.14,0-.34,0-.45-.11s-.21-.46-.35-.63a1.2,1.2,0,0,0-.74-.5c-.37,0-.89.54-1.18,0,.2-.81,1.14-.21,1.77-.49.23-.11.31-.41.5-.54.38-.26,1-.29.95-.81,0-.26-.33-.26-.5-.39s-.41-.82-.74-.86c-.17,0-.3.16-.48.18-.38,0-.8-.18-1.15,0-.16.11,0,.29-.18.5s-.34.22-.44.39-.09.45-.24.6-.75.3-1.06.43c-.14.06-.31.25-.44.25s-.35-.4-.62-.25c0,.38.33.53.56.71a1.43,1.43,0,0,1,.59.71c-.24.61-.62,0-1,0s-1,1-1.38.18c.09-.41.47-.48.56-.89-.42.09-.78.51-1.27.64-.21.06-.41,0-.59.11-.36.12-.61.44-1,.6-.14.07-.32,0-.47.11a11.73,11.73,0,0,0-2.19,1.38,2.17,2.17,0,0,0-.44.75c0,.21.34.28.35.5s-.19.41-.06.6.37,0,.62.07c.46.07.75.52,1.1.75a2.72,2.72,0,0,0,.94.42c.41.06.86-.14.92.25s-.38.51-.41.75c.21.34-.15.51-.15.81s.25.62.47.64.73-.35.86-.71.08-1,.35-1.31a2.19,2.19,0,0,0,2.45-2.45,3.45,3.45,0,0,1-.05-.57c0-.27.43-.5.38-.85.39-.14.37-.89.77-1s.71.28,1.15.24c.14,0,.33-.16.47-.14s.47.48.68.68.4.12.45.35c-.06.4-.29.41-.27.78a.74.74,0,0,0,.44.61,1.23,1.23,0,0,0,.74-.22c.4-.22.74-.9,1.07-.81s.46,1.06.5,1.42-.05.67,0,1c0,.6.66.53,1,.85.1.09.13.34.21.46s.33.24.36.5c.05.61-.47.66-.42,1.35-.11.26-.37.25-.35.6,0,.56.7.13.88.57.1.23,0,.41-.09.74.23.33.23.85-.17.86C129,116.82,128.91,116.5,128.67,116.42Zm-31.95-.92c.14-.17-.06-.53-.26-.39C96.44,115.24,96.5,115.55,96.72,115.5Zm20.63,3.23c-.12-.14-.53-.1-.8-.07s-.42.07-.44.25C116.41,119.08,117.25,119.2,117.35,118.73Zm-1.54-.6a.48.48,0,0,0-.12-.75c-.09,0-.22.09-.38.07s-.33-.19-.47-.21a.65.65,0,0,0-.56.25c0,.21.13.25.11.46-.28.25-.13,1.07.15,1.1s.46-.91.86-1C115.54,118,115.62,118.16,115.81,118.13Zm-.41,1.42c-.42-.18-.81.12-1.15.18s-.58,0-.54.32.43.19.65.1A2.6,2.6,0,0,0,115.4,119.55Zm-1.3-2.7c.59-.3-.12-1.23-.39-1.31-.47-.15-1.16.42-1.71.6-.31.1-.61.11-.68.43.28.55.83-.12,1.24,0,.21,0,.33.39.53.43A5,5,0,0,0,114.1,116.85Zm-.42.57c-.12-.17-.78,0-1,.18s-.22.37-.36.56-.29.36-.41.54-.7,1.19-.24,1.31c.2,0,.62-.45.65-.64a2.22,2.22,0,0,1,.8-1.42C113.4,117.77,113.64,117.8,113.68,117.42Zm-3.69-4c.33,0,.55-1.18,0-1C109.62,112.52,109.53,113.46,110,113.44Zm-1.59,26.63s0-.09,0-.14C108.36,139.58,108.08,140.06,108.4,140.07ZM95.9,110.35c0-.06,0-.07,0-.14s-.2,0-.18.11A.11.11,0,0,0,95.9,110.35ZM127,104.78c.15,0,.23,0,.21-.21S126.84,104.6,127,104.78Zm-3.4-3.48a.12.12,0,0,0-.17,0v.14C123.5,101.47,123.53,101.38,123.55,101.3ZM112.33,104c.09-.07.24-.18.17-.35-.32-.18-.88,0-1.36-.11-.27-.46-.73-.53-.76.22C110.92,104.32,111.76,103.54,112.33,104ZM107,107.69c.16-.07.4,0,.44-.25-.14-.13-.28-.31-.44-.32s-.32.22-.54.36-.59.2-.62.46A1.84,1.84,0,0,0,107,107.69Zm-.15-2.56c.19,0,.38.07.5-.14-.14-.78-1-.3-1.57-.25a2.08,2.08,0,0,0-.29.71C105.94,105.58,106.43,105.23,106.89,105.13Zm8.86,36.29c.24,0,.17-.69-.11-.53S115.53,141.46,115.75,141.42Z" style="fill:#e0e0e0"></path><path d="M95.87,110.21c0,.07,0,.08,0,.14a.11.11,0,0,1-.21,0C95.67,110.19,95.78,110.21,95.87,110.21Z" style="fill:#e0e0e0"></path><path d="M95,112.31a.66.66,0,0,1-.41.42.8.8,0,0,1-.15-.17C94.43,112.22,94.83,112,95,112.31Z" style="fill:#e0e0e0"></path><polygon points="352.81 85.59 350.14 60.48 337.33 63.37 326.29 43.87 333.17 70.23 346.16 67.25 352.81 85.59" style="fill:#e0e0e0"></polygon><polygon points="335.76 92.78 323.86 80.53 318.25 87.42 304.24 81.65 318.9 92.81 324.57 85.8 335.76 92.78" style="fill:#e0e0e0"></polygon><polygon points="380.2 73.13 386.76 57.36 378.22 54.92 378 39.77 373.53 57.64 382.2 60.09 380.2 73.13" style="fill:#f5f5f5"></polygon><polygon points="481.11 105.46 491.92 85.78 501.44 92.55 517.18 80.35 502.49 99.61 492.86 92.7 481.11 105.46" style="fill:#e0e0e0"></polygon><polygon points="500.96 116.69 512.14 111.92 513.93 117.98 524.72 118.05 512.02 121.34 510.22 115.18 500.96 116.69" style="fill:#e0e0e0"></polygon><polygon points="298.92 456.17 318.78 426.61 409.19 426.32 432.69 456.17 298.92 456.17" style="fill:#ebebeb"></polygon><polygon points="263.78 447.05 283.64 417.49 387.73 417.15 397.55 447.05 263.78 447.05" style="fill:#fafafa"></polygon><polygon points="263.78 447.05 263.78 450.63 397.55 450.15 397.55 447.05 263.78 447.05" style="fill:#e0e0e0"></polygon><path d="M383.26,437.1c0,.14-22.62.26-50.51.26s-50.52-.12-50.52-.26,22.61-.26,50.52-.26S383.26,437,383.26,437.1Z" style="fill:#e0e0e0"></path><polygon points="421.09 429.12 448.91 470.67 553.36 471.4 552.98 467.24 518.61 426.92 456.91 418.22 421.09 429.12" style="fill:#e0e0e0"></polygon><polygon points="421.28 424.88 450.89 467.24 552.98 467.24 516.13 423.49 454.43 414.79 421.28 424.88" style="fill:#fafafa"></polygon><path d="M536.43,458.29c0,.14-18.5.26-41.33.26s-41.33-.12-41.33-.26,18.5-.26,41.33-.26S536.43,458.14,536.43,458.29Z" style="fill:#e0e0e0"></path><path d="M533.08,454c0,.15-18.5.26-41.33.26s-41.33-.11-41.33-.26,18.5-.26,41.33-.26S533.08,453.81,533.08,454Z" style="fill:#e0e0e0"></path><path d="M529.74,449.62c0,.14-18.51.26-41.33.26s-41.33-.12-41.33-.26,18.5-.26,41.33-.26S529.74,449.48,529.74,449.62Z" style="fill:#e0e0e0"></path><path d="M526.3,445.29c0,.14-18.5.26-41.33.26s-41.33-.12-41.33-.26S462.14,445,485,445,526.3,445.14,526.3,445.29Z" style="fill:#e0e0e0"></path><path d="M521.8,441c0,.15-18.5.26-41.33.26s-41.33-.11-41.33-.26,18.5-.26,41.33-.26S521.8,440.81,521.8,441Z" style="fill:#e0e0e0"></path><path d="M517.3,436.62c0,.14-18.5.26-41.33.26s-41.33-.12-41.33-.26,18.5-.26,41.33-.26S517.3,436.48,517.3,436.62Z" style="fill:#e0e0e0"></path><circle cx="615.58" cy="117.94" r="55.55" transform="translate(339.75 680.76) rotate(-74.74)" style="fill:#ebebeb"></circle><circle cx="616.15" cy="117.38" r="50.27" style="fill:#fff"></circle><path d="M565.38,114.37s0,.28,0,.82v2.4c0,.53,0,1.12,0,1.78s.12,1.35.18,2.12.15,1.6.23,2.49a26.23,26.23,0,0,0,.47,2.79A48,48,0,0,0,571,140.53a50.29,50.29,0,0,0,11.84,15.1l2.07,1.77c.73.55,1.5,1.06,2.27,1.6s1.51,1.13,2.35,1.58L592,162l1.29.72,1.36.6,2.76,1.21c.93.38,1.93.65,2.9,1a27.3,27.3,0,0,0,3,.89,47.36,47.36,0,0,0,6.3,1.15c1.08.11,2.16.29,3.26.34l3.34,0c.56,0,1.12,0,1.68,0l1.69-.15c1.13-.11,2.28-.17,3.42-.32a53.5,53.5,0,0,0,6.82-1.53l1.7-.5c.29-.09.58-.16.86-.26l.83-.33,3.34-1.36c1.1-.5,2.16-1.1,3.25-1.66.54-.29,1.11-.54,1.62-.88l1.55-1a58.1,58.1,0,0,0,6-4.47l2.74-2.64.68-.67.63-.72L654.3,150l1.26-1.47,1.11-1.59,1.12-1.59.56-.8c.17-.28.33-.57.49-.85l1.94-3.43c.53-1.2,1.07-2.41,1.6-3.63A53.62,53.62,0,0,0,666,121a53.71,53.71,0,0,0-1.54-16c-.38-1.28-.75-2.55-1.12-3.81s-1-2.44-1.47-3.65l-.37-.91-.46-.87-.9-1.73-.9-1.71-1-1.62-1.05-1.62-.53-.8-.59-.75-2.37-3a58.53,58.53,0,0,0-5.37-5.21l-1.41-1.2c-.46-.41-1-.72-1.49-1.09-1-.69-2-1.42-3-2.07l-3.14-1.78-.78-.44c-.27-.13-.54-.24-.81-.36L636,71.66a52.43,52.43,0,0,0-6.57-2.41c-1.1-.3-2.23-.51-3.34-.77l-1.65-.37c-.56-.11-1.12-.14-1.68-.21l-3.31-.39c-1.1-.09-2.19-.06-3.28-.09a46.75,46.75,0,0,0-6.4.32,24.38,24.38,0,0,0-3.08.49c-1,.2-2,.34-3,.59l-2.9.85-1.43.42-1.36.54-2.69,1.08c-.9.34-1.71.85-2.55,1.26s-1.66.84-2.45,1.29l-2.28,1.48a50.23,50.23,0,0,0-13.72,13.42,48.09,48.09,0,0,0-6.46,13,25.94,25.94,0,0,0-.84,2.71c-.2.86-.38,1.67-.55,2.43s-.35,1.44-.45,2.08-.16,1.23-.22,1.76c-.14,1-.24,1.83-.31,2.39s-.12.81-.12.81,0-.28.06-.82.15-1.35.25-2.39c.06-.53.13-1.12.2-1.77s.27-1.34.43-2.1.34-1.57.52-2.44.54-1.77.82-2.73A47.94,47.94,0,0,1,574.07,89,50.41,50.41,0,0,1,587.83,75.4l2.29-1.49c.8-.46,1.64-.87,2.47-1.31s1.66-.94,2.56-1.28l2.71-1.1,1.38-.55,1.44-.42,2.92-.86c1-.26,2-.4,3-.61a26.7,26.7,0,0,1,3.12-.51,47.39,47.39,0,0,1,6.45-.33c1.1,0,2.21,0,3.32.08l3.34.39c.56.07,1.13.1,1.69.21l1.67.37c1.12.26,2.26.47,3.38.77a54,54,0,0,1,6.64,2.42l1.64.73c.28.12.56.23.82.37l.79.44,3.18,1.79c1,.65,2,1.4,3,2.09.49.37,1,.69,1.5,1.1l1.42,1.21a57.43,57.43,0,0,1,5.44,5.27c.8,1,1.59,2,2.4,3l.6.76.53.81,1.06,1.63L659.73,92l.91,1.73.91,1.75.46.88.38.91c.49,1.23,1,2.46,1.49,3.7s.75,2.56,1.13,3.84A54.36,54.36,0,0,1,666.57,121a54.21,54.21,0,0,1-3.67,15.84c-.54,1.22-1.09,2.44-1.62,3.66l-2,3.47c-.17.28-.32.57-.5.85l-.56.81-1.14,1.62-1.13,1.6-1.27,1.48-1.26,1.48-.64.73-.69.67-2.77,2.67a56.87,56.87,0,0,1-6.08,4.51l-1.57,1c-.52.35-1.09.59-1.63.89-1.1.56-2.18,1.17-3.29,1.68l-3.38,1.36-.84.33c-.28.1-.58.18-.86.26l-1.73.51a54.15,54.15,0,0,1-6.89,1.53c-1.15.16-2.31.21-3.45.32l-1.71.15c-.57,0-1.13,0-1.7,0l-3.37-.05c-1.11-.06-2.2-.24-3.29-.35a48.9,48.9,0,0,1-6.36-1.18,27.68,27.68,0,0,1-3-.9c-1-.35-2-.62-2.93-1l-2.78-1.23-1.37-.61-1.3-.73-2.54-1.44c-.85-.46-1.58-1.08-2.37-1.6s-1.55-1.07-2.28-1.62l-2.08-1.79a50.37,50.37,0,0,1-11.86-15.26A47.8,47.8,0,0,1,566,126.81a24,24,0,0,1-.45-2.81c-.08-.89-.14-1.72-.21-2.49s-.13-1.49-.15-2.14,0-1.24,0-1.78c0-1,.05-1.84.07-2.4S565.38,114.37,565.38,114.37Z" style="fill:#e0e0e0"></path><path d="M639.05,118.76a10.55,10.55,0,0,1-1.78.12l-4.92.1c-4.17.06-10,.1-16.54.11h-.32v-.33c0-1.05,0-2.16,0-3.28,0-7.32,0-14,.1-18.75,0-2.32.08-4.23.1-5.69a13.33,13.33,0,0,1,.13-2.08,11.92,11.92,0,0,1,.13,2.08c0,1.46.06,3.37.1,5.69.06,4.8.1,11.43.1,18.75v3.28l-.33-.32c6.56,0,12.37,0,16.54.1l4.92.1A10.55,10.55,0,0,1,639.05,118.76Z" style="fill:#e0e0e0"></path><path d="M616,74.94c.18,0,.32,1.91.32,4.25s-.14,4.25-.32,4.25-.33-1.9-.33-4.25S615.79,74.94,616,74.94Z" style="fill:#e0e0e0"></path><path d="M639,81.77c.12.12-1.1,1.55-2.73,3.19s-3.07,2.86-3.19,2.73,1.09-1.56,2.72-3.19S638.88,81.64,639,81.77Z" style="fill:#e0e0e0"></path><path d="M652.48,96.48c.08.17-1.52,1.13-3.49,2.33s-3.56,2.17-3.67,2,1.34-1.37,3.33-2.58S652.4,96.33,652.48,96.48Z" style="fill:#e0e0e0"></path><path d="M660.37,118.32c0,.18-2.59.33-5.79.33s-5.79-.15-5.79-.33,2.59-.32,5.79-.32S660.37,118.14,660.37,118.32Z" style="fill:#e0e0e0"></path><path d="M580.05,117.55c0,.18-2.45.33-5.47.33s-5.47-.15-5.47-.33,2.45-.33,5.47-.33S580.05,117.37,580.05,117.55Z" style="fill:#e0e0e0"></path><path d="M585.73,133.81c.12.14-1.73,1.81-4.13,3.75s-4.44,3.38-4.54,3.24,1.74-1.82,4.13-3.75S585.62,133.67,585.73,133.81Z" style="fill:#e0e0e0"></path><path d="M599.75,146.38c.15.11-1.22,2.22-2.82,4.88s-2.81,4.85-3,4.77.81-2.42,2.42-5.11S599.61,146.28,599.75,146.38Z" style="fill:#e0e0e0"></path><path d="M616,162.6c-.18,0-.33-2.59-.33-5.79s.15-5.79.33-5.79.32,2.59.32,5.79S616.15,162.6,616,162.6Z" style="fill:#e0e0e0"></path><path d="M640.93,154.88c-.09.15-2.35-1.15-4.77-3.27s-4-4.17-3.89-4.28,1.93,1.72,4.32,3.79S641,154.73,640.93,154.88Z" style="fill:#e0e0e0"></path><path d="M652.65,142.26c-.13.13-1.84-1.38-3.83-3.37s-3.51-3.71-3.38-3.83,1.85,1.38,3.84,3.37S652.78,142.14,652.65,142.26Z" style="fill:#e0e0e0"></path><path d="M585.2,102c-.13.12-1.64-1.19-3.38-2.93s-3.05-3.25-2.92-3.38,1.64,1.18,3.38,2.92S585.33,101.85,585.2,102Z" style="fill:#e0e0e0"></path><path d="M599.66,86.74c-.12.13-1.61-1.15-3.32-2.85s-3-3.18-2.87-3.31,1.62,1.15,3.33,2.85S599.79,86.61,599.66,86.74Z" style="fill:#e0e0e0"></path><polygon points="555.6 266.92 555.37 249.91 566.4 249.91 566.78 266.92 555.6 266.92" style="fill:#f5f5f5"></polygon><path d="M565.75,252.93a87.63,87.63,0,0,1-10.25,0,93.88,93.88,0,0,1,10.25,0Z" style="fill:#e0e0e0"></path><path d="M565.75,255.56a87.63,87.63,0,0,1-10.25,0,87.63,87.63,0,0,1,10.25,0Z" style="fill:#e0e0e0"></path><path d="M565.75,258.18a87.63,87.63,0,0,1-10.25,0,93.88,93.88,0,0,1,10.25,0Z" style="fill:#e0e0e0"></path><path d="M565.75,260.81a87.63,87.63,0,0,1-10.25,0,87.63,87.63,0,0,1,10.25,0Z" style="fill:#e0e0e0"></path><path d="M565.75,263.43a87.63,87.63,0,0,1-10.25,0,93.88,93.88,0,0,1,10.25,0Z" style="fill:#e0e0e0"></path><path d="M554.42,249.35H676.63c1.51,5.63,1.3,11.83,0,18.38H554.94v-1.25h7.44a3.27,3.27,0,0,0,3.51-3V253.36a3.27,3.27,0,0,0-3.51-3h-8Z" style="fill:#ebebeb"></path><rect x="579.51" y="255.71" width="91.74" height="4.96" rx="1.95" style="fill:#fff"></rect><path d="M665.27,225.74V247.9H634.83V225.74Z" style="fill:#f5f5f5"></path><path d="M567,237c0,.19,0,.39,0,.59.25,6.7,4.29,11.89,9,11.89h90.66V247.9H645.17c-4.35,0-7.87-5-7.87-11.08h0c0-6.12,3.52-11.08,7.87-11.08h21.52v-2.35l-90.68.43C570.89,223.85,566.77,229.82,567,237Z" style="fill:#e0e0e0"></path><path d="M665.27,237.12c0,.12-6.26.23-14,.23s-14-.11-14-.23,6.26-.23,14-.23S665.27,237,665.27,237.12Z" style="fill:#e0e0e0"></path><path d="M664.83,242.11c0,.13-5.92.23-13.23.23s-13.23-.1-13.23-.23,5.93-.22,13.23-.22S664.83,242,664.83,242.11Z" style="fill:#e0e0e0"></path><path d="M665.27,246.68c0,.12-5.33.23-11.89.23s-11.9-.11-11.9-.23,5.33-.23,11.9-.23S665.27,246.55,665.27,246.68Z" style="fill:#e0e0e0"></path><path d="M665.27,232.63c0,.13-6.13.23-13.69.23s-13.7-.1-13.7-.23,6.13-.22,13.7-.22S665.27,232.51,665.27,232.63Z" style="fill:#e0e0e0"></path><path d="M664.83,228.15c0,.12-5.46.22-12.19.22s-12.19-.1-12.19-.22,5.46-.23,12.19-.23S664.83,228,664.83,228.15Z" style="fill:#e0e0e0"></path><rect x="576.17" y="234.88" width="51.6" height="4.03" rx="1.01" style="fill:#fff"></rect></g><g id="freepik--Table--inject-195"><path d="M716.69,378.23c0,.15-151.65.26-338.67.26s-338.71-.11-338.71-.26S190.93,378,378,378,716.69,378.09,716.69,378.23Z" style="fill:#263238"></path></g><g id="freepik--books-2--inject-195"><path d="M585.11,347h-44.3a12.31,12.31,0,0,1-12.3-12.31h0a12.3,12.3,0,0,1,12.3-12.3h44.3Z" style="fill:#455a64"></path><path d="M671.34,326.46H572.85v-4.08h98.49a2,2,0,0,1,2,2h0A2,2,0,0,1,671.34,326.46Z" style="fill:#455a64"></path><path d="M671.34,347H572.85V342.9h98.49a2.05,2.05,0,0,1,2,2.05h0A2,2,0,0,1,671.34,347Z" style="fill:#455a64"></path><path d="M670.38,342.9H584.07a8.22,8.22,0,0,1-8.22-8.22h0a8.22,8.22,0,0,1,8.22-8.22h86.31A20.37,20.37,0,0,0,670.38,342.9Z" style="fill:#f5f5f5"></path><g style="opacity:0.30000000000000004"><path d="M575.85,347h-35a12.35,12.35,0,0,1-12.34-12.34h0a12.27,12.27,0,0,1,12.27-12.27h36C567.88,327.78,568.54,340.7,575.85,347Z"></path></g><path d="M659.89,335.45c0,.08-17.71.14-39.56.14s-39.57-.06-39.57-.14,17.71-.15,39.57-.15S659.89,335.37,659.89,335.45Z" style="fill:#263238"></path><path d="M668,339.1c0,.08-17.72.15-39.57.15s-39.56-.07-39.56-.15,17.71-.15,39.56-.15S668,339,668,339.1Z" style="fill:#263238"></path><path d="M665.64,330.27c0,.08-17.72.14-39.57.14s-39.57-.06-39.57-.14,17.72-.15,39.57-.15S665.64,330.18,665.64,330.27Z" style="fill:#263238"></path><path d="M571.52,345.26c0,.09-8.29.15-18.52.15s-18.52-.06-18.52-.15,8.29-.14,18.52-.14S571.52,345.18,571.52,345.26Z" style="fill:#263238"></path><path d="M571.52,324.42c0,.08-8.29.15-18.52.15s-18.52-.07-18.52-.15,8.29-.15,18.52-.15S571.52,324.34,571.52,324.42Z" style="fill:#263238"></path><path d="M582.46,378.23H527.52a15.85,15.85,0,0,1-15.85-15.84h0a15.85,15.85,0,0,1,15.85-15.85h54.94a2.11,2.11,0,0,1,2.11,2.11v27.47A2.11,2.11,0,0,1,582.46,378.23Z" style="fill:#FF81D7"></path><path d="M695.61,351.8H568.78v-5.26H695.61a2.63,2.63,0,0,1,2.63,2.63h0A2.63,2.63,0,0,1,695.61,351.8Z" style="fill:#FF81D7"></path><path d="M695.61,378.23H568.78V373H695.61a2.63,2.63,0,0,1,2.63,2.63h0A2.63,2.63,0,0,1,695.61,378.23Z" style="fill:#FF81D7"></path><path d="M694.38,373H583.23a10.59,10.59,0,0,1-10.59-10.58h0a10.59,10.59,0,0,1,10.59-10.59H694.38A26.18,26.18,0,0,0,694.38,373Z" style="fill:#f5f5f5"></path><g style="opacity:0.4"><path d="M572.64,378.23H527.35a15.68,15.68,0,0,1-15.68-15.67h0a16,16,0,0,1,16-16h46.16C562.37,353.49,563.23,370.14,572.64,378.23Z"></path></g><path d="M680.87,363.37c0,.08-22.81.15-51,.15s-50.95-.07-50.95-.15,22.81-.15,50.95-.15S680.87,363.29,680.87,363.37Z" style="fill:#263238"></path><path d="M691.36,368.07c0,.09-22.81.15-51,.15s-51-.06-51-.15,22.81-.14,51-.14S691.36,368,691.36,368.07Z" style="fill:#263238"></path><path d="M688.27,359c0,.08-22.82.15-50.95.15s-51-.07-51-.15,22.81-.14,51-.14S688.27,358.92,688.27,359Z" style="fill:#263238"></path><path d="M567.06,376c0,.08-10.68.15-23.85.15s-23.85-.07-23.85-.15,10.67-.14,23.85-.14S567.06,375.93,567.06,376Z" style="fill:#263238"></path><path d="M567.06,349.17c0,.08-10.68.15-23.85.15s-23.85-.07-23.85-.15S530,349,543.21,349,567.06,349.09,567.06,349.17Z" style="fill:#263238"></path><polygon points="612.44 330.37 612.44 340.23 615.86 338.04 619.67 340.23 619.67 330.37 612.44 330.37" style="fill:#FF81D7"></polygon><polygon points="541.54 321.24 541.28 294.71 554.21 294.71 554.65 321.24 541.54 321.24" style="fill:#f5f5f5"></polygon><path d="M553.45,299.43a78.64,78.64,0,0,1-12,0,82.2,82.2,0,0,1,12,0Z" style="fill:#e0e0e0"></path><path d="M553.45,303.53a82.2,82.2,0,0,1-12,0,78.64,78.64,0,0,1,12,0Z" style="fill:#e0e0e0"></path><path d="M553.45,307.62a78.64,78.64,0,0,1-12,0,78.64,78.64,0,0,1,12,0Z" style="fill:#e0e0e0"></path><path d="M553.45,311.71a78.64,78.64,0,0,1-12,0,82.2,82.2,0,0,1,12,0Z" style="fill:#e0e0e0"></path><path d="M553.45,315.81a82.2,82.2,0,0,1-12,0,78.64,78.64,0,0,1,12,0Z" style="fill:#e0e0e0"></path><path d="M540.16,293.84H683.49c1.77,8.78,1.52,18.44,0,28.66H540.77v-1.95h8.72a4.37,4.37,0,0,0,4.12-4.59V300.09a4.37,4.37,0,0,0-4.12-4.59h-9.33Z" style="fill:#FF81D7"></path><path d="M678.54,323.05c-.11,0-.21-6.58-.21-14.7s.1-14.71.21-14.71.2,6.58.2,14.71S678.65,323.05,678.54,323.05Z" style="fill:#263238"></path><path d="M561.25,323.05c-.11,0-.2-6.58-.2-14.7s.09-14.71.2-14.71.2,6.58.2,14.71S561.36,323.05,561.25,323.05Z" style="fill:#263238"></path><path d="M681.05,323.05c-.11,0-.2-6.58-.2-14.7s.09-14.71.2-14.71.21,6.58.21,14.71S681.16,323.05,681.05,323.05Z" style="fill:#263238"></path><path d="M558.9,323.05c-.11,0-.2-6.58-.2-14.7s.09-14.71.2-14.71.2,6.58.2,14.71S559,323.05,558.9,323.05Z" style="fill:#263238"></path><rect x="582.66" y="303.75" width="81.32" height="7.73" rx="1.95" style="fill:#fff"></rect><path d="M667.58,269.71v22.16H629.17V269.71Z" style="fill:#ebebeb"></path><path d="M543.53,281c0,.2,0,.39,0,.59.31,6.7,5.41,11.89,11.43,11.89H669.37v-1.6H642.21c-5.48,0-9.92-5-9.92-11.08h0c0-6.12,4.44-11.08,9.92-11.08h27.16v-2.36l-114.43.43C548.48,267.81,543.29,273.79,543.53,281Z" style="fill:#455a64"></path><path d="M667.58,281.08c0,.13-7.9.23-17.64.23s-17.64-.1-17.64-.23,7.9-.22,17.64-.22S667.58,281,667.58,281.08Z" style="fill:#e0e0e0"></path><path d="M667,286.08c0,.12-7.47.22-16.69.22s-16.69-.1-16.69-.22,7.47-.23,16.69-.23S667,286,667,286.08Z" style="fill:#e0e0e0"></path><path d="M667.58,290.64c0,.13-6.72.23-15,.23s-15-.1-15-.23,6.72-.22,15-.22S667.58,290.52,667.58,290.64Z" style="fill:#e0e0e0"></path><path d="M667.58,276.6c0,.12-7.74.22-17.28.22s-17.27-.1-17.27-.22,7.73-.23,17.27-.23S667.58,276.47,667.58,276.6Z" style="fill:#e0e0e0"></path><path d="M667,272.11c0,.13-6.88.23-15.37.23s-15.38-.1-15.38-.23,6.88-.23,15.38-.23S667,272,667,272.11Z" style="fill:#e0e0e0"></path><rect x="555.14" y="278.84" width="65.11" height="4.03" rx="1.01" style="fill:#fff"></rect><path d="M579.51,293.84c.54.25,72.81,8.64,72.81,8.64l14.4-9Z" style="fill:#fff"></path><path d="M579.51,293.84l25.33-.21,61.88-.42h.92l-.78.49-1.31.82-13.1,8.19-.07,0h-.09l-51.93-6.17-15.31-1.91-4.12-.56a10.29,10.29,0,0,1-1.08-.19l-.34-.06,72.84,8.38-.17,0,13.09-8.19,1.31-.82.14.48-61.57.1Z" style="fill:#263238"></path><polygon points="596.2 346.54 628.47 363.22 657.29 346.03 596.2 346.54" style="fill:#fff"></polygon><path d="M596.2,346.54l17.59-.24c11-.16,26.34-.39,43.5-.53h1l-.82.49-3.77,2.25-25.06,14.91-.11.07-.12-.06L605,351.17l-8.81-4.63L628.58,363h-.23l25-15,3.78-2.25.13.48c-17,.15-32.18.18-43.2.2Z" style="fill:#263238"></path><path d="M99.51,341H55.21a12.3,12.3,0,0,1-12.3-12.3h0a12.31,12.31,0,0,1,12.3-12.31h44.3Z" style="fill:#455a64"></path><path d="M185.73,320.49H87.25V316.4h98.48a2.05,2.05,0,0,1,2.05,2h0A2.05,2.05,0,0,1,185.73,320.49Z" style="fill:#455a64"></path><path d="M185.73,341H87.25v-4.08h98.48a2,2,0,0,1,2.05,2h0A2,2,0,0,1,185.73,341Z" style="fill:#455a64"></path><path d="M184.78,336.93H98.47a8.22,8.22,0,0,1-8.22-8.22h0a8.22,8.22,0,0,1,8.22-8.22h86.31A20.29,20.29,0,0,0,184.78,336.93Z" style="fill:#f5f5f5"></path><g style="opacity:0.30000000000000004"><path d="M90.25,341h-35a12.33,12.33,0,0,1-12.34-12.34h0A12.26,12.26,0,0,1,55.17,316.4h36C82.28,321.8,82.94,334.73,90.25,341Z"></path></g><path d="M174.29,329.47c0,.08-17.71.15-39.56.15s-39.57-.07-39.57-.15,17.71-.15,39.57-.15S174.29,329.39,174.29,329.47Z" style="fill:#263238"></path><path d="M182.44,333.12c0,.09-17.72.15-39.57.15s-39.57-.06-39.57-.15S121,333,142.87,333,182.44,333,182.44,333.12Z" style="fill:#263238"></path><path d="M180,324.29c0,.08-17.71.15-39.56.15s-39.57-.07-39.57-.15,17.71-.15,39.57-.15S180,324.21,180,324.29Z" style="fill:#263238"></path><path d="M85.92,339.29c0,.08-8.3.14-18.52.14s-18.52-.06-18.52-.14,8.29-.15,18.52-.15S85.92,339.21,85.92,339.29Z" style="fill:#263238"></path><path d="M85.92,318.44c0,.09-8.3.15-18.52.15s-18.52-.06-18.52-.15,8.29-.14,18.52-.14S85.92,318.36,85.92,318.44Z" style="fill:#263238"></path><path d="M96.86,372.26H41.92a15.85,15.85,0,0,1-15.85-15.85h0a15.85,15.85,0,0,1,15.85-15.85H96.86A2.12,2.12,0,0,1,99,342.67v27.48A2.12,2.12,0,0,1,96.86,372.26Z" style="fill:#FF81D7"></path><path d="M210,345.82H83.18v-5.26H210a2.63,2.63,0,0,1,2.63,2.63h0A2.63,2.63,0,0,1,210,345.82Z" style="fill:#FF81D7"></path><path d="M210,372.26H83.18V367H210a2.63,2.63,0,0,1,2.63,2.63h0A2.63,2.63,0,0,1,210,372.26Z" style="fill:#FF81D7"></path><path d="M208.78,367H97.62A10.59,10.59,0,0,1,87,356.41h0a10.59,10.59,0,0,1,10.58-10.59H208.78A26.21,26.21,0,0,0,208.78,367Z" style="fill:#f5f5f5"></path><g style="opacity:0.4"><path d="M87,372.26H41.75a15.68,15.68,0,0,1-15.68-15.68h0a16,16,0,0,1,16-16H88.24C76.77,347.51,77.63,364.16,87,372.26Z"></path></g><path d="M195.27,357.39c0,.08-22.81.15-51,.15s-51-.07-51-.15,22.81-.14,51-.14S195.27,357.31,195.27,357.39Z" style="fill:#263238"></path><path d="M205.76,362.1c0,.08-22.82.15-50.95.15s-51-.07-51-.15,22.81-.15,51-.15S205.76,362,205.76,362.1Z" style="fill:#263238"></path><path d="M202.67,353c0,.08-22.82.14-50.95.14s-51-.06-51-.14,22.81-.15,51-.15S202.67,352.94,202.67,353Z" style="fill:#263238"></path><path d="M81.46,370c0,.08-10.68.14-23.85.14s-23.85-.06-23.85-.14,10.67-.15,23.85-.15S81.46,370,81.46,370Z" style="fill:#263238"></path><path d="M81.46,343.19c0,.08-10.68.15-23.85.15s-23.85-.07-23.85-.15,10.67-.14,23.85-.14S81.46,343.11,81.46,343.19Z" style="fill:#263238"></path><polygon points="126.84 324.39 126.84 334.25 130.25 332.06 134.06 334.25 134.06 324.39 126.84 324.39" style="fill:#FF81D7"></polygon><path d="M99,319.37H49.23c-7.93,0-14.35-6.7-14.35-15h0c0-8.26,6.42-15,14.35-15H99a2,2,0,0,1,1.91,2v25.95A2,2,0,0,1,99,319.37Z" style="fill:#FF81D7"></path><path d="M201.45,294.41H86.59v-5H201.45a2.43,2.43,0,0,1,2.38,2.48h0A2.44,2.44,0,0,1,201.45,294.41Z" style="fill:#FF81D7"></path><path d="M201.45,319.37H86.59v-5H201.45a2.44,2.44,0,0,1,2.38,2.49h0A2.43,2.43,0,0,1,201.45,319.37Z" style="fill:#FF81D7"></path><path d="M200.33,314.4H99.68a9.8,9.8,0,0,1-9.59-10h0a9.79,9.79,0,0,1,9.59-10H200.33A25.68,25.68,0,0,0,200.33,314.4Z" style="fill:#f5f5f5"></path><g style="opacity:0.4"><path d="M90.09,319.37h-41c-7.85,0-14.2-6.63-14.2-14.81h0c0-8.35,6.49-15.12,14.5-15.12h41.8C80.79,296,81.57,311.73,90.09,319.37Z"></path></g><path d="M188.1,305.33c0,.08-20.66.14-46.14.14s-46.14-.06-46.14-.14,20.65-.14,46.14-.14S188.1,305.25,188.1,305.33Z" style="fill:#263238"></path><path d="M197.6,309.78c0,.07-20.66.13-46.14.13s-46.15-.06-46.15-.13,20.66-.14,46.15-.14S197.6,309.7,197.6,309.78Z" style="fill:#263238"></path><path d="M194.8,301.21c0,.07-20.66.14-46.14.14s-46.15-.07-46.15-.14,20.66-.14,46.15-.14S194.8,301.13,194.8,301.21Z" style="fill:#263238"></path><path d="M85,317.27c0,.08-9.67.14-21.6.14s-21.6-.06-21.6-.14,9.67-.14,21.6-.14S85,317.2,85,317.27Z" style="fill:#263238"></path><path d="M85,291.92c0,.08-9.67.14-21.6.14s-21.6-.06-21.6-.14,9.67-.14,21.6-.14S85,291.84,85,291.92Z" style="fill:#263238"></path><rect x="34.88" y="282.43" width="177.76" height="7.01" style="fill:#fff"></rect><path d="M212.66,289.46H34.85V282.4H212.66Zm-177.76,0H212.61v-7H34.9Z" style="fill:#263238"></path><path d="M113,282.44c1.17.7,40.61,19.39,40.61,19.39l39.34-20.1Z" style="fill:#e0e0e0"></path><path d="M113,282.44l23.1-.31,56.85-.66H194l-1,.5-4.11,2.1L153.7,302l-.11,0-.1,0L124.11,288l-8.24-4c-.93-.47-1.65-.84-2.17-1.09l-.55-.32-.17-.1,40.71,19.19h-.2l35.22-18,4.1-2.1.12.49-56.55.35Z" style="fill:#263238"></path><rect x="34.88" y="282.43" width="55.21" height="7.01" style="fill:#e0e0e0"></rect><path d="M90.12,289.46H34.85V282.4H90.12Zm-55.22,0H90.07v-7H34.9Z" style="fill:#263238"></path></g><g id="freepik--book-1--inject-195"><path d="M527.14,432.56,408.83,432s.79,2.14-4.12,2.14l-39.11-.26s-2.89.26-2.94-1.88c0,0-91.72,1.45-114.37,2-1.7,0-4.7-.92-3.29-2.93l7.91-8.86,130.86-11.88,92.82,9.12,31.83-10.75h1.06a2.74,2.74,0,0,1,2.19,1.05L528,431.05A1,1,0,0,1,527.14,432.56Z" style="fill:#455a64"></path><g style="opacity:0.2"><polygon points="477.12 430.03 266.36 431.56 315.93 417.2 377.72 418.82 439.54 416.52 477.12 430.03"></polygon></g><path d="M384.94,426.14l-1.17-24.25s-.24-13.33,16.94-17.78,38.6,1.21,58.6,2.22,19.77-.4,19.77-.4l16.23,23.44-63.77,8.69s-37,2-37.65,2.22S384.94,426.14,384.94,426.14Z" style="fill:#fafafa"></path><path d="M385.15,427l-1.38-22.78s.23-13.34-16.95-17.79-38.59,1.22-58.59,2.23c-14,.7-18.34.58-19.68.45a1.08,1.08,0,0,0-1,.42l-15.35,22.16L336,420.38s36.94,2,37.65,2.23S385.15,427,385.15,427Z" style="fill:#fafafa"></path><path d="M523.08,430.79l-27.77-21.42s-57.51-9.09-77-5.86-30.64,9.5-33.33,22.83l18.74,4.45a61.12,61.12,0,0,1,24.94-5.86c14.12-.2,49.42,5.86,49.42,5.86Z" style="fill:#e0e0e0"></path><path d="M365.07,430.79l19.77-4.65s-1.41-21.19-33.53-24.73c0,0-9.07-2.75-41.31,2.91s-35.53,5.45-35.53,5.45L247.64,432s16,1.22,29.18-1.21,36.24-10.71,61.19-8.28S365.07,430.79,365.07,430.79Z" style="fill:#e0e0e0"></path><polygon points="495.31 409.37 479.6 386.68 507.48 407.49 525.09 430.79 523.08 430.79 495.31 409.37" style="fill:#e0e0e0"></polygon><path d="M274.57,409.77l12.81-20.12S261.87,410.39,261.64,411s-13.89,21-13.89,21Z" style="fill:#e0e0e0"></path><polyline points="404.71 430.79 365.18 430.79 384.94 426.14 385.98 426.35" style="fill:#263238"></polyline><path d="M384.94,426.14c.13,0,0-5.29-.29-11.81s-.65-11.81-.78-11.8,0,5.29.3,11.81S384.81,426.15,384.94,426.14Z" style="fill:#263238"></path><path d="M467.61,405.62a1.87,1.87,0,0,0,.54.12l1.57.25,5.83.86,19.73,2.74-.11,0,3.79,2.73,18.42,13.17,5.61,3.95,1.54,1.06a4.66,4.66,0,0,0,.56.34,4.77,4.77,0,0,0-.5-.41l-1.49-1.13-5.52-4.06-18.33-13.27-3.79-2.72,0,0h-.06l-19.75-2.59-5.86-.73-1.58-.17A3.24,3.24,0,0,0,467.61,405.62Z" style="fill:#263238"></path><path d="M387.54,413.42l.18-.18.48-.53c.42-.48,1.05-1.16,1.93-2a34.21,34.21,0,0,1,8.52-5.78,51.2,51.2,0,0,1,14.86-4.45,130.64,130.64,0,0,1,19.16-1.19,235.64,235.64,0,0,1,34.82,2.47c4.42.64,8,1.28,10.44,1.74l2.82.53.74.14.25,0a.75.75,0,0,0-.24-.08l-.73-.17c-.64-.15-1.58-.37-2.81-.62-2.44-.51-6-1.2-10.41-1.88a222.57,222.57,0,0,0-34.89-2.6,126.32,126.32,0,0,0-19.23,1.23,51,51,0,0,0-14.94,4.57A33.25,33.25,0,0,0,390,410.6a26.32,26.32,0,0,0-1.88,2l-.44.57C387.58,413.35,387.53,413.41,387.54,413.42Z" style="fill:#263238"></path><path d="M387.54,410.46l.17-.16.44-.5c.19-.22.44-.49.74-.8s.64-.67,1.05-1.05a33.74,33.74,0,0,1,7.78-5.5,48.73,48.73,0,0,1,13.62-4.54,105.55,105.55,0,0,1,17.71-1.53A237.84,237.84,0,0,1,461.39,398c4.11.49,7.43,1,9.72,1.33l2.63.42.69.1.24,0-.23-.07-.68-.14c-.6-.12-1.48-.3-2.62-.49-2.28-.41-5.59-.95-9.71-1.48A223.47,223.47,0,0,0,429,395.94a103.48,103.48,0,0,0-17.79,1.57,47.86,47.86,0,0,0-13.69,4.67,32.45,32.45,0,0,0-7.76,5.65c-.4.4-.74.76-1,1.09a9.77,9.77,0,0,0-.7.82l-.41.53C387.58,410.39,387.53,410.45,387.54,410.46Z" style="fill:#263238"></path><path d="M387.54,407.5l.16-.16.45-.49c.18-.23.43-.49.72-.79s.64-.67,1-1.05a33.78,33.78,0,0,1,7.71-5.46A48.12,48.12,0,0,1,411.09,395a104.2,104.2,0,0,1,17.54-1.56,235.19,235.19,0,0,1,32,1.5c4.08.47,7.37.94,9.64,1.28l2.61.4.68.1a1.1,1.1,0,0,0,.24,0l-.23-.06-.67-.14c-.6-.11-1.47-.29-2.6-.48-2.26-.4-5.55-.92-9.63-1.43A222.66,222.66,0,0,0,428.62,393,101.22,101.22,0,0,0,411,394.6a47.25,47.25,0,0,0-13.55,4.68,32.56,32.56,0,0,0-7.67,5.61c-.4.39-.73.76-1,1.08s-.52.59-.7.82-.3.38-.4.52A.89.89,0,0,0,387.54,407.5Z" style="fill:#263238"></path><path d="M387.54,404.54l.16-.16.43-.48c.37-.43.95-1,1.72-1.8a38.58,38.58,0,0,1,7.35-5.6,40.77,40.77,0,0,1,12.95-5c5.18-1.08,11.05-1.13,17.18-1.06,12.28.08,23.39.57,31.38,1.35,4,.39,7.23.78,9.46,1.09l2.56.36.67.09h.23l-.22-.06-.67-.13c-.58-.1-1.43-.27-2.54-.44-2.22-.36-5.45-.81-9.45-1.23-8-.87-19.13-1.41-31.42-1.48-6.13-.07-12,0-17.28,1.1a40.42,40.42,0,0,0-13,5.1,36.75,36.75,0,0,0-7.3,5.74,23.25,23.25,0,0,0-1.66,1.87l-.4.51A.86.86,0,0,0,387.54,404.54Z" style="fill:#263238"></path><path d="M387.54,401.58l.16-.16.42-.48c.37-.43.92-1.06,1.66-1.83a36.78,36.78,0,0,1,7-5.86,30.72,30.72,0,0,1,5.71-2.87,39.27,39.27,0,0,1,7.17-1.88,88.57,88.57,0,0,1,17.07-1c12.18.34,23.17,1.44,31.14,2,4,.31,7.21.52,9.44.64l2.57.12.67,0a.82.82,0,0,0,.23,0l-.23,0-.66-.07-2.57-.2-9.42-.78c-8-.66-18.94-1.8-31.16-2.14a86.38,86.38,0,0,0-17.16,1,39.41,39.41,0,0,0-7.24,1.94,31.5,31.5,0,0,0-5.75,2.95,35.47,35.47,0,0,0-7,6c-.72.8-1.25,1.45-1.59,1.9l-.39.51C387.57,401.51,387.53,401.58,387.54,401.58Z" style="fill:#263238"></path><path d="M381.83,412.61a1.17,1.17,0,0,0-.14-.2l-.46-.56a23.67,23.67,0,0,0-1.92-2,33.38,33.38,0,0,0-8.6-5.79,50.82,50.82,0,0,0-15-4.32,128.52,128.52,0,0,0-19.25-.9A224.34,224.34,0,0,0,301.6,402c-4.4.76-7.94,1.51-10.38,2.06-1.22.28-2.15.51-2.79.67l-.73.19-.24.07a.86.86,0,0,0,.26,0l.73-.14,2.81-.59c2.45-.5,6-1.2,10.4-1.92a235.34,235.34,0,0,1,34.77-3.06,128.94,128.94,0,0,1,19.18.86,51,51,0,0,1,14.94,4.19,34.44,34.44,0,0,1,8.63,5.63c.9.81,1.55,1.49,2,2l.49.53Z" style="fill:#263238"></path><path d="M381.77,409.65s0-.07-.13-.19l-.42-.52a10.62,10.62,0,0,0-.72-.81c-.29-.33-.64-.68-1-1.07a32.84,32.84,0,0,0-7.87-5.52,48.31,48.31,0,0,0-13.78-4.44A106.24,106.24,0,0,0,340,395.84a223.77,223.77,0,0,0-32.35,2.28c-4.1.6-7.41,1.19-9.68,1.64-1.14.22-2,.42-2.61.54l-.67.16a1.23,1.23,0,0,0-.23.06l.24,0,.68-.11,2.63-.46c2.28-.39,5.59-.94,9.69-1.5a236.58,236.58,0,0,1,32.3-2.14,106.34,106.34,0,0,1,17.74,1.22,48.05,48.05,0,0,1,13.7,4.31,33.65,33.65,0,0,1,7.89,5.36c.42.38.78.72,1.07,1s.56.57.76.79l.45.49Z" style="fill:#263238"></path><path d="M381.71,406.69s0-.07-.13-.19l-.41-.51a10.62,10.62,0,0,0-.72-.81c-.28-.32-.62-.67-1-1.06a32.46,32.46,0,0,0-7.78-5.48A47.62,47.62,0,0,0,358,394.19a102.07,102.07,0,0,0-17.65-1.3,221.77,221.77,0,0,0-32.05,2.17c-4.07.58-7.34,1.16-9.6,1.6-1.12.21-2,.4-2.59.52l-.67.15-.22.07a.8.8,0,0,0,.23,0l.68-.11,2.61-.45c2.26-.38,5.54-.91,9.61-1.45a236,236,0,0,1,32-2,103.89,103.89,0,0,1,17.56,1.26,48.29,48.29,0,0,1,13.56,4.32,33.88,33.88,0,0,1,7.81,5.33c.41.38.76.72,1.06,1s.55.56.74.78l.46.48Z" style="fill:#263238"></path><path d="M381.65,401.58a14.39,14.39,0,0,0-2.27-2.42,27.57,27.57,0,0,0-7.95-4.69c-1.83-.75-3.88-1.44-6.11-2.11a60.69,60.69,0,0,0-7.23-1.78c-5.2-.9-11-.83-17.07-.65-12.14.36-23,1.76-30.91,2.63l-9.33,1.05-2.54.28-.66.08-.22,0h.23l.66,0,2.55-.2c2.21-.19,5.41-.5,9.35-.91,7.89-.79,18.78-2.14,30.88-2.5,6.05-.17,11.84-.26,17,.62a59.54,59.54,0,0,1,7.18,1.72c2.23.65,4.27,1.32,6.09,2.05a28.59,28.59,0,0,1,8,4.52,13.58,13.58,0,0,1,1.06,1,10.24,10.24,0,0,1,.74.74l.44.46Z" style="fill:#263238"></path><path d="M342.14,409.3v14.39l-5.1-4.32-5,4.09-.29-14S340,409,342.14,409.3Z" style="fill:#FF81D7"></path><path d="M284.45,417.65a1.27,1.27,0,0,0,.26,0l.75-.16,2.89-.65c2.5-.56,6.14-1.34,10.66-2.17s9.93-1.71,15.95-2.63l9.44-1.46a78.7,78.7,0,0,1,10.17-1,99.16,99.16,0,0,1,10.24.14,58.47,58.47,0,0,1,9.41,1.31,40.16,40.16,0,0,1,14.42,6.49,45.33,45.33,0,0,1,4.66,3.82c1.3,1.2,2.37,2.28,3.23,3.18l2,2.08.51.54.19.18a1.2,1.2,0,0,0-.15-.2l-.48-.57c-.42-.51-1.05-1.23-1.89-2.15s-1.89-2-3.18-3.24a46.41,46.41,0,0,0-4.64-3.89,40.1,40.1,0,0,0-14.52-6.64,58.64,58.64,0,0,0-9.49-1.34,94.73,94.73,0,0,0-10.29-.15,76,76,0,0,0-10.23,1l-9.43,1.47c-6,1-11.43,1.86-15.94,2.74s-8.15,1.69-10.65,2.3c-1.25.3-2.21.56-2.86.73l-.75.2C284.53,417.61,284.44,417.64,284.45,417.65Z" style="fill:#263238"></path><path d="M391.69,427.49a1.63,1.63,0,0,0,.23-.21l.63-.65c.28-.28.61-.64,1-1.05l1.47-1.36a46.13,46.13,0,0,1,10.8-7,62.88,62.88,0,0,1,18.63-5.29,99.37,99.37,0,0,1,23.91.16c8.45,1,16.4,2.55,23.64,3.95s13.77,2.6,19.3,3.35a131.51,131.51,0,0,0,13.18,1.16c1.57,0,2.78,0,3.6,0h.94l.32,0a1.34,1.34,0,0,0-.32,0l-.94,0c-.82,0-2-.06-3.59-.12-3.12-.15-7.62-.52-13.14-1.3s-12-2-19.27-3.44-15.18-3-23.66-4a98.26,98.26,0,0,0-24-.13,62.72,62.72,0,0,0-18.72,5.42,45,45,0,0,0-10.78,7.17l-1.44,1.39c-.41.42-.73.79-1,1.08l-.6.68A1.63,1.63,0,0,0,391.69,427.49Z" style="fill:#263238"></path><path d="M391.69,430.48a1.63,1.63,0,0,0,.23-.21l.63-.65c.28-.28.61-.65,1-1.05l1.47-1.36a46.13,46.13,0,0,1,10.8-7,63.17,63.17,0,0,1,18.63-5.3,99.37,99.37,0,0,1,23.91.16c8.45,1,16.4,2.56,23.64,3.95s13.77,2.61,19.3,3.36a131.51,131.51,0,0,0,13.18,1.16c1.57,0,2.78.05,3.6,0l.94,0a1.14,1.14,0,0,0,.32,0l-.32,0-.94,0c-.82,0-2-.05-3.59-.12-3.12-.14-7.62-.51-13.14-1.29s-12-2-19.27-3.44-15.18-3-23.66-4a98.73,98.73,0,0,0-24-.12,62.43,62.43,0,0,0-18.72,5.42,45,45,0,0,0-10.78,7.17l-1.44,1.39c-.41.41-.73.79-1,1.08l-.6.68A1.63,1.63,0,0,0,391.69,430.48Z" style="fill:#263238"></path><path d="M401.05,427.94a3.87,3.87,0,0,0,.5-.34c.33-.23.77-.62,1.41-1a39.92,39.92,0,0,1,5.54-3.3,47.52,47.52,0,0,1,9-3.34A62,62,0,0,1,429.28,418,117.43,117.43,0,0,1,451,419l6.53.86,1.77.23a2.71,2.71,0,0,0,.63.05,4.7,4.7,0,0,0-.61-.14l-1.76-.31c-1.54-.26-3.76-.61-6.52-1a109.83,109.83,0,0,0-21.74-1.14,61.94,61.94,0,0,0-11.83,1.93,46.45,46.45,0,0,0-9.08,3.47,36,36,0,0,0-5.5,3.43c-.61.45-1,.86-1.35,1.11A2.56,2.56,0,0,0,401.05,427.94Z" style="fill:#263238"></path><path d="M383.82,403.05l-.11-.24-.3-.73-1.09-2.81a17.18,17.18,0,0,0-6.79-8.39c-3.86-2.6-9.29-4.27-15.39-5a101.39,101.39,0,0,0-20-.22c-3.56.27-7,.64-10.36,1.07s-6.55.88-9.65,1.12c-6.17.51-11.74.74-16.41.93s-8.46.29-11.08.34l-3,0h-.78l-.27,0a.94.94,0,0,1,.27,0l.78-.05,3-.14,11.06-.5c4.67-.24,10.24-.52,16.39-1.05,3.08-.25,6.29-.72,9.63-1.15s6.81-.81,10.38-1.08a100,100,0,0,1,20.13.26c6.14.8,11.63,2.52,15.53,5.2a17.13,17.13,0,0,1,6.78,8.63c.42,1.21.76,2.16,1,2.85l.25.74A.88.88,0,0,1,383.82,403.05Z" style="fill:#263238"></path><path d="M383.94,402.81a1.1,1.1,0,0,1,0-.27l.05-.8a18.24,18.24,0,0,1,.48-3.07,21.17,21.17,0,0,1,1.68-4.6,14,14,0,0,1,4.12-5c3.77-3,9.21-5.37,15.49-6.47a79.08,79.08,0,0,1,20.63-.64c3.66.3,7.21.77,10.63,1.31s6.68,1.23,9.81,1.7a130.2,130.2,0,0,0,16.75,1.44c4.79.09,8.67,0,11.35-.19L478,386l.8-.06h.28l-.27.06-.8.11c-.7.09-1.74.19-3.08.3-2.67.21-6.56.41-11.36.36a126.27,126.27,0,0,1-16.83-1.34c-3.15-.46-6.4-1.14-9.81-1.66s-6.95-1-10.59-1.31a80.41,80.41,0,0,0-20.51.61,34.28,34.28,0,0,0-15.34,6.28,13.69,13.69,0,0,0-4.09,4.86,22.06,22.06,0,0,0-1.75,4.52,23,23,0,0,0-.57,3c0,.32-.07.58-.09.79A1.45,1.45,0,0,1,383.94,402.81Z" style="fill:#263238"></path></g><g id="freepik--Mugs--inject-195"><path d="M672.74,428.72c0,6.81-13.22,12.34-29.53,12.34s-29.53-5.53-29.53-12.34,13.22-11.88,29.53-11.88S672.74,421.9,672.74,428.72Z" style="fill:#e0e0e0"></path><path d="M643.21,462.57h0a29.53,29.53,0,0,1-29.53-29.52v-5.66l59.06.6v5.06A29.53,29.53,0,0,1,643.21,462.57Z" style="fill:#e0e0e0"></path><g style="opacity:0.30000000000000004"><ellipse cx="643.21" cy="429.35" rx="27.95" ry="10.42"></ellipse></g><path d="M619,434.58c4.84,3.1,13.85,5.2,24.18,5.2s19.35-2.1,24.18-5.2c-4.83-3.11-13.85-5.2-24.18-5.2S623.87,431.47,619,434.58Z" style="fill:#6f4439"></path><path d="M672.24,438.66a3.18,3.18,0,0,1,2.51-.3c.29.1.32.11.1,0l.41.22.39.25c-.2-.16-.18-.14,0,0l.33.33c.17.2.2.24.1.1s-.07-.09.08.13a3.14,3.14,0,0,1,.24.39c.13.27.14.28,0,0a3.26,3.26,0,0,1,.15.44,3.59,3.59,0,0,1,.12.47c0-.26,0-.23,0,.07s0,.49,0,.74,0,.33,0,.07c0,.16-.07.32-.11.49a7.13,7.13,0,0,1-1.45,2.61,11.8,11.8,0,0,1-1.21,1.13c.38-.3-.36.24-.43.29-.26.17-.53.33-.8.48s-.55.28-.83.41c.39-.18-.16.06-.27.1a11.08,11.08,0,0,1-1.79.51l-.69.12c.54-.08-.4,0-.5,0a16.49,16.49,0,0,1-1.86,0c-.74-.06.47.1-.26,0-.31-.06-.61-.12-.91-.2a9.07,9.07,0,0,1-.89-.26l-.44-.16c.23.11.22.1,0,0a2.56,2.56,0,0,0-3.42.9,2.52,2.52,0,0,0,.9,3.42,15,15,0,0,0,14.72-1.23,12.34,12.34,0,0,0,5-6.76,8.19,8.19,0,0,0-2.14-8,8.09,8.09,0,0,0-9.59-1.09,2.5,2.5,0,0,0,2.52,4.32Z" style="fill:#e0e0e0"></path><path d="M672.18,413.08c0,6.82-13.22,12.34-29.52,12.34s-29.53-5.52-29.53-12.34,13.22-11.88,29.53-11.88S672.18,406.26,672.18,413.08Z" style="fill:#e0e0e0"></path><path d="M642.66,446.94h0a29.53,29.53,0,0,1-29.53-29.53v-5.13l59,.07v5.06A29.53,29.53,0,0,1,642.66,446.94Z" style="fill:#e0e0e0"></path><g style="opacity:0.30000000000000004"><ellipse cx="642.66" cy="413.71" rx="27.95" ry="10.42"></ellipse></g><path d="M618.48,418.94c4.83,3.11,13.85,5.2,24.18,5.2s19.34-2.09,24.18-5.2c-4.84-3.11-13.85-5.2-24.18-5.2S623.31,415.83,618.48,418.94Z" style="fill:#6f4439"></path><path d="M671.68,423a3.18,3.18,0,0,1,2.51-.3c.29.11.33.11.1,0,.14.07.28.14.41.22a3.73,3.73,0,0,1,.39.25c-.19-.16-.18-.14,0,.05l.33.32c.17.2.2.24.1.11l.08.12a3.26,3.26,0,0,1,.24.4c.13.26.14.27,0,0l.15.44c0,.15.08.31.11.47,0-.26,0-.23,0,.07s0,.49,0,.74,0,.33,0,.07a4.31,4.31,0,0,1-.11.49,7,7,0,0,1-1.45,2.61,10.69,10.69,0,0,1-1.2,1.13c.37-.3-.36.24-.44.29-.26.17-.52.33-.8.48s-.55.28-.83.41c.39-.18-.16.07-.27.1a11.08,11.08,0,0,1-1.79.51l-.69.13c.55-.08-.4,0-.5,0a16.49,16.49,0,0,1-1.86,0c-.74-.05.47.1-.26,0l-.91-.19c-.3-.08-.6-.17-.89-.27l-.44-.16c.24.11.22.1,0,0a2.5,2.5,0,1,0-2.52,4.32,15,15,0,0,0,14.72-1.22,12.48,12.48,0,0,0,5-6.76,8.23,8.23,0,0,0-2.15-8,8.09,8.09,0,0,0-9.59-1.09,2.5,2.5,0,1,0,2.52,4.32Z" style="fill:#e0e0e0"></path><path d="M668.72,385.62c2.21,6.45-8.49,16-23.91,21.28s-29.72,4.38-31.94-2.06,8.64-15.53,24.06-20.84S666.5,379.18,668.72,385.62Z" style="fill:#e0e0e0"></path><path d="M651.81,427.24h0a29.53,29.53,0,0,1-37.53-18.31l-1.84-5.35,56-18.65,1.64,4.78A29.52,29.52,0,0,1,651.81,427.24Z" style="fill:#e0e0e0"></path><g style="opacity:0.30000000000000004"><path d="M667.42,386.74c1.88,5.44-8.43,13.92-23,18.95s-27.94,4.68-29.81-.77S623,391,637.61,386,665.55,381.29,667.42,386.74Z"></path></g><path d="M671.48,395.18a3.17,3.17,0,0,1,2.27-1.1c.31,0,.34,0,.1,0a5.23,5.23,0,0,1,.91.18c-.24-.09-.22-.08,0,0a4,4,0,0,1,.42.2c.22.13.27.15.13.06s-.1-.06.11.09a2.6,2.6,0,0,1,.36.3c.21.21.22.21,0,0,.1.11.2.24.29.36s.18.27.26.41c-.11-.23-.1-.21,0,.07s.17.46.24.7.08.32,0,.07c0,.16,0,.33,0,.49a7,7,0,0,1-.52,2.95,11.16,11.16,0,0,1-.77,1.45c.25-.4-.26.35-.32.42-.19.25-.39.48-.6.71s-.43.45-.65.67c.31-.3-.13.11-.22.18a13.52,13.52,0,0,1-1.53,1.07l-.61.34c.49-.26-.37.15-.46.19a15.85,15.85,0,0,1-1.77.57c-.72.2.47-.05-.26.06-.31,0-.61.09-.92.11s-.62,0-.93.05h-.47c.26,0,.24,0-.05,0a2.5,2.5,0,0,0-1,4.91,15,15,0,0,0,13.52-5.95,12.37,12.37,0,0,0,2.53-8,8.19,8.19,0,0,0-4.64-6.91,8.09,8.09,0,0,0-9.43,2.09,2.5,2.5,0,0,0,3.8,3.26Z" style="fill:#e0e0e0"></path><path d="M664.8,436.94s-.15.11-.47.27-.78.39-1.4.67a56.9,56.9,0,0,1-5.28,2.15,37.68,37.68,0,0,1-8.25,1.9,46.12,46.12,0,0,1-10.36-.06c-7.32-.9-13.74-3.1-17.88-5.62a16.59,16.59,0,0,1-4.42-3.61,7,7,0,0,1-.9-1.26c-.19-.31-.28-.47-.26-.48a2.75,2.75,0,0,1,.34.42,11.39,11.39,0,0,0,1,1.19,18.1,18.1,0,0,0,4.46,3.43c4.12,2.39,10.5,4.52,17.75,5.41a46.46,46.46,0,0,0,10.25.1,39.31,39.31,0,0,0,8.19-1.77c2.27-.74,4.07-1.48,5.31-2l1.44-.58A1.79,1.79,0,0,1,664.8,436.94Z" style="fill:#263238"></path><path d="M664.8,438.43s-.15.11-.47.27-.78.4-1.4.67a54.23,54.23,0,0,1-5.28,2.15,37.11,37.11,0,0,1-8.25,1.9,45.54,45.54,0,0,1-10.36-.06c-7.32-.89-13.74-3.1-17.88-5.61a16.79,16.79,0,0,1-4.42-3.62,7,7,0,0,1-.9-1.26c-.19-.3-.28-.46-.26-.47a2.3,2.3,0,0,1,.34.41,9.62,9.62,0,0,0,1,1.19,17.86,17.86,0,0,0,4.46,3.43c4.12,2.4,10.5,4.53,17.75,5.42a47.72,47.72,0,0,0,10.25.1,39.27,39.27,0,0,0,8.19-1.78c2.27-.73,4.07-1.48,5.31-2l1.44-.58A2.94,2.94,0,0,1,664.8,438.43Z" style="fill:#263238"></path><path d="M655.69,424.7a1.89,1.89,0,0,1-.48.16c-.32.08-.79.2-1.4.32a48.26,48.26,0,0,1-5.24.8,64.51,64.51,0,0,1-17.44-.71,40.83,40.83,0,0,1-9.24-2.74,19.68,19.68,0,0,1-6.59-4.31,7.64,7.64,0,0,1-2.08-4.85,4.88,4.88,0,0,1,.15-1.45,1.68,1.68,0,0,1,.17-.47,9.81,9.81,0,0,0-.12,1.91,7.63,7.63,0,0,0,2.15,4.61,19.81,19.81,0,0,0,6.51,4.12,41.14,41.14,0,0,0,9.14,2.66,69.38,69.38,0,0,0,17.31.87c2.22-.17,4-.44,5.24-.63A17.57,17.57,0,0,1,655.69,424.7Z" style="fill:#263238"></path><path d="M656.42,423.3s-.14.06-.42.14-.7.18-1.24.3c-1.08.23-2.66.53-4.62.76a64,64,0,0,1-15.45-.19,52.52,52.52,0,0,1-8.35-1.73,33.55,33.55,0,0,1-6.43-2.69,17.07,17.07,0,0,1-3.79-2.79,10.07,10.07,0,0,1-.84-1,1.44,1.44,0,0,1-.23-.38s.4.46,1.21,1.2a19.51,19.51,0,0,0,3.83,2.61,35.07,35.07,0,0,0,6.39,2.55,54.07,54.07,0,0,0,8.28,1.67,69.29,69.29,0,0,0,15.34.34c2-.18,3.54-.42,4.62-.59A13.55,13.55,0,0,1,656.42,423.3Z" style="fill:#263238"></path><g style="opacity:0.30000000000000004"><path d="M657.9,422.39a9.54,9.54,0,0,1,.55,4.9,7.57,7.57,0,0,1-.72,3.34,2.59,2.59,0,0,1-2.87,1.37,2.51,2.51,0,0,1-1.43-1.41,7.64,7.64,0,0,1-.51-2c-.7.82-1.62,1.71-2.68,1.53a2.28,2.28,0,0,1-1.62-1.55,12.9,12.9,0,0,1-.44-2.31,4,4,0,0,0-1.07-2.25s4.08-.3,6.17-.65S657.9,422.39,657.9,422.39Z"></path></g><path d="M597.79,403.25c0,7.15-13.22,12.95-29.53,12.95s-29.53-5.8-29.53-12.95,13.22-12.47,29.53-12.47S597.79,396.09,597.79,403.25Z" style="fill:#FF81D7"></path><path d="M568.26,438.77h0c-16.31,0-29.53-13.87-29.53-31v-5.94l59.06.63v5.31C597.79,424.9,584.57,438.77,568.26,438.77Z" style="fill:#FF81D7"></path><g style="opacity:0.30000000000000004"><ellipse cx="568.26" cy="403.91" rx="27.95" ry="10.94"></ellipse></g><ellipse cx="568.26" cy="409.39" rx="24.18" ry="5.46" style="fill:#6f4439"></ellipse><path d="M597.29,413.57a4.83,4.83,0,0,1,.45-.26l.11,0c.11,0,1-.2.59-.16.1,0,1,0,.61,0a3.81,3.81,0,0,1,1,.26c-.38-.15.2.13.26.17s.27.17.4.26c-.2-.14-.19-.12,0,.07.07.07.63.76.38.4a5.36,5.36,0,0,1,.48.84c-.18-.41.09.33.12.42s.06.25.08.37c0-.25,0-.22,0,.08a8.51,8.51,0,0,1,0,1c0-.46-.11.47-.14.57a8.31,8.31,0,0,1-.32,1c.16-.38-.19.33-.19.32a9.77,9.77,0,0,1-.53.88c-.09.14-.19.28-.29.41.12-.17.09-.15-.09.08a17,17,0,0,1-1.36,1.32c.32-.27-.16.11-.24.16-.26.18-.52.35-.79.5a9,9,0,0,1-.81.43l-.43.2c.25-.11.23-.1,0,0-.52.17-1,.34-1.55.46-.3.07-.6.13-.9.17.56-.08-.38,0-.48,0a12.36,12.36,0,0,1-1.61,0l-.46-.05c.29,0,.29,0,0,0l-.9-.21c-.29-.07-.59-.17-.88-.27l-.43-.17c.25.1.23.09,0,0a2.57,2.57,0,0,0-3.42.9,2.53,2.53,0,0,0,.89,3.42,14.54,14.54,0,0,0,14.75-1.3,12.87,12.87,0,0,0,4.94-6.85,8.73,8.73,0,0,0-2-8.39,7.88,7.88,0,0,0-9.68-1.21,2.5,2.5,0,0,0,2.53,4.32Z" style="fill:#FF81D7"></path></g><g id="freepik--Device--inject-195"><path d="M101.58,419.3,189,469.69l23.67.16,31.67-42.4c2.2-3,.7-8.15-2.36-8.15Z" style="fill:#e0e0e0"></path><path d="M40.13,350.85H179.47c5.12,0,9.49,3.07,10.35,7.27l22.89,111.73H60.92c-5.11,0-9.49-3.07-10.35-7.27L29.78,361.06C28.69,355.72,33.63,350.85,40.13,350.85Z" style="fill:#e0e0e0"></path><path d="M109.77,414.59a9.21,9.21,0,0,0,10.76,6.68,8.39,8.39,0,0,0,6.12-10.53,9.22,9.22,0,0,0-10.76-6.68A8.39,8.39,0,0,0,109.77,414.59Z" style="fill:#fff"></path><path d="M242.84,421.86a1.1,1.1,0,0,1-.13.22l-.43.62-1.7,2.37-6.41,8.85-22.41,30.65-.33.45-.11-.54-5.17-25.21c-4.31-21.25-8.22-40.49-11.05-54.45-1.39-6.95-2.51-12.58-3.3-16.51l-.86-4.49c-.09-.5-.16-.88-.22-1.17a2.49,2.49,0,0,1-.05-.4,2.61,2.61,0,0,1,.11.39c.06.28.15.67.26,1.16.23,1.05.55,2.55,1,4.47.82,3.92,2,9.54,3.46,16.48,2.87,13.95,6.83,33.17,11.2,54.41l5.14,25.22-.44-.1,22.56-30.54c2.78-3.73,5-6.7,6.53-8.77l1.76-2.32.46-.6Z" style="fill:#263238"></path><path d="M209.4,469.83c-.14,0-5.48-25.18-11.93-56.29S185.9,357.16,186,357.14s5.48,25.17,11.94,56.29S209.54,469.8,209.4,469.83Z" style="fill:#263238"></path><g style="opacity:0.2"><polygon points="210.23 457.73 235.76 424.27 203.37 424.27 210.23 457.73"></polygon></g></g><g id="freepik--Line--inject-195"><path d="M448.21,34.66a13.63,13.63,0,0,1,1.42-.38,21.67,21.67,0,0,1,4.28-.55,23.75,23.75,0,0,1,7,.78,22.77,22.77,0,0,1,4.2,1.55,8.93,8.93,0,0,1,2.1,1.33,3.76,3.76,0,0,1,1.36,2.25,3.33,3.33,0,0,1-.71,2.68,7,7,0,0,1-2.31,1.82,11.87,11.87,0,0,1-2.91,1c-1,.19-2.09.41-3.18.54a52.47,52.47,0,0,1-14.23,0,52.3,52.3,0,0,1-15.68-4.67,13.41,13.41,0,0,1-3.66-2.51,5,5,0,0,1-1.58-4.23,5.27,5.27,0,0,1,2.82-3.68,13.6,13.6,0,0,1,4.54-1.56,43.31,43.31,0,0,1,20.06,1.23,42.37,42.37,0,0,1,9.83,4.38A23.15,23.15,0,0,1,466,38.07a13.06,13.06,0,0,1,3.17,4.71,8,8,0,0,1-.06,5.74,10.4,10.4,0,0,1-3.72,4.53,15.61,15.61,0,0,1-5.49,2.32,38.47,38.47,0,0,1-6,.83,58.57,58.57,0,0,1-24.52-3.53,25.16,25.16,0,0,1-5.79-2.86,9.34,9.34,0,0,1-4-5.17,6.13,6.13,0,0,1,.15-3.37,7.57,7.57,0,0,1,1.79-2.86,11.11,11.11,0,0,1,6-3,37.74,37.74,0,0,1,6.72-.6,53.47,53.47,0,0,1,6.8.32,55.83,55.83,0,0,1,13.41,3.19,54.84,54.84,0,0,1,12.42,6.53,25.37,25.37,0,0,1,5.22,4.87,12.31,12.31,0,0,1,2.74,6.64,11.22,11.22,0,0,1-1.93,7,15.16,15.16,0,0,1-5.38,4.93c-4.35,2.39-9.42,2.89-14.31,2.93a67.09,67.09,0,0,1-14.59-1.49,69.85,69.85,0,0,1-7-1.9,46.26,46.26,0,0,1-6.7-2.71,20.51,20.51,0,0,1-5.78-4.3,8.89,8.89,0,0,1,.36-13,14.33,14.33,0,0,1,6.15-3.4,32.87,32.87,0,0,1,6.87-1.08,47.85,47.85,0,0,1,6.88.08,48.5,48.5,0,0,1,13.18,3,43.39,43.39,0,0,1,11.54,6.51A16.25,16.25,0,0,1,468.2,58a8,8,0,0,1,.38,6.41,10.11,10.11,0,0,1-4.24,4.77,21.87,21.87,0,0,1-5.8,2.46,40.05,40.05,0,0,1-12.2,1.48,39.58,39.58,0,0,1-11.72-2.21,24.46,24.46,0,0,1-5.3-2.49,10.94,10.94,0,0,1-3.94-4.22,7,7,0,0,1,3-9.79c3.33-1.76,7.09-1.89,10.58-1.78a40,40,0,0,1,10.2,1.72,30,30,0,0,1,4.68,1.81,11.65,11.65,0,0,1,3.9,3,7.14,7.14,0,0,1,1.15,2.16,6.84,6.84,0,0,1,.28,2.41,8.33,8.33,0,0,1-.59,2.32,10.27,10.27,0,0,1-1.22,2A10.67,10.67,0,0,1,453.82,71a12.44,12.44,0,0,1-4.29,1.15,29.27,29.27,0,0,1-8.43-.71c-1.34-.28-2.66-.52-4-.88a9.76,9.76,0,0,1-3.54-1.7,5.66,5.66,0,0,1-2-3.21,4.06,4.06,0,0,1,1-3.48,6.93,6.93,0,0,1,3-1.89,10.72,10.72,0,0,1,3.32-.6,14.68,14.68,0,0,1,10.95,4.2,10.28,10.28,0,0,1,2.58,4.38,9,9,0,0,1,.09,4.46,10.28,10.28,0,0,1-3.65,5.87,7.13,7.13,0,0,1-3.94,1.63,4.49,4.49,0,0,1-1.1,0l-.37,0s.5.06,1.46,0a7.24,7.24,0,0,0,3.89-1.66,10.3,10.3,0,0,0,3.56-5.82,9,9,0,0,0-.11-4.38A10,10,0,0,0,449.67,64a14.48,14.48,0,0,0-10.79-4.1,10.77,10.77,0,0,0-3.24.6,6.84,6.84,0,0,0-2.86,1.82,3.78,3.78,0,0,0-.91,3.26,5.35,5.35,0,0,0,1.92,3c2,1.6,4.73,2,7.37,2.5a28.77,28.77,0,0,0,8.33.69,12.09,12.09,0,0,0,4.18-1.13,10.3,10.3,0,0,0,3.43-2.78,9.42,9.42,0,0,0,1.16-1.93,7.56,7.56,0,0,0,.56-2.21,6.64,6.64,0,0,0-.26-2.26,6.78,6.78,0,0,0-1.1-2.05,11.08,11.08,0,0,0-3.78-2.9,28.61,28.61,0,0,0-4.63-1.78A40,40,0,0,0,439,53c-3.47-.11-7.17,0-10.36,1.75a7,7,0,0,0-3.44,3.94,7.1,7.1,0,0,0,.6,5.29,10.59,10.59,0,0,0,3.8,4,24.25,24.25,0,0,0,5.2,2.44,39.23,39.23,0,0,0,23.65.7,21.54,21.54,0,0,0,5.68-2.41,9.68,9.68,0,0,0,4-4.54,7.56,7.56,0,0,0-.37-6,15.67,15.67,0,0,0-4-4.93,42.64,42.64,0,0,0-11.4-6.41,47.56,47.56,0,0,0-13-3,48.34,48.34,0,0,0-6.81-.07,32.27,32.27,0,0,0-6.76,1.06,13.76,13.76,0,0,0-5.93,3.27,8.37,8.37,0,0,0-.33,12.27,20.1,20.1,0,0,0,5.63,4.18,44.58,44.58,0,0,0,6.63,2.67,68,68,0,0,0,7,1.89,66.71,66.71,0,0,0,14.48,1.48c4.85,0,9.84-.54,14.06-2.86A14.65,14.65,0,0,0,472.44,63a10.66,10.66,0,0,0,1.86-6.65A11.81,11.81,0,0,0,471.66,50a24.88,24.88,0,0,0-5.11-4.77,54.6,54.6,0,0,0-12.3-6.47A55.58,55.58,0,0,0,441,35.62a54.16,54.16,0,0,0-6.73-.32,37.32,37.32,0,0,0-6.63.58,10.73,10.73,0,0,0-5.72,2.87,6.17,6.17,0,0,0-1.81,5.77,8.86,8.86,0,0,0,3.78,4.89,24.25,24.25,0,0,0,5.68,2.81,58.07,58.07,0,0,0,24.31,3.52c4-.3,8-.84,11.24-3.05a9.94,9.94,0,0,0,3.57-4.33,7.56,7.56,0,0,0,.06-5.44,12.53,12.53,0,0,0-3.06-4.54,22.72,22.72,0,0,0-4.34-3.32,42.21,42.21,0,0,0-9.73-4.36,42.83,42.83,0,0,0-19.88-1.24,13.12,13.12,0,0,0-4.43,1.5,5,5,0,0,0-2.66,3.42,4.65,4.65,0,0,0,1.48,3.94,13.12,13.12,0,0,0,3.57,2.45,51.82,51.82,0,0,0,15.57,4.68,52,52,0,0,0,14.16,0c1.08-.13,2.14-.33,3.16-.52a11.78,11.78,0,0,0,2.85-1,6.76,6.76,0,0,0,2.25-1.75,3.11,3.11,0,0,0,.68-2.51,3.65,3.65,0,0,0-1.28-2.15A9.06,9.06,0,0,0,465,36.22a23.56,23.56,0,0,0-11.08-2.39,23.29,23.29,0,0,0-4.27.5c-.47.09-.82.19-1.06.24Z" style="fill:#263238"></path></g><g id="freepik--Character--inject-195"><path d="M291.11,230.51A129.29,129.29,0,0,1,309,226c11.06-2,49.32-2.44,49.32-2.44s3.53,35.81,36,39.65c12.08,1.43,24.25-15.45,24.25-15.45s22.25,11.32,28.79,16.44c0,0,1.36,63,0,75.57s-7.67,38.42-7.67,38.42h-156V316Z" style="fill:#FF81D7"></path><path d="M305.06,303.62c-10.32,18.11-24.71,38.06-24.71,38.06L219.6,312.77c0-1.38,35.09-60.25,48.67-70.6s28.22-15.88,38.22-13.12" style="fill:#FF81D7"></path><path d="M306.49,229.05s-.21,0-.61-.1-1-.25-1.79-.32a26,26,0,0,0-7,.1,44.51,44.51,0,0,0-10.62,3,75.71,75.71,0,0,0-12.88,6.9c-1.12.77-2.28,1.53-3.42,2.38l-1.73,1.28c-.55.46-1.13.91-1.67,1.42a69.56,69.56,0,0,0-6.22,6.79c-4,4.95-8,10.48-12.13,16.39-8.13,11.84-16.63,25.18-25.05,39.47l-1.88,3.27-.9,1.63-.43.82c-.13.26-.28.58-.34.73l-.15-.24,60.73,29-.25.06c8.08-11.31,14.29-20.82,18.48-27.47,2.08-3.34,3.67-6,4.74-7.75l1.22-2c.27-.45.43-.68.43-.68s-.12.25-.38.71-.66,1.17-1.17,2.07c-1,1.81-2.59,4.45-4.65,7.81-4.13,6.7-10.29,16.24-18.34,27.59l-.1.14-.15-.07L219.49,313l-.19-.08,0-.15a4.82,4.82,0,0,1,.4-1l.43-.83.91-1.64,1.88-3.28c8.43-14.3,16.94-27.63,25.11-39.47,4.1-5.91,8.12-11.44,12.18-16.4a71.42,71.42,0,0,1,6.29-6.81c.55-.51,1.14-1,1.7-1.43l1.75-1.28c1.14-.85,2.31-1.61,3.44-2.38a75.16,75.16,0,0,1,13-6.86,44.61,44.61,0,0,1,10.7-2.89,24.65,24.65,0,0,1,7,0,13.78,13.78,0,0,1,1.79.37Z" style="fill:#263238"></path><path d="M308.83,231.83a4.43,4.43,0,0,1,.58.41,16.21,16.21,0,0,1,1.54,1.35,24.28,24.28,0,0,1,4.49,6,31.61,31.61,0,0,1,3.35,10.62,48.85,48.85,0,0,1-.29,13.65,97.31,97.31,0,0,1-7,23.74c-1.27,2.91-2.44,5.2-3.28,6.76-.42.78-.77,1.37-1,1.78a3.57,3.57,0,0,1-.38.6,3.44,3.44,0,0,1,.29-.65c.23-.47.54-1.07.92-1.83.79-1.58,1.9-3.88,3.13-6.8A102.59,102.59,0,0,0,318,263.81a49,49,0,0,0,.33-13.5,31.59,31.59,0,0,0-3.2-10.52,25.71,25.71,0,0,0-4.3-6.06C309.58,232.47,308.79,231.87,308.83,231.83Z" style="fill:#263238"></path><polygon points="463.37 349.61 490.55 376.06 528.77 354.36 490.13 288.37 454.36 264.24 448.51 342.47 463.37 349.61" style="fill:#FF81D7"></polygon><path d="M502.24,212.72C497.44,178.09,485,143.11,466.35,112l-4.81,19.92a356.63,356.63,0,0,1,14.4,49.4c1,4.64,1.9,9.43,1.12,14.11-.93,5.54-4.11,10.39-6.58,15.44-3.48,7.14-5.62,15.32-3.78,23s8.51,14.64,16.45,14.82c7.72.18,14.51-6,17.36-13.14S503.31,220.37,502.24,212.72Z" style="fill:#263238"></path><path d="M487.42,247a3.63,3.63,0,0,1,.76,0l.92.09h1.25a20.27,20.27,0,0,0,7.74-1.68,21,21,0,0,0,9-7.36,18.44,18.44,0,0,0,2.74-6.33,25.36,25.36,0,0,0,.53-7.43,60.69,60.69,0,0,0-3.1-14.15c-1.35-4.27-2.8-8-4.11-11.15s-2.48-5.6-3.31-7.31l-.95-2a3.61,3.61,0,0,1-.31-.7,5.09,5.09,0,0,1,.4.65q.38.66,1,1.92c.88,1.68,2.1,4.14,3.46,7.25s2.85,6.88,4.23,11.15a59.91,59.91,0,0,1,3.16,14.27,25.68,25.68,0,0,1-.55,7.57,18.86,18.86,0,0,1-2.84,6.49,21.07,21.07,0,0,1-9.25,7.43,19.52,19.52,0,0,1-7.88,1.54l-1.26-.06-.92-.13A4.49,4.49,0,0,1,487.42,247Z" style="fill:#263238"></path><path d="M357.89,112l-39.4,59.22c-4.31,6.48-8.74,13.27-9.68,21-1.59,13,6.42,34.4,19.36,36.12s29.49,6.31,31.34-6.61l27.15-90.38L357.89,112" style="fill:#263238"></path><path d="M477.91,315.5c-1.06-11-5.88-21.17-10-31.4a268.6,268.6,0,0,1-18.05-72.31l-34,30.7c1.33,15.73,2.48,32.4-4.63,46.49-2,4-4.72,7.87-5.05,12.33-.58,7.95,6.39,14.38,8.35,22.1,1.53,6.07-.19,12.58-3.28,18s-7.46,10-11.68,14.63c-1.85,2-3.82,4.64-2.95,7.24s3.82,3.48,6.43,3.84a40.94,40.94,0,0,0,26-5.14c.4,1.81.81,3.62,1.21,5.43a47.37,47.37,0,0,0,47.6-51.92Z" style="fill:#263238"></path><path d="M364.49,104.62c17-14.33,37.36-20.61,59.27-16.9,12.36,2.08,17,5.59,25.41,9.64s15.55,10.3,19.45,18.79c4.62,10.1,8.05,21.08,7.22,32.15-.86,11.37-1.65,22.84-4.64,33.85-3,11.17-13.4,35.28-21.18,42.53l-24.53-13.31C409.68,209,393.65,206.54,379,200.1s-28-17.44-33.68-32.38C337.4,147,347.51,119,364.49,104.62Z" style="fill:#263238"></path><path d="M416,249.87l1.74-11s25.84,2.25,37.78-26.29c5.94-14.2,11.09-38.59,14.66-58.68,3.22-18.09-7.59-45.54-29.87-49.77l-9.69-3-40.74,8a10.74,10.74,0,0,0-11.92,8.31L358.76,226c-.16,6.38,6.76,21.89,12.69,27.68h0c15.21,16.68,37.43,12.19,44.51-3.79Z" style="fill:#ffbf9d"></path><path d="M412.17,197.31a6.47,6.47,0,0,1,2.92-3.5,6.59,6.59,0,0,1,7.93,1,8.84,8.84,0,0,1,1.78,8.75h0a8,8,0,0,1-6.25,2.22,9.34,9.34,0,0,1-1.06-.16,7.2,7.2,0,0,1-4.42-2.78A6.43,6.43,0,0,1,412.17,197.31Z" style="fill:#ff9a6c"></path><path d="M453.8,174.79a3.92,3.92,0,0,1-4.61,3,3.75,3.75,0,0,1-3.09-4.39,3.91,3.91,0,0,1,4.6-2.95A3.76,3.76,0,0,1,453.8,174.79Z" style="fill:#263238"></path><path d="M461.48,162.65c-.59.38-3-2.45-7.06-3.44s-7.6.33-7.92-.28c-.17-.27.53-1.05,2.07-1.69a10.84,10.84,0,0,1,6.5-.39,10.38,10.38,0,0,1,5.46,3.36C461.56,161.49,461.77,162.49,461.48,162.65Z" style="fill:#263238"></path><path d="M428.83,190.17c0-.24,2.7-.06,6.95.42,1.07.15,2.12.18,2.47-.49s.26-1.93.05-3.27q-.56-4.16-1.15-8.72c-1.54-12.39-2.38-22.48-1.88-22.53s2.15,9.93,3.69,22.32q.53,4.57,1,8.74c.11,1.29.46,2.8-.46,4.24a2.72,2.72,0,0,1-2.09,1.11,7.18,7.18,0,0,1-1.84-.19C431.37,191,428.79,190.41,428.83,190.17Z" style="fill:#263238"></path><path d="M417.75,238.84a77.77,77.77,0,0,1-37.18-20.29s5.58,23.16,36,27.62Z" style="fill:#ff9a6c"></path><path d="M450.56,138.51c1.22-.26,3.08,2.47,6,4.84s5.89,3.82,5.85,5.07c0,.58-1,1-2.7.87a11.41,11.41,0,0,1-5.91-2.66,11.26,11.26,0,0,1-3.66-5.33C449.73,139.7,450,138.65,450.56,138.51Z" style="fill:#263238"></path><path d="M408.66,167.25a3.91,3.91,0,0,0,2.91,4.63,3.75,3.75,0,0,0,4.67-2.65,3.92,3.92,0,0,0-2.91-4.63A3.75,3.75,0,0,0,408.66,167.25Z" style="fill:#263238"></path><path d="M405.75,150.63c.38.59,3.72-1,7.85-.11s6.74,3.54,7.29,3.12c.27-.17,0-1.18-1.16-2.41a10.79,10.79,0,0,0-5.7-3.12,10.38,10.38,0,0,0-6.38.71C406.18,149.54,405.56,150.35,405.75,150.63Z" style="fill:#263238"></path><path d="M425.73,140.66c-.84-.95-4.09.07-8,.14s-7.23-.59-8,.42c-.33.49.2,1.44,1.65,2.34a12.09,12.09,0,0,0,6.51,1.52,11.92,11.92,0,0,0,6.37-2C425.65,142.12,426.1,141.13,425.73,140.66Z" style="fill:#263238"></path><path d="M373.69,168.83c.53-2.21-.75-8-2.85-8.92-5.61-2.33-16.24-4.42-19.94,10.37-5.06,20.21,16.27,21.12,16.45,20.55S371.85,176.47,373.69,168.83Z" style="fill:#ffbf9d"></path><path d="M363.63,182.05c-.08-.08-.42.16-1.08.28a3.63,3.63,0,0,1-2.65-.6c-1.94-1.32-2.88-5.16-2.07-8.83a12,12,0,0,1,2.25-4.79c1-1.33,2.2-2.12,3.32-2a1.85,1.85,0,0,1,1.84,1.48c.13.64-.1,1,0,1.07s.52-.23.56-1.1a2.29,2.29,0,0,0-.48-1.47,2.66,2.66,0,0,0-1.81-1c-1.59-.28-3.35.8-4.47,2.21a12.37,12.37,0,0,0-2.63,5.33c-.89,4.1.24,8.44,2.95,10a3.87,3.87,0,0,0,3.36.27C363.47,182.53,363.69,182.11,363.63,182.05Z" style="fill:#ff9a6c"></path><path d="M370,159.82l4.19,6.35c26.43-17.3,80.27-62.9,77.23-60.15,0,0-14.19-9.18-31.4-9.44s-50.4,2.2-53.58,22S370,159.82,370,159.82Z" style="fill:#263238"></path><path d="M424.65,205c-.1-.06,0-.36,0-.85a3.46,3.46,0,0,0-.54-2,4,4,0,0,0-.91-1,6.46,6.46,0,0,0-1.44-.78,19,19,0,0,0-3.88-1.09,40.29,40.29,0,0,0-7.48-.52c-1.93.05-3.16.15-3.2-.07s1.1-.69,3.09-1a24.39,24.39,0,0,1,7.85.08,16.09,16.09,0,0,1,4.21,1.31,6.86,6.86,0,0,1,1.71,1.13,4.77,4.77,0,0,1,1,1.51,3.39,3.39,0,0,1,.14,2.57C425,204.89,424.73,205.09,424.65,205Z" style="fill:#263238"></path><path d="M434.16,139a3,3,0,0,1,1,1.46,5.66,5.66,0,0,1-2.89,7.44,2.91,2.91,0,0,1-1.75.37c0-.08.66-.19,1.58-.7a5.73,5.73,0,0,0,2.72-7C434.51,139.55,434.08,139,434.16,139Z" style="fill:#ff9a6c"></path><path d="M445.65,148.81a3.35,3.35,0,0,1-1.89-.26,6.72,6.72,0,0,1-4.49-7.41,3.4,3.4,0,0,1,.64-1.8c.08,0-.2.7-.28,1.84a7,7,0,0,0,4.26,7C444.93,148.66,445.66,148.73,445.65,148.81Z" style="fill:#ff9a6c"></path><path d="M404.21,174.88a7.49,7.49,0,0,1-5.5-5.4,24.19,24.19,0,0,0,2.37,3.09A24.59,24.59,0,0,0,404.21,174.88Z" style="fill:#ff9a6c"></path><path d="M453.84,180.94c0,.14-.7.47-1.65.74s-1.75.38-1.79.25.69-.48,1.64-.75S453.8,180.8,453.84,180.94Z" style="fill:#ff9a6c"></path><path d="M453.18,182.91c0,.14-.44.39-1.07.58s-1.18.21-1.22.07.44-.39,1.07-.57S453.14,182.77,453.18,182.91Z" style="fill:#ff9a6c"></path><path d="M481.18,142.29a5.17,5.17,0,0,1,0-.83c0-.54.15-1.34.32-2.37.33-2,1-5,1.9-8.55s1.74-8,.95-12.78a15.49,15.49,0,0,0-2.79-6.94,12,12,0,0,0-2.86-2.73,16.57,16.57,0,0,0-3.68-1.81,70.27,70.27,0,0,0-7.94-2l-7.48-1.69L447,99.64l-8.52-2-2.32-.57a4.34,4.34,0,0,1-.8-.23,4.77,4.77,0,0,1,.82.13l2.34.47,8.56,1.84,12.69,2.79,7.5,1.66a68.79,68.79,0,0,1,8,2.06,17.14,17.14,0,0,1,3.79,1.87,12.48,12.48,0,0,1,3,2.86,15.92,15.92,0,0,1,2.86,7.16c.77,4.92-.23,9.37-1.08,12.94s-1.66,6.48-2.05,8.51c-.2,1-.33,1.81-.41,2.34A4.64,4.64,0,0,1,481.18,142.29Z" style="fill:#263238"></path><path d="M324.66,210.62a1.44,1.44,0,0,1-.34,0l-1,0a11.26,11.26,0,0,1-1.65-.08,17.14,17.14,0,0,1-2.24-.36,20.77,20.77,0,0,1-5.74-2.32,24.16,24.16,0,0,1-6.2-5.37,26.31,26.31,0,0,1-2.69-3.95,25.53,25.53,0,0,1-2-4.81,29.7,29.7,0,0,1-.91-11.36c.84-8.06,4.73-16.43,10.61-23.59s12.64-13,18.59-18.33L347,126.36l10.76-9.52,2.94-2.56.78-.66.27-.21s-.07.09-.24.25l-.74.7L357.9,117l-10.65,9.63-15.84,14.25c-5.93,5.38-12.7,11.11-18.5,18.29s-9.69,15.38-10.54,23.32a29.23,29.23,0,0,0,.85,11.19,24.33,24.33,0,0,0,1.91,4.74,25.41,25.41,0,0,0,2.63,3.91,23.84,23.84,0,0,0,6.06,5.35,21,21,0,0,0,5.64,2.37,17,17,0,0,0,2.2.4,12.23,12.23,0,0,0,1.64.13l1,0Z" style="fill:#263238"></path><path d="M482.22,121.59c-11-5.5-25.48-4.91-34.43,1.39l.07.11-7.49-.61c-8.34-5.79-24.84-9.45-35.38-5.6l-33.78,13.64-1.79,4.23,36.11-14.48.15.32c.82,3.64,4.72,15.21,5.91,17.19,1.69,2.81,17.67,4.48,21.65,2.27,3.81-2.13,6-13.59,7.06-16.11l7.68.58c.64,3.31,2.84,14.2,4.4,15.75s10.24,1.36,11.24,1.35c.83,0,2,0,3.24-.11,3.29-.19,7.38-.66,8.65-1.87,1.88-1.78,4.05-8.73,5.92-15.29l.31-1.07c.07-.25.13-.42.15-.49h0ZM432.6,138.77c-3.94,2.19-18.81,0-19.87-1.76a98.72,98.72,0,0,1-6-16.68c9.4-4,23.7-1.14,31.86,4.37C437.17,129.27,435.33,137.25,432.6,138.77Zm47.54-14.85c-1,3.52-3.68,12.88-5.53,14.64-2.2,2.08-19.75,2-21.31.66-.89-.9-2.65-8.24-3.79-14,7.77-5.32,20.87-5.83,30.67-1.48C480.17,123.82,480.15,123.86,480.14,123.92Z" style="fill:#455a64"></path><g style="opacity:0.30000000000000004"><path d="M437,125.57s-2.19,11.22-5.47,11.57-6.23-17-6.23-17S435.11,122.68,437,125.57Z" style="fill:#fff"></path></g><g style="opacity:0.30000000000000004"><path d="M478.87,124.21S476.6,137,473.32,137.3s-9-15.66-9-15.66S477,121.32,478.87,124.21Z" style="fill:#fff"></path></g><path d="M381.57,120.36c.05.07-1.13.82-2.8,2.33a35.85,35.85,0,0,0-5.64,6.66,81.83,81.83,0,0,0-4.39,7.61,25.57,25.57,0,0,1-1.77,3.19,3.8,3.8,0,0,1,.34-.92c.25-.58.62-1.42,1.1-2.44a61,61,0,0,1,4.29-7.73,31.32,31.32,0,0,1,5.83-6.65,19.44,19.44,0,0,1,2.17-1.59A3.52,3.52,0,0,1,381.57,120.36Z" style="fill:#455a64"></path><path d="M320,191.89a.92.92,0,0,1,0-.27c0-.2,0-.46.05-.77,0-.69.14-1.69.31-3a52,52,0,0,1,2.76-10.62,68.61,68.61,0,0,1,7.53-14.42,109.27,109.27,0,0,1,12.78-15.29c5-5,10-9.54,14.54-13.63s8.62-7.81,11.92-11,5.87-6,7.59-7.9l2-2.24.51-.58.19-.19s0,.08-.14.22l-.48.62c-.41.54-1,1.31-1.89,2.3-1.67,2-4.2,4.76-7.48,8s-7.33,7-11.86,11.13-9.53,8.62-14.49,13.64a111.63,111.63,0,0,0-12.75,15.2,70.32,70.32,0,0,0-7.59,14.28,55.09,55.09,0,0,0-2.9,10.52c-.2,1.27-.35,2.27-.41,3,0,.31-.07.56-.1.77A.82.82,0,0,1,320,191.89Z" style="fill:#455a64"></path><path d="M349.22,127.49a3,3,0,0,1-.07-.64c0-.43-.08-1,0-1.86a32,32,0,0,1,.78-6.77,33.6,33.6,0,0,1,22.28-25,34.81,34.81,0,0,1,9.94-1.82,31.81,31.81,0,0,1,6.8.47c.79.11,1.39.3,1.81.39a2.85,2.85,0,0,1,.62.18s-.88-.14-2.46-.37a35.46,35.46,0,0,0-16.56,1.61A33.2,33.2,0,0,0,353.89,109a35.4,35.4,0,0,0-3.65,9.3,34.78,34.78,0,0,0-.94,6.69C349.24,126.6,349.27,127.49,349.22,127.49Z" style="fill:#263238"></path><path d="M480.94,235.12s53.22,81.3,58.33,95.37.31,47.51-18,47.44c-25.41-.09-31.84-10.75-39.08-28.22S456.73,250,456.73,250Z" style="fill:#ffbf9d"></path><path d="M457.65,253.53c-1.79-7.48-11.6-19.72-7.63-28.85,3.25-7.48,10.41-17.31,12.76-22.35s3.7-20.49,3.7-20.49l1.12-18.68s-4.5-12.73-1.48-17.1c1.51-2.18,3.19-2.18,4.49-1.64a4.49,4.49,0,0,1,2.56,3.31l.7,3.54s2-2.69,5.37.33,6.48,23.15,7.85,30.33c1.55,8.06,1.09,12.73-.23,17.44-2.23,8-6.95,24.12-7.28,28.15S484,239.79,484,239.79" style="fill:#ffbf9d"></path><path d="M484,239.79a4,4,0,0,1-.26-.41c-.17-.28-.4-.7-.7-1.26a48.68,48.68,0,0,1-2.34-5.05,20.3,20.3,0,0,1-1.14-3.88,13,13,0,0,1,.44-4.8c.73-3.39,1.73-7.2,2.87-11.42s2.46-8.84,3.85-13.83a29.74,29.74,0,0,0,1.13-7.87,45,45,0,0,0-.82-8.46c-1.09-5.76-2.09-11.86-3.48-18.13a76.13,76.13,0,0,0-2.59-9.44c-.61-1.52-1.19-3.16-2.62-4a3.81,3.81,0,0,0-2.22-.78,2.82,2.82,0,0,0-2,1l-.32.4-.13-.5c-.59-2.21-.43-5-2.48-6.31a3.12,3.12,0,0,0-3.23-.3,4.81,4.81,0,0,0-2.14,2.71,11.36,11.36,0,0,0-.41,4,28.29,28.29,0,0,0,.48,4,54.47,54.47,0,0,0,2,7.64l0,.05v0c-.43,6.79-.78,13.37-1.23,19.7-.32,3.16-.7,6.25-1.16,9.25a60.72,60.72,0,0,1-1.88,8.72,20.74,20.74,0,0,1-1.82,3.9c-.69,1.23-1.41,2.41-2.12,3.57-1.44,2.31-2.83,4.56-4.17,6.72s-2.56,4.29-3.66,6.36a19.29,19.29,0,0,0-2.41,6.21,16.46,16.46,0,0,0,.36,6,35.78,35.78,0,0,0,1.66,5.15c1.27,3.14,2.59,5.74,3.59,7.9a52.32,52.32,0,0,1,2.12,5,16.2,16.2,0,0,1,.51,1.83s-.06-.16-.16-.46-.21-.76-.44-1.34c-.42-1.17-1.17-2.84-2.2-5s-2.37-4.73-3.67-7.88a35.75,35.75,0,0,1-1.71-5.18,16.77,16.77,0,0,1-.4-6.13c2.07-8.55,9.42-16.46,14.09-26.87a59.5,59.5,0,0,0,1.84-8.64c.45-3,.83-6.08,1.14-9.23.44-6.31.78-12.9,1.2-19.68l0,.1a54.26,54.26,0,0,1-2-7.72,29.1,29.1,0,0,1-.49-4.09,11.7,11.7,0,0,1,.44-4.18,5.32,5.32,0,0,1,2.39-3,3.31,3.31,0,0,1,1.95-.37,4.23,4.23,0,0,1,1.81.7,4.85,4.85,0,0,1,2,3.15c.23,1.18.46,2.34.69,3.49l-.46-.11a3.35,3.35,0,0,1,2.44-1.2,4.44,4.44,0,0,1,2.52.88,6.84,6.84,0,0,1,1,.86,6.53,6.53,0,0,1,.75,1.08,17.77,17.77,0,0,1,1,2.33,75.7,75.7,0,0,1,2.61,9.51c1.38,6.3,2.37,12.4,3.44,18.16a45.68,45.68,0,0,1,.81,8.54,30.46,30.46,0,0,1-1.18,8c-1.41,5-2.71,9.6-3.9,13.81s-2.2,8-2.95,11.38a12.91,12.91,0,0,0-.47,4.71,19.79,19.79,0,0,0,1.08,3.85,54.37,54.37,0,0,0,2.25,5.07c.29.55.5,1,.66,1.28S484,239.79,484,239.79Z" style="fill:#ff9a6c"></path><path d="M468.71,208.85a33.6,33.6,0,0,1-3,1.87,30.25,30.25,0,0,0-6.53,5.23,15.69,15.69,0,0,0-3.76,7.34,21.72,21.72,0,0,0-.22,3.46,2.73,2.73,0,0,1-.19-.93,10,10,0,0,1,0-2.59,14.93,14.93,0,0,1,3.73-7.62,27,27,0,0,1,6.73-5.21c.95-.53,1.73-.93,2.28-1.19A3.47,3.47,0,0,1,468.71,208.85Z" style="fill:#ff9a6c"></path><path d="M476.19,186.12a9,9,0,0,1-.05-1.47c0-1,0-2.32-.06-4a72.27,72.27,0,0,0-1.57-13.09c-1.05-5-2.89-9.49-2.44-13A5.58,5.58,0,0,1,474,151a3.62,3.62,0,0,1,1-.54c.25-.08.38-.11.38-.09a7.73,7.73,0,0,0-1.21.79,5.49,5.49,0,0,0-1.71,3.42,16.89,16.89,0,0,0,.76,5.8c.55,2.15,1.28,4.53,1.81,7.07a62.63,62.63,0,0,1,1.44,13.19c0,1.7-.06,3.07-.11,4A7.33,7.33,0,0,1,476.19,186.12Z" style="fill:#ff9a6c"></path><path d="M466.94,168.88a11.6,11.6,0,0,1,.66,2.46,43.3,43.3,0,0,1,.93,6.09,42.83,42.83,0,0,1-.09,6.16,11.81,11.81,0,0,1-.33,2.53,13.73,13.73,0,0,1,0-2.55c0-1.56.1-3.73-.06-6.1s-.53-4.51-.77-6.06A12.46,12.46,0,0,1,466.94,168.88Z" style="fill:#ff9a6c"></path><path d="M470.29,186.19a5.14,5.14,0,0,1-.11-1.09c0-.82-.1-1.81-.17-3-.15-2.51-.45-6-1-9.78s-1.2-7.22-1.73-9.68c-.25-1.14-.46-2.12-.63-2.92a4.08,4.08,0,0,1-.18-1.08,4.43,4.43,0,0,1,.37,1c.22.68.49,1.66.8,2.89a93.89,93.89,0,0,1,1.89,9.69,87.43,87.43,0,0,1,.84,9.83c0,1.27,0,2.29,0,3A4.2,4.2,0,0,1,470.29,186.19Z" style="fill:#ff9a6c"></path><path d="M472.26,185.92a4.25,4.25,0,0,1-2.44.26,10.28,10.28,0,0,1-2.41-.26c0-.17,1.1-.36,2.44-.26A10.28,10.28,0,0,1,472.26,185.92Z" style="fill:#ff9a6c"></path><path d="M476.19,186.12c0,.06-.2,0-.44-.06s-.54-.27-.77-.22c-.74.16-1.44,0-1.4-.16s.58-.2,1.34-.36a1,1,0,0,1,.65.15,2.08,2.08,0,0,1,.38.28C476.14,185.92,476.23,186.06,476.19,186.12Z" style="fill:#ff9a6c"></path><path d="M208.66,339.14S195.2,356.5,198,374.37c2.16,13.66,8.21,20.08,33.57,19.94,20.4-.11,105.34-27.43,105.34-27.43l7.11-33.74c1,1-80,14.34-80,14.34l7.36-9.68-47.85-23.16Z" style="fill:#ffbf9d"></path><path d="M389.39,306.88c1.27-.55,40.6-23.81,40.6-23.81l9.22-.64-5.34,8.22-47.45,27.83Z" style="fill:#455a64"></path><path d="M319.38,341.26s10.26-2.55,11-3.55,16.14-29.27,17.65-30.53,25-14.63,30.53-14.88,26.2,7.3,27.21,8.56,2.5,7.59-5,7.33c-4.1-.14-4.34-.32-4.34-.32l1.76,10a2.56,2.56,0,0,1-2.27,3c-1.51.14-3.08.16-3.08-.36s0,3.93.08,7.41a3.49,3.49,0,0,1-4.28,3.44c-2.4-.56-5-2-5.59-5.62l-4.36,5.54,3.06,7.3-.76,9.68s-6,.12-7.43-4.55c-1.78-5.81-1.33-6.77-1.33-6.77s-3.69,9.54-8.79,15.13c-8.26,9.07-31.68,16.6-31.68,16.6Z" style="fill:#ffbf9d"></path><path d="M363.08,318.15l.18-.09.57-.23L366,317l8.26-3.14.08,0,.07,0,8.39,5.42.12.08,0,.15a13.47,13.47,0,0,0,.44,6.68,7.4,7.4,0,0,0,1.74,3.1,7.05,7.05,0,0,0,3.27,1.71,13.48,13.48,0,0,0,1.92.31,1.91,1.91,0,0,0,2.29-2.14c0-.68,0-1.38,0-2.07,0-2.79,0-5.66,0-8.58,0-.91,0-1.83,0-2.73a4.67,4.67,0,0,0-.62-2.48,19.56,19.56,0,0,0-3.18-4.11,64.8,64.8,0,0,0-7.53-6.48q-1.9-1.43-3.79-2.67c-.62-.4-1.25-.81-1.88-1.15a3.9,3.9,0,0,0-2-.26,27.69,27.69,0,0,0-7.42,2.32c-4.4,1.93-7.81,3.83-10.18,5.1l-2.72,1.47-.72.37a.84.84,0,0,1-.26.1s1.27-.77,3.6-2.12,5.73-3.27,10.13-5.25a27.7,27.7,0,0,1,7.54-2.42,4.27,4.27,0,0,1,2.23.3c.66.35,1.29.75,1.92,1.16,1.27.82,2.55,1.72,3.83,2.67a63.58,63.58,0,0,1,7.61,6.51,19.82,19.82,0,0,1,3.27,4.22,5.22,5.22,0,0,1,.68,2.7c0,.91,0,1.82,0,2.74,0,2.93,0,5.8,0,8.59,0,.7,0,1.4,0,2.08a2.85,2.85,0,0,1-.14,1.1,2.33,2.33,0,0,1-.63.94,2.5,2.5,0,0,1-2.07.59,13.25,13.25,0,0,1-2-.33,7.56,7.56,0,0,1-3.49-1.84,7.9,7.9,0,0,1-1.84-3.31,13.73,13.73,0,0,1-.41-6.93l.09.23-8.34-5.49h.15l-8.32,3-2.23.78-.58.19C363.15,318.14,363.08,318.16,363.08,318.15Z" style="fill:#ff9a6c"></path><path d="M392.6,320.52s.55.15,1.57.25a4.76,4.76,0,0,0,1.81-.1,2.92,2.92,0,0,0,1.75-1.48,2.73,2.73,0,0,0,.28-1.31,13,13,0,0,0-.22-1.52c-.2-1.08-.4-2.21-.62-3.41-.44-2.39-.95-5-1.63-7.75a9,9,0,0,0-1.54-3.65,14.13,14.13,0,0,0-2.71-2.6,40.74,40.74,0,0,0-5.49-3.36c-1.63-.85-3-1.5-3.88-2a4.94,4.94,0,0,1-1.34-.9s.5.29,1.43.72,2.3,1,4,1.85a38.12,38.12,0,0,1,5.61,3.31,14.42,14.42,0,0,1,2.82,2.67,6.47,6.47,0,0,1,.58.86,4.4,4.4,0,0,1,.46.95,14.64,14.64,0,0,1,.61,2c.68,2.75,1.17,5.39,1.6,7.8.2,1.2.38,2.34.56,3.42a13.94,13.94,0,0,1,.21,1.58,3.22,3.22,0,0,1-2.35,3.08,4.6,4.6,0,0,1-1.92,0,6.71,6.71,0,0,1-1.17-.28A1.17,1.17,0,0,1,392.6,320.52Z" style="fill:#ff9a6c"></path><path d="M344.47,362.88a18.21,18.21,0,0,0,3.83-5.55c1.84-3.9,3.23-10.12,3.08-17.63v-.09l.05-.06,4.92-5.6.07-.08h.11l10.77,0h.07l.05,0,4.94,2.85.16.09,0,.21a8.17,8.17,0,0,0,.22,3.62,15,15,0,0,0,1.51,3.54,8.54,8.54,0,0,0,2.82,3.13,5.11,5.11,0,0,0,3.89.71l-.17.22c.32-3.55.63-7,.92-10.22l0,.11c-2.19-5-4.74-9.49-7.84-12.78a12.74,12.74,0,0,0-5.38-3.2,37.67,37.67,0,0,0-5.3-1.33c-3.27-.59-5.9-.84-7.7-1a15.49,15.49,0,0,1-2.77-.38s1,.1,2.78.21,4.45.34,7.75.89a39.28,39.28,0,0,1,5.36,1.29,13,13,0,0,1,5.56,3.25c3.19,3.34,5.76,7.84,8,12.89l0,.05v.06c-.29,3.25-.59,6.68-.9,10.23l0,.18-.16,0a5.62,5.62,0,0,1-4.32-.75,9.12,9.12,0,0,1-3-3.32c-1.31-2.31-2.27-4.95-1.77-7.57l.12.3-4.93-2.86.13,0-10.77,0,.17-.08-4.94,5.58.05-.16c.11,7.6-1.36,13.84-3.29,17.76a21.75,21.75,0,0,1-1.43,2.53c-.52.67-.93,1.26-1.33,1.69l-.95.92A1.61,1.61,0,0,1,344.47,362.88Z" style="fill:#ff9a6c"></path><path d="M376.75,315.54c.09.17-2.24,1.15-4.74,2.89-1.24.89-2.33,1.77-3.16,2.35a5.48,5.48,0,0,1-1.4.87c0-.06.41-.49,1.18-1.16s1.81-1.58,3.08-2.49a19.57,19.57,0,0,1,3.48-1.93A4.8,4.8,0,0,1,376.75,315.54Z" style="fill:#ff9a6c"></path><path d="M222.35,359.11a11,11,0,0,1,1.31-1.19c.42-.37,1-.81,1.61-1.28s1.37-1.05,2.23-1.59,1.78-1.17,2.83-1.74,2.18-1.17,3.38-1.77a54.92,54.92,0,0,1,8.19-3.05,56,56,0,0,1,8.59-1.6c1.34-.1,2.61-.22,3.8-.22s2.31,0,3.32,0,1.93.14,2.73.21,1.49.18,2.05.28a13,13,0,0,1,1.73.34,9.81,9.81,0,0,1-1.75-.14c-.56-.07-1.25-.15-2.05-.19s-1.71-.14-2.72-.13-2.11,0-3.29,0-2.45.16-3.77.27A59,59,0,0,0,242,349a59.92,59.92,0,0,0-8.13,3c-1.19.59-2.34,1.12-3.37,1.72s-2,1.13-2.84,1.67-1.59,1.06-2.26,1.51-1.21.86-1.66,1.21A10.55,10.55,0,0,1,222.35,359.11Z" style="fill:#ff9a6c"></path></g></svg>
