<svg xmlns="http://www.w3.org/2000/svg" viewBox="0 0 750 500"><g id="freepik--background-simple--inject-54"><path d="M591.43,66.69C519.72,57.35,479,97.12,382.59,101.45,286.84,94,250.33,52.89,177.76,59.85,99.68,67.33,39.2,169.07,56.41,270.85S180.27,429.52,234.79,429.17c43.58-.28,82.07-18,131.76-22.26,49.15,5.88,85.72,24.85,129.19,26.57,54.39,2.16,166.82-51.12,194.68-152.15S668.59,76.73,591.43,66.69Z" style="fill:#92E3A9"></path><path d="M591.43,66.69C519.72,57.35,479,97.12,382.59,101.45,286.84,94,250.33,52.89,177.76,59.85,99.68,67.33,39.2,169.07,56.41,270.85S180.27,429.52,234.79,429.17c43.58-.28,82.07-18,131.76-22.26,49.15,5.88,85.72,24.85,129.19,26.57,54.39,2.16,166.82-51.12,194.68-152.15S668.59,76.73,591.43,66.69Z" style="fill:#fff;opacity:0.7000000000000001"></path></g><g id="freepik--plants-3--inject-54"><path d="M552.64,411.94c-2.33-.9-4.57-1.61-6-3.81-1.13-1.75-1.71-4.24.56-5.34,3.07-1.49,6.15,2.4,7.16,4.91.63,1.54,1.33,3.66,1.76,5-.09-1.48-.22-2.7-.32-3.5h0v0l-.11-.84a23.51,23.51,0,0,0-1.61-3.08c-1.21-2.19-2.47-4.17-2.15-6.78.25-2.06,1.42-4.34,3.86-3.72,3.31.83,3.16,5.79,2.33,8.36-.59,1.81-1.59,4.29-2.06,5.45.11.78.32,2.54.43,4.77a20.59,20.59,0,0,0,1.44-3.28c1-2.31,1.7-4.54,3.93-5.93,1.76-1.1,4.27-1.62,5.32.67,1.43,3.1-2.52,6.1-5,7.06-1.83.7-4.48,1.51-5.62,1.85a50.38,50.38,0,0,1-.14,6.87c0,.13,0,.27,0,.41a20.13,20.13,0,0,0,2.23-2.85c1.48-2,2.76-4,5.26-4.77,2-.64,4.54-.53,5,1.95.62,3.36-3.95,5.3-6.63,5.61-1.95.22-4.71.35-5.91.4-.16,1.14-.44,2.45-.76,3.92s-.68,3.14-1,4.92v0c.78,0,2.47-2.68,2.87-3.21,1.48-2,2.76-4,5.26-4.78,2-.63,4.54-.52,5,2,.62,3.35-3.95,5.29-6.63,5.6-2.51.3-6.39.42-6.5.43l.06.11-.07-.09a44.68,44.68,0,0,0-.62,6.27c.94-.22,2.86-1.95,3.32-2.32,2-1.55,3.71-3.12,6.34-3.23,2.07-.09,4.51.69,4.3,3.2-.28,3.4-5.19,4.07-7.87,3.67-2.12-.32-5.16-1-6.09-1.23a32.3,32.3,0,0,0,.66,7.38,15.77,15.77,0,0,0,3.18-2.29c2-1.55,3.71-3.11,6.34-3.22,2.07-.09,4.51.68,4.3,3.19-.28,3.4-5.19,4.08-7.87,3.67-2-.3-4.81-.93-5.91-1.18a30.27,30.27,0,0,0,3.79,9.4l-.29.18a30.68,30.68,0,0,1-3.82-9.46c-.82-.3-3.52.57-4.13.73-2.42.61-4.65,1.33-7.1.35-1.93-.76-3.83-2.47-2.62-4.68,1.65-3,6.41-1.59,8.69-.12,1.89,1.21,4.53,3.21,5.15,3.68l0-.17-.11,0h.1a32.56,32.56,0,0,1-.67-7.48c-.87-.38-3.48-.07-4.08,0-2.5.13-4.83.4-7-1-1.74-1.13-3.28-3.17-1.66-5.1,2.19-2.61,6.59-.32,8.54,1.55,1.53,1.48,3.59,3.77,4.24,4.51a45.35,45.35,0,0,1,.66-6.45,16.93,16.93,0,0,0-3.74-.95c-2.45-.51-4.77-.85-6.54-2.79-1.4-1.54-2.37-3.91-.31-5.36,2.79-2,6.46,1.38,7.86,3.69,1,1.62,2.21,4,2.78,5.1.28-1.62.61-3.12.9-4.49s.59-2.73.75-3.84h-.25a.58.58,0,0,0,.26-.09v-.06c-.78-.53-3.41-.71-4-.79-2.48-.33-4.82-.5-6.72-2.31-1.51-1.43-2.65-3.72-.7-5.32,2.64-2.16,6.54.91,8.11,3.11,1.23,1.73,2.82,4.35,3.34,5.21,0-.19,0-.38.06-.55a50.15,50.15,0,0,0,.15-6.74l-.24.06a.57.57,0,0,0,.23-.14c0-.08,0-.17,0-.25A16.72,16.72,0,0,0,552.64,411.94Z" style="fill:#263238"></path><path d="M552.64,411.94c-2.33-.9-4.57-1.61-6-3.81-1.13-1.75-1.71-4.24.56-5.34,3.07-1.49,6.15,2.4,7.16,4.91.63,1.54,1.33,3.66,1.76,5-.09-1.48-.22-2.7-.32-3.5h0v0l-.11-.84a23.51,23.51,0,0,0-1.61-3.08c-1.21-2.19-2.47-4.17-2.15-6.78.25-2.06,1.42-4.34,3.86-3.72,3.31.83,3.16,5.79,2.33,8.36-.59,1.81-1.59,4.29-2.06,5.45.11.78.32,2.54.43,4.77a20.59,20.59,0,0,0,1.44-3.28c1-2.31,1.7-4.54,3.93-5.93,1.76-1.1,4.27-1.62,5.32.67,1.43,3.1-2.52,6.1-5,7.06-1.83.7-4.48,1.51-5.62,1.85a50.38,50.38,0,0,1-.14,6.87c0,.13,0,.27,0,.41a20.13,20.13,0,0,0,2.23-2.85c1.48-2,2.76-4,5.26-4.77,2-.64,4.54-.53,5,1.95.62,3.36-3.95,5.3-6.63,5.61-1.95.22-4.71.35-5.91.4-.16,1.14-.44,2.45-.76,3.92s-.68,3.14-1,4.92v0c.78,0,2.47-2.68,2.87-3.21,1.48-2,2.76-4,5.26-4.78,2-.63,4.54-.52,5,2,.62,3.35-3.95,5.29-6.63,5.6-2.51.3-6.39.42-6.5.43l.06.11-.07-.09a44.68,44.68,0,0,0-.62,6.27c.94-.22,2.86-1.95,3.32-2.32,2-1.55,3.71-3.12,6.34-3.23,2.07-.09,4.51.69,4.3,3.2-.28,3.4-5.19,4.07-7.87,3.67-2.12-.32-5.16-1-6.09-1.23a32.3,32.3,0,0,0,.66,7.38,15.77,15.77,0,0,0,3.18-2.29c2-1.55,3.71-3.11,6.34-3.22,2.07-.09,4.51.68,4.3,3.19-.28,3.4-5.19,4.08-7.87,3.67-2-.3-4.81-.93-5.91-1.18a30.27,30.27,0,0,0,3.79,9.4l-.29.18a30.68,30.68,0,0,1-3.82-9.46c-.82-.3-3.52.57-4.13.73-2.42.61-4.65,1.33-7.1.35-1.93-.76-3.83-2.47-2.62-4.68,1.65-3,6.41-1.59,8.69-.12,1.89,1.21,4.53,3.21,5.15,3.68l0-.17-.11,0h.1a32.56,32.56,0,0,1-.67-7.48c-.87-.38-3.48-.07-4.08,0-2.5.13-4.83.4-7-1-1.74-1.13-3.28-3.17-1.66-5.1,2.19-2.61,6.59-.32,8.54,1.55,1.53,1.48,3.59,3.77,4.24,4.51a45.35,45.35,0,0,1,.66-6.45,16.93,16.93,0,0,0-3.74-.95c-2.45-.51-4.77-.85-6.54-2.79-1.4-1.54-2.37-3.91-.31-5.36,2.79-2,6.46,1.38,7.86,3.69,1,1.62,2.21,4,2.78,5.1.28-1.62.61-3.12.9-4.49s.59-2.73.75-3.84h-.25a.58.58,0,0,0,.26-.09v-.06c-.78-.53-3.41-.71-4-.79-2.48-.33-4.82-.5-6.72-2.31-1.51-1.43-2.65-3.72-.7-5.32,2.64-2.16,6.54.91,8.11,3.11,1.23,1.73,2.82,4.35,3.34,5.21,0-.19,0-.38.06-.55a50.15,50.15,0,0,0,.15-6.74l-.24.06a.57.57,0,0,0,.23-.14c0-.08,0-.17,0-.25A16.72,16.72,0,0,0,552.64,411.94Z" style="fill:#263238;opacity:0.5"></path><path d="M592.83,425.87c-1.29-1.26-2.58-2.36-2.9-4.22-.26-1.47.06-3.29,1.87-3.38,2.46-.12,3.4,3.33,3.37,5.28,0,1.19-.15,2.8-.24,3.78.35-1,.61-1.85.77-2.4h0c.07-.27.13-.47.16-.59a16.31,16.31,0,0,0-.2-2.5c-.18-1.79-.46-3.45.49-5.09.75-1.3,2.16-2.48,3.61-1.38,2,1.48.46,4.73-.82,6.2-.9,1-2.26,2.39-2.9,3-.15.56-.5,1.78-1.06,3.29a14.65,14.65,0,0,0,1.88-1.77c1.28-1.26,2.4-2.53,4.27-2.82,1.48-.23,3.29.13,3.34,2,.08,2.45-3.39,3.33-5.33,3.25-1.41-.05-3.4-.26-4.25-.36a37.55,37.55,0,0,1-2,4.51l-.15.26a14.27,14.27,0,0,0,2.28-1.26c1.55-.91,3-1.86,4.84-1.68,1.49.14,3.15.94,2.75,2.71-.53,2.4-4.1,2.39-6,1.84-1.35-.4-3.22-1.09-4-1.4-.43.71-1,1.5-1.61,2.39s-1.33,1.88-2,3v0c.53.19,2.39-1.08,2.8-1.32,1.55-.92,3-1.86,4.84-1.68,1.49.14,3.15.93,2.75,2.7-.53,2.4-4.1,2.4-6,1.85s-4.35-1.53-4.42-1.55v.08a.31.31,0,0,0,0-.08,32.45,32.45,0,0,0-2.18,4,10.45,10.45,0,0,0,2.86-.6c1.74-.48,3.34-1,5.11-.36,1.4.53,2.79,1.73,1.95,3.34-1.15,2.17-4.59,1.23-6.25.21-1.31-.81-3.13-2.13-3.69-2.54a22.74,22.74,0,0,0-1.64,5.08,11.86,11.86,0,0,0,2.75-.61c1.73-.48,3.33-1,5.11-.36,1.4.53,2.79,1.73,1.95,3.34-1.15,2.17-4.59,1.23-6.25.21-1.24-.76-2.93-2-3.59-2.46a21.87,21.87,0,0,0-.14,7.31l-.24,0a22,22,0,0,1,.14-7.34c-.46-.43-2.5-.62-2.94-.69-1.78-.27-3.46-.43-4.81-1.76-1.06-1.06-1.84-2.72-.41-3.84,1.93-1.52,4.69.75,5.78,2.36.91,1.34,2.1,3.41,2.38,3.9l0-.12-.06-.05.06,0a23.64,23.64,0,0,1,1.66-5.14,9.61,9.61,0,0,0-2.69-1.18c-1.69-.62-3.31-1.1-4.37-2.67-.84-1.24-1.29-3,.33-3.85,2.19-1.11,4.46,1.65,5.22,3.45.6,1.4,1.32,3.5,1.54,4.18a33.38,33.38,0,0,1,2.26-4.09,12.29,12.29,0,0,0-2.21-1.69c-1.48-1-2.92-1.9-3.55-3.69-.49-1.41-.46-3.26,1.31-3.64,2.4-.51,3.89,2.74,4.17,4.67.19,1.35.34,3.26.4,4.16.64-1,1.28-1.9,1.86-2.72s1.16-1.64,1.58-2.34l-.17-.06a.65.65,0,0,0,.2,0l0,0a9.83,9.83,0,0,0-2.43-1.66c-1.55-.92-3.05-1.69-3.8-3.42-.6-1.38-.71-3.22,1-3.72,2.36-.69,4.07,2.44,4.49,4.34.33,1.49.65,3.68.75,4.39l.19-.34a35.64,35.64,0,0,0,2-4.43l-.17,0a.47.47,0,0,0,.19,0l.06-.17A12,12,0,0,0,592.83,425.87Z" style="fill:#263238"></path><path d="M592.83,425.87c-1.29-1.26-2.58-2.36-2.9-4.22-.26-1.47.06-3.29,1.87-3.38,2.46-.12,3.4,3.33,3.37,5.28,0,1.19-.15,2.8-.24,3.78.35-1,.61-1.85.77-2.4h0c.07-.27.13-.47.16-.59a16.31,16.31,0,0,0-.2-2.5c-.18-1.79-.46-3.45.49-5.09.75-1.3,2.16-2.48,3.61-1.38,2,1.48.46,4.73-.82,6.2-.9,1-2.26,2.39-2.9,3-.15.56-.5,1.78-1.06,3.29a14.65,14.65,0,0,0,1.88-1.77c1.28-1.26,2.4-2.53,4.27-2.82,1.48-.23,3.29.13,3.34,2,.08,2.45-3.39,3.33-5.33,3.25-1.41-.05-3.4-.26-4.25-.36a37.55,37.55,0,0,1-2,4.51l-.15.26a14.27,14.27,0,0,0,2.28-1.26c1.55-.91,3-1.86,4.84-1.68,1.49.14,3.15.94,2.75,2.71-.53,2.4-4.1,2.39-6,1.84-1.35-.4-3.22-1.09-4-1.4-.43.71-1,1.5-1.61,2.39s-1.33,1.88-2,3v0c.53.19,2.39-1.08,2.8-1.32,1.55-.92,3-1.86,4.84-1.68,1.49.14,3.15.93,2.75,2.7-.53,2.4-4.1,2.4-6,1.85s-4.35-1.53-4.42-1.55v.08a.31.31,0,0,0,0-.08,32.45,32.45,0,0,0-2.18,4,10.45,10.45,0,0,0,2.86-.6c1.74-.48,3.34-1,5.11-.36,1.4.53,2.79,1.73,1.95,3.34-1.15,2.17-4.59,1.23-6.25.21-1.31-.81-3.13-2.13-3.69-2.54a22.74,22.74,0,0,0-1.64,5.08,11.86,11.86,0,0,0,2.75-.61c1.73-.48,3.33-1,5.11-.36,1.4.53,2.79,1.73,1.95,3.34-1.15,2.17-4.59,1.23-6.25.21-1.24-.76-2.93-2-3.59-2.46a21.87,21.87,0,0,0-.14,7.31l-.24,0a22,22,0,0,1,.14-7.34c-.46-.43-2.5-.62-2.94-.69-1.78-.27-3.46-.43-4.81-1.76-1.06-1.06-1.84-2.72-.41-3.84,1.93-1.52,4.69.75,5.78,2.36.91,1.34,2.1,3.41,2.38,3.9l0-.12-.06-.05.06,0a23.64,23.64,0,0,1,1.66-5.14,9.61,9.61,0,0,0-2.69-1.18c-1.69-.62-3.31-1.1-4.37-2.67-.84-1.24-1.29-3,.33-3.85,2.19-1.11,4.46,1.65,5.22,3.45.6,1.4,1.32,3.5,1.54,4.18a33.38,33.38,0,0,1,2.26-4.09,12.29,12.29,0,0,0-2.21-1.69c-1.48-1-2.92-1.9-3.55-3.69-.49-1.41-.46-3.26,1.31-3.64,2.4-.51,3.89,2.74,4.17,4.67.19,1.35.34,3.26.4,4.16.64-1,1.28-1.9,1.86-2.72s1.16-1.64,1.58-2.34l-.17-.06a.65.65,0,0,0,.2,0l0,0a9.83,9.83,0,0,0-2.43-1.66c-1.55-.92-3.05-1.69-3.8-3.42-.6-1.38-.71-3.22,1-3.72,2.36-.69,4.07,2.44,4.49,4.34.33,1.49.65,3.68.75,4.39l.19-.34a35.64,35.64,0,0,0,2-4.43l-.17,0a.47.47,0,0,0,.19,0l.06-.17A12,12,0,0,0,592.83,425.87Z" style="fill:#263238;opacity:0.5"></path></g><g id="freepik--plants-2--inject-54"><path d="M682.11,185.83c-2.31-6.54-4.86-12.53-2.81-19.52,1.63-5.53,5.85-11.23,12.26-8.44,8.67,3.78,6,17.29,2.58,23.94-2.12,4.09-5.31,9.41-7.3,12.66,2.95-2.86,5.29-5.33,6.79-7l0,0,0,0c.73-.8,1.27-1.41,1.58-1.77,1.59-2.72,3.1-7.66,3.58-8.94,2.42-6.49,4.32-12.72,10.39-16.76,4.81-3.19,11.7-4.84,14.82,1.42,4.21,8.47-6.5,17.12-13.42,20-4.87,2-11.9,4.4-15.18,5.48-1.47,1.65-4.78,5.26-9.27,9.51,3.1-.39,8.16-2.42,9.5-2.87,6.58-2.18,12.62-4.62,19.57-2.42,5.5,1.73,11.11,6.06,8.2,12.41-3.95,8.6-17.41,5.7-24,2.12-4.78-2.6-11.25-6.73-14-8.53a138,138,0,0,1-14.72,12.1l-.95.64c3.09.41,8.59-.33,10-.43,6.91-.5,13.36-1.37,19.56,2.46,4.9,3,9.28,8.62,4.88,14.06-5.94,7.36-18.26,1.23-23.77-3.86-4-3.68-9.23-9.28-11.49-11.71-2.69,1.71-6,3.48-9.64,5.47s-7.83,4.23-12.12,6.82l0,0c1.48,1.58,10.09.38,11.92.25,6.91-.5,13.36-1.37,19.56,2.47,4.9,3,9.28,8.61,4.89,14.05-6,7.36-18.27,1.23-23.77-3.86-5.13-4.75-12.4-12.68-12.6-12.91L647,223a1.41,1.41,0,0,0,.07-.31,124.94,124.94,0,0,0-14.35,10c2.17,1.57,9.27,2.49,10.89,2.81,6.8,1.33,13.26,2.19,18.23,7.51,3.94,4.22,6.7,10.75,1,14.85-7.67,5.54-18-3.6-21.93-10-3.14-5-7.17-12.7-8.4-15.06a89.65,89.65,0,0,0-14.34,14.72c2.5,1.43,9,2.28,10.54,2.58,6.8,1.33,13.26,2.18,18.23,7.51,3.94,4.22,6.7,10.75,1,14.84-7.67,5.55-18-3.6-21.93-9.95-3-4.75-6.71-11.83-8.16-14.6a83.9,83.9,0,0,0-13,24.95l-.89-.29a85.26,85.26,0,0,1,13-25.11c-.83-2.26-7.55-6.38-9-7.38-5.66-4-11.2-7.42-13.56-14.31-1.87-5.46-1.71-12.55,5.13-14,9.27-1.92,14.91,10.63,15.94,18.06.85,6.17,1.41,15.36,1.53,17.52l.3-.39-.14-.26a2.65,2.65,0,0,0,.17.22A90.09,90.09,0,0,1,632,232.13c-.77-2.51-6.14-7.47-7.29-8.68-4.78-5-9.55-9.45-10.53-16.67-.77-5.71.75-12.64,7.74-12.71,9.46-.08,12.57,13.32,12.13,20.81-.34,5.87-1.46,14.35-1.83,17.07A123.82,123.82,0,0,1,647,221.69c-.6-2.88-4-8.25-4.75-9.6-3.33-6.07-6.82-11.58-5.91-18.81.71-5.72,3.95-12,10.73-10.3,9.17,2.33,8.74,16.08,6.41,23.21-1.64,5-4.41,11.84-5.73,15.05,3.91-2.33,7.66-4.36,11.07-6.2,3.61-1.95,6.81-3.68,9.44-5.35l-.47-.51a1.67,1.67,0,0,0,.66.39l.14-.08c-.29-2.61-4.66-8.48-5.57-9.88-3.77-5.82-7.64-11.05-7.27-18.33.3-5.76,3.08-12.28,10-11.06,9.31,1.66,9.89,15.41,8.08,22.69-1.42,5.7-4.07,13.79-4.95,16.42.45-.29.87-.58,1.28-.86a137.93,137.93,0,0,0,14.46-11.86l-.57-.37a1.8,1.8,0,0,0,.73.22l.49-.46C685.08,193,682.62,187.27,682.11,185.83Z" style="fill:#263238"></path><path d="M682.11,185.83c-2.31-6.54-4.86-12.53-2.81-19.52,1.63-5.53,5.85-11.23,12.26-8.44,8.67,3.78,6,17.29,2.58,23.94-2.12,4.09-5.31,9.41-7.3,12.66,2.95-2.86,5.29-5.33,6.79-7l0,0,0,0c.73-.8,1.27-1.41,1.58-1.77,1.59-2.72,3.1-7.66,3.58-8.94,2.42-6.49,4.32-12.72,10.39-16.76,4.81-3.19,11.7-4.84,14.82,1.42,4.21,8.47-6.5,17.12-13.42,20-4.87,2-11.9,4.4-15.18,5.48-1.47,1.65-4.78,5.26-9.27,9.51,3.1-.39,8.16-2.42,9.5-2.87,6.58-2.18,12.62-4.62,19.57-2.42,5.5,1.73,11.11,6.06,8.2,12.41-3.95,8.6-17.41,5.7-24,2.12-4.78-2.6-11.25-6.73-14-8.53a138,138,0,0,1-14.72,12.1l-.95.64c3.09.41,8.59-.33,10-.43,6.91-.5,13.36-1.37,19.56,2.46,4.9,3,9.28,8.62,4.88,14.06-5.94,7.36-18.26,1.23-23.77-3.86-4-3.68-9.23-9.28-11.49-11.71-2.69,1.71-6,3.48-9.64,5.47s-7.83,4.23-12.12,6.82l0,0c1.48,1.58,10.09.38,11.92.25,6.91-.5,13.36-1.37,19.56,2.47,4.9,3,9.28,8.61,4.89,14.05-6,7.36-18.27,1.23-23.77-3.86-5.13-4.75-12.4-12.68-12.6-12.91L647,223a1.41,1.41,0,0,0,.07-.31,124.94,124.94,0,0,0-14.35,10c2.17,1.57,9.27,2.49,10.89,2.81,6.8,1.33,13.26,2.19,18.23,7.51,3.94,4.22,6.7,10.75,1,14.85-7.67,5.54-18-3.6-21.93-10-3.14-5-7.17-12.7-8.4-15.06a89.65,89.65,0,0,0-14.34,14.72c2.5,1.43,9,2.28,10.54,2.58,6.8,1.33,13.26,2.18,18.23,7.51,3.94,4.22,6.7,10.75,1,14.84-7.67,5.55-18-3.6-21.93-9.95-3-4.75-6.71-11.83-8.16-14.6a83.9,83.9,0,0,0-13,24.95l-.89-.29a85.26,85.26,0,0,1,13-25.11c-.83-2.26-7.55-6.38-9-7.38-5.66-4-11.2-7.42-13.56-14.31-1.87-5.46-1.71-12.55,5.13-14,9.27-1.92,14.91,10.63,15.94,18.06.85,6.17,1.41,15.36,1.53,17.52l.3-.39-.14-.26a2.65,2.65,0,0,0,.17.22A90.09,90.09,0,0,1,632,232.13c-.77-2.51-6.14-7.47-7.29-8.68-4.78-5-9.55-9.45-10.53-16.67-.77-5.71.75-12.64,7.74-12.71,9.46-.08,12.57,13.32,12.13,20.81-.34,5.87-1.46,14.35-1.83,17.07A123.82,123.82,0,0,1,647,221.69c-.6-2.88-4-8.25-4.75-9.6-3.33-6.07-6.82-11.58-5.91-18.81.71-5.72,3.95-12,10.73-10.3,9.17,2.33,8.74,16.08,6.41,23.21-1.64,5-4.41,11.84-5.73,15.05,3.91-2.33,7.66-4.36,11.07-6.2,3.61-1.95,6.81-3.68,9.44-5.35l-.47-.51a1.67,1.67,0,0,0,.66.39l.14-.08c-.29-2.61-4.66-8.48-5.57-9.88-3.77-5.82-7.64-11.05-7.27-18.33.3-5.76,3.08-12.28,10-11.06,9.31,1.66,9.89,15.41,8.08,22.69-1.42,5.7-4.07,13.79-4.95,16.42.45-.29.87-.58,1.28-.86a137.93,137.93,0,0,0,14.46-11.86l-.57-.37a1.8,1.8,0,0,0,.73.22l.49-.46C685.08,193,682.62,187.27,682.11,185.83Z" style="fill:#263238;opacity:0.5"></path><path d="M615,72.57c-6.3-2.89-12.38-5.23-16-11.57-2.83-5-4-12,2.48-14.67,8.75-3.6,16.61,7.7,19,14.81,1.46,4.36,3.06,10.36,4,14,0-4.1-.15-7.5-.28-9.73l0,0s0,0,0,0c-.07-1.09-.13-1.9-.17-2.37-.85-3-3.34-7.56-3.93-8.8-3-6.26-6.12-12-4.79-19.12,1-5.67,4.67-11.77,11.33-9.65,9,2.88,7.77,16.58,5,23.56-1.94,4.9-5.13,11.6-6.64,14.71.16,2.2.45,7.09.38,13.28,1.87-2.5,3.94-7.55,4.55-8.82C633,62,635.44,56,641.85,52.49c5.08-2.74,12.1-3.75,14.62,2.76,3.42,8.82-8,16.46-15.18,18.69-5.19,1.62-12.66,3.4-15.89,4.14a138.23,138.23,0,0,1-1.57,19c-.06.36-.13.74-.2,1.12,2.45-1.93,5.75-6.39,6.66-7.49,4.46-5.31,8.33-10.55,15.39-12.32,5.6-1.41,12.65-.67,13.49,6.27,1.15,9.39-11.83,14-19.31,14.38-5.42.29-13.09.17-16.41.1-.65,3.12-1.65,6.7-2.79,10.73s-2.41,8.57-3.54,13.45l0,.05c2.17,0,7.3-7,8.48-8.39,4.45-5.31,8.32-10.55,15.39-12.32,5.59-1.41,12.65-.67,13.49,6.27,1.15,9.39-11.83,14-19.32,14.38-7,.38-17.73.07-18,.06l.14.31a1.41,1.41,0,0,0-.18-.27,124.57,124.57,0,0,0-2.79,17.28c2.64-.47,8.24-4.92,9.6-5.87,5.69-3.95,10.79-8,18.08-7.85,5.77.11,12.38,2.67,11.37,9.59-1.36,9.36-15.08,10.38-22.41,8.81-5.81-1.25-14.11-3.69-16.66-4.45a89.33,89.33,0,0,0,.58,20.54c2.77-.8,7.9-4.87,9.19-5.77,5.69-4,10.8-8,18.09-7.86,5.76.11,12.37,2.68,11.37,9.6-1.36,9.36-15.08,10.38-22.42,8.8-5.47-1.17-13.16-3.4-16.16-4.29a84.09,84.09,0,0,0,8.87,26.69l-.83.43a85.17,85.17,0,0,1-9-26.83c-2.2-1-9.83,1-11.54,1.3-6.81,1.28-13.13,2.88-19.72-.23-5.22-2.46-10.2-7.5-6.45-13.4,5.07-8,18-3.31,24,1.13,5,3.68,12,9.68,13.65,11.09,0-.16,0-.32-.07-.48l-.28-.08a2,2,0,0,0,.27,0,90.73,90.73,0,0,1-.58-20.83c-2.34-1.19-9.63-.79-11.3-.8-6.93-.07-13.43.28-19.3-4.05-4.64-3.42-8.55-9.34-3.73-14.4,6.52-6.86,18.31.25,23.38,5.77,4,4.34,9.28,11,11,13.2a126.93,126.93,0,0,1,2.92-17.75c-2.48-1.57-8.7-2.86-10.19-3.27-6.68-1.83-13.06-3.16-17.62-8.85-3.61-4.49-5.88-11.21.07-14.88,8.06-5,17.64,4.93,21.13,11.56,2.45,4.66,5.43,11.41,6.81,14.59,1.06-4.42,2.21-8.53,3.26-12.26,1.12-4,2.1-7.45,2.74-10.5l-.7,0a1.75,1.75,0,0,0,.74-.2l0-.16c-2.07-1.61-9.33-2.56-11-2.88-6.8-1.34-13.25-2.21-18.22-7.54-3.93-4.22-6.68-10.76-1-14.85,7.68-5.53,18,3.63,21.92,10,3.1,5,7.06,12.53,8.34,15,.1-.52.19-1,.27-1.52a137.27,137.27,0,0,0,1.56-18.63l-.66.15a1.85,1.85,0,0,0,.66-.37c0-.23,0-.46,0-.68C622.25,75.46,616.39,73.21,615,72.57Z" style="fill:#263238"></path><path d="M615,72.57c-6.3-2.89-12.38-5.23-16-11.57-2.83-5-4-12,2.48-14.67,8.75-3.6,16.61,7.7,19,14.81,1.46,4.36,3.06,10.36,4,14,0-4.1-.15-7.5-.28-9.73l0,0s0,0,0,0c-.07-1.09-.13-1.9-.17-2.37-.85-3-3.34-7.56-3.93-8.8-3-6.26-6.12-12-4.79-19.12,1-5.67,4.67-11.77,11.33-9.65,9,2.88,7.77,16.58,5,23.56-1.94,4.9-5.13,11.6-6.64,14.71.16,2.2.45,7.09.38,13.28,1.87-2.5,3.94-7.55,4.55-8.82C633,62,635.44,56,641.85,52.49c5.08-2.74,12.1-3.75,14.62,2.76,3.42,8.82-8,16.46-15.18,18.69-5.19,1.62-12.66,3.4-15.89,4.14a138.23,138.23,0,0,1-1.57,19c-.06.36-.13.74-.2,1.12,2.45-1.93,5.75-6.39,6.66-7.49,4.46-5.31,8.33-10.55,15.39-12.32,5.6-1.41,12.65-.67,13.49,6.27,1.15,9.39-11.83,14-19.31,14.38-5.42.29-13.09.17-16.41.1-.65,3.12-1.65,6.7-2.79,10.73s-2.41,8.57-3.54,13.45l0,.05c2.17,0,7.3-7,8.48-8.39,4.45-5.31,8.32-10.55,15.39-12.32,5.59-1.41,12.65-.67,13.49,6.27,1.15,9.39-11.83,14-19.32,14.38-7,.38-17.73.07-18,.06l.14.31a1.41,1.41,0,0,0-.18-.27,124.57,124.57,0,0,0-2.79,17.28c2.64-.47,8.24-4.92,9.6-5.87,5.69-3.95,10.79-8,18.08-7.85,5.77.11,12.38,2.67,11.37,9.59-1.36,9.36-15.08,10.38-22.41,8.81-5.81-1.25-14.11-3.69-16.66-4.45a89.33,89.33,0,0,0,.58,20.54c2.77-.8,7.9-4.87,9.19-5.77,5.69-4,10.8-8,18.09-7.86,5.76.11,12.37,2.68,11.37,9.6-1.36,9.36-15.08,10.38-22.42,8.8-5.47-1.17-13.16-3.4-16.16-4.29a84.09,84.09,0,0,0,8.87,26.69l-.83.43a85.17,85.17,0,0,1-9-26.83c-2.2-1-9.83,1-11.54,1.3-6.81,1.28-13.13,2.88-19.72-.23-5.22-2.46-10.2-7.5-6.45-13.4,5.07-8,18-3.31,24,1.13,5,3.68,12,9.68,13.65,11.09,0-.16,0-.32-.07-.48l-.28-.08a2,2,0,0,0,.27,0,90.73,90.73,0,0,1-.58-20.83c-2.34-1.19-9.63-.79-11.3-.8-6.93-.07-13.43.28-19.3-4.05-4.64-3.42-8.55-9.34-3.73-14.4,6.52-6.86,18.31.25,23.38,5.77,4,4.34,9.28,11,11,13.2a126.93,126.93,0,0,1,2.92-17.75c-2.48-1.57-8.7-2.86-10.19-3.27-6.68-1.83-13.06-3.16-17.62-8.85-3.61-4.49-5.88-11.21.07-14.88,8.06-5,17.64,4.93,21.13,11.56,2.45,4.66,5.43,11.41,6.81,14.59,1.06-4.42,2.21-8.53,3.26-12.26,1.12-4,2.1-7.45,2.74-10.5l-.7,0a1.75,1.75,0,0,0,.74-.2l0-.16c-2.07-1.61-9.33-2.56-11-2.88-6.8-1.34-13.25-2.21-18.22-7.54-3.93-4.22-6.68-10.76-1-14.85,7.68-5.53,18,3.63,21.92,10,3.1,5,7.06,12.53,8.34,15,.1-.52.19-1,.27-1.52a137.27,137.27,0,0,0,1.56-18.63l-.66.15a1.85,1.85,0,0,0,.66-.37c0-.23,0-.46,0-.68C622.25,75.46,616.39,73.21,615,72.57Z" style="fill:#263238;opacity:0.5"></path></g><g id="freepik--plant-1--inject-54"><path d="M92.24,340.2c-6,1-11.57,2.36-17.32-.46-4.55-2.23-8.86-6.72-5.5-11.86,4.56-6.95,15.87-2.67,21.12,1.31,3.23,2.44,7.36,6,9.88,8.2-2-3-3.83-5.37-5-6.92v0s0,0,0-.05c-.59-.75-1-1.31-1.3-1.63a53.07,53.07,0,0,0-7.22-4.42c-5.26-3.07-10.37-5.63-13-11.49-2-4.63-2.46-10.85,3.42-12.62,8-2.39,13.87,8.16,15.34,14.58,1,4.53,2,11,2.5,14,1.21,1.52,3.84,4.92,6.86,9.44.12-2.74-.89-7.42-1.08-8.65-.92-6-2.13-11.61.8-17.31,2.32-4.5,6.9-8.73,12-5.26,6.86,4.7,2.35,15.92-1.72,21.09-3,3.75-7.49,8.75-9.46,10.89a122.46,122.46,0,0,1,8.29,14.55c.14.29.28.6.41.91.82-2.61,1-7.49,1.11-8.74.59-6.05.8-11.77,5-16.57,3.35-3.8,8.83-6.76,12.89-2.15,5.5,6.24-1.63,16-6.86,20-3.78,2.9-9.4,6.63-11.84,8.23,1.08,2.58,2.13,5.67,3.31,9.16s2.5,7.4,4.11,11.5l0,0c1.58-1,1.82-8.68,2-10.29.59-6.06.79-11.78,5-16.58,3.36-3.8,8.84-6.76,12.9-2.15,5.49,6.24-1.64,16-6.86,20-4.88,3.75-12.82,8.86-13,9l.25.16A1,1,0,0,0,119,376a108.08,108.08,0,0,0,6.56,13.91c1.68-1.65,3.53-7.66,4-9,2.16-5.69,3.86-11.15,9.21-14.67,4.23-2.79,10.3-4.21,13,1.3,3.66,7.47-5.78,15-11.88,17.52-4.83,2-12,4.34-14.28,5.05a79.06,79.06,0,0,0,10.62,14.6c1.61-2,3.31-7.46,3.8-8.75,2.16-5.69,3.85-11.16,9.2-14.68,4.24-2.78,10.3-4.2,13,1.31,3.67,7.46-5.78,15-11.87,17.52-4.55,1.86-11.24,4.06-13.85,4.91A73.75,73.75,0,0,0,156.26,420l-.38.72a74.47,74.47,0,0,1-19.81-15c-2.09.39-6.65,5.6-7.73,6.68-4.3,4.31-8.08,8.6-14.4,9.62-5,.81-11.12-.37-11.34-6.51-.29-8.31,11.41-11.34,18-11.12,5.47.17,13.52,1.05,15.4,1.26l-.29-.31-.24.07a1.43,1.43,0,0,0,.21-.11,79,79,0,0,1-10.76-14.8c-2.29.29-7.38,4.21-8.6,5-5,3.4-9.59,6.88-16,6.65-5.07-.17-10.84-2.52-9.86-8.58,1.32-8.21,13.39-8.91,19.81-7.43,5,1.17,12.21,3.39,14.51,4.12a111.5,111.5,0,0,1-6.69-14.31c-2.59.09-7.74,2.24-9,2.68-5.75,2-11,4.2-17.16,2.34-4.85-1.46-9.84-5.21-7.34-10.82,3.38-7.59,15.23-5.19,21-2.11,4.09,2.16,9.6,5.57,12.19,7.19-1.44-3.73-2.64-7.28-3.73-10.51-1.15-3.41-2.18-6.44-3.23-9l-.52.33a1.51,1.51,0,0,0,.44-.51l0-.13c-2.3-.14-8,2.77-9.38,3.35-5.6,2.41-10.7,5-16.95,3.59-5-1.11-10.19-4.48-8.11-10.26,2.82-7.82,14.81-6.29,20.85-3.64,4.73,2.07,11.35,5.57,13.49,6.71-.19-.42-.37-.83-.56-1.23a120.51,120.51,0,0,0-8.13-14.28l-.4.44a1.6,1.6,0,0,0,.3-.6l-.33-.49C98.93,338.7,93.56,340,92.24,340.2Z" style="fill:#263238"></path><path d="M92.24,340.2c-6,1-11.57,2.36-17.32-.46-4.55-2.23-8.86-6.72-5.5-11.86,4.56-6.95,15.87-2.67,21.12,1.31,3.23,2.44,7.36,6,9.88,8.2-2-3-3.83-5.37-5-6.92v0s0,0,0-.05c-.59-.75-1-1.31-1.3-1.63a53.07,53.07,0,0,0-7.22-4.42c-5.26-3.07-10.37-5.63-13-11.49-2-4.63-2.46-10.85,3.42-12.62,8-2.39,13.87,8.16,15.34,14.58,1,4.53,2,11,2.5,14,1.21,1.52,3.84,4.92,6.86,9.44.12-2.74-.89-7.42-1.08-8.65-.92-6-2.13-11.61.8-17.31,2.32-4.5,6.9-8.73,12-5.26,6.86,4.7,2.35,15.92-1.72,21.09-3,3.75-7.49,8.75-9.46,10.89a122.46,122.46,0,0,1,8.29,14.55c.14.29.28.6.41.91.82-2.61,1-7.49,1.11-8.74.59-6.05.8-11.77,5-16.57,3.35-3.8,8.83-6.76,12.89-2.15,5.5,6.24-1.63,16-6.86,20-3.78,2.9-9.4,6.63-11.84,8.23,1.08,2.58,2.13,5.67,3.31,9.16s2.5,7.4,4.11,11.5l0,0c1.58-1,1.82-8.68,2-10.29.59-6.06.79-11.78,5-16.58,3.36-3.8,8.84-6.76,12.9-2.15,5.49,6.24-1.64,16-6.86,20-4.88,3.75-12.82,8.86-13,9l.25.16A1,1,0,0,0,119,376a108.08,108.08,0,0,0,6.56,13.91c1.68-1.65,3.53-7.66,4-9,2.16-5.69,3.86-11.15,9.21-14.67,4.23-2.79,10.3-4.21,13,1.3,3.66,7.47-5.78,15-11.88,17.52-4.83,2-12,4.34-14.28,5.05a79.06,79.06,0,0,0,10.62,14.6c1.61-2,3.31-7.46,3.8-8.75,2.16-5.69,3.85-11.16,9.2-14.68,4.24-2.78,10.3-4.2,13,1.31,3.67,7.46-5.78,15-11.87,17.52-4.55,1.86-11.24,4.06-13.85,4.91A73.75,73.75,0,0,0,156.26,420l-.38.72a74.47,74.47,0,0,1-19.81-15c-2.09.39-6.65,5.6-7.73,6.68-4.3,4.31-8.08,8.6-14.4,9.62-5,.81-11.12-.37-11.34-6.51-.29-8.31,11.41-11.34,18-11.12,5.47.17,13.52,1.05,15.4,1.26l-.29-.31-.24.07a1.43,1.43,0,0,0,.21-.11,79,79,0,0,1-10.76-14.8c-2.29.29-7.38,4.21-8.6,5-5,3.4-9.59,6.88-16,6.65-5.07-.17-10.84-2.52-9.86-8.58,1.32-8.21,13.39-8.91,19.81-7.43,5,1.17,12.21,3.39,14.51,4.12a111.5,111.5,0,0,1-6.69-14.31c-2.59.09-7.74,2.24-9,2.68-5.75,2-11,4.2-17.16,2.34-4.85-1.46-9.84-5.21-7.34-10.82,3.38-7.59,15.23-5.19,21-2.11,4.09,2.16,9.6,5.57,12.19,7.19-1.44-3.73-2.64-7.28-3.73-10.51-1.15-3.41-2.18-6.44-3.23-9l-.52.33a1.51,1.51,0,0,0,.44-.51l0-.13c-2.3-.14-8,2.77-9.38,3.35-5.6,2.41-10.7,5-16.95,3.59-5-1.11-10.19-4.48-8.11-10.26,2.82-7.82,14.81-6.29,20.85-3.64,4.73,2.07,11.35,5.57,13.49,6.71-.19-.42-.37-.83-.56-1.23a120.51,120.51,0,0,0-8.13-14.28l-.4.44a1.6,1.6,0,0,0,.3-.6l-.33-.49C98.93,338.7,93.56,340,92.24,340.2Z" style="fill:#263238;opacity:0.5"></path></g><g id="freepik--graduation-cap--inject-54"><path d="M54,350.47a1.38,1.38,0,0,1-1.38-1.38V255.38a1.38,1.38,0,1,1,2.76,0v93.71A1.37,1.37,0,0,1,54,350.47Z" style="fill:#92E3A9;stroke:#263238;stroke-linecap:round;stroke-linejoin:round"></path><path d="M53.32,346.86s-6.75,3.49-8.49,13.26-5.58,27.57-5.58,27.57H66.46s-1.74-19.89-3.84-28.26S54.71,345.67,53.32,346.86Z" style="fill:#92E3A9;stroke:#263238;stroke-linecap:round;stroke-linejoin:round"></path><path d="M58.19,347.91A4.19,4.19,0,1,1,54,343.3,4.4,4.4,0,0,1,58.19,347.91Z" style="fill:#92E3A9;stroke:#263238;stroke-linecap:round;stroke-linejoin:round"></path><line x1="44.13" y1="387.34" x2="46.92" y2="374.08" style="fill:#92E3A9;stroke:#263238;stroke-linecap:round;stroke-linejoin:round"></line><line x1="51.11" y1="368.85" x2="48.67" y2="383.15" style="fill:#92E3A9;stroke:#263238;stroke-linecap:round;stroke-linejoin:round"></line><line x1="54.6" y1="386.99" x2="55.3" y2="380.71" style="fill:#92E3A9;stroke:#263238;stroke-linecap:round;stroke-linejoin:round"></line><line x1="61.23" y1="386.64" x2="59.48" y2="373.03" style="fill:#92E3A9;stroke:#263238;stroke-linecap:round;stroke-linejoin:round"></line><polygon points="122.11 147.25 49.37 258 176.5 203.61 262.34 126.28 122.11 147.25" style="fill:#263238;stroke:#263238;stroke-linecap:round;stroke-linejoin:round"></polygon><path d="M210,164.64c-6.32-13.28-35.3-12.7-64.73,1.3s-48.16,36.12-41.84,49.4l19.75,39,106.56-50.7Z" style="fill:#fff;stroke:#263238;stroke-linecap:round;stroke-linejoin:round"></path><ellipse cx="176.48" cy="229.04" rx="59.01" ry="26.63" transform="translate(-81.29 98.04) rotate(-25.45)" style="fill:#263238;stroke:#263238;stroke-linecap:round;stroke-linejoin:round"></ellipse></g><g id="freepik--Device--inject-54"><path d="M531.31,447.23H398.65l4.47-5.53A48.55,48.55,0,0,0,414,411.2V377.28H516V411.2a48.43,48.43,0,0,0,10.84,30.5Z" style="fill:#fff;stroke:#263238;stroke-linecap:round;stroke-linejoin:round"></path><rect x="413.96" y="377.28" width="102.04" height="26.46" style="fill:#263238;stroke:#263238;stroke-linecap:round;stroke-linejoin:round"></rect><rect x="259.9" y="86.8" width="410.17" height="301.17" rx="8.48" style="fill:#263238;stroke:#263238;stroke-linecap:round;stroke-linejoin:round"></rect><path d="M259.9,341.16H670.07a0,0,0,0,1,0,0v38.33a8.48,8.48,0,0,1-8.48,8.48H268.38a8.48,8.48,0,0,1-8.48-8.48V341.16A0,0,0,0,1,259.9,341.16Z" style="fill:#fff;stroke:#263238;stroke-linecap:round;stroke-linejoin:round"></path><rect x="280.53" y="105.54" width="368.9" height="212.78" style="fill:#fff;stroke:#263238;stroke-linecap:round;stroke-linejoin:round"></rect><rect x="502.08" y="131.87" width="138.01" height="167.59" style="fill:none;stroke:#263238;stroke-linecap:round;stroke-linejoin:round"></rect><polygon points="640.1 169.89 628.13 153.7 573.91 247.35 549.97 230.45 502.08 299.45 640.1 299.45 640.1 169.89" style="fill:#fff;stroke:#263238;stroke-linecap:round;stroke-linejoin:round"></polygon><circle cx="536.94" cy="169.54" r="20.07" transform="translate(37.38 429.33) rotate(-45)" style="fill:#fff;stroke:#263238;stroke-linecap:round;stroke-linejoin:round"></circle><path d="M299.9,168.64l.5-28.65h6.79l3.14,16.66,3.4-16.66h6.54l.5,28.65h-4.49l-.53-19.07-3.33,19.07h-4l-3.53-19.21-.43,19.21Z" style="fill:#263238"></path><path d="M328.23,168.64V156.93L322.79,140h6l2.73,9,2.44-9h5.73l-5.34,16.94v11.71Z" style="fill:#263238"></path><path d="M353.42,168.64V144.69H349.1V140h15v4.7h-4.28v23.95Z" style="fill:#263238"></path><path d="M366.68,168.64V140H373v11.6h4.43V140h6.36v28.65h-6.36V156.12H373v12.52Z" style="fill:#263238"></path><path d="M388.15,168.64V140H401v4.31h-6.54v7.11h5v4.39h-5v8.56h6.61v4.28Z" style="fill:#263238"></path><path d="M411.57,169.06a9.6,9.6,0,0,1-4.49-.95,6.12,6.12,0,0,1-2.73-3,13.62,13.62,0,0,1-1-5.18l5.41-.81a12.64,12.64,0,0,0,.34,3,3.32,3.32,0,0,0,.84,1.63,1.92,1.92,0,0,0,1.33.49,1.26,1.26,0,0,0,1.29-.67,3.43,3.43,0,0,0,.3-1.41,5.07,5.07,0,0,0-.85-3,12.63,12.63,0,0,0-2.3-2.46l-2.47-2.16a13.56,13.56,0,0,1-2.74-3.13,7.86,7.86,0,0,1-1.12-4.33,7.07,7.07,0,0,1,2.16-5.57,8.48,8.48,0,0,1,5.87-1.93,7.56,7.56,0,0,1,3.7.78,5.39,5.39,0,0,1,2.12,2,8.35,8.35,0,0,1,1,2.65,16.05,16.05,0,0,1,.3,2.67l-5.44.68c0-.85-.08-1.59-.16-2.22a3.17,3.17,0,0,0-.52-1.45,1.41,1.41,0,0,0-1.2-.51,1.37,1.37,0,0,0-1.29.74,3.1,3.1,0,0,0-.41,1.49,4.24,4.24,0,0,0,.76,2.6,15.28,15.28,0,0,0,2,2.1l2.37,2.09a16.19,16.19,0,0,1,3.17,3.61,9.08,9.08,0,0,1,1.29,5,7.42,7.42,0,0,1-.92,3.66,6.77,6.77,0,0,1-2.6,2.6A8,8,0,0,1,411.57,169.06Z" style="fill:#263238"></path><path d="M421.62,168.64V140H428v28.65Z" style="fill:#263238"></path><path d="M439.83,169.06a9.6,9.6,0,0,1-4.49-.95,6.1,6.1,0,0,1-2.72-3,13.42,13.42,0,0,1-1-5.18l5.41-.81a13.2,13.2,0,0,0,.34,3,3.24,3.24,0,0,0,.85,1.63,1.88,1.88,0,0,0,1.32.49,1.26,1.26,0,0,0,1.29-.67,3.45,3.45,0,0,0,.31-1.41,5.14,5.14,0,0,0-.85-3,13.28,13.28,0,0,0-2.3-2.46l-2.48-2.16a13.8,13.8,0,0,1-2.74-3.13,7.94,7.94,0,0,1-1.11-4.33,7.06,7.06,0,0,1,2.15-5.57,8.49,8.49,0,0,1,5.88-1.93,7.55,7.55,0,0,1,3.69.78,5.39,5.39,0,0,1,2.12,2,8.11,8.11,0,0,1,1,2.65,17.24,17.24,0,0,1,.31,2.67l-5.45.68c0-.85-.08-1.59-.16-2.22a3.17,3.17,0,0,0-.51-1.45,1.42,1.42,0,0,0-1.21-.51,1.37,1.37,0,0,0-1.29.74,3.1,3.1,0,0,0-.41,1.49,4.18,4.18,0,0,0,.77,2.6,14.58,14.58,0,0,0,2,2.1l2.37,2.09a16.19,16.19,0,0,1,3.17,3.61,9.08,9.08,0,0,1,1.29,5,7.42,7.42,0,0,1-.92,3.66,6.77,6.77,0,0,1-2.6,2.6A8,8,0,0,1,439.83,169.06Z" style="fill:#263238"></path><line x1="300.7" y1="188.9" x2="487.3" y2="188.9" style="fill:none;stroke:#263238;stroke-miterlimit:10"></line><line x1="300.7" y1="204.4" x2="487.3" y2="204.4" style="fill:none;stroke:#263238;stroke-miterlimit:10"></line><line x1="300.7" y1="219.89" x2="487.3" y2="219.89" style="fill:none;stroke:#263238;stroke-miterlimit:10"></line><rect x="280.53" y="105.54" width="368.9" height="21.16" style="fill:#fff;stroke:#263238;stroke-linecap:round;stroke-linejoin:round"></rect><rect x="280.53" y="305.04" width="368.9" height="13.28" style="fill:#fff;stroke:#263238;stroke-linecap:round;stroke-linejoin:round"></rect><rect x="398.65" y="447.22" width="132.7" height="6.06" style="fill:#263238;stroke:#263238;stroke-linecap:round;stroke-linejoin:round"></rect></g><g id="freepik--Floor--inject-54"><line x1="680.34" y1="453.28" x2="44.19" y2="453.28" style="fill:none;stroke:#263238;stroke-linecap:round;stroke-linejoin:round"></line></g><g id="freepik--Character--inject-54"><path d="M325.75,441.35V421a11.93,11.93,0,0,1,11.93-11.93H184.08A11.93,11.93,0,0,0,172.15,421v20.36a11.93,11.93,0,0,0,11.93,11.93h153.6A11.93,11.93,0,0,1,325.75,441.35Z" style="fill:#8c8c8c;stroke:#263238;stroke-linecap:round;stroke-linejoin:round"></path><path d="M437.84,410.68l1.34-.88a.4.4,0,0,0-.22-.74H337.68A11.93,11.93,0,0,0,325.75,421v20.36a11.93,11.93,0,0,0,11.93,11.93H439a.4.4,0,0,0,.22-.73l-1.34-.88Z" style="fill:#949494;stroke:#263238;stroke-linecap:round;stroke-linejoin:round"></path><path d="M344.16,410.68h93.68a0,0,0,0,1,0,0v41a0,0,0,0,1,0,0H344.16a16.2,16.2,0,0,1-16.2-16.2v-8.59A16.2,16.2,0,0,1,344.16,410.68Z" style="fill:#fff;stroke:#263238;stroke-linecap:round;stroke-linejoin:round"></path><line x1="331.4" y1="418.22" x2="370.92" y2="418.22" style="fill:none;stroke:#263238;stroke-linecap:round;stroke-linejoin:round"></line><line x1="360.54" y1="421.98" x2="397.41" y2="421.98" style="fill:none;stroke:#263238;stroke-linecap:round;stroke-linejoin:round"></line><line x1="382.84" y1="426.61" x2="347.52" y2="426.61" style="fill:none;stroke:#263238;stroke-linecap:round;stroke-linejoin:round"></line><line x1="332.28" y1="440.74" x2="355.46" y2="440.74" style="fill:none;stroke:#263238;stroke-linecap:round;stroke-linejoin:round"></line><line x1="349.5" y1="444.05" x2="384.16" y2="444.05" style="fill:none;stroke:#263238;stroke-linecap:round;stroke-linejoin:round"></line><line x1="345.31" y1="447.14" x2="354.58" y2="447.14" style="fill:none;stroke:#263238;stroke-linecap:round;stroke-linejoin:round"></line><line x1="371.36" y1="437.65" x2="430.3" y2="437.65" style="fill:none;stroke:#263238;stroke-linecap:round;stroke-linejoin:round"></line><line x1="437.15" y1="428.16" x2="425.01" y2="428.16" style="fill:none;stroke:#263238;stroke-linecap:round;stroke-linejoin:round"></line><line x1="435.16" y1="425.07" x2="422.8" y2="425.07" style="fill:none;stroke:#263238;stroke-linecap:round;stroke-linejoin:round"></line><line x1="435.16" y1="444.93" x2="404.25" y2="444.93" style="fill:none;stroke:#263238;stroke-linecap:round;stroke-linejoin:round"></line><path d="M335.61,396.92V376.56a11.93,11.93,0,0,0-11.93-11.93H436.16a11.93,11.93,0,0,1,11.92,11.93v20.36a11.93,11.93,0,0,1-11.92,11.93H323.68A11.93,11.93,0,0,0,335.61,396.92Z" style="fill:#fff;stroke:#263238;stroke-linecap:round;stroke-linejoin:round"></path><path d="M223.52,366.25l-1.34-.88a.4.4,0,0,1,.22-.74H323.68a11.93,11.93,0,0,1,11.93,11.93v20.36a11.93,11.93,0,0,1-11.93,11.93H222.4a.4.4,0,0,1-.22-.73l1.34-.88Z" style="fill:#949494;stroke:#263238;stroke-linecap:round;stroke-linejoin:round"></path><path d="M240.49,366.25h92.9a0,0,0,0,1,0,0v41a0,0,0,0,1,0,0h-92.9a17,17,0,0,1-17-17v-7A17,17,0,0,1,240.49,366.25Z" transform="translate(556.92 773.48) rotate(180)" style="fill:#fff;stroke:#263238;stroke-linecap:round;stroke-linejoin:round"></path><line x1="329.96" y1="373.79" x2="290.44" y2="373.79" style="fill:none;stroke:#263238;stroke-linecap:round;stroke-linejoin:round"></line><line x1="300.82" y1="377.54" x2="263.95" y2="377.54" style="fill:none;stroke:#263238;stroke-linecap:round;stroke-linejoin:round"></line><line x1="278.52" y1="382.18" x2="313.84" y2="382.18" style="fill:none;stroke:#263238;stroke-linecap:round;stroke-linejoin:round"></line><line x1="329.08" y1="396.31" x2="305.9" y2="396.31" style="fill:none;stroke:#263238;stroke-linecap:round;stroke-linejoin:round"></line><line x1="311.86" y1="399.62" x2="277.2" y2="399.62" style="fill:none;stroke:#263238;stroke-linecap:round;stroke-linejoin:round"></line><line x1="316.05" y1="402.71" x2="306.78" y2="402.71" style="fill:none;stroke:#263238;stroke-linecap:round;stroke-linejoin:round"></line><line x1="290" y1="393.22" x2="231.06" y2="393.22" style="fill:none;stroke:#263238;stroke-linecap:round;stroke-linejoin:round"></line><line x1="224.21" y1="383.73" x2="236.35" y2="383.73" style="fill:none;stroke:#263238;stroke-linecap:round;stroke-linejoin:round"></line><line x1="226.2" y1="380.63" x2="238.56" y2="380.63" style="fill:none;stroke:#263238;stroke-linecap:round;stroke-linejoin:round"></line><line x1="226.2" y1="400.5" x2="257.11" y2="400.5" style="fill:none;stroke:#263238;stroke-linecap:round;stroke-linejoin:round"></line><path d="M404.41,231.59s2.94,1.57,3.71-3.5-2.84-5.18-3.46-8.76-.74-6.94-7.3-8.85-8.83,1.54-10.43,3.76-5.5.69-11.85,4.3-6.91,7.71-7.08,9.64-4.62,4.74-7.5,11.1-.9,8-1.29,10.14-6.29-1-9.39,5.88,2.92,13.58,2.92,13.58a8.83,8.83,0,0,0-8.82,8c-1.13,8.21,3.11,12.13,7.46,12.93s9.44-4.45,10.78-.9-.43,7.71,9.66,7.56,11.79-5.73,11.67-8.85.88-8.44,4.26-8.09,8.6-1.29,10.71-2.57,5.2-2.13,6.56-4.34,3.22-3.73,3.31-7.57-4.86-7.93-2.75-9.36,5.49-.84,4.54-6.81-3.17-6.16-4.93-9.42S404.41,231.59,404.41,231.59Z" style="fill:#263238;stroke:#263238;stroke-linecap:round;stroke-linejoin:round"></path><path d="M418.2,342s34,3.37,36.32,6.56,33.32,42.33,35,43.36l1.68,1s13-9,15.11-11.77,1.56,5.12-.21,8.74-5.14,7.62-8.19,11.94c-1.65,2.33-2.34,5.39-6.18,5s-4-4.76-7.41-8.18S464.69,385.2,456,379.8A24.91,24.91,0,0,1,445.29,366l-41-4.13,0-4.33a22.79,22.79,0,0,1,4.9-7.56" style="fill:#fff;stroke:#263238;stroke-linecap:round;stroke-linejoin:round"></path><path d="M506.31,381.16c-2.08,2.81-15.11,11.77-15.11,11.77l-1.68-1c-.48-.3-3.41-3.77-7.39-8.63a16,16,0,0,0-7.91,8.06c4.68,3.08,8.61,5.83,10.1,7.32,3.4,3.42,3.57,7.79,7.41,8.18s4.53-2.66,6.18-5c3-4.32,6.42-8.32,8.19-11.94S508.39,378.35,506.31,381.16Z" style="fill:#fff;stroke:#263238;stroke-linecap:round;stroke-linejoin:round"></path><path d="M506.31,381.16c-2.08,2.81-15.11,11.77-15.11,11.77s-1,.26-.07,2.18L492,397l-5.49,4.57c1.54,2.58,2.4,4.94,5.18,5.22,3.84.4,4.53-2.66,6.18-5,3-4.32,6.42-8.32,8.19-11.94S508.39,378.35,506.31,381.16Z" style="fill:#92E3A9;stroke:#263238;stroke-linecap:round;stroke-linejoin:round"></path><path d="M506.31,381.16a6.15,6.15,0,0,1-.53.61c-.17,1.45-.35,3-.48,4.31-.32,3.44-4.2,9.53-8.82,14.28a55.87,55.87,0,0,1-6.67,5.78,4.08,4.08,0,0,0,1.92.69c3.84.4,4.53-2.66,6.18-5,3-4.32,6.42-8.32,8.19-11.94S508.39,378.35,506.31,381.16Z" style="fill:#fff;stroke:#263238;stroke-linecap:round;stroke-linejoin:round"></path><path d="M387.68,268.22s-11.46-9.74-13.43-14-11-22.19-16-28.79-15-19.78-15.7-20.43-1.21-2-3.09-3.73-7.39-4-9.21-4.4-3,5.77-3.3,8.27,1.51,4.24,3.79,4.61,7.3,1.75,7.3,1.75,13,27.55,16.38,32,16.88,33.28,18.36,36.61,6.43,14.23,6.69,15.13-.35,8.6-2.66,13.22S365,326.08,361.94,334.57s-.95,16.55,5.15,22.19,17.17,5.46,22.15,5.72,29.59-1.13,29.59-1.13a102.21,102.21,0,0,0,1.43-27.65c-1.27-15.56-1.56-17.13-1.57-23.46s-1.41-24.83-1.41-24.83,8.63-22.72,10.69-28.23,12.07-21.49,12.76-27,9.62-32.48,9.62-32.48,5.81-1.81,6.23-2.73,1.6-5.26,1.8-6-6.22-2.92-7.59-3.32S445.55,190.7,445,193s-6.43,15.17-9.84,20.51-7.84,13.87-9.25,18.44l-2.82,9.16-15.87,22.54-2.82,3.28S396.46,273.09,387.68,268.22Z" style="fill:#fff;stroke:#263238;stroke-linecap:round;stroke-linejoin:round"></path><path d="M330.71,209.79c2.28.36,7.3,1.75,7.3,1.75s13,27.55,16.38,32c2.15,2.84,8.57,15.89,13.24,25.68l11.64-8.73c-2.26-2.3-4.29-4.62-5-6.18-2-4.22-11-22.19-16-28.79s-15-19.78-15.7-20.43-1.21-2-3.09-3.73-7.39-4-9.21-4.4-3,5.77-3.3,8.27S328.43,209.42,330.71,209.79Z" style="fill:#fff;stroke:#263238;stroke-linecap:round;stroke-linejoin:round"></path><path d="M450.35,197.75s5.81-1.81,6.23-2.73,1.6-5.26,1.8-6-6.22-2.92-7.59-3.32S445.55,190.7,445,193s-6.43,15.17-9.84,20.51-7.84,13.87-9.25,18.44l-2.82,9.16-13.12,18.63,15.63,3.86c1-2.75,1.91-5.07,2.41-6.4,2-5.5,12.07-21.49,12.76-27S450.35,197.75,450.35,197.75Z" style="fill:#fff;stroke:#263238;stroke-linecap:round;stroke-linejoin:round"></path><path d="M387.59,254.2l.09,14s4.36,7.75,8.87,7.35,7.81-8.66,7.81-8.66l-2-10.78S391.77,257,387.59,254.2Z" style="fill:#fff;stroke:#263238;stroke-linecap:round;stroke-linejoin:round"></path><path d="M391.69,226.19a5.65,5.65,0,0,0-5.33,2.3c-2,2.87-1.22,4.77-1.76,8.81a11.53,11.53,0,0,1-5.82,7.91,40.32,40.32,0,0,0-4.62,2.45s.84,3.81,2.47,5.15,4.17-.51,4.17-.51,4.55,4.54,8.81,6.3,12.68,2.66,16-2.88,1.09-17-.34-22.53-3.73-6.15-3.73-6.15S395.09,223.79,391.69,226.19Z" style="fill:#fff;stroke:#263238;stroke-linecap:round;stroke-linejoin:round"></path><path d="M387.89,241.19a4.14,4.14,0,0,1,5-2.46" style="fill:none;stroke:#263238;stroke-linecap:round;stroke-linejoin:round"></path><path d="M399.61,236.72s2-2,3.82-.49" style="fill:none;stroke:#263238;stroke-linecap:round;stroke-linejoin:round"></path><path d="M397.31,236.11a16.94,16.94,0,0,0,3.45,3.36c1.61,1,3.2,1.46,2.56,2.88s-2.39,1.49-3.45,1.35" style="fill:none;stroke:#263238;stroke-linecap:round;stroke-linejoin:round"></path><path d="M401.75,247a7.32,7.32,0,0,1-8.09-1.26s.2,5.23,3,5.13S401.75,247,401.75,247Z" style="fill:#263238;stroke:#263238;stroke-linecap:round;stroke-linejoin:round"></path><path d="M395.32,239a5.41,5.41,0,1,0-5.2,5.62A5.41,5.41,0,0,0,395.32,239Z" style="fill:none;stroke:#263238;stroke-linecap:round;stroke-linejoin:round"></path><path d="M408.25,234.29a5.41,5.41,0,1,0-5.2,5.62A5.42,5.42,0,0,0,408.25,234.29Z" style="fill:none;stroke:#263238;stroke-linecap:round;stroke-linejoin:round"></path><line x1="384.93" y1="241.48" x2="378.78" y2="245.21" style="fill:none;stroke:#263238;stroke-linecap:round;stroke-linejoin:round"></line><path d="M395.05,237.49a1.55,1.55,0,0,1,2.83-.79" style="fill:none;stroke:#263238;stroke-linecap:round;stroke-linejoin:round"></path><path d="M385.62,233.43s1.19-3.9,4.71-3.86" style="fill:none;stroke:#263238;stroke-linecap:round;stroke-linejoin:round"></path><path d="M398.67,227.74a4.32,4.32,0,0,1,5.07,1" style="fill:none;stroke:#263238;stroke-linecap:round;stroke-linejoin:round"></path><path d="M332.87,196.1s-4.12-2.48-5-1.95-1.76,3.21-1,3.94,5.18.56,5.93.65S332.87,196.1,332.87,196.1Z" style="fill:#fff;stroke:#263238;stroke-linecap:round;stroke-linejoin:round"></path><path d="M333.43,197.71s-5.71-1.54-6.45-1.13-1.27,2.94-1.11,3.81,5.58,1.3,6.95.87S334.89,199.54,333.43,197.71Z" style="fill:#fff;stroke:#263238;stroke-linecap:round;stroke-linejoin:round"></path><path d="M335.43,200.53s-7.35-1.48-8.46-.81-1.35.93-1.29,2.31,0,3.5,1.24,3.15,7.29-.45,7.88-1.36A8.75,8.75,0,0,0,335.43,200.53Z" style="fill:#fff;stroke:#263238;stroke-linecap:round;stroke-linejoin:round"></path><path d="M328.34,209.1s-2.25-2.93-2.28-3.69,1-2.93,1.77-3.08,7.32.85,7,1.49,0,1-1.46,1.19-3,.49-3,.49a43.13,43.13,0,0,0,4.32,1.22" style="fill:#fff;stroke:#263238;stroke-linecap:round;stroke-linejoin:round"></path><path d="M342.52,205a45.74,45.74,0,0,1-2.07-4.83c-.44-1.49-6.37-5.29-7.27-5.76s-1.91,6-1.84,7.62,1.11,2.85,1.71,2a14.36,14.36,0,0,0,1.13-3.19,10.5,10.5,0,0,0,1.64,3.46,5.69,5.69,0,0,0,3.33,1.38" style="fill:#fff;stroke:#263238;stroke-linecap:round;stroke-linejoin:round"></path><path d="M452.88,184.75s3.53-2.52,4.35-2.1,1.8,2.77,1.15,3.48-4.62.85-5.3,1S452.88,184.75,452.88,184.75Z" style="fill:#fff;stroke:#263238;stroke-linecap:round;stroke-linejoin:round"></path><path d="M452.48,186.24s5-1.78,5.73-1.47,1.35,2.56,1.27,3.36-4.94,1.55-6.2,1.26S451.3,188,452.48,186.24Z" style="fill:#fff;stroke:#263238;stroke-linecap:round;stroke-linejoin:round"></path><path d="M450.88,188.91s6.51-1.84,7.56-1.31,1.27.75,1.32,2,.26,3.15-.9,2.92-6.59.1-7.19-.68A7.74,7.74,0,0,1,450.88,188.91Z" style="fill:#fff;stroke:#263238;stroke-linecap:round;stroke-linejoin:round"></path><path d="M453.76,196.39s5.92-3,5.89-3.73-1.12-2.56-1.8-2.65-6.54,1.27-6.18,1.82,0,.91,1.4,1,2.74.24,2.74.24a38.56,38.56,0,0,1-3.81,1.39" style="fill:#fff;stroke:#263238;stroke-linecap:round;stroke-linejoin:round"></path><path d="M444.81,193.46a41.84,41.84,0,0,0,1.53-4.49c.29-1.37,5.36-5.2,6.14-5.68s2.13,5.25,2.19,6.73-.81,2.64-1.41,1.87a13.26,13.26,0,0,1-1.24-2.8,9.53,9.53,0,0,1-1.24,3.23,5.09,5.09,0,0,1-2.9,1.48" style="fill:#fff;stroke:#263238;stroke-linecap:round;stroke-linejoin:round"></path><path d="M418.88,247l-11.7,16.62-2.82,3.28s-7.9,6.18-16.68,1.31c0,0-11.46-9.74-13.43-14-.49-1-1.41-2.94-2.61-5.3a28.56,28.56,0,0,0-10.1,7.69c4.85,9.73,10.3,21.4,11.21,23.45,1.49,3.34,6.43,14.23,6.69,15.13s-.35,8.6-2.66,13.22c-1.71,3.4-7.31,11.4-11.36,18.77,23.27,10.33,45.87,5.79,54.58,3.33-1.05-12.65-1.3-14.44-1.31-20.31,0-6.34.84-31.31.84-31.31s6.38-16.24,8.44-21.75c.23-.63.57-1.4,1-2.27C425.76,249.94,422,247.83,418.88,247Z" style="fill:#92E3A9;stroke:#263238;stroke-linecap:round;stroke-linejoin:round"></path><path d="M386.29,270.94s6.88,10.33,15.3,13.77" style="fill:none;stroke:#263238;stroke-linecap:round;stroke-linejoin:round"></path><path d="M407.18,263.63a15.89,15.89,0,0,1-2.16,9" style="fill:none;stroke:#263238;stroke-linecap:round;stroke-linejoin:round"></path><path d="M395.4,294.93a23.49,23.49,0,0,0,2.75,2.79" style="fill:none;stroke:#263238;stroke-linecap:round;stroke-linejoin:round"></path><path d="M384.37,275.53s4,9.89,9.24,17.11" style="fill:none;stroke:#263238;stroke-linecap:round;stroke-linejoin:round"></path><path d="M382,345.27s34.19,1.7,36.84,6.51,9.37,52.34,10.66,57.48,4,11.05,4.81,11.56,19.93-7.31,19.74-5.12-5.7,8.13-10.42,13.23-10,8.85-11.41,8.63-8.46-14.15-14.06-24.86-10.46-16.53-13.88-27.32a96.66,96.66,0,0,1-3.85-22.25s-20.06,3.77-28.73-1.36-13.07-13.42-9.89-23.1" style="fill:#fff;stroke:#263238;stroke-linecap:round;stroke-linejoin:round"></path><path d="M434.32,420.82c-.84-.51-3.52-6.42-4.81-11.56-.18-.7-.46-2.21-.82-4.28a30.13,30.13,0,0,0-10.75,7.29l.23.43c5.6,10.71,12.68,24.64,14.06,24.86s6.69-3.54,11.41-8.63,10.23-11,10.42-13.23S435.16,421.33,434.32,420.82Z" style="fill:#fff;stroke:#263238;stroke-linecap:round;stroke-linejoin:round"></path><path d="M431.78,423.4a10.35,10.35,0,0,0,1.26,3.87l-4.9,4.24c2,3.55,3.52,6,4.09,6.05,1.37.22,6.69-3.54,11.41-8.63s10.23-11,10.42-13.23-18.9,5.63-19.74,5.12C434.32,420.82,431.4,420.9,431.78,423.4Z" style="fill:#92E3A9;stroke:#263238;stroke-linecap:round;stroke-linejoin:round"></path><path d="M453.78,415.37c-13.38,14-19.89,18.95-22.91,20.68.62.91,1.1,1.47,1.36,1.51,1.37.22,6.69-3.54,11.41-8.63s10.23-11,10.42-13.23C454.07,415.53,454,415.43,453.78,415.37Z" style="fill:#fff;stroke:#263238;stroke-linecap:round;stroke-linejoin:round"></path><polygon points="407.43 348.87 381.68 341.19 426.36 336.44 450.87 344.26 407.43 348.87" style="fill:#d1d1d1;stroke:#263238;stroke-linecap:round;stroke-linejoin:round"></polygon><polygon points="450.87 344.26 407.43 348.87 414.81 316.47 459.64 314.17 450.87 344.26" style="fill:#d1d1d1;stroke:#263238;stroke-linecap:round;stroke-linejoin:round"></polygon></g><g id="freepik--Thesis--inject-54"><path d="M324.18,231.69l.07-3.3-.95,2.11-.75-1V225l-2.45-.38-.19-2.26-1.32-.38v-2.45l-1.69-.37v-2.64l-2.83-.57-.57-1.32-2.46-.76h0l-73.11,16.08-76.25-6.5s-5,39.29-10.52,74.86-30,125-30,125l-5.2,6.4,1.94,2.71-1,.79,2.19.92,1.07,1.48-.43,1.18,1.93.91,1.06,1.47-.35,1.39,2,1,.82,1.14-1,1.67,3.12,1.33,1.19,1.64-.92,1.37,3,1.49,1,1.41-.58.68h1.08l1,1.33s99.58,1,157.68-.52c0,0,22.83-117.77,27.5-153s7.26-66.41,7.26-66.41Z" style="fill:#fff;stroke:#263238;stroke-linecap:round;stroke-linejoin:round"></path><path d="M156.93,217s-4.15,61.22-14.53,107.39S116,429.67,116,429.67s98.39,1.39,156.49-.16c0,0,26.67-114,31.33-149.25s7.27-66.4,7.27-66.4S172,219.56,156.93,217Z" style="fill:#92E3A9;stroke:#263238;stroke-linecap:round;stroke-linejoin:round"></path><line x1="127.25" y1="439.8" x2="190.56" y2="442.57" style="fill:none;stroke:#263238;stroke-linecap:round;stroke-linejoin:round"></line><line x1="174.67" y1="439.94" x2="196.51" y2="440.89" style="fill:none;stroke:#263238;stroke-linecap:round;stroke-linejoin:round"></line><line x1="255.15" y1="446.21" x2="220.01" y2="446.4" style="fill:none;stroke:#263238;stroke-linecap:round;stroke-linejoin:round"></line><line x1="282.22" y1="449.46" x2="262.37" y2="449.43" style="fill:none;stroke:#263238;stroke-linecap:round;stroke-linejoin:round"></line><path d="M277.19,436s5.7,9.69,11.4,15.38" style="fill:none;stroke:#263238;stroke-linecap:round;stroke-linejoin:round"></path><polyline points="284.98 430.44 282.32 443.55 263.72 443.68" style="fill:none;stroke:#263238;stroke-linecap:round;stroke-linejoin:round"></polyline><line x1="288.78" y1="423.22" x2="284.79" y2="440.32" style="fill:none;stroke:#263238;stroke-linecap:round;stroke-linejoin:round"></line><line x1="276.43" y1="438.99" x2="239.76" y2="439.37" style="fill:none;stroke:#263238;stroke-linecap:round;stroke-linejoin:round"></line><path d="M318,229.63s-4.74,50.15-7,66.3" style="fill:none;stroke:#263238;stroke-linecap:round;stroke-linejoin:round"></path><line x1="321.45" y1="228.68" x2="320.12" y2="243.69" style="fill:none;stroke:#263238;stroke-linecap:round;stroke-linejoin:round"></line><path d="M309.3,279.21s-3.61,29.07-7,46.36" style="fill:none;stroke:#263238;stroke-linecap:round;stroke-linejoin:round"></path><line x1="257.55" y1="449.46" x2="242.91" y2="449.46" style="fill:none;stroke:#263238;stroke-linecap:round;stroke-linejoin:round"></line><path d="M127.05,444.45s39.32,1.92,40.47,1.92" style="fill:none;stroke:#263238;stroke-linecap:round;stroke-linejoin:round"></path><line x1="147.48" y1="436.74" x2="159.81" y2="437.12" style="fill:none;stroke:#263238;stroke-linecap:round;stroke-linejoin:round"></line><path d="M302.27,369.67s-8.87,46.25-11.57,57.82" style="fill:none;stroke:#263238;stroke-linecap:round;stroke-linejoin:round"></path><path d="M176.29,312.36l4.39-24.72h-4.37l.86-4.85,15.17,0-.86,4.86h-4.34l-4.4,24.71Z" style="fill:#263238"></path><path d="M189.73,312.33,195,282.76l6.41,0-2.13,12h4.48l2.14-12h6.45l-5.26,29.57h-6.46l2.3-12.92h-4.48l-2.3,12.92Z" style="fill:#263238"></path><path d="M211.5,312.28l5.26-29.57,13.05,0-.79,4.45-6.64,0-1.3,7.34h5l-.8,4.52h-5.06l-1.57,8.84,6.7,0-.78,4.42Z" style="fill:#263238"></path><path d="M235.15,312.67a8.55,8.55,0,0,1-4.37-1,4.81,4.81,0,0,1-2.22-3,13.34,13.34,0,0,1-.09-5.35l5.63-.85a13.12,13.12,0,0,0-.2,3.07,2.79,2.79,0,0,0,.56,1.67,1.62,1.62,0,0,0,1.26.51,1.56,1.56,0,0,0,1.43-.69,4.26,4.26,0,0,0,.56-1.47,4.84,4.84,0,0,0-.31-3.08,10.27,10.27,0,0,0-1.88-2.53l-2.11-2.22a11,11,0,0,1-2.21-3.23,7.63,7.63,0,0,1-.33-4.47,9,9,0,0,1,3.21-5.75,10,10,0,0,1,6.31-2,6.81,6.81,0,0,1,3.6.8,4.28,4.28,0,0,1,1.78,2.09,7.67,7.67,0,0,1,.52,2.74,18.89,18.89,0,0,1-.19,2.76l-5.65.7a20.44,20.44,0,0,0,.25-2.28,2.84,2.84,0,0,0-.25-1.5,1.19,1.19,0,0,0-1.13-.52,1.68,1.68,0,0,0-1.44.77,3.72,3.72,0,0,0-.69,1.53,4,4,0,0,0,.29,2.68,11.35,11.35,0,0,0,1.64,2.17l2,2.15a12.83,12.83,0,0,1,2.55,3.72,8.76,8.76,0,0,1,.39,5.14,9.09,9.09,0,0,1-1.6,3.78,8.9,8.9,0,0,1-3.12,2.69A9,9,0,0,1,235.15,312.67Z" style="fill:#263238"></path><path d="M245.42,312.21l5.26-29.58h6.42l-5.27,29.57Z" style="fill:#263238"></path><path d="M263.8,312.6a8.51,8.51,0,0,1-4.38-1,4.85,4.85,0,0,1-2.21-3.05,13.29,13.29,0,0,1-.09-5.34l5.63-.85a13,13,0,0,0-.2,3.06,2.79,2.79,0,0,0,.56,1.68,1.61,1.61,0,0,0,1.25.51,1.58,1.58,0,0,0,1.44-.7,4.21,4.21,0,0,0,.56-1.46,4.83,4.83,0,0,0-.31-3.08,10.53,10.53,0,0,0-1.88-2.53l-2.11-2.23a10.94,10.94,0,0,1-2.21-3.22,7.55,7.55,0,0,1-.33-4.47,9,9,0,0,1,3.21-5.76,10,10,0,0,1,6.31-2,6.72,6.72,0,0,1,3.6.8,4.28,4.28,0,0,1,1.78,2.09,7.62,7.62,0,0,1,.51,2.74,17.41,17.41,0,0,1-.18,2.75l-5.65.71a21,21,0,0,0,.25-2.28,2.8,2.8,0,0,0-.25-1.5A1.2,1.2,0,0,0,268,287a1.74,1.74,0,0,0-1.45.77,4.24,4.24,0,0,0-.39,4.22,11.67,11.67,0,0,0,1.64,2.17l2,2.15a12.92,12.92,0,0,1,2.55,3.71,8.79,8.79,0,0,1,.39,5.15,9.11,9.11,0,0,1-4.72,6.47A8.87,8.87,0,0,1,263.8,312.6Z" style="fill:#263238"></path><path d="M168,236.47a4.19,4.19,0,1,0-4.19,4.18A4.2,4.2,0,0,0,168,236.47Z" style="fill:#fff;stroke:#263238;stroke-linecap:round;stroke-linejoin:round"></path><path d="M162.79,276.36a4.19,4.19,0,1,0-4.18,4.18A4.19,4.19,0,0,0,162.79,276.36Z" style="fill:#fff;stroke:#263238;stroke-linecap:round;stroke-linejoin:round"></path><path d="M156.24,316.25a4.19,4.19,0,1,0-4.18,4.19A4.18,4.18,0,0,0,156.24,316.25Z" style="fill:#fff;stroke:#263238;stroke-linecap:round;stroke-linejoin:round"></path><path d="M146.64,356.14a4.19,4.19,0,1,0-4.19,4.19A4.19,4.19,0,0,0,146.64,356.14Z" style="fill:#fff;stroke:#263238;stroke-linecap:round;stroke-linejoin:round"></path><circle cx="133.97" cy="396.03" r="4.18" style="fill:#fff;stroke:#263238;stroke-linecap:round;stroke-linejoin:round"></circle><path d="M127.18,387.81a8.5,8.5,0,0,0-8.41,8.58,8.68,8.68,0,0,0,4,7.33l.91-3.18a5.6,5.6,0,0,1-1.84-4.15,5.32,5.32,0,1,1,10.64,0,1.55,1.55,0,1,0,3.09,0A8.5,8.5,0,0,0,127.18,387.81Z" style="fill:#8c8c8c;stroke:#263238;stroke-linecap:round;stroke-linejoin:round"></path><path d="M135.66,347.91a8.61,8.61,0,0,0-2.8,16.68l.67-3.07a5.5,5.5,0,0,1-3.19-5,5.32,5.32,0,1,1,10.63,0,1.55,1.55,0,0,0,3.1,0A8.51,8.51,0,0,0,135.66,347.91Z" style="fill:#8c8c8c;stroke:#263238;stroke-linecap:round;stroke-linejoin:round"></path><path d="M145.26,308a8.51,8.51,0,0,0-8.41,8.59,8.61,8.61,0,0,0,5.5,8.05l.66-3.1a5.51,5.51,0,0,1-3.07-4.95,5.32,5.32,0,1,1,10.64,0,1.55,1.55,0,0,0,3.1,0A8.52,8.52,0,0,0,145.26,308Z" style="fill:#8c8c8c;stroke:#263238;stroke-linecap:round;stroke-linejoin:round"></path><path d="M151.81,268.13A8.6,8.6,0,0,0,149.55,285l.46-3.11a5.49,5.49,0,0,1-3.52-5.15,5.32,5.32,0,1,1,10.64,0,1.55,1.55,0,0,0,3.1,0A8.52,8.52,0,0,0,151.81,268.13Z" style="fill:#8c8c8c;stroke:#263238;stroke-linecap:round;stroke-linejoin:round"></path><path d="M157,228.24a8.51,8.51,0,0,0-8.42,8.58,8.62,8.62,0,0,0,5.68,8.12l.39-3.21a5.53,5.53,0,0,1-3-4.91,5.32,5.32,0,1,1,10.64,0,1.55,1.55,0,1,0,3.09,0A8.5,8.5,0,0,0,157,228.24Z" style="fill:#8c8c8c;stroke:#263238;stroke-linecap:round;stroke-linejoin:round"></path></g></svg>
